solid OpenSCAD_Model
  facet normal 1 -0 0
    outer loop
      vertex 22.5 -22.5 11.25
      vertex 22.5 22.5 -11.25
      vertex 22.5 22.5 11.25
    endloop
  endfacet
  facet normal 1 0 0
    outer loop
      vertex 22.5 22.5 -11.25
      vertex 22.5 -22.5 11.25
      vertex 22.5 -22.5 -11.25
    endloop
  endfacet
  facet normal 0 0 1
    outer loop
      vertex -6 22.5 11.25
      vertex -20.5 20.5 11.25
      vertex -6 20.5 11.25
    endloop
  endfacet
  facet normal 0 0 1
    outer loop
      vertex -20.5 20.5 11.25
      vertex -22.5 22.5 11.25
      vertex -20.5 -20.5 11.25
    endloop
  endfacet
  facet normal -0 0 1
    outer loop
      vertex -22.5 22.5 11.25
      vertex -20.5 20.5 11.25
      vertex -6 22.5 11.25
    endloop
  endfacet
  facet normal 0 0 1
    outer loop
      vertex 22.5 22.5 11.25
      vertex 20.5 20.5 11.25
      vertex 22.5 -22.5 11.25
    endloop
  endfacet
  facet normal -0 0 1
    outer loop
      vertex 6 22.5 11.25
      vertex 20.5 20.5 11.25
      vertex 22.5 22.5 11.25
    endloop
  endfacet
  facet normal 0 0 1
    outer loop
      vertex 20.5 20.5 11.25
      vertex 6 22.5 11.25
      vertex 6 20.5 11.25
    endloop
  endfacet
  facet normal -0 0 1
    outer loop
      vertex 20.5 -20.5 11.25
      vertex 22.5 -22.5 11.25
      vertex 20.5 20.5 11.25
    endloop
  endfacet
  facet normal -0 0 1
    outer loop
      vertex -20.5 -20.5 11.25
      vertex 22.5 -22.5 11.25
      vertex 20.5 -20.5 11.25
    endloop
  endfacet
  facet normal 0 0 1
    outer loop
      vertex -20.5 -20.5 11.25
      vertex -22.5 -22.5 11.25
      vertex 22.5 -22.5 11.25
    endloop
  endfacet
  facet normal 0 0 1
    outer loop
      vertex -22.5 -22.5 11.25
      vertex -20.5 -20.5 11.25
      vertex -22.5 22.5 11.25
    endloop
  endfacet
  facet normal 0 0 -1
    outer loop
      vertex -22.5 -22.5 -11.25
      vertex 22.5 22.5 -11.25
      vertex 22.5 -22.5 -11.25
    endloop
  endfacet
  facet normal -0 0 -1
    outer loop
      vertex 22.5 22.5 -11.25
      vertex -22.5 -22.5 -11.25
      vertex -22.5 22.5 -11.25
    endloop
  endfacet
  facet normal -1 0 0
    outer loop
      vertex -22.5 -22.5 -11.25
      vertex -22.5 22.5 11.25
      vertex -22.5 22.5 -11.25
    endloop
  endfacet
  facet normal -1 -0 0
    outer loop
      vertex -22.5 22.5 11.25
      vertex -22.5 -22.5 -11.25
      vertex -22.5 -22.5 11.25
    endloop
  endfacet
  facet normal 0 1 0
    outer loop
      vertex 22.5 22.5 11.25
      vertex 6 22.5 2.5
      vertex 6 22.5 11.25
    endloop
  endfacet
  facet normal 0 1 0
    outer loop
      vertex 6 22.5 2.5
      vertex 22.5 22.5 -11.25
      vertex -6 22.5 2.5
    endloop
  endfacet
  facet normal 0 1 -0
    outer loop
      vertex 22.5 22.5 -11.25
      vertex 6 22.5 2.5
      vertex 22.5 22.5 11.25
    endloop
  endfacet
  facet normal 0 1 -0
    outer loop
      vertex -6 22.5 2.5
      vertex -22.5 22.5 11.25
      vertex -6 22.5 11.25
    endloop
  endfacet
  facet normal 0 1 0
    outer loop
      vertex -6 22.5 2.5
      vertex -22.5 22.5 -11.25
      vertex -22.5 22.5 11.25
    endloop
  endfacet
  facet normal 0 1 0
    outer loop
      vertex -22.5 22.5 -11.25
      vertex -6 22.5 2.5
      vertex 22.5 22.5 -11.25
    endloop
  endfacet
  facet normal 0 -1 0
    outer loop
      vertex -22.5 -22.5 -11.25
      vertex 22.5 -22.5 11.25
      vertex -22.5 -22.5 11.25
    endloop
  endfacet
  facet normal 0 -1 -0
    outer loop
      vertex 22.5 -22.5 11.25
      vertex -22.5 -22.5 -11.25
      vertex 22.5 -22.5 -11.25
    endloop
  endfacet
  facet normal -1 0 0
    outer loop
      vertex 20.5 -20.5 -8.25
      vertex 20.5 20.5 11.25
      vertex 20.5 20.5 -8.25
    endloop
  endfacet
  facet normal -1 -0 0
    outer loop
      vertex 20.5 20.5 11.25
      vertex 20.5 -20.5 -8.25
      vertex 20.5 -20.5 11.25
    endloop
  endfacet
  facet normal -0 0 1
    outer loop
      vertex -20.5 20.5 -8.25
      vertex 20.5 -20.5 -8.25
      vertex 20.5 20.5 -8.25
    endloop
  endfacet
  facet normal 0 0 1
    outer loop
      vertex 20.5 -20.5 -8.25
      vertex -20.5 20.5 -8.25
      vertex -20.5 -20.5 -8.25
    endloop
  endfacet
  facet normal 1 -0 0
    outer loop
      vertex -20.5 -20.5 11.25
      vertex -20.5 20.5 -8.25
      vertex -20.5 20.5 11.25
    endloop
  endfacet
  facet normal 1 0 0
    outer loop
      vertex -20.5 20.5 -8.25
      vertex -20.5 -20.5 11.25
      vertex -20.5 -20.5 -8.25
    endloop
  endfacet
  facet normal 0 -1 0
    outer loop
      vertex -20.5 20.5 11.25
      vertex -6 20.5 2.5
      vertex -6 20.5 11.25
    endloop
  endfacet
  facet normal 0 -1 -0
    outer loop
      vertex -6 20.5 2.5
      vertex -20.5 20.5 -8.25
      vertex 6 20.5 2.5
    endloop
  endfacet
  facet normal 0 -1 0
    outer loop
      vertex -20.5 20.5 -8.25
      vertex -6 20.5 2.5
      vertex -20.5 20.5 11.25
    endloop
  endfacet
  facet normal 0 -1 0
    outer loop
      vertex 6 20.5 2.5
      vertex 20.5 20.5 11.25
      vertex 6 20.5 11.25
    endloop
  endfacet
  facet normal 0 -1 0
    outer loop
      vertex 6 20.5 2.5
      vertex 20.5 20.5 -8.25
      vertex 20.5 20.5 11.25
    endloop
  endfacet
  facet normal 0 -1 0
    outer loop
      vertex 20.5 20.5 -8.25
      vertex 6 20.5 2.5
      vertex -20.5 20.5 -8.25
    endloop
  endfacet
  facet normal 0 1 -0
    outer loop
      vertex 20.5 -20.5 -8.25
      vertex -20.5 -20.5 11.25
      vertex 20.5 -20.5 11.25
    endloop
  endfacet
  facet normal 0 1 0
    outer loop
      vertex -20.5 -20.5 11.25
      vertex 20.5 -20.5 -8.25
      vertex -20.5 -20.5 -8.25
    endloop
  endfacet
  facet normal -1 0 0
    outer loop
      vertex 6 20.5 2.5
      vertex 6 22.5 11.25
      vertex 6 22.5 2.5
    endloop
  endfacet
  facet normal -1 -0 0
    outer loop
      vertex 6 22.5 11.25
      vertex 6 20.5 2.5
      vertex 6 20.5 11.25
    endloop
  endfacet
  facet normal -0 0 1
    outer loop
      vertex -6 22.5 2.5
      vertex 6 20.5 2.5
      vertex 6 22.5 2.5
    endloop
  endfacet
  facet normal 0 0 1
    outer loop
      vertex 6 20.5 2.5
      vertex -6 22.5 2.5
      vertex -6 20.5 2.5
    endloop
  endfacet
  facet normal 1 -0 0
    outer loop
      vertex -6 20.5 11.25
      vertex -6 22.5 2.5
      vertex -6 22.5 11.25
    endloop
  endfacet
  facet normal 1 0 0
    outer loop
      vertex -6 22.5 2.5
      vertex -6 20.5 11.25
      vertex -6 20.5 2.5
    endloop
  endfacet
endsolid OpenSCAD_Model
