solid OpenSCAD_Model
  facet normal 1 -0 0
    outer loop
      vertex 20 -20 10
      vertex 20 20 -10
      vertex 20 20 10
    endloop
  endfacet
  facet normal 1 0 0
    outer loop
      vertex 20 20 -10
      vertex 20 -20 10
      vertex 20 -20 -10
    endloop
  endfacet
  facet normal 0 0 1
    outer loop
      vertex -6 20 10
      vertex -18 18 10
      vertex -6 18 10
    endloop
  endfacet
  facet normal 0 0 1
    outer loop
      vertex -18 18 10
      vertex -20 20 10
      vertex -18 -18 10
    endloop
  endfacet
  facet normal -0 0 1
    outer loop
      vertex -20 20 10
      vertex -18 18 10
      vertex -6 20 10
    endloop
  endfacet
  facet normal 0 0 1
    outer loop
      vertex 20 20 10
      vertex 18 18 10
      vertex 20 -20 10
    endloop
  endfacet
  facet normal -0 0 1
    outer loop
      vertex 6 20 10
      vertex 18 18 10
      vertex 20 20 10
    endloop
  endfacet
  facet normal 0 0 1
    outer loop
      vertex 18 18 10
      vertex 6 20 10
      vertex 6 18 10
    endloop
  endfacet
  facet normal -0 0 1
    outer loop
      vertex 18 -18 10
      vertex 20 -20 10
      vertex 18 18 10
    endloop
  endfacet
  facet normal -0 0 1
    outer loop
      vertex -18 -18 10
      vertex 20 -20 10
      vertex 18 -18 10
    endloop
  endfacet
  facet normal 0 0 1
    outer loop
      vertex -18 -18 10
      vertex -20 -20 10
      vertex 20 -20 10
    endloop
  endfacet
  facet normal 0 0 1
    outer loop
      vertex -20 -20 10
      vertex -18 -18 10
      vertex -20 20 10
    endloop
  endfacet
  facet normal 0 0 -1
    outer loop
      vertex -20 -20 -10
      vertex 20 20 -10
      vertex 20 -20 -10
    endloop
  endfacet
  facet normal -0 0 -1
    outer loop
      vertex 20 20 -10
      vertex -20 -20 -10
      vertex -20 20 -10
    endloop
  endfacet
  facet normal -1 0 0
    outer loop
      vertex -20 -20 -10
      vertex -20 20 10
      vertex -20 20 -10
    endloop
  endfacet
  facet normal -1 -0 0
    outer loop
      vertex -20 20 10
      vertex -20 -20 -10
      vertex -20 -20 10
    endloop
  endfacet
  facet normal 0 1 0
    outer loop
      vertex 20 20 10
      vertex 15 20 8.24264
      vertex 6 20 10
    endloop
  endfacet
  facet normal 0 1 0
    outer loop
      vertex 20 20 10
      vertex 15 20 5.75736
      vertex 15 20 8.24264
    endloop
  endfacet
  facet normal 0 1 0
    outer loop
      vertex 15 20 5.75736
      vertex 6 20 0
      vertex 10 20 5.75736
    endloop
  endfacet
  facet normal 0 1 0
    outer loop
      vertex 6 20 0
      vertex 20 20 -10
      vertex -6 20 0
    endloop
  endfacet
  facet normal 0 1 0
    outer loop
      vertex 15 20 5.75736
      vertex 20 20 -10
      vertex 6 20 0
    endloop
  endfacet
  facet normal 0 1 -0
    outer loop
      vertex 20 20 -10
      vertex 15 20 5.75736
      vertex 20 20 10
    endloop
  endfacet
  facet normal 0 1 -0
    outer loop
      vertex 10 20 8.24264
      vertex 6 20 10
      vertex 15 20 8.24264
    endloop
  endfacet
  facet normal 0 1 -0
    outer loop
      vertex 10 20 5.75736
      vertex 6 20 10
      vertex 10 20 8.24264
    endloop
  endfacet
  facet normal 0 1 0
    outer loop
      vertex 6 20 10
      vertex 10 20 5.75736
      vertex 6 20 0
    endloop
  endfacet
  facet normal 0 1 0
    outer loop
      vertex -12.5 20 8.24264
      vertex -6 20 10
      vertex -7.5 20 8.24264
    endloop
  endfacet
  facet normal 0 1 0
    outer loop
      vertex -6 20 10
      vertex -7.5 20 5.75736
      vertex -7.5 20 8.24264
    endloop
  endfacet
  facet normal 0 1 0
    outer loop
      vertex -7.5 20 5.75736
      vertex -6 20 0
      vertex -12.5 20 5.75736
    endloop
  endfacet
  facet normal 0 1 -0
    outer loop
      vertex -6 20 0
      vertex -7.5 20 5.75736
      vertex -6 20 10
    endloop
  endfacet
  facet normal 0 1 0
    outer loop
      vertex -6 20 10
      vertex -12.5 20 8.24264
      vertex -20 20 10
    endloop
  endfacet
  facet normal 0 1 -0
    outer loop
      vertex -12.5 20 5.75736
      vertex -20 20 10
      vertex -12.5 20 8.24264
    endloop
  endfacet
  facet normal 0 1 0
    outer loop
      vertex -20 20 -10
      vertex -12.5 20 5.75736
      vertex -6 20 0
    endloop
  endfacet
  facet normal 0 1 0
    outer loop
      vertex -12.5 20 5.75736
      vertex -20 20 -10
      vertex -20 20 10
    endloop
  endfacet
  facet normal 0 1 0
    outer loop
      vertex -20 20 -10
      vertex -6 20 0
      vertex 20 20 -10
    endloop
  endfacet
  facet normal 0 -1 0
    outer loop
      vertex -7.5 -20 5.5
      vertex 10 -20 8.5
      vertex -7.5 -20 8.5
    endloop
  endfacet
  facet normal 0 -1 -0
    outer loop
      vertex 10 -20 8.5
      vertex -7.5 -20 5.5
      vertex 10 -20 5.5
    endloop
  endfacet
  facet normal 0 -1 0
    outer loop
      vertex -7.5 -20 8.5
      vertex -20 -20 10
      vertex -12.5 -20 8.5
    endloop
  endfacet
  facet normal 0 -1 0
    outer loop
      vertex -20 -20 10
      vertex -12.5 -20 5.5
      vertex -12.5 -20 8.5
    endloop
  endfacet
  facet normal 0 -1 0
    outer loop
      vertex -20 -20 -10
      vertex -7.5 -20 5.5
      vertex -12.5 -20 5.5
    endloop
  endfacet
  facet normal 0 -1 0
    outer loop
      vertex 20 -20 -10
      vertex -7.5 -20 5.5
      vertex -20 -20 -10
    endloop
  endfacet
  facet normal 0 -1 0
    outer loop
      vertex -7.5 -20 5.5
      vertex 20 -20 -10
      vertex 10 -20 5.5
    endloop
  endfacet
  facet normal 0 -1 0
    outer loop
      vertex -20 -20 -10
      vertex -12.5 -20 5.5
      vertex -20 -20 10
    endloop
  endfacet
  facet normal 0 -1 0
    outer loop
      vertex -20 -20 10
      vertex -7.5 -20 8.5
      vertex 20 -20 10
    endloop
  endfacet
  facet normal 0 -1 0
    outer loop
      vertex 10 -20 8.5
      vertex 20 -20 10
      vertex -7.5 -20 8.5
    endloop
  endfacet
  facet normal 0 -1 0
    outer loop
      vertex 15 -20 8.5
      vertex 20 -20 10
      vertex 10 -20 8.5
    endloop
  endfacet
  facet normal 0 -1 0
    outer loop
      vertex 15 -20 5.5
      vertex 20 -20 10
      vertex 15 -20 8.5
    endloop
  endfacet
  facet normal 0 -1 0
    outer loop
      vertex 15 -20 5.5
      vertex 20 -20 -10
      vertex 20 -20 10
    endloop
  endfacet
  facet normal 0 -1 0
    outer loop
      vertex 10 -20 5.5
      vertex 20 -20 -10
      vertex 15 -20 5.5
    endloop
  endfacet
  facet normal -1 0 0
    outer loop
      vertex 18 -18 -7
      vertex 18 18 10
      vertex 18 18 -7
    endloop
  endfacet
  facet normal -1 -0 0
    outer loop
      vertex 18 18 10
      vertex 18 -18 -7
      vertex 18 -18 10
    endloop
  endfacet
  facet normal -0 0 1
    outer loop
      vertex -18 18 -7
      vertex 18 -18 -7
      vertex 18 18 -7
    endloop
  endfacet
  facet normal 0 0 1
    outer loop
      vertex 18 -18 -7
      vertex -18 18 -7
      vertex -18 -18 -7
    endloop
  endfacet
  facet normal 1 -0 0
    outer loop
      vertex -18 -18 10
      vertex -18 18 -7
      vertex -18 18 10
    endloop
  endfacet
  facet normal 1 0 0
    outer loop
      vertex -18 18 -7
      vertex -18 -18 10
      vertex -18 -18 -7
    endloop
  endfacet
  facet normal 0 -1 0
    outer loop
      vertex -18 18 10
      vertex -12.5 18 8
      vertex -6 18 10
    endloop
  endfacet
  facet normal 0 -1 0
    outer loop
      vertex -18 18 10
      vertex -12.5 18 6
      vertex -12.5 18 8
    endloop
  endfacet
  facet normal 0 -1 0
    outer loop
      vertex -12.5 18 6
      vertex -6 18 0
      vertex -7.5 18 6
    endloop
  endfacet
  facet normal 0 -1 0
    outer loop
      vertex -18 18 -7
      vertex -12.5 18 6
      vertex -18 18 10
    endloop
  endfacet
  facet normal 0 -1 -0
    outer loop
      vertex -6 18 0
      vertex -18 18 -7
      vertex 6 18 0
    endloop
  endfacet
  facet normal 0 -1 -0
    outer loop
      vertex -12.5 18 6
      vertex -18 18 -7
      vertex -6 18 0
    endloop
  endfacet
  facet normal 0 -1 0
    outer loop
      vertex -7.5 18 8
      vertex -6 18 10
      vertex -12.5 18 8
    endloop
  endfacet
  facet normal 0 -1 0
    outer loop
      vertex -7.5 18 6
      vertex -6 18 10
      vertex -7.5 18 8
    endloop
  endfacet
  facet normal 0 -1 -0
    outer loop
      vertex -6 18 10
      vertex -7.5 18 6
      vertex -6 18 0
    endloop
  endfacet
  facet normal 0 -1 0
    outer loop
      vertex 6 18 10
      vertex 10 18 8
      vertex 18 18 10
    endloop
  endfacet
  facet normal 0 -1 0
    outer loop
      vertex 6 18 10
      vertex 10 18 6
      vertex 10 18 8
    endloop
  endfacet
  facet normal 0 -1 -0
    outer loop
      vertex 10 18 6
      vertex 6 18 0
      vertex 15 18 6
    endloop
  endfacet
  facet normal 0 -1 0
    outer loop
      vertex 6 18 0
      vertex 10 18 6
      vertex 6 18 10
    endloop
  endfacet
  facet normal 0 -1 0
    outer loop
      vertex 15 18 8
      vertex 18 18 10
      vertex 10 18 8
    endloop
  endfacet
  facet normal 0 -1 0
    outer loop
      vertex 15 18 6
      vertex 18 18 10
      vertex 15 18 8
    endloop
  endfacet
  facet normal 0 -1 0
    outer loop
      vertex 15 18 6
      vertex 18 18 -7
      vertex 18 18 10
    endloop
  endfacet
  facet normal 0 -1 0
    outer loop
      vertex 6 18 0
      vertex 18 18 -7
      vertex 15 18 6
    endloop
  endfacet
  facet normal 0 -1 0
    outer loop
      vertex 18 18 -7
      vertex 6 18 0
      vertex -18 18 -7
    endloop
  endfacet
  facet normal 0 1 -0
    outer loop
      vertex 10 -18 6.25736
      vertex -7.5 -18 7.74264
      vertex 10 -18 7.74264
    endloop
  endfacet
  facet normal 0 1 0
    outer loop
      vertex -7.5 -18 7.74264
      vertex 10 -18 6.25736
      vertex -7.5 -18 6.25736
    endloop
  endfacet
  facet normal 0 1 0
    outer loop
      vertex 10 -18 7.74264
      vertex 18 -18 10
      vertex 15 -18 7.74264
    endloop
  endfacet
  facet normal 0 1 0
    outer loop
      vertex 18 -18 10
      vertex 15 -18 6.25736
      vertex 15 -18 7.74264
    endloop
  endfacet
  facet normal 0 1 0
    outer loop
      vertex 18 -18 -7
      vertex 10 -18 6.25736
      vertex 15 -18 6.25736
    endloop
  endfacet
  facet normal 0 1 0
    outer loop
      vertex 10 -18 6.25736
      vertex 18 -18 -7
      vertex -7.5 -18 6.25736
    endloop
  endfacet
  facet normal 0 1 0
    outer loop
      vertex -18 -18 -7
      vertex -7.5 -18 6.25736
      vertex 18 -18 -7
    endloop
  endfacet
  facet normal 0 1 -0
    outer loop
      vertex 18 -18 -7
      vertex 15 -18 6.25736
      vertex 18 -18 10
    endloop
  endfacet
  facet normal 0 1 0
    outer loop
      vertex -7.5 -18 7.74264
      vertex 18 -18 10
      vertex 10 -18 7.74264
    endloop
  endfacet
  facet normal 0 1 0
    outer loop
      vertex 18 -18 10
      vertex -7.5 -18 7.74264
      vertex -18 -18 10
    endloop
  endfacet
  facet normal 0 1 -0
    outer loop
      vertex -12.5 -18 7.74264
      vertex -18 -18 10
      vertex -7.5 -18 7.74264
    endloop
  endfacet
  facet normal 0 1 -0
    outer loop
      vertex -12.5 -18 6.25736
      vertex -18 -18 10
      vertex -12.5 -18 7.74264
    endloop
  endfacet
  facet normal 0 1 0
    outer loop
      vertex -12.5 -18 6.25736
      vertex -18 -18 -7
      vertex -18 -18 10
    endloop
  endfacet
  facet normal 0 1 0
    outer loop
      vertex -7.5 -18 6.25736
      vertex -18 -18 -7
      vertex -12.5 -18 6.25736
    endloop
  endfacet
  facet normal -1 0 0
    outer loop
      vertex 6 18 0
      vertex 6 20 10
      vertex 6 20 0
    endloop
  endfacet
  facet normal -1 -0 0
    outer loop
      vertex 6 20 10
      vertex 6 18 0
      vertex 6 18 10
    endloop
  endfacet
  facet normal -0 0 1
    outer loop
      vertex -6 20 0
      vertex 6 18 0
      vertex 6 20 0
    endloop
  endfacet
  facet normal 0 0 1
    outer loop
      vertex 6 18 0
      vertex -6 20 0
      vertex -6 18 0
    endloop
  endfacet
  facet normal 1 -0 0
    outer loop
      vertex -6 18 10
      vertex -6 20 0
      vertex -6 20 10
    endloop
  endfacet
  facet normal 1 0 0
    outer loop
      vertex -6 20 0
      vertex -6 18 10
      vertex -6 18 0
    endloop
  endfacet
  facet normal 0 0.707118 -0.707095
    outer loop
      vertex 10 20 5.75736
      vertex 15 21.2426 7
      vertex 15 20 5.75736
    endloop
  endfacet
  facet normal 0 0.707118 -0.707095
    outer loop
      vertex 15 21.2426 7
      vertex 10 20 5.75736
      vertex 10 21.2426 7
    endloop
  endfacet
  facet normal 1 0 0
    outer loop
      vertex 15 20 8.24264
      vertex 15 20 5.75736
      vertex 15 21.2426 7
    endloop
  endfacet
  facet normal 1 0 0
    outer loop
      vertex 15 18 8
      vertex 15 17 7
      vertex 15 18 6
    endloop
  endfacet
  facet normal -1 -0 0
    outer loop
      vertex 10 21.2426 7
      vertex 10 20 5.75736
      vertex 10 20 8.24264
    endloop
  endfacet
  facet normal -1 0 0
    outer loop
      vertex 10 18 6
      vertex 10 17 7
      vertex 10 18 8
    endloop
  endfacet
  facet normal 0 -0.707107 0.707107
    outer loop
      vertex 10 17 7
      vertex 15 18 8
      vertex 10 18 8
    endloop
  endfacet
  facet normal 0 -0.707107 0.707107
    outer loop
      vertex 15 18 8
      vertex 10 17 7
      vertex 15 17 7
    endloop
  endfacet
  facet normal -0 0.707118 0.707095
    outer loop
      vertex 10 21.2426 7
      vertex 15 20 8.24264
      vertex 15 21.2426 7
    endloop
  endfacet
  facet normal 0 0.707118 0.707095
    outer loop
      vertex 15 20 8.24264
      vertex 10 21.2426 7
      vertex 10 20 8.24264
    endloop
  endfacet
  facet normal 0 -0.707107 -0.707107
    outer loop
      vertex 10 18 6
      vertex 15 17 7
      vertex 10 17 7
    endloop
  endfacet
  facet normal 0 -0.707107 -0.707107
    outer loop
      vertex 15 17 7
      vertex 10 18 6
      vertex 15 18 6
    endloop
  endfacet
  facet normal 0 0.707118 -0.707095
    outer loop
      vertex -12.5 20 5.75736
      vertex -7.5 21.2426 7
      vertex -7.5 20 5.75736
    endloop
  endfacet
  facet normal 0 0.707118 -0.707095
    outer loop
      vertex -7.5 21.2426 7
      vertex -12.5 20 5.75736
      vertex -12.5 21.2426 7
    endloop
  endfacet
  facet normal 1 0 0
    outer loop
      vertex -7.5 20 8.24264
      vertex -7.5 20 5.75736
      vertex -7.5 21.2426 7
    endloop
  endfacet
  facet normal 1 0 0
    outer loop
      vertex -7.5 18 8
      vertex -7.5 17 7
      vertex -7.5 18 6
    endloop
  endfacet
  facet normal -1 -0 0
    outer loop
      vertex -12.5 21.2426 7
      vertex -12.5 20 5.75736
      vertex -12.5 20 8.24264
    endloop
  endfacet
  facet normal -1 0 0
    outer loop
      vertex -12.5 18 6
      vertex -12.5 17 7
      vertex -12.5 18 8
    endloop
  endfacet
  facet normal 0 -0.707107 0.707107
    outer loop
      vertex -12.5 17 7
      vertex -7.5 18 8
      vertex -12.5 18 8
    endloop
  endfacet
  facet normal 0 -0.707107 0.707107
    outer loop
      vertex -7.5 18 8
      vertex -12.5 17 7
      vertex -7.5 17 7
    endloop
  endfacet
  facet normal -0 0.707118 0.707095
    outer loop
      vertex -12.5 21.2426 7
      vertex -7.5 20 8.24264
      vertex -7.5 21.2426 7
    endloop
  endfacet
  facet normal 0 0.707118 0.707095
    outer loop
      vertex -7.5 20 8.24264
      vertex -12.5 21.2426 7
      vertex -12.5 20 8.24264
    endloop
  endfacet
  facet normal 0 -0.707107 -0.707107
    outer loop
      vertex -12.5 18 6
      vertex -7.5 17 7
      vertex -12.5 17 7
    endloop
  endfacet
  facet normal 0 -0.707107 -0.707107
    outer loop
      vertex -7.5 17 7
      vertex -12.5 18 6
      vertex -7.5 18 6
    endloop
  endfacet
  facet normal 0 0.707126 -0.707088
    outer loop
      vertex 15 -18 6.25736
      vertex 10 -17.2574 7
      vertex 15 -17.2574 7
    endloop
  endfacet
  facet normal 0 0.707126 -0.707088
    outer loop
      vertex 10 -17.2574 7
      vertex 15 -18 6.25736
      vertex 10 -18 6.25736
    endloop
  endfacet
  facet normal 1 0 0
    outer loop
      vertex 15 -18 7.74264
      vertex 15 -18 6.25736
      vertex 15 -17.2574 7
    endloop
  endfacet
  facet normal 1 0 0
    outer loop
      vertex 15 -20 8.5
      vertex 15 -21.5 7
      vertex 15 -20 5.5
    endloop
  endfacet
  facet normal -1 -0 0
    outer loop
      vertex 10 -17.2574 7
      vertex 10 -18 6.25736
      vertex 10 -18 7.74264
    endloop
  endfacet
  facet normal -1 0 0
    outer loop
      vertex 10 -20 5.5
      vertex 10 -21.5 7
      vertex 10 -20 8.5
    endloop
  endfacet
  facet normal 0 -0.707107 0.707107
    outer loop
      vertex 10 -20 8.5
      vertex 15 -21.5 7
      vertex 15 -20 8.5
    endloop
  endfacet
  facet normal 0 -0.707107 0.707107
    outer loop
      vertex 15 -21.5 7
      vertex 10 -20 8.5
      vertex 10 -21.5 7
    endloop
  endfacet
  facet normal -0 0.707126 0.707088
    outer loop
      vertex 10 -17.2574 7
      vertex 15 -18 7.74264
      vertex 15 -17.2574 7
    endloop
  endfacet
  facet normal 0 0.707126 0.707088
    outer loop
      vertex 15 -18 7.74264
      vertex 10 -17.2574 7
      vertex 10 -18 7.74264
    endloop
  endfacet
  facet normal 0 -0.707107 -0.707107
    outer loop
      vertex 10 -20 5.5
      vertex 15 -21.5 7
      vertex 10 -21.5 7
    endloop
  endfacet
  facet normal 0 -0.707107 -0.707107
    outer loop
      vertex 15 -21.5 7
      vertex 10 -20 5.5
      vertex 15 -20 5.5
    endloop
  endfacet
  facet normal 0 0.707126 -0.707088
    outer loop
      vertex -7.5 -18 6.25736
      vertex -12.5 -17.2574 7
      vertex -7.5 -17.2574 7
    endloop
  endfacet
  facet normal 0 0.707126 -0.707088
    outer loop
      vertex -12.5 -17.2574 7
      vertex -7.5 -18 6.25736
      vertex -12.5 -18 6.25736
    endloop
  endfacet
  facet normal 1 0 0
    outer loop
      vertex -7.5 -18 7.74264
      vertex -7.5 -18 6.25736
      vertex -7.5 -17.2574 7
    endloop
  endfacet
  facet normal 1 0 0
    outer loop
      vertex -7.5 -20 8.5
      vertex -7.5 -21.5 7
      vertex -7.5 -20 5.5
    endloop
  endfacet
  facet normal -1 -0 0
    outer loop
      vertex -12.5 -17.2574 7
      vertex -12.5 -18 6.25736
      vertex -12.5 -18 7.74264
    endloop
  endfacet
  facet normal -1 0 0
    outer loop
      vertex -12.5 -20 5.5
      vertex -12.5 -21.5 7
      vertex -12.5 -20 8.5
    endloop
  endfacet
  facet normal 0 -0.707107 0.707107
    outer loop
      vertex -12.5 -20 8.5
      vertex -7.5 -21.5 7
      vertex -7.5 -20 8.5
    endloop
  endfacet
  facet normal 0 -0.707107 0.707107
    outer loop
      vertex -7.5 -21.5 7
      vertex -12.5 -20 8.5
      vertex -12.5 -21.5 7
    endloop
  endfacet
  facet normal -0 0.707126 0.707088
    outer loop
      vertex -12.5 -17.2574 7
      vertex -7.5 -18 7.74264
      vertex -7.5 -17.2574 7
    endloop
  endfacet
  facet normal 0 0.707126 0.707088
    outer loop
      vertex -7.5 -18 7.74264
      vertex -12.5 -17.2574 7
      vertex -12.5 -18 7.74264
    endloop
  endfacet
  facet normal 0 -0.707107 -0.707107
    outer loop
      vertex -12.5 -20 5.5
      vertex -7.5 -21.5 7
      vertex -12.5 -21.5 7
    endloop
  endfacet
  facet normal 0 -0.707107 -0.707107
    outer loop
      vertex -7.5 -21.5 7
      vertex -12.5 -20 5.5
      vertex -7.5 -20 5.5
    endloop
  endfacet
endsolid OpenSCAD_Model
