solid OpenSCAD_Model
  facet normal 0.707077 -0.707137 0
    outer loop
      vertex 36.1067 -7.05988 -5
      vertex 36.8099 -6.35674 5
      vertex 36.1067 -7.05988 5
    endloop
  endfacet
  facet normal 0.707077 -0.707137 0
    outer loop
      vertex 36.8099 -6.35674 5
      vertex 36.1067 -7.05988 -5
      vertex 36.8099 -6.35674 -5
    endloop
  endfacet
  facet normal 0.890982 0.454039 0
    outer loop
      vertex 38.4287 3.864 5
      vertex 37.9772 4.75 -5
      vertex 37.9772 4.75 5
    endloop
  endfacet
  facet normal 0.890982 0.454039 0
    outer loop
      vertex 37.9772 4.75 -5
      vertex 38.4287 3.864 5
      vertex 38.4287 3.864 -5
    endloop
  endfacet
  facet normal 0.965917 -0.258852 0
    outer loop
      vertex 38.785 -2.93566 5
      vertex 39.0424 -1.97516 -5
      vertex 39.0424 -1.97516 5
    endloop
  endfacet
  facet normal 0.965917 -0.258852 0
    outer loop
      vertex 39.0424 -1.97516 -5
      vertex 38.785 -2.93566 5
      vertex 38.785 -2.93566 -5
    endloop
  endfacet
  facet normal -0.707077 0.707137 0
    outer loop
      vertex -36.1067 7.05988 -5
      vertex -36.8099 6.35674 5
      vertex -36.1067 7.05988 5
    endloop
  endfacet
  facet normal -0.707077 0.707137 0
    outer loop
      vertex -36.8099 6.35674 5
      vertex -36.1067 7.05988 -5
      vertex -36.8099 6.35674 -5
    endloop
  endfacet
  facet normal 0 1 -0
    outer loop
      vertex 29.75 9.5 -5
      vertex -29.75 9.5 5
      vertex 29.75 9.5 5
    endloop
  endfacet
  facet normal 0 1 0
    outer loop
      vertex -29.75 9.5 5
      vertex 29.75 9.5 -5
      vertex -29.75 9.5 -5
    endloop
  endfacet
  facet normal -0.838707 -0.544582 0
    outer loop
      vertex -37.4357 -5.58396 -5
      vertex -37.9772 -4.75 5
      vertex -37.9772 -4.75 -5
    endloop
  endfacet
  facet normal -0.838707 -0.544582 0
    outer loop
      vertex -37.9772 -4.75 5
      vertex -37.4357 -5.58396 -5
      vertex -37.4357 -5.58396 5
    endloop
  endfacet
  facet normal 0.965917 0.258852 0
    outer loop
      vertex 39.0424 1.97516 5
      vertex 38.785 2.93566 -5
      vertex 38.785 2.93566 5
    endloop
  endfacet
  facet normal 0.965917 0.258852 0
    outer loop
      vertex 38.785 2.93566 -5
      vertex 39.0424 1.97516 5
      vertex 39.0424 1.97516 -5
    endloop
  endfacet
  facet normal -0.838707 0.544582 0
    outer loop
      vertex -37.9772 4.75 -5
      vertex -37.4357 5.58396 5
      vertex -37.4357 5.58396 -5
    endloop
  endfacet
  facet normal -0.838707 0.544582 0
    outer loop
      vertex -37.4357 5.58396 5
      vertex -37.9772 4.75 -5
      vertex -37.9772 4.75 5
    endloop
  endfacet
  facet normal 0.258814 -0.965927 0
    outer loop
      vertex 31.7252 -9.2924 -5
      vertex 32.6857 -9.03504 5
      vertex 31.7252 -9.2924 5
    endloop
  endfacet
  facet normal 0.258814 -0.965927 0
    outer loop
      vertex 32.6857 -9.03504 5
      vertex 31.7252 -9.2924 -5
      vertex 32.6857 -9.03504 -5
    endloop
  endfacet
  facet normal 0.052335 -0.99863 0
    outer loop
      vertex 29.75 -9.5 -5
      vertex 30.743 -9.44796 5
      vertex 29.75 -9.5 5
    endloop
  endfacet
  facet normal 0.052335 -0.99863 0
    outer loop
      vertex 30.743 -9.44796 5
      vertex 29.75 -9.5 -5
      vertex 30.743 -9.44796 -5
    endloop
  endfacet
  facet normal -0.998632 -0.0522939 0
    outer loop
      vertex -39.198 -0.99302 -5
      vertex -39.25 0 5
      vertex -39.25 0 -5
    endloop
  endfacet
  facet normal -0.998632 -0.0522939 0
    outer loop
      vertex -39.25 0 5
      vertex -39.198 -0.99302 -5
      vertex -39.198 -0.99302 5
    endloop
  endfacet
  facet normal -0.052335 0.99863 0
    outer loop
      vertex -29.75 9.5 -5
      vertex -30.743 9.44796 5
      vertex -29.75 9.5 5
    endloop
  endfacet
  facet normal -0.052335 0.99863 0
    outer loop
      vertex -30.743 9.44796 5
      vertex -29.75 9.5 -5
      vertex -30.743 9.44796 -5
    endloop
  endfacet
  facet normal -0.453991 0.891006 0
    outer loop
      vertex -33.614 8.67868 -5
      vertex -34.5 8.22724 5
      vertex -33.614 8.67868 5
    endloop
  endfacet
  facet normal -0.453991 0.891006 0
    outer loop
      vertex -34.5 8.22724 5
      vertex -33.614 8.67868 -5
      vertex -34.5 8.22724 -5
    endloop
  endfacet
  facet normal -0.933599 0.358319 0
    outer loop
      vertex -38.785 2.93566 -5
      vertex -38.4287 3.864 5
      vertex -38.4287 3.864 -5
    endloop
  endfacet
  facet normal -0.933599 0.358319 0
    outer loop
      vertex -38.4287 3.864 5
      vertex -38.785 2.93566 -5
      vertex -38.785 2.93566 5
    endloop
  endfacet
  facet normal 0.453991 -0.891006 0
    outer loop
      vertex 33.614 -8.67868 -5
      vertex 34.5 -8.22724 5
      vertex 33.614 -8.67868 5
    endloop
  endfacet
  facet normal 0.453991 -0.891006 0
    outer loop
      vertex 34.5 -8.22724 5
      vertex 33.614 -8.67868 -5
      vertex 34.5 -8.22724 -5
    endloop
  endfacet
  facet normal -0.890982 -0.454039 0
    outer loop
      vertex -37.9772 -4.75 -5
      vertex -38.4287 -3.864 5
      vertex -38.4287 -3.864 -5
    endloop
  endfacet
  facet normal -0.890982 -0.454039 0
    outer loop
      vertex -38.4287 -3.864 5
      vertex -37.9772 -4.75 -5
      vertex -37.9772 -4.75 5
    endloop
  endfacet
  facet normal 0.052335 0.99863 -0
    outer loop
      vertex 30.743 9.44796 -5
      vertex 29.75 9.5 5
      vertex 30.743 9.44796 5
    endloop
  endfacet
  facet normal 0.052335 0.99863 0
    outer loop
      vertex 29.75 9.5 5
      vertex 30.743 9.44796 -5
      vertex 29.75 9.5 -5
    endloop
  endfacet
  facet normal 0.987681 0.156478 0
    outer loop
      vertex 39.198 0.99302 5
      vertex 39.0424 1.97516 -5
      vertex 39.0424 1.97516 5
    endloop
  endfacet
  facet normal 0.987681 0.156478 0
    outer loop
      vertex 39.0424 1.97516 -5
      vertex 39.198 0.99302 5
      vertex 39.198 0.99302 -5
    endloop
  endfacet
  facet normal 0.156429 0.987689 -0
    outer loop
      vertex 31.7252 9.2924 -5
      vertex 30.743 9.44796 5
      vertex 31.7252 9.2924 5
    endloop
  endfacet
  facet normal 0.156429 0.987689 0
    outer loop
      vertex 30.743 9.44796 5
      vertex 31.7252 9.2924 -5
      vertex 30.743 9.44796 -5
    endloop
  endfacet
  facet normal -0.890982 0.454039 0
    outer loop
      vertex -38.4287 3.864 -5
      vertex -37.9772 4.75 5
      vertex -37.9772 4.75 -5
    endloop
  endfacet
  facet normal -0.890982 0.454039 0
    outer loop
      vertex -37.9772 4.75 5
      vertex -38.4287 3.864 -5
      vertex -38.4287 3.864 5
    endloop
  endfacet
  facet normal -0.544621 -0.838682 0
    outer loop
      vertex -35.334 -7.68566 -5
      vertex -34.5 -8.22724 5
      vertex -35.334 -7.68566 5
    endloop
  endfacet
  facet normal -0.544621 -0.838682 -0
    outer loop
      vertex -34.5 -8.22724 5
      vertex -35.334 -7.68566 -5
      vertex -34.5 -8.22724 -5
    endloop
  endfacet
  facet normal -0.965917 0.258852 0
    outer loop
      vertex -39.0424 1.97516 -5
      vertex -38.785 2.93566 5
      vertex -38.785 2.93566 -5
    endloop
  endfacet
  facet normal -0.965917 0.258852 0
    outer loop
      vertex -38.785 2.93566 5
      vertex -39.0424 1.97516 -5
      vertex -39.0424 1.97516 5
    endloop
  endfacet
  facet normal 0.777139 0.62933 0
    outer loop
      vertex 37.4357 5.58396 5
      vertex 36.8099 6.35674 -5
      vertex 36.8099 6.35674 5
    endloop
  endfacet
  facet normal 0.777139 0.62933 0
    outer loop
      vertex 36.8099 6.35674 -5
      vertex 37.4357 5.58396 5
      vertex 37.4357 5.58396 -5
    endloop
  endfacet
  facet normal -0.544621 0.838682 0
    outer loop
      vertex -34.5 8.22724 -5
      vertex -35.334 7.68566 5
      vertex -34.5 8.22724 5
    endloop
  endfacet
  facet normal -0.544621 0.838682 0
    outer loop
      vertex -35.334 7.68566 5
      vertex -34.5 8.22724 -5
      vertex -35.334 7.68566 -5
    endloop
  endfacet
  facet normal 0.358385 -0.933574 0
    outer loop
      vertex 32.6857 -9.03504 -5
      vertex 33.614 -8.67868 5
      vertex 32.6857 -9.03504 5
    endloop
  endfacet
  facet normal 0.358385 -0.933574 0
    outer loop
      vertex 33.614 -8.67868 5
      vertex 32.6857 -9.03504 -5
      vertex 33.614 -8.67868 -5
    endloop
  endfacet
  facet normal -0.707077 -0.707137 0
    outer loop
      vertex -36.8099 -6.35674 -5
      vertex -36.1067 -7.05988 5
      vertex -36.8099 -6.35674 5
    endloop
  endfacet
  facet normal -0.707077 -0.707137 -0
    outer loop
      vertex -36.1067 -7.05988 5
      vertex -36.8099 -6.35674 -5
      vertex -36.1067 -7.05988 -5
    endloop
  endfacet
  facet normal -0.258814 -0.965927 0
    outer loop
      vertex -32.6857 -9.03504 -5
      vertex -31.7252 -9.2924 5
      vertex -32.6857 -9.03504 5
    endloop
  endfacet
  facet normal -0.258814 -0.965927 -0
    outer loop
      vertex -31.7252 -9.2924 5
      vertex -32.6857 -9.03504 -5
      vertex -31.7252 -9.2924 -5
    endloop
  endfacet
  facet normal 0.933599 0.358319 0
    outer loop
      vertex 38.785 2.93566 5
      vertex 38.4287 3.864 -5
      vertex 38.4287 3.864 5
    endloop
  endfacet
  facet normal 0.933599 0.358319 0
    outer loop
      vertex 38.4287 3.864 -5
      vertex 38.785 2.93566 5
      vertex 38.785 2.93566 -5
    endloop
  endfacet
  facet normal -0.987681 0.156478 0
    outer loop
      vertex -39.198 0.99302 -5
      vertex -39.0424 1.97516 5
      vertex -39.0424 1.97516 -5
    endloop
  endfacet
  facet normal -0.987681 0.156478 0
    outer loop
      vertex -39.0424 1.97516 5
      vertex -39.198 0.99302 -5
      vertex -39.198 0.99302 5
    endloop
  endfacet
  facet normal 0.890982 -0.454039 0
    outer loop
      vertex 37.9772 -4.75 5
      vertex 38.4287 -3.864 -5
      vertex 38.4287 -3.864 5
    endloop
  endfacet
  facet normal 0.890982 -0.454039 0
    outer loop
      vertex 38.4287 -3.864 -5
      vertex 37.9772 -4.75 5
      vertex 37.9772 -4.75 -5
    endloop
  endfacet
  facet normal 0.933599 -0.358319 0
    outer loop
      vertex 38.4287 -3.864 5
      vertex 38.785 -2.93566 -5
      vertex 38.785 -2.93566 5
    endloop
  endfacet
  facet normal 0.933599 -0.358319 0
    outer loop
      vertex 38.785 -2.93566 -5
      vertex 38.4287 -3.864 5
      vertex 38.4287 -3.864 -5
    endloop
  endfacet
  facet normal 0.544621 0.838682 -0
    outer loop
      vertex 35.334 7.68566 -5
      vertex 34.5 8.22724 5
      vertex 35.334 7.68566 5
    endloop
  endfacet
  facet normal 0.544621 0.838682 0
    outer loop
      vertex 34.5 8.22724 5
      vertex 35.334 7.68566 -5
      vertex 34.5 8.22724 -5
    endloop
  endfacet
  facet normal 0.544621 -0.838682 0
    outer loop
      vertex 34.5 -8.22724 -5
      vertex 35.334 -7.68566 5
      vertex 34.5 -8.22724 5
    endloop
  endfacet
  facet normal 0.544621 -0.838682 0
    outer loop
      vertex 35.334 -7.68566 5
      vertex 34.5 -8.22724 -5
      vertex 35.334 -7.68566 -5
    endloop
  endfacet
  facet normal 0.838707 0.544582 0
    outer loop
      vertex 37.9772 4.75 5
      vertex 37.4357 5.58396 -5
      vertex 37.4357 5.58396 5
    endloop
  endfacet
  facet normal 0.838707 0.544582 0
    outer loop
      vertex 37.4357 5.58396 -5
      vertex 37.9772 4.75 5
      vertex 37.9772 4.75 -5
    endloop
  endfacet
  facet normal 0 -1 0
    outer loop
      vertex -29.75 -9.5 -5
      vertex 29.75 -9.5 5
      vertex -29.75 -9.5 5
    endloop
  endfacet
  facet normal 0 -1 -0
    outer loop
      vertex 29.75 -9.5 5
      vertex -29.75 -9.5 -5
      vertex 29.75 -9.5 -5
    endloop
  endfacet
  facet normal -0.358385 -0.933574 0
    outer loop
      vertex -33.614 -8.67868 -5
      vertex -32.6857 -9.03504 5
      vertex -33.614 -8.67868 5
    endloop
  endfacet
  facet normal -0.358385 -0.933574 -0
    outer loop
      vertex -32.6857 -9.03504 5
      vertex -33.614 -8.67868 -5
      vertex -32.6857 -9.03504 -5
    endloop
  endfacet
  facet normal 0.258814 0.965927 -0
    outer loop
      vertex 32.6857 9.03504 -5
      vertex 31.7252 9.2924 5
      vertex 32.6857 9.03504 5
    endloop
  endfacet
  facet normal 0.258814 0.965927 0
    outer loop
      vertex 31.7252 9.2924 5
      vertex 32.6857 9.03504 -5
      vertex 31.7252 9.2924 -5
    endloop
  endfacet
  facet normal 0.629357 -0.777117 0
    outer loop
      vertex 35.334 -7.68566 -5
      vertex 36.1067 -7.05988 5
      vertex 35.334 -7.68566 5
    endloop
  endfacet
  facet normal 0.629357 -0.777117 0
    outer loop
      vertex 36.1067 -7.05988 5
      vertex 35.334 -7.68566 -5
      vertex 36.1067 -7.05988 -5
    endloop
  endfacet
  facet normal 0.453991 0.891006 -0
    outer loop
      vertex 34.5 8.22724 -5
      vertex 33.614 8.67868 5
      vertex 34.5 8.22724 5
    endloop
  endfacet
  facet normal 0.453991 0.891006 0
    outer loop
      vertex 33.614 8.67868 5
      vertex 34.5 8.22724 -5
      vertex 33.614 8.67868 -5
    endloop
  endfacet
  facet normal -0.629357 0.777117 0
    outer loop
      vertex -35.334 7.68566 -5
      vertex -36.1067 7.05988 5
      vertex -35.334 7.68566 5
    endloop
  endfacet
  facet normal -0.629357 0.777117 0
    outer loop
      vertex -36.1067 7.05988 5
      vertex -35.334 7.68566 -5
      vertex -36.1067 7.05988 -5
    endloop
  endfacet
  facet normal -0.965917 -0.258852 0
    outer loop
      vertex -38.785 -2.93566 -5
      vertex -39.0424 -1.97516 5
      vertex -39.0424 -1.97516 -5
    endloop
  endfacet
  facet normal -0.965917 -0.258852 0
    outer loop
      vertex -39.0424 -1.97516 5
      vertex -38.785 -2.93566 -5
      vertex -38.785 -2.93566 5
    endloop
  endfacet
  facet normal 0.358385 0.933574 -0
    outer loop
      vertex 33.614 8.67868 -5
      vertex 32.6857 9.03504 5
      vertex 33.614 8.67868 5
    endloop
  endfacet
  facet normal 0.358385 0.933574 0
    outer loop
      vertex 32.6857 9.03504 5
      vertex 33.614 8.67868 -5
      vertex 32.6857 9.03504 -5
    endloop
  endfacet
  facet normal -0.156429 0.987689 0
    outer loop
      vertex -30.743 9.44796 -5
      vertex -31.7252 9.2924 5
      vertex -30.743 9.44796 5
    endloop
  endfacet
  facet normal -0.156429 0.987689 0
    outer loop
      vertex -31.7252 9.2924 5
      vertex -30.743 9.44796 -5
      vertex -31.7252 9.2924 -5
    endloop
  endfacet
  facet normal -0.052335 -0.99863 0
    outer loop
      vertex -30.743 -9.44796 -5
      vertex -29.75 -9.5 5
      vertex -30.743 -9.44796 5
    endloop
  endfacet
  facet normal -0.052335 -0.99863 -0
    outer loop
      vertex -29.75 -9.5 5
      vertex -30.743 -9.44796 -5
      vertex -29.75 -9.5 -5
    endloop
  endfacet
  facet normal 0.998632 0.0522939 0
    outer loop
      vertex 39.25 0 5
      vertex 39.198 0.99302 -5
      vertex 39.198 0.99302 5
    endloop
  endfacet
  facet normal 0.998632 0.0522939 0
    outer loop
      vertex 39.198 0.99302 -5
      vertex 39.25 0 5
      vertex 39.25 0 -5
    endloop
  endfacet
  facet normal 0.998632 -0.0522939 0
    outer loop
      vertex 39.198 -0.99302 5
      vertex 39.25 0 -5
      vertex 39.25 0 5
    endloop
  endfacet
  facet normal 0.998632 -0.0522939 0
    outer loop
      vertex 39.25 0 -5
      vertex 39.198 -0.99302 5
      vertex 39.198 -0.99302 -5
    endloop
  endfacet
  facet normal -0.998632 0.0522939 0
    outer loop
      vertex -39.25 0 -5
      vertex -39.198 0.99302 5
      vertex -39.198 0.99302 -5
    endloop
  endfacet
  facet normal -0.998632 0.0522939 0
    outer loop
      vertex -39.198 0.99302 5
      vertex -39.25 0 -5
      vertex -39.25 0 5
    endloop
  endfacet
  facet normal -0.258814 0.965927 0
    outer loop
      vertex -31.7252 9.2924 -5
      vertex -32.6857 9.03504 5
      vertex -31.7252 9.2924 5
    endloop
  endfacet
  facet normal -0.258814 0.965927 0
    outer loop
      vertex -32.6857 9.03504 5
      vertex -31.7252 9.2924 -5
      vertex -32.6857 9.03504 -5
    endloop
  endfacet
  facet normal 0 0 1
    outer loop
      vertex 37.25 0 5
      vertex 39.25 0 5
      vertex 39.198 0.99302 5
    endloop
  endfacet
  facet normal 0 0 1
    outer loop
      vertex 37.2089 0.783963 5
      vertex 39.198 0.99302 5
      vertex 39.0424 1.97516 5
    endloop
  endfacet
  facet normal 0 0 1
    outer loop
      vertex 39.25 0 5
      vertex 37.25 0 5
      vertex 39.198 -0.99302 5
    endloop
  endfacet
  facet normal 0 0 1
    outer loop
      vertex 37.0861 1.55934 5
      vertex 39.0424 1.97516 5
      vertex 38.785 2.93566 5
    endloop
  endfacet
  facet normal -0 0 1
    outer loop
      vertex 37.2089 -0.783963 5
      vertex 39.198 -0.99302 5
      vertex 37.25 0 5
    endloop
  endfacet
  facet normal 0 0 1
    outer loop
      vertex 36.8829 2.31763 5
      vertex 38.785 2.93566 5
      vertex 38.4287 3.864 5
    endloop
  endfacet
  facet normal 0 0 1
    outer loop
      vertex 39.198 -0.99302 5
      vertex 37.2089 -0.783963 5
      vertex 39.0424 -1.97516 5
    endloop
  endfacet
  facet normal 0 0 1
    outer loop
      vertex 36.6016 3.05052 5
      vertex 38.4287 3.864 5
      vertex 37.9772 4.75 5
    endloop
  endfacet
  facet normal -0 0 1
    outer loop
      vertex 37.0861 -1.55934 5
      vertex 39.0424 -1.97516 5
      vertex 37.2089 -0.783963 5
    endloop
  endfacet
  facet normal 0 0 1
    outer loop
      vertex 36.2452 3.75 5
      vertex 37.9772 4.75 5
      vertex 37.4357 5.58396 5
    endloop
  endfacet
  facet normal 0 0 1
    outer loop
      vertex 39.0424 -1.97516 5
      vertex 37.0861 -1.55934 5
      vertex 38.785 -2.93566 5
    endloop
  endfacet
  facet normal -0 0 1
    outer loop
      vertex 36.8829 -2.31763 5
      vertex 38.785 -2.93566 5
      vertex 37.0861 -1.55934 5
    endloop
  endfacet
  facet normal 0 0 1
    outer loop
      vertex 39.198 0.99302 5
      vertex 37.2089 0.783963 5
      vertex 37.25 0 5
    endloop
  endfacet
  facet normal 0 0 1
    outer loop
      vertex 39.0424 1.97516 5
      vertex 37.0861 1.55934 5
      vertex 37.2089 0.783963 5
    endloop
  endfacet
  facet normal 0 0 1
    outer loop
      vertex 38.785 2.93566 5
      vertex 36.8829 2.31763 5
      vertex 37.0861 1.55934 5
    endloop
  endfacet
  facet normal 0 0 1
    outer loop
      vertex 35.8176 4.40839 5
      vertex 37.4357 5.58396 5
      vertex 36.8099 6.35674 5
    endloop
  endfacet
  facet normal 0 0 1
    outer loop
      vertex 38.4287 3.864 5
      vertex 36.6016 3.05052 5
      vertex 36.8829 2.31763 5
    endloop
  endfacet
  facet normal 0 0 1
    outer loop
      vertex 37.9772 4.75 5
      vertex 36.2452 3.75 5
      vertex 36.6016 3.05052 5
    endloop
  endfacet
  facet normal 0 0 1
    outer loop
      vertex 35.3236 5.01848 5
      vertex 36.8099 6.35674 5
      vertex 36.1067 7.05988 5
    endloop
  endfacet
  facet normal 0 0 1
    outer loop
      vertex 37.4357 5.58396 5
      vertex 35.8176 4.40839 5
      vertex 36.2452 3.75 5
    endloop
  endfacet
  facet normal 0 0 1
    outer loop
      vertex 34.7685 5.57359 5
      vertex 36.1067 7.05988 5
      vertex 35.334 7.68566 5
    endloop
  endfacet
  facet normal 0 0 1
    outer loop
      vertex 36.8099 6.35674 5
      vertex 35.3236 5.01848 5
      vertex 35.8176 4.40839 5
    endloop
  endfacet
  facet normal 0 0 1
    outer loop
      vertex 36.1067 7.05988 5
      vertex 34.7685 5.57359 5
      vertex 35.3236 5.01848 5
    endloop
  endfacet
  facet normal 0 0 1
    outer loop
      vertex 34.1584 6.06763 5
      vertex 35.334 7.68566 5
      vertex 34.5 8.22724 5
    endloop
  endfacet
  facet normal 0 0 1
    outer loop
      vertex 35.334 7.68566 5
      vertex 34.1584 6.06763 5
      vertex 34.7685 5.57359 5
    endloop
  endfacet
  facet normal 0 0 1
    outer loop
      vertex 33.5 6.49519 5
      vertex 34.5 8.22724 5
      vertex 33.614 8.67868 5
    endloop
  endfacet
  facet normal 0 0 1
    outer loop
      vertex 34.5 8.22724 5
      vertex 33.5 6.49519 5
      vertex 34.1584 6.06763 5
    endloop
  endfacet
  facet normal 0 0 1
    outer loop
      vertex 33.614 8.67868 5
      vertex 32.8005 6.85159 5
      vertex 33.5 6.49519 5
    endloop
  endfacet
  facet normal 0 0 1
    outer loop
      vertex 32.6857 9.03504 5
      vertex 32.8005 6.85159 5
      vertex 33.614 8.67868 5
    endloop
  endfacet
  facet normal 0 0 1
    outer loop
      vertex 32.6857 9.03504 5
      vertex 32.0676 7.13292 5
      vertex 32.8005 6.85159 5
    endloop
  endfacet
  facet normal 0 0 1
    outer loop
      vertex 31.7252 9.2924 5
      vertex 32.0676 7.13292 5
      vertex 32.6857 9.03504 5
    endloop
  endfacet
  facet normal 0 0 1
    outer loop
      vertex 31.7252 9.2924 5
      vertex 31.3093 7.33611 5
      vertex 32.0676 7.13292 5
    endloop
  endfacet
  facet normal 0 0 1
    outer loop
      vertex 30.743 9.44796 5
      vertex 31.3093 7.33611 5
      vertex 31.7252 9.2924 5
    endloop
  endfacet
  facet normal 0 0 1
    outer loop
      vertex 30.743 9.44796 5
      vertex 30.534 7.45891 5
      vertex 31.3093 7.33611 5
    endloop
  endfacet
  facet normal 0 0 1
    outer loop
      vertex 29.75 9.5 5
      vertex 30.534 7.45891 5
      vertex 30.743 9.44796 5
    endloop
  endfacet
  facet normal 0 0 1
    outer loop
      vertex 29.75 9.5 5
      vertex 29.75 7.5 5
      vertex 30.534 7.45891 5
    endloop
  endfacet
  facet normal -0 0 1
    outer loop
      vertex -29.75 9.5 5
      vertex 29.75 7.5 5
      vertex 29.75 9.5 5
    endloop
  endfacet
  facet normal 0 0 1
    outer loop
      vertex -29.75 9.5 5
      vertex -29.75 7.5 5
      vertex 29.75 7.5 5
    endloop
  endfacet
  facet normal 0 0 1
    outer loop
      vertex -29.75 9.5 5
      vertex -30.534 7.45891 5
      vertex -29.75 7.5 5
    endloop
  endfacet
  facet normal -0 0 1
    outer loop
      vertex -30.743 9.44796 5
      vertex -30.534 7.45891 5
      vertex -29.75 9.5 5
    endloop
  endfacet
  facet normal 0 0 1
    outer loop
      vertex -30.743 9.44796 5
      vertex -31.3093 7.33611 5
      vertex -30.534 7.45891 5
    endloop
  endfacet
  facet normal -0 0 1
    outer loop
      vertex -31.7252 9.2924 5
      vertex -31.3093 7.33611 5
      vertex -30.743 9.44796 5
    endloop
  endfacet
  facet normal 0 0 1
    outer loop
      vertex -31.7252 9.2924 5
      vertex -32.0676 7.13292 5
      vertex -31.3093 7.33611 5
    endloop
  endfacet
  facet normal -0 0 1
    outer loop
      vertex -32.6857 9.03504 5
      vertex -32.0676 7.13292 5
      vertex -31.7252 9.2924 5
    endloop
  endfacet
  facet normal 0 0 1
    outer loop
      vertex -32.6857 9.03504 5
      vertex -32.8005 6.85159 5
      vertex -32.0676 7.13292 5
    endloop
  endfacet
  facet normal -0 0 1
    outer loop
      vertex -33.614 8.67868 5
      vertex -32.8005 6.85159 5
      vertex -32.6857 9.03504 5
    endloop
  endfacet
  facet normal 0 0 1
    outer loop
      vertex -32.8005 6.85159 5
      vertex -33.614 8.67868 5
      vertex -33.5 6.49519 5
    endloop
  endfacet
  facet normal -0 0 1
    outer loop
      vertex -34.5 8.22724 5
      vertex -33.5 6.49519 5
      vertex -33.614 8.67868 5
    endloop
  endfacet
  facet normal 0 0 1
    outer loop
      vertex -33.5 6.49519 5
      vertex -34.5 8.22724 5
      vertex -34.1584 6.06763 5
    endloop
  endfacet
  facet normal -0 0 1
    outer loop
      vertex -35.334 7.68566 5
      vertex -34.1584 6.06763 5
      vertex -34.5 8.22724 5
    endloop
  endfacet
  facet normal 0 0 1
    outer loop
      vertex -34.1584 6.06763 5
      vertex -35.334 7.68566 5
      vertex -34.7685 5.57359 5
    endloop
  endfacet
  facet normal -0 0 1
    outer loop
      vertex -36.1067 7.05988 5
      vertex -34.7685 5.57359 5
      vertex -35.334 7.68566 5
    endloop
  endfacet
  facet normal 0 0 1
    outer loop
      vertex -34.7685 5.57359 5
      vertex -36.1067 7.05988 5
      vertex -35.3236 5.01848 5
    endloop
  endfacet
  facet normal -0 0 1
    outer loop
      vertex -36.8099 6.35674 5
      vertex -35.3236 5.01848 5
      vertex -36.1067 7.05988 5
    endloop
  endfacet
  facet normal 0 0 1
    outer loop
      vertex -35.3236 5.01848 5
      vertex -36.8099 6.35674 5
      vertex -35.8176 4.40839 5
    endloop
  endfacet
  facet normal -0 0 1
    outer loop
      vertex -37.4357 5.58396 5
      vertex -35.8176 4.40839 5
      vertex -36.8099 6.35674 5
    endloop
  endfacet
  facet normal 0 0 1
    outer loop
      vertex -35.8176 4.40839 5
      vertex -37.4357 5.58396 5
      vertex -36.2452 3.75 5
    endloop
  endfacet
  facet normal -0 0 1
    outer loop
      vertex -37.9772 4.75 5
      vertex -36.2452 3.75 5
      vertex -37.4357 5.58396 5
    endloop
  endfacet
  facet normal 0 0 1
    outer loop
      vertex -36.2452 3.75 5
      vertex -37.9772 4.75 5
      vertex -36.6016 3.05052 5
    endloop
  endfacet
  facet normal -0 0 1
    outer loop
      vertex -38.4287 3.864 5
      vertex -36.6016 3.05052 5
      vertex -37.9772 4.75 5
    endloop
  endfacet
  facet normal -0 0 1
    outer loop
      vertex -38.785 2.93566 5
      vertex -36.8829 2.31763 5
      vertex -38.4287 3.864 5
    endloop
  endfacet
  facet normal 0 0 1
    outer loop
      vertex -36.6016 3.05052 5
      vertex -38.4287 3.864 5
      vertex -36.8829 2.31763 5
    endloop
  endfacet
  facet normal 0 0 1
    outer loop
      vertex 38.785 -2.93566 5
      vertex 36.8829 -2.31763 5
      vertex 38.4287 -3.864 5
    endloop
  endfacet
  facet normal -0 0 1
    outer loop
      vertex 36.6016 -3.05052 5
      vertex 38.4287 -3.864 5
      vertex 36.8829 -2.31763 5
    endloop
  endfacet
  facet normal 0 0 1
    outer loop
      vertex 38.4287 -3.864 5
      vertex 36.6016 -3.05052 5
      vertex 37.9772 -4.75 5
    endloop
  endfacet
  facet normal -0 0 1
    outer loop
      vertex 36.2452 -3.75 5
      vertex 37.9772 -4.75 5
      vertex 36.6016 -3.05052 5
    endloop
  endfacet
  facet normal 0 0 1
    outer loop
      vertex 37.9772 -4.75 5
      vertex 36.2452 -3.75 5
      vertex 37.4357 -5.58396 5
    endloop
  endfacet
  facet normal -0 0 1
    outer loop
      vertex 35.8176 -4.40839 5
      vertex 37.4357 -5.58396 5
      vertex 36.2452 -3.75 5
    endloop
  endfacet
  facet normal 0 0 1
    outer loop
      vertex 37.4357 -5.58396 5
      vertex 35.8176 -4.40839 5
      vertex 36.8099 -6.35674 5
    endloop
  endfacet
  facet normal -0 0 1
    outer loop
      vertex 35.3236 -5.01848 5
      vertex 36.8099 -6.35674 5
      vertex 35.8176 -4.40839 5
    endloop
  endfacet
  facet normal 0 0 1
    outer loop
      vertex 36.8099 -6.35674 5
      vertex 35.3236 -5.01848 5
      vertex 36.1067 -7.05988 5
    endloop
  endfacet
  facet normal -0 0 1
    outer loop
      vertex 34.7685 -5.57359 5
      vertex 36.1067 -7.05988 5
      vertex 35.3236 -5.01848 5
    endloop
  endfacet
  facet normal 0 0 1
    outer loop
      vertex 36.1067 -7.05988 5
      vertex 34.7685 -5.57359 5
      vertex 35.334 -7.68566 5
    endloop
  endfacet
  facet normal -0 0 1
    outer loop
      vertex 34.1584 -6.06763 5
      vertex 35.334 -7.68566 5
      vertex 34.7685 -5.57359 5
    endloop
  endfacet
  facet normal 0 0 1
    outer loop
      vertex 35.334 -7.68566 5
      vertex 34.1584 -6.06763 5
      vertex 34.5 -8.22724 5
    endloop
  endfacet
  facet normal -0 0 1
    outer loop
      vertex 33.5 -6.49519 5
      vertex 34.5 -8.22724 5
      vertex 34.1584 -6.06763 5
    endloop
  endfacet
  facet normal 0 0 1
    outer loop
      vertex 34.5 -8.22724 5
      vertex 33.5 -6.49519 5
      vertex 33.614 -8.67868 5
    endloop
  endfacet
  facet normal -0 0 1
    outer loop
      vertex 32.8005 -6.85159 5
      vertex 33.614 -8.67868 5
      vertex 33.5 -6.49519 5
    endloop
  endfacet
  facet normal 0 0 1
    outer loop
      vertex 32.8005 -6.85159 5
      vertex 32.6857 -9.03504 5
      vertex 33.614 -8.67868 5
    endloop
  endfacet
  facet normal -0 0 1
    outer loop
      vertex 32.0676 -7.13292 5
      vertex 32.6857 -9.03504 5
      vertex 32.8005 -6.85159 5
    endloop
  endfacet
  facet normal 0 0 1
    outer loop
      vertex 32.0676 -7.13292 5
      vertex 31.7252 -9.2924 5
      vertex 32.6857 -9.03504 5
    endloop
  endfacet
  facet normal -0 0 1
    outer loop
      vertex 31.3093 -7.33611 5
      vertex 31.7252 -9.2924 5
      vertex 32.0676 -7.13292 5
    endloop
  endfacet
  facet normal 0 0 1
    outer loop
      vertex 31.3093 -7.33611 5
      vertex 30.743 -9.44796 5
      vertex 31.7252 -9.2924 5
    endloop
  endfacet
  facet normal -0 0 1
    outer loop
      vertex 30.534 -7.45891 5
      vertex 30.743 -9.44796 5
      vertex 31.3093 -7.33611 5
    endloop
  endfacet
  facet normal -0 0 1
    outer loop
      vertex 29.75 -7.5 5
      vertex 30.743 -9.44796 5
      vertex 30.534 -7.45891 5
    endloop
  endfacet
  facet normal 0 0 1
    outer loop
      vertex 29.75 -7.5 5
      vertex 29.75 -9.5 5
      vertex 30.743 -9.44796 5
    endloop
  endfacet
  facet normal -0 0 1
    outer loop
      vertex -29.75 -7.5 5
      vertex 29.75 -9.5 5
      vertex 29.75 -7.5 5
    endloop
  endfacet
  facet normal 0 0 1
    outer loop
      vertex -29.75 -7.5 5
      vertex -29.75 -9.5 5
      vertex 29.75 -9.5 5
    endloop
  endfacet
  facet normal 0 0 1
    outer loop
      vertex -30.534 -7.45891 5
      vertex -29.75 -9.5 5
      vertex -29.75 -7.5 5
    endloop
  endfacet
  facet normal 0 0 1
    outer loop
      vertex -30.534 -7.45891 5
      vertex -30.743 -9.44796 5
      vertex -29.75 -9.5 5
    endloop
  endfacet
  facet normal 0 0 1
    outer loop
      vertex -31.3093 -7.33611 5
      vertex -30.743 -9.44796 5
      vertex -30.534 -7.45891 5
    endloop
  endfacet
  facet normal 0 0 1
    outer loop
      vertex -31.3093 -7.33611 5
      vertex -31.7252 -9.2924 5
      vertex -30.743 -9.44796 5
    endloop
  endfacet
  facet normal 0 0 1
    outer loop
      vertex -32.0676 -7.13292 5
      vertex -31.7252 -9.2924 5
      vertex -31.3093 -7.33611 5
    endloop
  endfacet
  facet normal 0 0 1
    outer loop
      vertex -32.0676 -7.13292 5
      vertex -32.6857 -9.03504 5
      vertex -31.7252 -9.2924 5
    endloop
  endfacet
  facet normal 0 0 1
    outer loop
      vertex -32.8005 -6.85159 5
      vertex -32.6857 -9.03504 5
      vertex -32.0676 -7.13292 5
    endloop
  endfacet
  facet normal 0 0 1
    outer loop
      vertex -33.614 -8.67868 5
      vertex -32.8005 -6.85159 5
      vertex -33.5 -6.49519 5
    endloop
  endfacet
  facet normal 0 0 1
    outer loop
      vertex -32.8005 -6.85159 5
      vertex -33.614 -8.67868 5
      vertex -32.6857 -9.03504 5
    endloop
  endfacet
  facet normal 0 0 1
    outer loop
      vertex -34.5 -8.22724 5
      vertex -33.5 -6.49519 5
      vertex -34.1584 -6.06763 5
    endloop
  endfacet
  facet normal 0 0 1
    outer loop
      vertex -33.5 -6.49519 5
      vertex -34.5 -8.22724 5
      vertex -33.614 -8.67868 5
    endloop
  endfacet
  facet normal 0 0 1
    outer loop
      vertex -35.334 -7.68566 5
      vertex -34.1584 -6.06763 5
      vertex -34.7685 -5.57359 5
    endloop
  endfacet
  facet normal 0 0 1
    outer loop
      vertex -36.1067 -7.05988 5
      vertex -34.7685 -5.57359 5
      vertex -35.3236 -5.01848 5
    endloop
  endfacet
  facet normal 0 0 1
    outer loop
      vertex -34.1584 -6.06763 5
      vertex -35.334 -7.68566 5
      vertex -34.5 -8.22724 5
    endloop
  endfacet
  facet normal 0 0 1
    outer loop
      vertex -36.8099 -6.35674 5
      vertex -35.3236 -5.01848 5
      vertex -35.8176 -4.40839 5
    endloop
  endfacet
  facet normal 0 0 1
    outer loop
      vertex -34.7685 -5.57359 5
      vertex -36.1067 -7.05988 5
      vertex -35.334 -7.68566 5
    endloop
  endfacet
  facet normal 0 0 1
    outer loop
      vertex -37.4357 -5.58396 5
      vertex -35.8176 -4.40839 5
      vertex -36.2452 -3.75 5
    endloop
  endfacet
  facet normal 0 0 1
    outer loop
      vertex -37.9772 -4.75 5
      vertex -36.2452 -3.75 5
      vertex -36.6016 -3.05052 5
    endloop
  endfacet
  facet normal 0 0 1
    outer loop
      vertex -35.3236 -5.01848 5
      vertex -36.8099 -6.35674 5
      vertex -36.1067 -7.05988 5
    endloop
  endfacet
  facet normal 0 0 1
    outer loop
      vertex -38.4287 -3.864 5
      vertex -36.6016 -3.05052 5
      vertex -36.8829 -2.31763 5
    endloop
  endfacet
  facet normal 0 0 1
    outer loop
      vertex -38.785 -2.93566 5
      vertex -36.8829 -2.31763 5
      vertex -37.0861 -1.55934 5
    endloop
  endfacet
  facet normal 0 0 1
    outer loop
      vertex -39.0424 -1.97516 5
      vertex -37.0861 -1.55934 5
      vertex -37.2089 -0.783963 5
    endloop
  endfacet
  facet normal 0 0 1
    outer loop
      vertex -35.8176 -4.40839 5
      vertex -37.4357 -5.58396 5
      vertex -36.8099 -6.35674 5
    endloop
  endfacet
  facet normal 0 0 1
    outer loop
      vertex -39.198 -0.99302 5
      vertex -37.2089 -0.783963 5
      vertex -37.25 0 5
    endloop
  endfacet
  facet normal 0 0 1
    outer loop
      vertex -36.8829 2.31763 5
      vertex -38.785 2.93566 5
      vertex -37.0861 1.55934 5
    endloop
  endfacet
  facet normal -0 0 1
    outer loop
      vertex -39.0424 1.97516 5
      vertex -37.0861 1.55934 5
      vertex -38.785 2.93566 5
    endloop
  endfacet
  facet normal 0 0 1
    outer loop
      vertex -36.2452 -3.75 5
      vertex -37.9772 -4.75 5
      vertex -37.4357 -5.58396 5
    endloop
  endfacet
  facet normal 0 0 1
    outer loop
      vertex -37.0861 1.55934 5
      vertex -39.0424 1.97516 5
      vertex -37.2089 0.783963 5
    endloop
  endfacet
  facet normal 0 0 1
    outer loop
      vertex -36.6016 -3.05052 5
      vertex -38.4287 -3.864 5
      vertex -37.9772 -4.75 5
    endloop
  endfacet
  facet normal -0 0 1
    outer loop
      vertex -39.198 0.99302 5
      vertex -37.2089 0.783963 5
      vertex -39.0424 1.97516 5
    endloop
  endfacet
  facet normal 0 0 1
    outer loop
      vertex -36.8829 -2.31763 5
      vertex -38.785 -2.93566 5
      vertex -38.4287 -3.864 5
    endloop
  endfacet
  facet normal 0 0 1
    outer loop
      vertex -37.2089 0.783963 5
      vertex -39.198 0.99302 5
      vertex -37.25 0 5
    endloop
  endfacet
  facet normal 0 0 1
    outer loop
      vertex -37.0861 -1.55934 5
      vertex -39.0424 -1.97516 5
      vertex -38.785 -2.93566 5
    endloop
  endfacet
  facet normal 0 0 1
    outer loop
      vertex -39.25 0 5
      vertex -37.25 0 5
      vertex -39.198 0.99302 5
    endloop
  endfacet
  facet normal 0 0 1
    outer loop
      vertex -37.2089 -0.783963 5
      vertex -39.198 -0.99302 5
      vertex -39.0424 -1.97516 5
    endloop
  endfacet
  facet normal 0 0 1
    outer loop
      vertex -37.25 0 5
      vertex -39.25 0 5
      vertex -39.198 -0.99302 5
    endloop
  endfacet
  facet normal 0.629357 0.777117 -0
    outer loop
      vertex 36.1067 7.05988 -5
      vertex 35.334 7.68566 5
      vertex 36.1067 7.05988 5
    endloop
  endfacet
  facet normal 0.629357 0.777117 0
    outer loop
      vertex 35.334 7.68566 5
      vertex 36.1067 7.05988 -5
      vertex 35.334 7.68566 -5
    endloop
  endfacet
  facet normal 0.707077 0.707137 -0
    outer loop
      vertex 36.8099 6.35674 -5
      vertex 36.1067 7.05988 5
      vertex 36.8099 6.35674 5
    endloop
  endfacet
  facet normal 0.707077 0.707137 0
    outer loop
      vertex 36.1067 7.05988 5
      vertex 36.8099 6.35674 -5
      vertex 36.1067 7.05988 -5
    endloop
  endfacet
  facet normal -0.987681 -0.156478 0
    outer loop
      vertex -39.0424 -1.97516 -5
      vertex -39.198 -0.99302 5
      vertex -39.198 -0.99302 -5
    endloop
  endfacet
  facet normal -0.987681 -0.156478 0
    outer loop
      vertex -39.198 -0.99302 5
      vertex -39.0424 -1.97516 -5
      vertex -39.0424 -1.97516 5
    endloop
  endfacet
  facet normal 0.838707 -0.544582 0
    outer loop
      vertex 37.4357 -5.58396 5
      vertex 37.9772 -4.75 -5
      vertex 37.9772 -4.75 5
    endloop
  endfacet
  facet normal 0.838707 -0.544582 0
    outer loop
      vertex 37.9772 -4.75 -5
      vertex 37.4357 -5.58396 5
      vertex 37.4357 -5.58396 -5
    endloop
  endfacet
  facet normal -0.629357 -0.777117 0
    outer loop
      vertex -36.1067 -7.05988 -5
      vertex -35.334 -7.68566 5
      vertex -36.1067 -7.05988 5
    endloop
  endfacet
  facet normal -0.629357 -0.777117 -0
    outer loop
      vertex -35.334 -7.68566 5
      vertex -36.1067 -7.05988 -5
      vertex -35.334 -7.68566 -5
    endloop
  endfacet
  facet normal -0.156429 -0.987689 0
    outer loop
      vertex -31.7252 -9.2924 -5
      vertex -30.743 -9.44796 5
      vertex -31.7252 -9.2924 5
    endloop
  endfacet
  facet normal -0.156429 -0.987689 -0
    outer loop
      vertex -30.743 -9.44796 5
      vertex -31.7252 -9.2924 -5
      vertex -30.743 -9.44796 -5
    endloop
  endfacet
  facet normal -0.358385 0.933574 0
    outer loop
      vertex -32.6857 9.03504 -5
      vertex -33.614 8.67868 5
      vertex -32.6857 9.03504 5
    endloop
  endfacet
  facet normal -0.358385 0.933574 0
    outer loop
      vertex -33.614 8.67868 5
      vertex -32.6857 9.03504 -5
      vertex -33.614 8.67868 -5
    endloop
  endfacet
  facet normal 0.156429 -0.987689 0
    outer loop
      vertex 30.743 -9.44796 -5
      vertex 31.7252 -9.2924 5
      vertex 30.743 -9.44796 5
    endloop
  endfacet
  facet normal 0.156429 -0.987689 0
    outer loop
      vertex 31.7252 -9.2924 5
      vertex 30.743 -9.44796 -5
      vertex 31.7252 -9.2924 -5
    endloop
  endfacet
  facet normal -0.453991 -0.891006 0
    outer loop
      vertex -34.5 -8.22724 -5
      vertex -33.614 -8.67868 5
      vertex -34.5 -8.22724 5
    endloop
  endfacet
  facet normal -0.453991 -0.891006 -0
    outer loop
      vertex -33.614 -8.67868 5
      vertex -34.5 -8.22724 -5
      vertex -33.614 -8.67868 -5
    endloop
  endfacet
  facet normal 0.987681 -0.156478 0
    outer loop
      vertex 39.0424 -1.97516 5
      vertex 39.198 -0.99302 -5
      vertex 39.198 -0.99302 5
    endloop
  endfacet
  facet normal 0.987681 -0.156478 0
    outer loop
      vertex 39.198 -0.99302 -5
      vertex 39.0424 -1.97516 5
      vertex 39.0424 -1.97516 -5
    endloop
  endfacet
  facet normal 0.777139 -0.62933 0
    outer loop
      vertex 36.8099 -6.35674 5
      vertex 37.4357 -5.58396 -5
      vertex 37.4357 -5.58396 5
    endloop
  endfacet
  facet normal 0.777139 -0.62933 0
    outer loop
      vertex 37.4357 -5.58396 -5
      vertex 36.8099 -6.35674 5
      vertex 36.8099 -6.35674 -5
    endloop
  endfacet
  facet normal -0.777139 0.62933 0
    outer loop
      vertex -37.4357 5.58396 -5
      vertex -36.8099 6.35674 5
      vertex -36.8099 6.35674 -5
    endloop
  endfacet
  facet normal -0.777139 0.62933 0
    outer loop
      vertex -36.8099 6.35674 5
      vertex -37.4357 5.58396 -5
      vertex -37.4357 5.58396 5
    endloop
  endfacet
  facet normal -0.933599 -0.358319 0
    outer loop
      vertex -38.4287 -3.864 -5
      vertex -38.785 -2.93566 5
      vertex -38.785 -2.93566 -5
    endloop
  endfacet
  facet normal -0.933599 -0.358319 0
    outer loop
      vertex -38.785 -2.93566 5
      vertex -38.4287 -3.864 -5
      vertex -38.4287 -3.864 5
    endloop
  endfacet
  facet normal 0 0 -1
    outer loop
      vertex 37.25 0 -5
      vertex 39.25 0 -5
      vertex 39.198 -0.99302 -5
    endloop
  endfacet
  facet normal 0 0 -1
    outer loop
      vertex 37.2089 -0.783963 -5
      vertex 39.198 -0.99302 -5
      vertex 39.0424 -1.97516 -5
    endloop
  endfacet
  facet normal 0 0 -1
    outer loop
      vertex 39.25 0 -5
      vertex 37.25 0 -5
      vertex 39.198 0.99302 -5
    endloop
  endfacet
  facet normal 0 0 -1
    outer loop
      vertex 37.0861 -1.55934 -5
      vertex 39.0424 -1.97516 -5
      vertex 38.785 -2.93566 -5
    endloop
  endfacet
  facet normal 0 0 -1
    outer loop
      vertex 37.2089 0.783963 -5
      vertex 39.198 0.99302 -5
      vertex 37.25 0 -5
    endloop
  endfacet
  facet normal 0 0 -1
    outer loop
      vertex 36.8829 -2.31763 -5
      vertex 38.785 -2.93566 -5
      vertex 38.4287 -3.864 -5
    endloop
  endfacet
  facet normal -0 0 -1
    outer loop
      vertex 39.198 0.99302 -5
      vertex 37.2089 0.783963 -5
      vertex 39.0424 1.97516 -5
    endloop
  endfacet
  facet normal 0 0 -1
    outer loop
      vertex 36.6016 -3.05052 -5
      vertex 38.4287 -3.864 -5
      vertex 37.9772 -4.75 -5
    endloop
  endfacet
  facet normal 0 0 -1
    outer loop
      vertex 37.0861 1.55934 -5
      vertex 39.0424 1.97516 -5
      vertex 37.2089 0.783963 -5
    endloop
  endfacet
  facet normal 0 0 -1
    outer loop
      vertex 36.2452 -3.75 -5
      vertex 37.9772 -4.75 -5
      vertex 37.4357 -5.58396 -5
    endloop
  endfacet
  facet normal -0 0 -1
    outer loop
      vertex 39.0424 1.97516 -5
      vertex 37.0861 1.55934 -5
      vertex 38.785 2.93566 -5
    endloop
  endfacet
  facet normal 0 0 -1
    outer loop
      vertex 36.8829 2.31763 -5
      vertex 38.785 2.93566 -5
      vertex 37.0861 1.55934 -5
    endloop
  endfacet
  facet normal 0 0 -1
    outer loop
      vertex 39.198 -0.99302 -5
      vertex 37.2089 -0.783963 -5
      vertex 37.25 0 -5
    endloop
  endfacet
  facet normal 0 0 -1
    outer loop
      vertex 39.0424 -1.97516 -5
      vertex 37.0861 -1.55934 -5
      vertex 37.2089 -0.783963 -5
    endloop
  endfacet
  facet normal 0 0 -1
    outer loop
      vertex 38.785 -2.93566 -5
      vertex 36.8829 -2.31763 -5
      vertex 37.0861 -1.55934 -5
    endloop
  endfacet
  facet normal 0 0 -1
    outer loop
      vertex 35.8176 -4.40839 -5
      vertex 37.4357 -5.58396 -5
      vertex 36.8099 -6.35674 -5
    endloop
  endfacet
  facet normal 0 0 -1
    outer loop
      vertex 38.4287 -3.864 -5
      vertex 36.6016 -3.05052 -5
      vertex 36.8829 -2.31763 -5
    endloop
  endfacet
  facet normal 0 0 -1
    outer loop
      vertex 37.9772 -4.75 -5
      vertex 36.2452 -3.75 -5
      vertex 36.6016 -3.05052 -5
    endloop
  endfacet
  facet normal 0 0 -1
    outer loop
      vertex 35.3236 -5.01848 -5
      vertex 36.8099 -6.35674 -5
      vertex 36.1067 -7.05988 -5
    endloop
  endfacet
  facet normal 0 0 -1
    outer loop
      vertex 37.4357 -5.58396 -5
      vertex 35.8176 -4.40839 -5
      vertex 36.2452 -3.75 -5
    endloop
  endfacet
  facet normal 0 0 -1
    outer loop
      vertex 34.7685 -5.57359 -5
      vertex 36.1067 -7.05988 -5
      vertex 35.334 -7.68566 -5
    endloop
  endfacet
  facet normal 0 0 -1
    outer loop
      vertex 36.8099 -6.35674 -5
      vertex 35.3236 -5.01848 -5
      vertex 35.8176 -4.40839 -5
    endloop
  endfacet
  facet normal 0 0 -1
    outer loop
      vertex 36.1067 -7.05988 -5
      vertex 34.7685 -5.57359 -5
      vertex 35.3236 -5.01848 -5
    endloop
  endfacet
  facet normal 0 0 -1
    outer loop
      vertex 34.1584 -6.06763 -5
      vertex 35.334 -7.68566 -5
      vertex 34.5 -8.22724 -5
    endloop
  endfacet
  facet normal 0 0 -1
    outer loop
      vertex 35.334 -7.68566 -5
      vertex 34.1584 -6.06763 -5
      vertex 34.7685 -5.57359 -5
    endloop
  endfacet
  facet normal 0 0 -1
    outer loop
      vertex 33.5 -6.49519 -5
      vertex 34.5 -8.22724 -5
      vertex 33.614 -8.67868 -5
    endloop
  endfacet
  facet normal 0 0 -1
    outer loop
      vertex 34.5 -8.22724 -5
      vertex 33.5 -6.49519 -5
      vertex 34.1584 -6.06763 -5
    endloop
  endfacet
  facet normal 0 0 -1
    outer loop
      vertex 33.614 -8.67868 -5
      vertex 32.8005 -6.85159 -5
      vertex 33.5 -6.49519 -5
    endloop
  endfacet
  facet normal 0 0 -1
    outer loop
      vertex 32.6857 -9.03504 -5
      vertex 32.8005 -6.85159 -5
      vertex 33.614 -8.67868 -5
    endloop
  endfacet
  facet normal 0 0 -1
    outer loop
      vertex 32.6857 -9.03504 -5
      vertex 32.0676 -7.13292 -5
      vertex 32.8005 -6.85159 -5
    endloop
  endfacet
  facet normal 0 0 -1
    outer loop
      vertex 31.7252 -9.2924 -5
      vertex 32.0676 -7.13292 -5
      vertex 32.6857 -9.03504 -5
    endloop
  endfacet
  facet normal 0 0 -1
    outer loop
      vertex 31.7252 -9.2924 -5
      vertex 31.3093 -7.33611 -5
      vertex 32.0676 -7.13292 -5
    endloop
  endfacet
  facet normal 0 0 -1
    outer loop
      vertex 30.743 -9.44796 -5
      vertex 31.3093 -7.33611 -5
      vertex 31.7252 -9.2924 -5
    endloop
  endfacet
  facet normal 0 0 -1
    outer loop
      vertex 30.743 -9.44796 -5
      vertex 30.534 -7.45891 -5
      vertex 31.3093 -7.33611 -5
    endloop
  endfacet
  facet normal 0 0 -1
    outer loop
      vertex 29.75 -9.5 -5
      vertex 30.534 -7.45891 -5
      vertex 30.743 -9.44796 -5
    endloop
  endfacet
  facet normal 0 0 -1
    outer loop
      vertex 29.75 -9.5 -5
      vertex 29.75 -7.5 -5
      vertex 30.534 -7.45891 -5
    endloop
  endfacet
  facet normal 0 0 -1
    outer loop
      vertex -29.75 -9.5 -5
      vertex 29.75 -7.5 -5
      vertex 29.75 -9.5 -5
    endloop
  endfacet
  facet normal 0 0 -1
    outer loop
      vertex -29.75 -9.5 -5
      vertex -29.75 -7.5 -5
      vertex 29.75 -7.5 -5
    endloop
  endfacet
  facet normal 0 0 -1
    outer loop
      vertex -29.75 -9.5 -5
      vertex -30.534 -7.45891 -5
      vertex -29.75 -7.5 -5
    endloop
  endfacet
  facet normal 0 0 -1
    outer loop
      vertex -30.743 -9.44796 -5
      vertex -30.534 -7.45891 -5
      vertex -29.75 -9.5 -5
    endloop
  endfacet
  facet normal 0 0 -1
    outer loop
      vertex -30.743 -9.44796 -5
      vertex -31.3093 -7.33611 -5
      vertex -30.534 -7.45891 -5
    endloop
  endfacet
  facet normal 0 0 -1
    outer loop
      vertex -31.7252 -9.2924 -5
      vertex -31.3093 -7.33611 -5
      vertex -30.743 -9.44796 -5
    endloop
  endfacet
  facet normal 0 0 -1
    outer loop
      vertex -31.7252 -9.2924 -5
      vertex -32.0676 -7.13292 -5
      vertex -31.3093 -7.33611 -5
    endloop
  endfacet
  facet normal 0 0 -1
    outer loop
      vertex -32.6857 -9.03504 -5
      vertex -32.0676 -7.13292 -5
      vertex -31.7252 -9.2924 -5
    endloop
  endfacet
  facet normal 0 0 -1
    outer loop
      vertex -32.6857 -9.03504 -5
      vertex -32.8005 -6.85159 -5
      vertex -32.0676 -7.13292 -5
    endloop
  endfacet
  facet normal 0 0 -1
    outer loop
      vertex -33.614 -8.67868 -5
      vertex -32.8005 -6.85159 -5
      vertex -32.6857 -9.03504 -5
    endloop
  endfacet
  facet normal -0 0 -1
    outer loop
      vertex -32.8005 -6.85159 -5
      vertex -33.614 -8.67868 -5
      vertex -33.5 -6.49519 -5
    endloop
  endfacet
  facet normal 0 0 -1
    outer loop
      vertex -34.5 -8.22724 -5
      vertex -33.5 -6.49519 -5
      vertex -33.614 -8.67868 -5
    endloop
  endfacet
  facet normal -0 0 -1
    outer loop
      vertex -33.5 -6.49519 -5
      vertex -34.5 -8.22724 -5
      vertex -34.1584 -6.06763 -5
    endloop
  endfacet
  facet normal 0 0 -1
    outer loop
      vertex -35.334 -7.68566 -5
      vertex -34.1584 -6.06763 -5
      vertex -34.5 -8.22724 -5
    endloop
  endfacet
  facet normal -0 0 -1
    outer loop
      vertex -34.1584 -6.06763 -5
      vertex -35.334 -7.68566 -5
      vertex -34.7685 -5.57359 -5
    endloop
  endfacet
  facet normal 0 0 -1
    outer loop
      vertex -36.1067 -7.05988 -5
      vertex -34.7685 -5.57359 -5
      vertex -35.334 -7.68566 -5
    endloop
  endfacet
  facet normal -0 0 -1
    outer loop
      vertex -34.7685 -5.57359 -5
      vertex -36.1067 -7.05988 -5
      vertex -35.3236 -5.01848 -5
    endloop
  endfacet
  facet normal 0 0 -1
    outer loop
      vertex -36.8099 -6.35674 -5
      vertex -35.3236 -5.01848 -5
      vertex -36.1067 -7.05988 -5
    endloop
  endfacet
  facet normal -0 0 -1
    outer loop
      vertex -35.3236 -5.01848 -5
      vertex -36.8099 -6.35674 -5
      vertex -35.8176 -4.40839 -5
    endloop
  endfacet
  facet normal 0 0 -1
    outer loop
      vertex -37.4357 -5.58396 -5
      vertex -35.8176 -4.40839 -5
      vertex -36.8099 -6.35674 -5
    endloop
  endfacet
  facet normal -0 0 -1
    outer loop
      vertex -35.8176 -4.40839 -5
      vertex -37.4357 -5.58396 -5
      vertex -36.2452 -3.75 -5
    endloop
  endfacet
  facet normal 0 0 -1
    outer loop
      vertex -37.9772 -4.75 -5
      vertex -36.2452 -3.75 -5
      vertex -37.4357 -5.58396 -5
    endloop
  endfacet
  facet normal -0 0 -1
    outer loop
      vertex -36.2452 -3.75 -5
      vertex -37.9772 -4.75 -5
      vertex -36.6016 -3.05052 -5
    endloop
  endfacet
  facet normal 0 0 -1
    outer loop
      vertex -38.4287 -3.864 -5
      vertex -36.6016 -3.05052 -5
      vertex -37.9772 -4.75 -5
    endloop
  endfacet
  facet normal 0 0 -1
    outer loop
      vertex -38.785 -2.93566 -5
      vertex -36.8829 -2.31763 -5
      vertex -38.4287 -3.864 -5
    endloop
  endfacet
  facet normal -0 0 -1
    outer loop
      vertex -36.6016 -3.05052 -5
      vertex -38.4287 -3.864 -5
      vertex -36.8829 -2.31763 -5
    endloop
  endfacet
  facet normal -0 0 -1
    outer loop
      vertex 38.785 2.93566 -5
      vertex 36.8829 2.31763 -5
      vertex 38.4287 3.864 -5
    endloop
  endfacet
  facet normal 0 0 -1
    outer loop
      vertex 36.6016 3.05052 -5
      vertex 38.4287 3.864 -5
      vertex 36.8829 2.31763 -5
    endloop
  endfacet
  facet normal -0 0 -1
    outer loop
      vertex 38.4287 3.864 -5
      vertex 36.6016 3.05052 -5
      vertex 37.9772 4.75 -5
    endloop
  endfacet
  facet normal 0 0 -1
    outer loop
      vertex 36.2452 3.75 -5
      vertex 37.9772 4.75 -5
      vertex 36.6016 3.05052 -5
    endloop
  endfacet
  facet normal -0 0 -1
    outer loop
      vertex 37.9772 4.75 -5
      vertex 36.2452 3.75 -5
      vertex 37.4357 5.58396 -5
    endloop
  endfacet
  facet normal 0 0 -1
    outer loop
      vertex 35.8176 4.40839 -5
      vertex 37.4357 5.58396 -5
      vertex 36.2452 3.75 -5
    endloop
  endfacet
  facet normal -0 0 -1
    outer loop
      vertex 37.4357 5.58396 -5
      vertex 35.8176 4.40839 -5
      vertex 36.8099 6.35674 -5
    endloop
  endfacet
  facet normal 0 0 -1
    outer loop
      vertex 35.3236 5.01848 -5
      vertex 36.8099 6.35674 -5
      vertex 35.8176 4.40839 -5
    endloop
  endfacet
  facet normal -0 0 -1
    outer loop
      vertex 36.8099 6.35674 -5
      vertex 35.3236 5.01848 -5
      vertex 36.1067 7.05988 -5
    endloop
  endfacet
  facet normal 0 0 -1
    outer loop
      vertex 34.7685 5.57359 -5
      vertex 36.1067 7.05988 -5
      vertex 35.3236 5.01848 -5
    endloop
  endfacet
  facet normal -0 0 -1
    outer loop
      vertex 36.1067 7.05988 -5
      vertex 34.7685 5.57359 -5
      vertex 35.334 7.68566 -5
    endloop
  endfacet
  facet normal 0 0 -1
    outer loop
      vertex 34.1584 6.06763 -5
      vertex 35.334 7.68566 -5
      vertex 34.7685 5.57359 -5
    endloop
  endfacet
  facet normal -0 0 -1
    outer loop
      vertex 35.334 7.68566 -5
      vertex 34.1584 6.06763 -5
      vertex 34.5 8.22724 -5
    endloop
  endfacet
  facet normal 0 0 -1
    outer loop
      vertex 33.5 6.49519 -5
      vertex 34.5 8.22724 -5
      vertex 34.1584 6.06763 -5
    endloop
  endfacet
  facet normal -0 0 -1
    outer loop
      vertex 34.5 8.22724 -5
      vertex 33.5 6.49519 -5
      vertex 33.614 8.67868 -5
    endloop
  endfacet
  facet normal 0 0 -1
    outer loop
      vertex 32.8005 6.85159 -5
      vertex 33.614 8.67868 -5
      vertex 33.5 6.49519 -5
    endloop
  endfacet
  facet normal 0 0 -1
    outer loop
      vertex 32.8005 6.85159 -5
      vertex 32.6857 9.03504 -5
      vertex 33.614 8.67868 -5
    endloop
  endfacet
  facet normal 0 0 -1
    outer loop
      vertex 32.0676 7.13292 -5
      vertex 32.6857 9.03504 -5
      vertex 32.8005 6.85159 -5
    endloop
  endfacet
  facet normal 0 0 -1
    outer loop
      vertex 32.0676 7.13292 -5
      vertex 31.7252 9.2924 -5
      vertex 32.6857 9.03504 -5
    endloop
  endfacet
  facet normal 0 0 -1
    outer loop
      vertex 31.3093 7.33611 -5
      vertex 31.7252 9.2924 -5
      vertex 32.0676 7.13292 -5
    endloop
  endfacet
  facet normal 0 0 -1
    outer loop
      vertex 31.3093 7.33611 -5
      vertex 30.743 9.44796 -5
      vertex 31.7252 9.2924 -5
    endloop
  endfacet
  facet normal 0 0 -1
    outer loop
      vertex 30.534 7.45891 -5
      vertex 30.743 9.44796 -5
      vertex 31.3093 7.33611 -5
    endloop
  endfacet
  facet normal 0 0 -1
    outer loop
      vertex 29.75 7.5 -5
      vertex 30.743 9.44796 -5
      vertex 30.534 7.45891 -5
    endloop
  endfacet
  facet normal 0 0 -1
    outer loop
      vertex 29.75 7.5 -5
      vertex 29.75 9.5 -5
      vertex 30.743 9.44796 -5
    endloop
  endfacet
  facet normal 0 0 -1
    outer loop
      vertex -29.75 7.5 -5
      vertex 29.75 9.5 -5
      vertex 29.75 7.5 -5
    endloop
  endfacet
  facet normal 0 0 -1
    outer loop
      vertex -29.75 7.5 -5
      vertex -29.75 9.5 -5
      vertex 29.75 9.5 -5
    endloop
  endfacet
  facet normal 0 0 -1
    outer loop
      vertex -30.534 7.45891 -5
      vertex -29.75 9.5 -5
      vertex -29.75 7.5 -5
    endloop
  endfacet
  facet normal 0 0 -1
    outer loop
      vertex -30.534 7.45891 -5
      vertex -30.743 9.44796 -5
      vertex -29.75 9.5 -5
    endloop
  endfacet
  facet normal 0 0 -1
    outer loop
      vertex -31.3093 7.33611 -5
      vertex -30.743 9.44796 -5
      vertex -30.534 7.45891 -5
    endloop
  endfacet
  facet normal 0 0 -1
    outer loop
      vertex -31.3093 7.33611 -5
      vertex -31.7252 9.2924 -5
      vertex -30.743 9.44796 -5
    endloop
  endfacet
  facet normal 0 0 -1
    outer loop
      vertex -32.0676 7.13292 -5
      vertex -31.7252 9.2924 -5
      vertex -31.3093 7.33611 -5
    endloop
  endfacet
  facet normal 0 0 -1
    outer loop
      vertex -32.0676 7.13292 -5
      vertex -32.6857 9.03504 -5
      vertex -31.7252 9.2924 -5
    endloop
  endfacet
  facet normal 0 0 -1
    outer loop
      vertex -32.8005 6.85159 -5
      vertex -32.6857 9.03504 -5
      vertex -32.0676 7.13292 -5
    endloop
  endfacet
  facet normal 0 0 -1
    outer loop
      vertex -33.614 8.67868 -5
      vertex -32.8005 6.85159 -5
      vertex -33.5 6.49519 -5
    endloop
  endfacet
  facet normal 0 0 -1
    outer loop
      vertex -32.8005 6.85159 -5
      vertex -33.614 8.67868 -5
      vertex -32.6857 9.03504 -5
    endloop
  endfacet
  facet normal 0 0 -1
    outer loop
      vertex -34.5 8.22724 -5
      vertex -33.5 6.49519 -5
      vertex -34.1584 6.06763 -5
    endloop
  endfacet
  facet normal 0 0 -1
    outer loop
      vertex -33.5 6.49519 -5
      vertex -34.5 8.22724 -5
      vertex -33.614 8.67868 -5
    endloop
  endfacet
  facet normal 0 0 -1
    outer loop
      vertex -35.334 7.68566 -5
      vertex -34.1584 6.06763 -5
      vertex -34.7685 5.57359 -5
    endloop
  endfacet
  facet normal 0 0 -1
    outer loop
      vertex -36.1067 7.05988 -5
      vertex -34.7685 5.57359 -5
      vertex -35.3236 5.01848 -5
    endloop
  endfacet
  facet normal 0 0 -1
    outer loop
      vertex -34.1584 6.06763 -5
      vertex -35.334 7.68566 -5
      vertex -34.5 8.22724 -5
    endloop
  endfacet
  facet normal 0 0 -1
    outer loop
      vertex -36.8099 6.35674 -5
      vertex -35.3236 5.01848 -5
      vertex -35.8176 4.40839 -5
    endloop
  endfacet
  facet normal 0 0 -1
    outer loop
      vertex -34.7685 5.57359 -5
      vertex -36.1067 7.05988 -5
      vertex -35.334 7.68566 -5
    endloop
  endfacet
  facet normal 0 0 -1
    outer loop
      vertex -37.4357 5.58396 -5
      vertex -35.8176 4.40839 -5
      vertex -36.2452 3.75 -5
    endloop
  endfacet
  facet normal 0 0 -1
    outer loop
      vertex -37.9772 4.75 -5
      vertex -36.2452 3.75 -5
      vertex -36.6016 3.05052 -5
    endloop
  endfacet
  facet normal 0 0 -1
    outer loop
      vertex -35.3236 5.01848 -5
      vertex -36.8099 6.35674 -5
      vertex -36.1067 7.05988 -5
    endloop
  endfacet
  facet normal 0 0 -1
    outer loop
      vertex -38.4287 3.864 -5
      vertex -36.6016 3.05052 -5
      vertex -36.8829 2.31763 -5
    endloop
  endfacet
  facet normal 0 0 -1
    outer loop
      vertex -38.785 2.93566 -5
      vertex -36.8829 2.31763 -5
      vertex -37.0861 1.55934 -5
    endloop
  endfacet
  facet normal 0 0 -1
    outer loop
      vertex -39.0424 1.97516 -5
      vertex -37.0861 1.55934 -5
      vertex -37.2089 0.783963 -5
    endloop
  endfacet
  facet normal 0 0 -1
    outer loop
      vertex -35.8176 4.40839 -5
      vertex -37.4357 5.58396 -5
      vertex -36.8099 6.35674 -5
    endloop
  endfacet
  facet normal 0 0 -1
    outer loop
      vertex -39.198 0.99302 -5
      vertex -37.2089 0.783963 -5
      vertex -37.25 0 -5
    endloop
  endfacet
  facet normal -0 0 -1
    outer loop
      vertex -36.8829 -2.31763 -5
      vertex -38.785 -2.93566 -5
      vertex -37.0861 -1.55934 -5
    endloop
  endfacet
  facet normal 0 0 -1
    outer loop
      vertex -39.0424 -1.97516 -5
      vertex -37.0861 -1.55934 -5
      vertex -38.785 -2.93566 -5
    endloop
  endfacet
  facet normal 0 0 -1
    outer loop
      vertex -36.2452 3.75 -5
      vertex -37.9772 4.75 -5
      vertex -37.4357 5.58396 -5
    endloop
  endfacet
  facet normal -0 0 -1
    outer loop
      vertex -37.0861 -1.55934 -5
      vertex -39.0424 -1.97516 -5
      vertex -37.2089 -0.783963 -5
    endloop
  endfacet
  facet normal 0 0 -1
    outer loop
      vertex -36.6016 3.05052 -5
      vertex -38.4287 3.864 -5
      vertex -37.9772 4.75 -5
    endloop
  endfacet
  facet normal 0 0 -1
    outer loop
      vertex -39.198 -0.99302 -5
      vertex -37.2089 -0.783963 -5
      vertex -39.0424 -1.97516 -5
    endloop
  endfacet
  facet normal 0 0 -1
    outer loop
      vertex -36.8829 2.31763 -5
      vertex -38.785 2.93566 -5
      vertex -38.4287 3.864 -5
    endloop
  endfacet
  facet normal -0 0 -1
    outer loop
      vertex -37.2089 -0.783963 -5
      vertex -39.198 -0.99302 -5
      vertex -37.25 0 -5
    endloop
  endfacet
  facet normal 0 0 -1
    outer loop
      vertex -37.0861 1.55934 -5
      vertex -39.0424 1.97516 -5
      vertex -38.785 2.93566 -5
    endloop
  endfacet
  facet normal 0 0 -1
    outer loop
      vertex -39.25 0 -5
      vertex -37.25 0 -5
      vertex -39.198 -0.99302 -5
    endloop
  endfacet
  facet normal 0 0 -1
    outer loop
      vertex -37.2089 0.783963 -5
      vertex -39.198 0.99302 -5
      vertex -39.0424 1.97516 -5
    endloop
  endfacet
  facet normal 0 0 -1
    outer loop
      vertex -37.25 0 -5
      vertex -39.25 0 -5
      vertex -39.198 0.99302 -5
    endloop
  endfacet
  facet normal -0.777139 -0.62933 0
    outer loop
      vertex -36.8099 -6.35674 -5
      vertex -37.4357 -5.58396 5
      vertex -37.4357 -5.58396 -5
    endloop
  endfacet
  facet normal -0.777139 -0.62933 0
    outer loop
      vertex -37.4357 -5.58396 5
      vertex -36.8099 -6.35674 -5
      vertex -36.8099 -6.35674 5
    endloop
  endfacet
  facet normal 0.15644 0.987687 -0
    outer loop
      vertex -30.534 -7.45891 -5
      vertex -31.3093 -7.33611 5
      vertex -30.534 -7.45891 5
    endloop
  endfacet
  facet normal 0.15644 0.987687 0
    outer loop
      vertex -31.3093 -7.33611 5
      vertex -30.534 -7.45891 -5
      vertex -31.3093 -7.33611 -5
    endloop
  endfacet
  facet normal -0.891008 -0.453988 0
    outer loop
      vertex 36.6016 3.05052 -5
      vertex 36.2452 3.75 5
      vertex 36.2452 3.75 -5
    endloop
  endfacet
  facet normal -0.891008 -0.453988 0
    outer loop
      vertex 36.2452 3.75 5
      vertex 36.6016 3.05052 -5
      vertex 36.6016 3.05052 5
    endloop
  endfacet
  facet normal 0.998629 -0.052354 0
    outer loop
      vertex -37.25 0 5
      vertex -37.2089 0.783963 -5
      vertex -37.2089 0.783963 5
    endloop
  endfacet
  facet normal 0.998629 -0.052354 0
    outer loop
      vertex -37.2089 0.783963 -5
      vertex -37.25 0 5
      vertex -37.25 0 -5
    endloop
  endfacet
  facet normal 0.453977 0.891013 -0
    outer loop
      vertex -32.8005 -6.85159 -5
      vertex -33.5 -6.49519 5
      vertex -32.8005 -6.85159 5
    endloop
  endfacet
  facet normal 0.453977 0.891013 0
    outer loop
      vertex -33.5 -6.49519 5
      vertex -32.8005 -6.85159 -5
      vertex -33.5 -6.49519 -5
    endloop
  endfacet
  facet normal 0.707113 0.7071 -0
    outer loop
      vertex -34.7685 -5.57359 -5
      vertex -35.3236 -5.01848 5
      vertex -34.7685 -5.57359 5
    endloop
  endfacet
  facet normal 0.707113 0.7071 0
    outer loop
      vertex -35.3236 -5.01848 5
      vertex -34.7685 -5.57359 -5
      vertex -35.3236 -5.01848 -5
    endloop
  endfacet
  facet normal 0.838649 0.544672 0
    outer loop
      vertex -35.8176 -4.40839 5
      vertex -36.2452 -3.75 -5
      vertex -36.2452 -3.75 5
    endloop
  endfacet
  facet normal 0.838649 0.544672 0
    outer loop
      vertex -36.2452 -3.75 -5
      vertex -35.8176 -4.40839 5
      vertex -35.8176 -4.40839 -5
    endloop
  endfacet
  facet normal 0.54463 0.838676 -0
    outer loop
      vertex -33.5 -6.49519 -5
      vertex -34.1584 -6.06763 5
      vertex -33.5 -6.49519 5
    endloop
  endfacet
  facet normal 0.54463 0.838676 0
    outer loop
      vertex -34.1584 -6.06763 5
      vertex -33.5 -6.49519 -5
      vertex -34.1584 -6.06763 -5
    endloop
  endfacet
  facet normal 0.891008 -0.453988 0
    outer loop
      vertex -36.6016 3.05052 5
      vertex -36.2452 3.75 -5
      vertex -36.2452 3.75 5
    endloop
  endfacet
  facet normal 0.891008 -0.453988 0
    outer loop
      vertex -36.2452 3.75 -5
      vertex -36.6016 3.05052 5
      vertex -36.6016 3.05052 -5
    endloop
  endfacet
  facet normal 0.15644 -0.987687 0
    outer loop
      vertex -31.3093 7.33611 -5
      vertex -30.534 7.45891 5
      vertex -31.3093 7.33611 5
    endloop
  endfacet
  facet normal 0.15644 -0.987687 0
    outer loop
      vertex -30.534 7.45891 5
      vertex -31.3093 7.33611 -5
      vertex -30.534 7.45891 -5
    endloop
  endfacet
  facet normal 0.258824 0.965925 -0
    outer loop
      vertex -31.3093 -7.33611 -5
      vertex -32.0676 -7.13292 5
      vertex -31.3093 -7.33611 5
    endloop
  endfacet
  facet normal 0.258824 0.965925 0
    outer loop
      vertex -32.0676 -7.13292 5
      vertex -31.3093 -7.33611 -5
      vertex -32.0676 -7.13292 -5
    endloop
  endfacet
  facet normal 0.777172 -0.629289 0
    outer loop
      vertex -35.8176 4.40839 5
      vertex -35.3236 5.01848 -5
      vertex -35.3236 5.01848 5
    endloop
  endfacet
  facet normal 0.777172 -0.629289 0
    outer loop
      vertex -35.3236 5.01848 -5
      vertex -35.8176 4.40839 5
      vertex -35.8176 4.40839 -5
    endloop
  endfacet
  facet normal -0.98769 0.156425 0
    outer loop
      vertex 37.0861 -1.55934 -5
      vertex 37.2089 -0.783963 5
      vertex 37.2089 -0.783963 -5
    endloop
  endfacet
  facet normal -0.98769 0.156425 0
    outer loop
      vertex 37.2089 -0.783963 5
      vertex 37.0861 -1.55934 -5
      vertex 37.0861 -1.55934 5
    endloop
  endfacet
  facet normal -0.358364 -0.933582 0
    outer loop
      vertex 32.0676 7.13292 -5
      vertex 32.8005 6.85159 5
      vertex 32.0676 7.13292 5
    endloop
  endfacet
  facet normal -0.358364 -0.933582 -0
    outer loop
      vertex 32.8005 6.85159 5
      vertex 32.0676 7.13292 -5
      vertex 32.8005 6.85159 -5
    endloop
  endfacet
  facet normal 0.358364 0.933582 -0
    outer loop
      vertex -32.0676 -7.13292 -5
      vertex -32.8005 -6.85159 5
      vertex -32.0676 -7.13292 5
    endloop
  endfacet
  facet normal 0.358364 0.933582 0
    outer loop
      vertex -32.8005 -6.85159 5
      vertex -32.0676 -7.13292 -5
      vertex -32.8005 -6.85159 -5
    endloop
  endfacet
  facet normal 0.98769 0.156425 0
    outer loop
      vertex -37.0861 -1.55934 5
      vertex -37.2089 -0.783963 -5
      vertex -37.2089 -0.783963 5
    endloop
  endfacet
  facet normal 0.98769 0.156425 0
    outer loop
      vertex -37.2089 -0.783963 -5
      vertex -37.0861 -1.55934 5
      vertex -37.0861 -1.55934 -5
    endloop
  endfacet
  facet normal -0.453977 -0.891013 0
    outer loop
      vertex 32.8005 6.85159 -5
      vertex 33.5 6.49519 5
      vertex 32.8005 6.85159 5
    endloop
  endfacet
  facet normal -0.453977 -0.891013 -0
    outer loop
      vertex 33.5 6.49519 5
      vertex 32.8005 6.85159 -5
      vertex 33.5 6.49519 -5
    endloop
  endfacet
  facet normal 0 -1 0
    outer loop
      vertex -29.75 7.5 -5
      vertex 29.75 7.5 5
      vertex -29.75 7.5 5
    endloop
  endfacet
  facet normal 0 -1 -0
    outer loop
      vertex 29.75 7.5 5
      vertex -29.75 7.5 -5
      vertex 29.75 7.5 -5
    endloop
  endfacet
  facet normal -0.453977 0.891013 0
    outer loop
      vertex 33.5 -6.49519 -5
      vertex 32.8005 -6.85159 5
      vertex 33.5 -6.49519 5
    endloop
  endfacet
  facet normal -0.453977 0.891013 0
    outer loop
      vertex 32.8005 -6.85159 5
      vertex 33.5 -6.49519 -5
      vertex 32.8005 -6.85159 -5
    endloop
  endfacet
  facet normal -0.96592 0.258839 0
    outer loop
      vertex 36.8829 -2.31763 -5
      vertex 37.0861 -1.55934 5
      vertex 37.0861 -1.55934 -5
    endloop
  endfacet
  facet normal -0.96592 0.258839 0
    outer loop
      vertex 37.0861 -1.55934 5
      vertex 36.8829 -2.31763 -5
      vertex 36.8829 -2.31763 5
    endloop
  endfacet
  facet normal 0.98769 -0.156425 0
    outer loop
      vertex -37.2089 0.783963 5
      vertex -37.0861 1.55934 -5
      vertex -37.0861 1.55934 5
    endloop
  endfacet
  facet normal 0.98769 -0.156425 0
    outer loop
      vertex -37.0861 1.55934 -5
      vertex -37.2089 0.783963 5
      vertex -37.2089 0.783963 -5
    endloop
  endfacet
  facet normal -0.707113 -0.7071 0
    outer loop
      vertex 34.7685 5.57359 -5
      vertex 35.3236 5.01848 5
      vertex 34.7685 5.57359 5
    endloop
  endfacet
  facet normal -0.707113 -0.7071 -0
    outer loop
      vertex 35.3236 5.01848 5
      vertex 34.7685 5.57359 -5
      vertex 35.3236 5.01848 -5
    endloop
  endfacet
  facet normal -0.629313 -0.777152 0
    outer loop
      vertex 34.1584 6.06763 -5
      vertex 34.7685 5.57359 5
      vertex 34.1584 6.06763 5
    endloop
  endfacet
  facet normal -0.629313 -0.777152 -0
    outer loop
      vertex 34.7685 5.57359 5
      vertex 34.1584 6.06763 -5
      vertex 34.7685 5.57359 -5
    endloop
  endfacet
  facet normal -0.54463 -0.838676 0
    outer loop
      vertex 33.5 6.49519 -5
      vertex 34.1584 6.06763 5
      vertex 33.5 6.49519 5
    endloop
  endfacet
  facet normal -0.54463 -0.838676 -0
    outer loop
      vertex 34.1584 6.06763 5
      vertex 33.5 6.49519 -5
      vertex 34.1584 6.06763 -5
    endloop
  endfacet
  facet normal -0.777172 -0.629289 0
    outer loop
      vertex 35.8176 4.40839 -5
      vertex 35.3236 5.01848 5
      vertex 35.3236 5.01848 -5
    endloop
  endfacet
  facet normal -0.777172 -0.629289 0
    outer loop
      vertex 35.3236 5.01848 5
      vertex 35.8176 4.40839 -5
      vertex 35.8176 4.40839 5
    endloop
  endfacet
  facet normal 0.0523389 -0.998629 0
    outer loop
      vertex -30.534 7.45891 -5
      vertex -29.75 7.5 5
      vertex -30.534 7.45891 5
    endloop
  endfacet
  facet normal 0.0523389 -0.998629 0
    outer loop
      vertex -29.75 7.5 5
      vertex -30.534 7.45891 -5
      vertex -29.75 7.5 -5
    endloop
  endfacet
  facet normal 0.933593 -0.358335 0
    outer loop
      vertex -36.8829 2.31763 5
      vertex -36.6016 3.05052 -5
      vertex -36.6016 3.05052 5
    endloop
  endfacet
  facet normal 0.933593 -0.358335 0
    outer loop
      vertex -36.6016 3.05052 -5
      vertex -36.8829 2.31763 5
      vertex -36.8829 2.31763 -5
    endloop
  endfacet
  facet normal 0.0523389 0.998629 -0
    outer loop
      vertex -29.75 -7.5 -5
      vertex -30.534 -7.45891 5
      vertex -29.75 -7.5 5
    endloop
  endfacet
  facet normal 0.0523389 0.998629 0
    outer loop
      vertex -30.534 -7.45891 5
      vertex -29.75 -7.5 -5
      vertex -30.534 -7.45891 -5
    endloop
  endfacet
  facet normal -0.258824 0.965925 0
    outer loop
      vertex 32.0676 -7.13292 -5
      vertex 31.3093 -7.33611 5
      vertex 32.0676 -7.13292 5
    endloop
  endfacet
  facet normal -0.258824 0.965925 0
    outer loop
      vertex 31.3093 -7.33611 5
      vertex 32.0676 -7.13292 -5
      vertex 31.3093 -7.33611 -5
    endloop
  endfacet
  facet normal -0.0523389 0.998629 0
    outer loop
      vertex 30.534 -7.45891 -5
      vertex 29.75 -7.5 5
      vertex 30.534 -7.45891 5
    endloop
  endfacet
  facet normal -0.0523389 0.998629 0
    outer loop
      vertex 29.75 -7.5 5
      vertex 30.534 -7.45891 -5
      vertex 29.75 -7.5 -5
    endloop
  endfacet
  facet normal 0.629313 0.777152 -0
    outer loop
      vertex -34.1584 -6.06763 -5
      vertex -34.7685 -5.57359 5
      vertex -34.1584 -6.06763 5
    endloop
  endfacet
  facet normal 0.629313 0.777152 0
    outer loop
      vertex -34.7685 -5.57359 5
      vertex -34.1584 -6.06763 -5
      vertex -34.7685 -5.57359 -5
    endloop
  endfacet
  facet normal 0.777172 0.629289 0
    outer loop
      vertex -35.3236 -5.01848 5
      vertex -35.8176 -4.40839 -5
      vertex -35.8176 -4.40839 5
    endloop
  endfacet
  facet normal 0.777172 0.629289 0
    outer loop
      vertex -35.8176 -4.40839 -5
      vertex -35.3236 -5.01848 5
      vertex -35.3236 -5.01848 -5
    endloop
  endfacet
  facet normal 0.96592 -0.258839 0
    outer loop
      vertex -37.0861 1.55934 5
      vertex -36.8829 2.31763 -5
      vertex -36.8829 2.31763 5
    endloop
  endfacet
  facet normal 0.96592 -0.258839 0
    outer loop
      vertex -36.8829 2.31763 -5
      vertex -37.0861 1.55934 5
      vertex -37.0861 1.55934 -5
    endloop
  endfacet
  facet normal 0.998629 0.052354 0
    outer loop
      vertex -37.2089 -0.783963 5
      vertex -37.25 0 -5
      vertex -37.25 0 5
    endloop
  endfacet
  facet normal 0.998629 0.052354 0
    outer loop
      vertex -37.25 0 -5
      vertex -37.2089 -0.783963 5
      vertex -37.2089 -0.783963 -5
    endloop
  endfacet
  facet normal -0.838649 -0.544672 0
    outer loop
      vertex 36.2452 3.75 -5
      vertex 35.8176 4.40839 5
      vertex 35.8176 4.40839 -5
    endloop
  endfacet
  facet normal -0.838649 -0.544672 0
    outer loop
      vertex 35.8176 4.40839 5
      vertex 36.2452 3.75 -5
      vertex 36.2452 3.75 5
    endloop
  endfacet
  facet normal 0.453977 -0.891013 0
    outer loop
      vertex -33.5 6.49519 -5
      vertex -32.8005 6.85159 5
      vertex -33.5 6.49519 5
    endloop
  endfacet
  facet normal 0.453977 -0.891013 0
    outer loop
      vertex -32.8005 6.85159 5
      vertex -33.5 6.49519 -5
      vertex -32.8005 6.85159 -5
    endloop
  endfacet
  facet normal 0.707113 -0.7071 0
    outer loop
      vertex -35.3236 5.01848 -5
      vertex -34.7685 5.57359 5
      vertex -35.3236 5.01848 5
    endloop
  endfacet
  facet normal 0.707113 -0.7071 0
    outer loop
      vertex -34.7685 5.57359 5
      vertex -35.3236 5.01848 -5
      vertex -34.7685 5.57359 -5
    endloop
  endfacet
  facet normal -0.54463 0.838676 0
    outer loop
      vertex 34.1584 -6.06763 -5
      vertex 33.5 -6.49519 5
      vertex 34.1584 -6.06763 5
    endloop
  endfacet
  facet normal -0.54463 0.838676 0
    outer loop
      vertex 33.5 -6.49519 5
      vertex 34.1584 -6.06763 -5
      vertex 33.5 -6.49519 -5
    endloop
  endfacet
  facet normal 0.891008 0.453988 0
    outer loop
      vertex -36.2452 -3.75 5
      vertex -36.6016 -3.05052 -5
      vertex -36.6016 -3.05052 5
    endloop
  endfacet
  facet normal 0.891008 0.453988 0
    outer loop
      vertex -36.6016 -3.05052 -5
      vertex -36.2452 -3.75 5
      vertex -36.2452 -3.75 -5
    endloop
  endfacet
  facet normal 0 1 -0
    outer loop
      vertex 29.75 -7.5 -5
      vertex -29.75 -7.5 5
      vertex 29.75 -7.5 5
    endloop
  endfacet
  facet normal 0 1 0
    outer loop
      vertex -29.75 -7.5 5
      vertex 29.75 -7.5 -5
      vertex -29.75 -7.5 -5
    endloop
  endfacet
  facet normal 0.933593 0.358335 0
    outer loop
      vertex -36.6016 -3.05052 5
      vertex -36.8829 -2.31763 -5
      vertex -36.8829 -2.31763 5
    endloop
  endfacet
  facet normal 0.933593 0.358335 0
    outer loop
      vertex -36.8829 -2.31763 -5
      vertex -36.6016 -3.05052 5
      vertex -36.6016 -3.05052 -5
    endloop
  endfacet
  facet normal -0.629313 0.777152 0
    outer loop
      vertex 34.7685 -5.57359 -5
      vertex 34.1584 -6.06763 5
      vertex 34.7685 -5.57359 5
    endloop
  endfacet
  facet normal -0.629313 0.777152 0
    outer loop
      vertex 34.1584 -6.06763 5
      vertex 34.7685 -5.57359 -5
      vertex 34.1584 -6.06763 -5
    endloop
  endfacet
  facet normal 0.96592 0.258839 0
    outer loop
      vertex -36.8829 -2.31763 5
      vertex -37.0861 -1.55934 -5
      vertex -37.0861 -1.55934 5
    endloop
  endfacet
  facet normal 0.96592 0.258839 0
    outer loop
      vertex -37.0861 -1.55934 -5
      vertex -36.8829 -2.31763 5
      vertex -36.8829 -2.31763 -5
    endloop
  endfacet
  facet normal -0.838649 0.544672 0
    outer loop
      vertex 35.8176 -4.40839 -5
      vertex 36.2452 -3.75 5
      vertex 36.2452 -3.75 -5
    endloop
  endfacet
  facet normal -0.838649 0.544672 0
    outer loop
      vertex 36.2452 -3.75 5
      vertex 35.8176 -4.40839 -5
      vertex 35.8176 -4.40839 5
    endloop
  endfacet
  facet normal -0.358364 0.933582 0
    outer loop
      vertex 32.8005 -6.85159 -5
      vertex 32.0676 -7.13292 5
      vertex 32.8005 -6.85159 5
    endloop
  endfacet
  facet normal -0.358364 0.933582 0
    outer loop
      vertex 32.0676 -7.13292 5
      vertex 32.8005 -6.85159 -5
      vertex 32.0676 -7.13292 -5
    endloop
  endfacet
  facet normal -0.933593 -0.358335 0
    outer loop
      vertex 36.8829 2.31763 -5
      vertex 36.6016 3.05052 5
      vertex 36.6016 3.05052 -5
    endloop
  endfacet
  facet normal -0.933593 -0.358335 0
    outer loop
      vertex 36.6016 3.05052 5
      vertex 36.8829 2.31763 -5
      vertex 36.8829 2.31763 5
    endloop
  endfacet
  facet normal -0.258824 -0.965925 0
    outer loop
      vertex 31.3093 7.33611 -5
      vertex 32.0676 7.13292 5
      vertex 31.3093 7.33611 5
    endloop
  endfacet
  facet normal -0.258824 -0.965925 -0
    outer loop
      vertex 32.0676 7.13292 5
      vertex 31.3093 7.33611 -5
      vertex 32.0676 7.13292 -5
    endloop
  endfacet
  facet normal 0.258824 -0.965925 0
    outer loop
      vertex -32.0676 7.13292 -5
      vertex -31.3093 7.33611 5
      vertex -32.0676 7.13292 5
    endloop
  endfacet
  facet normal 0.258824 -0.965925 0
    outer loop
      vertex -31.3093 7.33611 5
      vertex -32.0676 7.13292 -5
      vertex -31.3093 7.33611 -5
    endloop
  endfacet
  facet normal 0.629313 -0.777152 0
    outer loop
      vertex -34.7685 5.57359 -5
      vertex -34.1584 6.06763 5
      vertex -34.7685 5.57359 5
    endloop
  endfacet
  facet normal 0.629313 -0.777152 0
    outer loop
      vertex -34.1584 6.06763 5
      vertex -34.7685 5.57359 -5
      vertex -34.1584 6.06763 -5
    endloop
  endfacet
  facet normal -0.96592 -0.258839 0
    outer loop
      vertex 37.0861 1.55934 -5
      vertex 36.8829 2.31763 5
      vertex 36.8829 2.31763 -5
    endloop
  endfacet
  facet normal -0.96592 -0.258839 0
    outer loop
      vertex 36.8829 2.31763 5
      vertex 37.0861 1.55934 -5
      vertex 37.0861 1.55934 5
    endloop
  endfacet
  facet normal -0.998629 -0.052354 0
    outer loop
      vertex 37.25 0 -5
      vertex 37.2089 0.783963 5
      vertex 37.2089 0.783963 -5
    endloop
  endfacet
  facet normal -0.998629 -0.052354 0
    outer loop
      vertex 37.2089 0.783963 5
      vertex 37.25 0 -5
      vertex 37.25 0 5
    endloop
  endfacet
  facet normal 0.358364 -0.933582 0
    outer loop
      vertex -32.8005 6.85159 -5
      vertex -32.0676 7.13292 5
      vertex -32.8005 6.85159 5
    endloop
  endfacet
  facet normal 0.358364 -0.933582 0
    outer loop
      vertex -32.0676 7.13292 5
      vertex -32.8005 6.85159 -5
      vertex -32.0676 7.13292 -5
    endloop
  endfacet
  facet normal -0.933593 0.358335 0
    outer loop
      vertex 36.6016 -3.05052 -5
      vertex 36.8829 -2.31763 5
      vertex 36.8829 -2.31763 -5
    endloop
  endfacet
  facet normal -0.933593 0.358335 0
    outer loop
      vertex 36.8829 -2.31763 5
      vertex 36.6016 -3.05052 -5
      vertex 36.6016 -3.05052 5
    endloop
  endfacet
  facet normal -0.891008 0.453988 0
    outer loop
      vertex 36.2452 -3.75 -5
      vertex 36.6016 -3.05052 5
      vertex 36.6016 -3.05052 -5
    endloop
  endfacet
  facet normal -0.891008 0.453988 0
    outer loop
      vertex 36.6016 -3.05052 5
      vertex 36.2452 -3.75 -5
      vertex 36.2452 -3.75 5
    endloop
  endfacet
  facet normal -0.98769 -0.156425 0
    outer loop
      vertex 37.2089 0.783963 -5
      vertex 37.0861 1.55934 5
      vertex 37.0861 1.55934 -5
    endloop
  endfacet
  facet normal -0.98769 -0.156425 0
    outer loop
      vertex 37.0861 1.55934 5
      vertex 37.2089 0.783963 -5
      vertex 37.2089 0.783963 5
    endloop
  endfacet
  facet normal -0.998629 0.052354 0
    outer loop
      vertex 37.2089 -0.783963 -5
      vertex 37.25 0 5
      vertex 37.25 0 -5
    endloop
  endfacet
  facet normal -0.998629 0.052354 0
    outer loop
      vertex 37.25 0 5
      vertex 37.2089 -0.783963 -5
      vertex 37.2089 -0.783963 5
    endloop
  endfacet
  facet normal -0.15644 -0.987687 0
    outer loop
      vertex 30.534 7.45891 -5
      vertex 31.3093 7.33611 5
      vertex 30.534 7.45891 5
    endloop
  endfacet
  facet normal -0.15644 -0.987687 -0
    outer loop
      vertex 31.3093 7.33611 5
      vertex 30.534 7.45891 -5
      vertex 31.3093 7.33611 -5
    endloop
  endfacet
  facet normal -0.0523389 -0.998629 0
    outer loop
      vertex 29.75 7.5 -5
      vertex 30.534 7.45891 5
      vertex 29.75 7.5 5
    endloop
  endfacet
  facet normal -0.0523389 -0.998629 -0
    outer loop
      vertex 30.534 7.45891 5
      vertex 29.75 7.5 -5
      vertex 30.534 7.45891 -5
    endloop
  endfacet
  facet normal 0.838649 -0.544672 0
    outer loop
      vertex -36.2452 3.75 5
      vertex -35.8176 4.40839 -5
      vertex -35.8176 4.40839 5
    endloop
  endfacet
  facet normal 0.838649 -0.544672 0
    outer loop
      vertex -35.8176 4.40839 -5
      vertex -36.2452 3.75 5
      vertex -36.2452 3.75 -5
    endloop
  endfacet
  facet normal -0.15644 0.987687 0
    outer loop
      vertex 31.3093 -7.33611 -5
      vertex 30.534 -7.45891 5
      vertex 31.3093 -7.33611 5
    endloop
  endfacet
  facet normal -0.15644 0.987687 0
    outer loop
      vertex 30.534 -7.45891 5
      vertex 31.3093 -7.33611 -5
      vertex 30.534 -7.45891 -5
    endloop
  endfacet
  facet normal -0.707113 0.7071 0
    outer loop
      vertex 35.3236 -5.01848 -5
      vertex 34.7685 -5.57359 5
      vertex 35.3236 -5.01848 5
    endloop
  endfacet
  facet normal -0.707113 0.7071 0
    outer loop
      vertex 34.7685 -5.57359 5
      vertex 35.3236 -5.01848 -5
      vertex 34.7685 -5.57359 -5
    endloop
  endfacet
  facet normal 0.54463 -0.838676 0
    outer loop
      vertex -34.1584 6.06763 -5
      vertex -33.5 6.49519 5
      vertex -34.1584 6.06763 5
    endloop
  endfacet
  facet normal 0.54463 -0.838676 0
    outer loop
      vertex -33.5 6.49519 5
      vertex -34.1584 6.06763 -5
      vertex -33.5 6.49519 -5
    endloop
  endfacet
  facet normal -0.777172 0.629289 0
    outer loop
      vertex 35.3236 -5.01848 -5
      vertex 35.8176 -4.40839 5
      vertex 35.8176 -4.40839 -5
    endloop
  endfacet
  facet normal -0.777172 0.629289 0
    outer loop
      vertex 35.8176 -4.40839 5
      vertex 35.3236 -5.01848 -5
      vertex 35.3236 -5.01848 5
    endloop
  endfacet
endsolid OpenSCAD_Model
