solid OpenSCAD_Model
  facet normal 0.951041 0.309065 0
    outer loop
      vertex 36.9733 2.76093 -73.5
      vertex 37.2644 1.86517 73.5
      vertex 37.2644 1.86517 -73.5
    endloop
  endfacet
  facet normal 0 0 1
    outer loop
      vertex 34.7807 -5.77885 73.5
      vertex -36.5723 3.61315 73.5
      vertex 34.0187 -6.33246 73.5
    endloop
  endfacet
  facet normal 0 0 1
    outer loop
      vertex 36.0676 4.40839 73.5
      vertex -36.5723 3.61315 73.5
      vertex 36.5723 3.61315 73.5
    endloop
  endfacet
  facet normal -0.248707 0.968579 0
    outer loop
      vertex -32.3176 7.13292 73.5
      vertex -31.4054 7.36715 -73.5
      vertex -32.3176 7.13292 -73.5
    endloop
  endfacet
  facet normal -0 0 1
    outer loop
      vertex -34.0187 6.33246 73.5
      vertex -36.5723 3.61315 73.5
      vertex -33.1933 6.7862 73.5
    endloop
  endfacet
  facet normal 0 0 -1
    outer loop
      vertex -34.0187 -6.33246 -73.5
      vertex -34.7807 -5.77885 -73.5
      vertex -33.1933 -6.7862 -73.5
    endloop
  endfacet
  facet normal 0 1 0
    outer loop
      vertex -30.4709 7.4852 -73.5
      vertex 30.4709 7.4852 73.5
      vertex 30.4709 7.4852 -73.5
    endloop
  endfacet
  facet normal 0.587775 0.809025 0
    outer loop
      vertex 34.0187 6.33246 73.5
      vertex 34.7807 5.77885 -73.5
      vertex 34.0187 6.33246 -73.5
    endloop
  endfacet
  facet normal -0.125328 -0.992115 -0
    outer loop
      vertex -31.4054 -7.36715 73.5
      vertex -31.4054 -7.36715 -73.5
      vertex -30.4709 -7.4852 73.5
    endloop
  endfacet
  facet normal 0.684541 0.728974 0
    outer loop
      vertex 35.4673 5.1341 73.5
      vertex 34.7807 5.77885 -73.5
      vertex 34.7807 5.77885 73.5
    endloop
  endfacet
  facet normal -0.248707 -0.968579 0
    outer loop
      vertex -32.3176 -7.13292 73.5
      vertex -31.4054 -7.36715 -73.5
      vertex -31.4054 -7.36715 73.5
    endloop
  endfacet
  facet normal 0.904837 -0.425758 0
    outer loop
      vertex 36.5723 -3.61315 73.5
      vertex 36.5723 -3.61315 -73.5
      vertex 36.9733 -2.76093 73.5
    endloop
  endfacet
  facet normal 0 0 1
    outer loop
      vertex 33.1933 6.7862 73.5
      vertex -36.5723 3.61315 73.5
      vertex 34.0187 6.33246 73.5
    endloop
  endfacet
  facet normal 0 0 -1
    outer loop
      vertex 32.3176 -7.13292 -73.5
      vertex -34.7807 -5.77885 -73.5
      vertex 33.1933 -6.7862 -73.5
    endloop
  endfacet
  facet normal 0.770544 0.637386 0
    outer loop
      vertex 35.4673 5.1341 73.5
      vertex 36.0676 4.40839 -73.5
      vertex 35.4673 5.1341 -73.5
    endloop
  endfacet
  facet normal 0 -0 -1
    outer loop
      vertex -37.4409 0.939999 -73.5
      vertex -34.7807 -5.77885 -73.5
      vertex -37.5 0 -73.5
    endloop
  endfacet
  facet normal 0 0 1
    outer loop
      vertex -35.4673 -5.1341 73.5
      vertex -36.5723 3.61315 73.5
      vertex -36.0676 -4.40839 73.5
    endloop
  endfacet
  facet normal -0.904837 0.425758 0
    outer loop
      vertex -36.9733 2.76093 -73.5
      vertex -36.5723 3.61315 73.5
      vertex -36.5723 3.61315 -73.5
    endloop
  endfacet
  facet normal -0 1 0
    outer loop
      vertex -30.4709 7.4852 73.5
      vertex 30.4709 7.4852 73.5
      vertex -30.4709 7.4852 -73.5
    endloop
  endfacet
  facet normal 0.587775 0.809025 0
    outer loop
      vertex 34.7807 5.77885 73.5
      vertex 34.7807 5.77885 -73.5
      vertex 34.0187 6.33246 73.5
    endloop
  endfacet
  facet normal -0.904837 0.425758 0
    outer loop
      vertex -36.9733 2.76093 73.5
      vertex -36.5723 3.61315 73.5
      vertex -36.9733 2.76093 -73.5
    endloop
  endfacet
  facet normal -0.587775 -0.809025 -0
    outer loop
      vertex -34.7807 -5.77885 73.5
      vertex -34.7807 -5.77885 -73.5
      vertex -34.0187 -6.33246 73.5
    endloop
  endfacet
  facet normal -0 0 1
    outer loop
      vertex -31.4054 7.36715 73.5
      vertex -36.5723 3.61315 73.5
      vertex -30.4709 7.4852 73.5
    endloop
  endfacet
  facet normal 0.125328 0.992115 0
    outer loop
      vertex 30.4709 7.4852 73.5
      vertex 31.4054 7.36715 73.5
      vertex 30.4709 7.4852 -73.5
    endloop
  endfacet
  facet normal -0 0 1
    outer loop
      vertex -36.0676 4.40839 73.5
      vertex -36.5723 3.61315 73.5
      vertex -35.4673 5.1341 73.5
    endloop
  endfacet
  facet normal 0.998029 0.0627485 0
    outer loop
      vertex 37.4409 0.939999 73.5
      vertex 37.5 0 -73.5
      vertex 37.4409 0.939999 -73.5
    endloop
  endfacet
  facet normal 0.904837 0.425758 -0
    outer loop
      vertex 36.9733 2.76093 -73.5
      vertex 36.5723 3.61315 -73.5
      vertex 36.9733 2.76093 73.5
    endloop
  endfacet
  facet normal 0 0 -1
    outer loop
      vertex -32.3176 7.13292 -73.5
      vertex -34.7807 -5.77885 -73.5
      vertex -33.1933 6.7862 -73.5
    endloop
  endfacet
  facet normal 0.248707 -0.968579 0
    outer loop
      vertex 32.3176 -7.13292 73.5
      vertex 31.4054 -7.36715 -73.5
      vertex 32.3176 -7.13292 -73.5
    endloop
  endfacet
  facet normal 0 0 1
    outer loop
      vertex 37.4409 -0.939999 73.5
      vertex -36.5723 3.61315 73.5
      vertex 37.2644 -1.86517 73.5
    endloop
  endfacet
  facet normal 0.998029 -0.0627485 0
    outer loop
      vertex 37.5 0 73.5
      vertex 37.4409 -0.939999 73.5
      vertex 37.5 0 -73.5
    endloop
  endfacet
  facet normal -0.684541 -0.728974 0
    outer loop
      vertex -35.4673 -5.1341 -73.5
      vertex -34.7807 -5.77885 -73.5
      vertex -35.4673 -5.1341 73.5
    endloop
  endfacet
  facet normal -0.844316 0.535846 0
    outer loop
      vertex -36.0676 4.40839 -73.5
      vertex -36.5723 3.61315 73.5
      vertex -36.0676 4.40839 73.5
    endloop
  endfacet
  facet normal 0 0 -1
    outer loop
      vertex -36.5723 -3.61315 -73.5
      vertex -34.7807 -5.77885 -73.5
      vertex -36.0676 -4.40839 -73.5
    endloop
  endfacet
  facet normal -0.481731 -0.876319 0
    outer loop
      vertex -33.1933 -6.7862 -73.5
      vertex -34.0187 -6.33246 73.5
      vertex -34.0187 -6.33246 -73.5
    endloop
  endfacet
  facet normal 0 -1 0
    outer loop
      vertex -30.4709 -7.4852 -73.5
      vertex 30.4709 -7.4852 73.5
      vertex -30.4709 -7.4852 73.5
    endloop
  endfacet
  facet normal -0 0 -1
    outer loop
      vertex 36.9733 -2.76093 -73.5
      vertex -34.7807 -5.77885 -73.5
      vertex 37.2644 -1.86517 -73.5
    endloop
  endfacet
  facet normal -0.770544 0.637386 0
    outer loop
      vertex -35.4673 5.1341 73.5
      vertex -36.0676 4.40839 -73.5
      vertex -36.0676 4.40839 73.5
    endloop
  endfacet
  facet normal 0.998029 0.0627485 0
    outer loop
      vertex 37.5 0 73.5
      vertex 37.5 0 -73.5
      vertex 37.4409 0.939999 73.5
    endloop
  endfacet
  facet normal 0 0 1
    outer loop
      vertex 36.5723 3.61315 73.5
      vertex -36.5723 3.61315 73.5
      vertex 36.9733 2.76093 73.5
    endloop
  endfacet
  facet normal 0.684541 -0.728974 0
    outer loop
      vertex 35.4673 -5.1341 73.5
      vertex 34.7807 -5.77885 -73.5
      vertex 35.4673 -5.1341 -73.5
    endloop
  endfacet
  facet normal 0 0 1
    outer loop
      vertex 36.9733 -2.76093 73.5
      vertex -36.5723 3.61315 73.5
      vertex 36.5723 -3.61315 73.5
    endloop
  endfacet
  facet normal -0 0 1
    outer loop
      vertex -34.7807 5.77885 73.5
      vertex -36.5723 3.61315 73.5
      vertex -34.0187 6.33246 73.5
    endloop
  endfacet
  facet normal 0 -0 -1
    outer loop
      vertex -35.4673 5.1341 -73.5
      vertex -34.7807 -5.77885 -73.5
      vertex -36.0676 4.40839 -73.5
    endloop
  endfacet
  facet normal 0 0 1
    outer loop
      vertex -32.3176 -7.13292 73.5
      vertex -36.5723 3.61315 73.5
      vertex -33.1933 -6.7862 73.5
    endloop
  endfacet
  facet normal 0.770544 -0.637386 0
    outer loop
      vertex 35.4673 -5.1341 -73.5
      vertex 36.0676 -4.40839 73.5
      vertex 35.4673 -5.1341 73.5
    endloop
  endfacet
  facet normal 0.481731 -0.876319 0
    outer loop
      vertex 34.0187 -6.33246 73.5
      vertex 33.1933 -6.7862 73.5
      vertex 34.0187 -6.33246 -73.5
    endloop
  endfacet
  facet normal -0.36813 -0.929774 0
    outer loop
      vertex -33.1933 -6.7862 -73.5
      vertex -32.3176 -7.13292 -73.5
      vertex -33.1933 -6.7862 73.5
    endloop
  endfacet
  facet normal 0 -0 1
    outer loop
      vertex -37.2644 -1.86517 73.5
      vertex -36.5723 3.61315 73.5
      vertex -37.4409 -0.939999 73.5
    endloop
  endfacet
  facet normal -0 0 -1
    outer loop
      vertex 36.5723 3.61315 -73.5
      vertex -34.7807 -5.77885 -73.5
      vertex 36.0676 4.40839 -73.5
    endloop
  endfacet
  facet normal -0.36813 0.929774 0
    outer loop
      vertex -32.3176 7.13292 73.5
      vertex -32.3176 7.13292 -73.5
      vertex -33.1933 6.7862 73.5
    endloop
  endfacet
  facet normal -0.36813 0.929774 0
    outer loop
      vertex -33.1933 6.7862 73.5
      vertex -32.3176 7.13292 -73.5
      vertex -33.1933 6.7862 -73.5
    endloop
  endfacet
  facet normal 0 0 1
    outer loop
      vertex 34.0187 6.33246 73.5
      vertex -36.5723 3.61315 73.5
      vertex 34.7807 5.77885 73.5
    endloop
  endfacet
  facet normal -0 0 -1
    outer loop
      vertex 36.0676 -4.40839 -73.5
      vertex -34.7807 -5.77885 -73.5
      vertex 36.5723 -3.61315 -73.5
    endloop
  endfacet
  facet normal 0.951041 0.309065 0
    outer loop
      vertex 36.9733 2.76093 73.5
      vertex 37.2644 1.86517 73.5
      vertex 36.9733 2.76093 -73.5
    endloop
  endfacet
  facet normal 0 0 1
    outer loop
      vertex 30.4709 7.4852 73.5
      vertex -36.5723 3.61315 73.5
      vertex 31.4054 7.36715 73.5
    endloop
  endfacet
  facet normal 0.982284 0.187396 -0
    outer loop
      vertex 37.2644 1.86517 -73.5
      vertex 37.2644 1.86517 73.5
      vertex 37.4409 0.939999 -73.5
    endloop
  endfacet
  facet normal 0 0 1
    outer loop
      vertex 34.0187 -6.33246 73.5
      vertex -36.5723 3.61315 73.5
      vertex 33.1933 -6.7862 73.5
    endloop
  endfacet
  facet normal 0 -0 1
    outer loop
      vertex -37.4409 -0.939999 73.5
      vertex -36.5723 3.61315 73.5
      vertex -37.5 0 73.5
    endloop
  endfacet
  facet normal -0.770544 -0.637386 -0
    outer loop
      vertex -36.0676 -4.40839 73.5
      vertex -36.0676 -4.40839 -73.5
      vertex -35.4673 -5.1341 73.5
    endloop
  endfacet
  facet normal 0.904837 -0.425758 0
    outer loop
      vertex 36.9733 -2.76093 73.5
      vertex 36.5723 -3.61315 -73.5
      vertex 36.9733 -2.76093 -73.5
    endloop
  endfacet
  facet normal 0.36813 0.929774 -0
    outer loop
      vertex 33.1933 6.7862 -73.5
      vertex 32.3176 7.13292 73.5
      vertex 33.1933 6.7862 73.5
    endloop
  endfacet
  facet normal -0.125328 0.992115 0
    outer loop
      vertex -30.4709 7.4852 73.5
      vertex -31.4054 7.36715 -73.5
      vertex -31.4054 7.36715 73.5
    endloop
  endfacet
  facet normal -0.587775 -0.809025 -0
    outer loop
      vertex -34.0187 -6.33246 73.5
      vertex -34.7807 -5.77885 -73.5
      vertex -34.0187 -6.33246 -73.5
    endloop
  endfacet
  facet normal 0.982284 -0.187396 0
    outer loop
      vertex 37.4409 -0.939999 73.5
      vertex 37.2644 -1.86517 73.5
      vertex 37.4409 -0.939999 -73.5
    endloop
  endfacet
  facet normal 0.998029 -0.0627485 0
    outer loop
      vertex 37.5 0 -73.5
      vertex 37.4409 -0.939999 73.5
      vertex 37.4409 -0.939999 -73.5
    endloop
  endfacet
  facet normal 0.982284 0.187396 -0
    outer loop
      vertex 37.4409 0.939999 -73.5
      vertex 37.2644 1.86517 73.5
      vertex 37.4409 0.939999 73.5
    endloop
  endfacet
  facet normal 0.248707 0.968579 -0
    outer loop
      vertex 31.4054 7.36715 -73.5
      vertex 31.4054 7.36715 73.5
      vertex 32.3176 7.13292 -73.5
    endloop
  endfacet
  facet normal 0 0 -1
    outer loop
      vertex -32.3176 -7.13292 -73.5
      vertex -34.7807 -5.77885 -73.5
      vertex -31.4054 -7.36715 -73.5
    endloop
  endfacet
  facet normal 0 0 -1
    outer loop
      vertex -33.1933 -6.7862 -73.5
      vertex -34.7807 -5.77885 -73.5
      vertex -32.3176 -7.13292 -73.5
    endloop
  endfacet
  facet normal -0 0 -1
    outer loop
      vertex 31.4054 7.36715 -73.5
      vertex -34.7807 -5.77885 -73.5
      vertex 30.4709 7.4852 -73.5
    endloop
  endfacet
  facet normal 0 -1 0
    outer loop
      vertex 30.4709 -7.4852 -73.5
      vertex 30.4709 -7.4852 73.5
      vertex -30.4709 -7.4852 -73.5
    endloop
  endfacet
  facet normal -0 0 -1
    outer loop
      vertex 37.4409 0.939999 -73.5
      vertex -34.7807 -5.77885 -73.5
      vertex 37.2644 1.86517 -73.5
    endloop
  endfacet
  facet normal -0.844316 0.535846 0
    outer loop
      vertex -36.5723 3.61315 -73.5
      vertex -36.5723 3.61315 73.5
      vertex -36.0676 4.40839 -73.5
    endloop
  endfacet
  facet normal -0.904837 -0.425758 0
    outer loop
      vertex -36.9733 -2.76093 -73.5
      vertex -36.5723 -3.61315 73.5
      vertex -36.9733 -2.76093 73.5
    endloop
  endfacet
  facet normal 0 0 -1
    outer loop
      vertex -36.9733 -2.76093 -73.5
      vertex -34.7807 -5.77885 -73.5
      vertex -36.5723 -3.61315 -73.5
    endloop
  endfacet
  facet normal 0 0 -1
    outer loop
      vertex 30.4709 -7.4852 -73.5
      vertex -34.7807 -5.77885 -73.5
      vertex 31.4054 -7.36715 -73.5
    endloop
  endfacet
  facet normal 0.684541 -0.728974 0
    outer loop
      vertex 34.7807 -5.77885 73.5
      vertex 34.7807 -5.77885 -73.5
      vertex 35.4673 -5.1341 73.5
    endloop
  endfacet
  facet normal 0.770544 -0.637386 0
    outer loop
      vertex 36.0676 -4.40839 -73.5
      vertex 36.0676 -4.40839 73.5
      vertex 35.4673 -5.1341 -73.5
    endloop
  endfacet
  facet normal -0 0 1
    outer loop
      vertex -33.1933 6.7862 73.5
      vertex -36.5723 3.61315 73.5
      vertex -32.3176 7.13292 73.5
    endloop
  endfacet
  facet normal -0.951041 0.309065 0
    outer loop
      vertex -37.2644 1.86517 -73.5
      vertex -37.2644 1.86517 73.5
      vertex -36.9733 2.76093 -73.5
    endloop
  endfacet
  facet normal 0.587775 -0.809025 0
    outer loop
      vertex 34.0187 -6.33246 73.5
      vertex 34.7807 -5.77885 -73.5
      vertex 34.7807 -5.77885 73.5
    endloop
  endfacet
  facet normal -0.998029 0.0627485 0
    outer loop
      vertex -37.5 0 -73.5
      vertex -37.4409 0.939999 73.5
      vertex -37.4409 0.939999 -73.5
    endloop
  endfacet
  facet normal -0.982284 0.187396 0
    outer loop
      vertex -37.4409 0.939999 -73.5
      vertex -37.4409 0.939999 73.5
      vertex -37.2644 1.86517 -73.5
    endloop
  endfacet
  facet normal 0.36813 -0.929774 0
    outer loop
      vertex 32.3176 -7.13292 -73.5
      vertex 33.1933 -6.7862 73.5
      vertex 32.3176 -7.13292 73.5
    endloop
  endfacet
  facet normal 0.770544 0.637386 0
    outer loop
      vertex 36.0676 4.40839 73.5
      vertex 36.0676 4.40839 -73.5
      vertex 35.4673 5.1341 73.5
    endloop
  endfacet
  facet normal 0.481731 -0.876319 0
    outer loop
      vertex 34.0187 -6.33246 -73.5
      vertex 33.1933 -6.7862 73.5
      vertex 33.1933 -6.7862 -73.5
    endloop
  endfacet
  facet normal 0.36813 0.929774 -0
    outer loop
      vertex 32.3176 7.13292 -73.5
      vertex 32.3176 7.13292 73.5
      vertex 33.1933 6.7862 -73.5
    endloop
  endfacet
  facet normal -0.481731 0.876319 0
    outer loop
      vertex -33.1933 6.7862 73.5
      vertex -34.0187 6.33246 -73.5
      vertex -34.0187 6.33246 73.5
    endloop
  endfacet
  facet normal -0.481731 0.876319 0
    outer loop
      vertex -33.1933 6.7862 -73.5
      vertex -34.0187 6.33246 -73.5
      vertex -33.1933 6.7862 73.5
    endloop
  endfacet
  facet normal 0 0 1
    outer loop
      vertex -34.7807 -5.77885 73.5
      vertex -36.5723 3.61315 73.5
      vertex -35.4673 -5.1341 73.5
    endloop
  endfacet
  facet normal -0 0 -1
    outer loop
      vertex 37.2644 1.86517 -73.5
      vertex -34.7807 -5.77885 -73.5
      vertex 36.9733 2.76093 -73.5
    endloop
  endfacet
  facet normal -0.684541 0.728974 0
    outer loop
      vertex -34.7807 5.77885 73.5
      vertex -34.7807 5.77885 -73.5
      vertex -35.4673 5.1341 73.5
    endloop
  endfacet
  facet normal -0 0 -1
    outer loop
      vertex 30.4709 7.4852 -73.5
      vertex -34.7807 -5.77885 -73.5
      vertex -30.4709 7.4852 -73.5
    endloop
  endfacet
  facet normal 0 0 -1
    outer loop
      vertex 33.1933 -6.7862 -73.5
      vertex -34.7807 -5.77885 -73.5
      vertex 34.0187 -6.33246 -73.5
    endloop
  endfacet
  facet normal -0 0 -1
    outer loop
      vertex 34.0187 6.33246 -73.5
      vertex -34.7807 -5.77885 -73.5
      vertex 33.1933 6.7862 -73.5
    endloop
  endfacet
  facet normal 0.125328 -0.992115 0
    outer loop
      vertex 30.4709 -7.4852 -73.5
      vertex 31.4054 -7.36715 -73.5
      vertex 30.4709 -7.4852 73.5
    endloop
  endfacet
  facet normal -0 0 -1
    outer loop
      vertex 36.0676 4.40839 -73.5
      vertex -34.7807 -5.77885 -73.5
      vertex 35.4673 5.1341 -73.5
    endloop
  endfacet
  facet normal -0.481731 -0.876319 -0
    outer loop
      vertex -33.1933 -6.7862 73.5
      vertex -34.0187 -6.33246 73.5
      vertex -33.1933 -6.7862 -73.5
    endloop
  endfacet
  facet normal 0.982284 -0.187396 0
    outer loop
      vertex 37.4409 -0.939999 -73.5
      vertex 37.2644 -1.86517 73.5
      vertex 37.2644 -1.86517 -73.5
    endloop
  endfacet
  facet normal -0 0 -1
    outer loop
      vertex 36.9733 2.76093 -73.5
      vertex -34.7807 -5.77885 -73.5
      vertex 36.5723 3.61315 -73.5
    endloop
  endfacet
  facet normal 0 0 -1
    outer loop
      vertex -31.4054 -7.36715 -73.5
      vertex -34.7807 -5.77885 -73.5
      vertex -30.4709 -7.4852 -73.5
    endloop
  endfacet
  facet normal 0.481731 0.876319 0
    outer loop
      vertex 34.0187 6.33246 73.5
      vertex 34.0187 6.33246 -73.5
      vertex 33.1933 6.7862 73.5
    endloop
  endfacet
  facet normal -0.248707 0.968579 0
    outer loop
      vertex -31.4054 7.36715 73.5
      vertex -31.4054 7.36715 -73.5
      vertex -32.3176 7.13292 73.5
    endloop
  endfacet
  facet normal 0.844316 -0.535846 0
    outer loop
      vertex 36.0676 -4.40839 73.5
      vertex 36.5723 -3.61315 -73.5
      vertex 36.5723 -3.61315 73.5
    endloop
  endfacet
  facet normal 0.844316 -0.535846 0
    outer loop
      vertex 36.0676 -4.40839 -73.5
      vertex 36.5723 -3.61315 -73.5
      vertex 36.0676 -4.40839 73.5
    endloop
  endfacet
  facet normal 0 0 1
    outer loop
      vertex -37.2644 1.86517 73.5
      vertex -36.5723 3.61315 73.5
      vertex -36.9733 2.76093 73.5
    endloop
  endfacet
  facet normal 0 -0 -1
    outer loop
      vertex -37.2644 1.86517 -73.5
      vertex -34.7807 -5.77885 -73.5
      vertex -37.4409 0.939999 -73.5
    endloop
  endfacet
  facet normal 0.844316 0.535846 0
    outer loop
      vertex 36.5723 3.61315 73.5
      vertex 36.5723 3.61315 -73.5
      vertex 36.0676 4.40839 73.5
    endloop
  endfacet
  facet normal 0 0 1
    outer loop
      vertex 31.4054 7.36715 73.5
      vertex -36.5723 3.61315 73.5
      vertex 32.3176 7.13292 73.5
    endloop
  endfacet
  facet normal -0 0 -1
    outer loop
      vertex 35.4673 -5.1341 -73.5
      vertex -34.7807 -5.77885 -73.5
      vertex 36.0676 -4.40839 -73.5
    endloop
  endfacet
  facet normal 0.587775 -0.809025 0
    outer loop
      vertex 34.0187 -6.33246 -73.5
      vertex 34.7807 -5.77885 -73.5
      vertex 34.0187 -6.33246 73.5
    endloop
  endfacet
  facet normal -0 0 1
    outer loop
      vertex -35.4673 5.1341 73.5
      vertex -36.5723 3.61315 73.5
      vertex -34.7807 5.77885 73.5
    endloop
  endfacet
  facet normal -0 0 -1
    outer loop
      vertex 33.1933 6.7862 -73.5
      vertex -34.7807 -5.77885 -73.5
      vertex 32.3176 7.13292 -73.5
    endloop
  endfacet
  facet normal 0.125328 -0.992115 0
    outer loop
      vertex 30.4709 -7.4852 73.5
      vertex 31.4054 -7.36715 -73.5
      vertex 31.4054 -7.36715 73.5
    endloop
  endfacet
  facet normal 0.248707 -0.968579 0
    outer loop
      vertex 31.4054 -7.36715 73.5
      vertex 31.4054 -7.36715 -73.5
      vertex 32.3176 -7.13292 73.5
    endloop
  endfacet
  facet normal -0.684541 0.728974 0
    outer loop
      vertex -35.4673 5.1341 73.5
      vertex -34.7807 5.77885 -73.5
      vertex -35.4673 5.1341 -73.5
    endloop
  endfacet
  facet normal -0.36813 -0.929774 0
    outer loop
      vertex -33.1933 -6.7862 73.5
      vertex -32.3176 -7.13292 -73.5
      vertex -32.3176 -7.13292 73.5
    endloop
  endfacet
  facet normal 0.248707 0.968579 -0
    outer loop
      vertex 32.3176 7.13292 -73.5
      vertex 31.4054 7.36715 73.5
      vertex 32.3176 7.13292 73.5
    endloop
  endfacet
  facet normal 0 -0 1
    outer loop
      vertex -36.9733 -2.76093 73.5
      vertex -36.5723 3.61315 73.5
      vertex -37.2644 -1.86517 73.5
    endloop
  endfacet
  facet normal 0 0 1
    outer loop
      vertex 32.3176 -7.13292 73.5
      vertex -36.5723 3.61315 73.5
      vertex 31.4054 -7.36715 73.5
    endloop
  endfacet
  facet normal 0.481731 0.876319 0
    outer loop
      vertex 33.1933 6.7862 73.5
      vertex 34.0187 6.33246 -73.5
      vertex 33.1933 6.7862 -73.5
    endloop
  endfacet
  facet normal -0.951041 0.309065 0
    outer loop
      vertex -36.9733 2.76093 -73.5
      vertex -37.2644 1.86517 73.5
      vertex -36.9733 2.76093 73.5
    endloop
  endfacet
  facet normal -0.998029 0.0627485 0
    outer loop
      vertex -37.5 0 73.5
      vertex -37.4409 0.939999 73.5
      vertex -37.5 0 -73.5
    endloop
  endfacet
  facet normal -0.684541 -0.728974 0
    outer loop
      vertex -35.4673 -5.1341 73.5
      vertex -34.7807 -5.77885 -73.5
      vertex -34.7807 -5.77885 73.5
    endloop
  endfacet
  facet normal -0.125328 0.992115 0
    outer loop
      vertex -30.4709 7.4852 -73.5
      vertex -31.4054 7.36715 -73.5
      vertex -30.4709 7.4852 73.5
    endloop
  endfacet
  facet normal 0 0 1
    outer loop
      vertex 35.4673 5.1341 73.5
      vertex -36.5723 3.61315 73.5
      vertex 36.0676 4.40839 73.5
    endloop
  endfacet
  facet normal 0 0 1
    outer loop
      vertex 37.2644 1.86517 73.5
      vertex -36.5723 3.61315 73.5
      vertex 37.4409 0.939999 73.5
    endloop
  endfacet
  facet normal -0.951041 -0.309065 -0
    outer loop
      vertex -36.9733 -2.76093 73.5
      vertex -37.2644 -1.86517 -73.5
      vertex -36.9733 -2.76093 -73.5
    endloop
  endfacet
  facet normal 0 -0 -1
    outer loop
      vertex -34.7807 5.77885 -73.5
      vertex -34.7807 -5.77885 -73.5
      vertex -35.4673 5.1341 -73.5
    endloop
  endfacet
  facet normal -0.951041 -0.309065 -0
    outer loop
      vertex -37.2644 -1.86517 73.5
      vertex -37.2644 -1.86517 -73.5
      vertex -36.9733 -2.76093 73.5
    endloop
  endfacet
  facet normal -0 0 -1
    outer loop
      vertex 37.5 0 -73.5
      vertex -34.7807 -5.77885 -73.5
      vertex 37.4409 0.939999 -73.5
    endloop
  endfacet
  facet normal -0.587775 0.809025 0
    outer loop
      vertex -34.0187 6.33246 73.5
      vertex -34.7807 5.77885 -73.5
      vertex -34.7807 5.77885 73.5
    endloop
  endfacet
  facet normal -0.587775 0.809025 0
    outer loop
      vertex -34.0187 6.33246 -73.5
      vertex -34.7807 5.77885 -73.5
      vertex -34.0187 6.33246 73.5
    endloop
  endfacet
  facet normal 0 0 1
    outer loop
      vertex 33.1933 -6.7862 73.5
      vertex -36.5723 3.61315 73.5
      vertex 32.3176 -7.13292 73.5
    endloop
  endfacet
  facet normal 0.36813 -0.929774 0
    outer loop
      vertex 33.1933 -6.7862 -73.5
      vertex 33.1933 -6.7862 73.5
      vertex 32.3176 -7.13292 -73.5
    endloop
  endfacet
  facet normal 0.125328 0.992115 0
    outer loop
      vertex 30.4709 7.4852 -73.5
      vertex 31.4054 7.36715 73.5
      vertex 31.4054 7.36715 -73.5
    endloop
  endfacet
  facet normal 0 0 1
    outer loop
      vertex 36.0676 -4.40839 73.5
      vertex -36.5723 3.61315 73.5
      vertex 35.4673 -5.1341 73.5
    endloop
  endfacet
  facet normal 0 0 1
    outer loop
      vertex 36.5723 -3.61315 73.5
      vertex -36.5723 3.61315 73.5
      vertex 36.0676 -4.40839 73.5
    endloop
  endfacet
  facet normal 0 0 1
    outer loop
      vertex 37.5 0 73.5
      vertex -36.5723 3.61315 73.5
      vertex 37.4409 -0.939999 73.5
    endloop
  endfacet
  facet normal 0 0 -1
    outer loop
      vertex 34.7807 -5.77885 -73.5
      vertex -34.7807 -5.77885 -73.5
      vertex 35.4673 -5.1341 -73.5
    endloop
  endfacet
  facet normal 0 0 -1
    outer loop
      vertex -37.4409 -0.939999 -73.5
      vertex -34.7807 -5.77885 -73.5
      vertex -37.2644 -1.86517 -73.5
    endloop
  endfacet
  facet normal 0.951041 -0.309065 0
    outer loop
      vertex 36.9733 -2.76093 -73.5
      vertex 37.2644 -1.86517 73.5
      vertex 36.9733 -2.76093 73.5
    endloop
  endfacet
  facet normal 0.951041 -0.309065 0
    outer loop
      vertex 37.2644 -1.86517 -73.5
      vertex 37.2644 -1.86517 73.5
      vertex 36.9733 -2.76093 -73.5
    endloop
  endfacet
  facet normal -0.248707 -0.968579 0
    outer loop
      vertex -32.3176 -7.13292 -73.5
      vertex -31.4054 -7.36715 -73.5
      vertex -32.3176 -7.13292 73.5
    endloop
  endfacet
  facet normal 0 0 1
    outer loop
      vertex 36.9733 2.76093 73.5
      vertex -36.5723 3.61315 73.5
      vertex 37.2644 1.86517 73.5
    endloop
  endfacet
  facet normal -0.982284 0.187396 0
    outer loop
      vertex -37.2644 1.86517 -73.5
      vertex -37.4409 0.939999 73.5
      vertex -37.2644 1.86517 73.5
    endloop
  endfacet
  facet normal -0.844316 -0.535846 -0
    outer loop
      vertex -36.0676 -4.40839 73.5
      vertex -36.5723 -3.61315 73.5
      vertex -36.0676 -4.40839 -73.5
    endloop
  endfacet
  facet normal -0 0 1
    outer loop
      vertex -30.4709 7.4852 73.5
      vertex -36.5723 3.61315 73.5
      vertex 30.4709 7.4852 73.5
    endloop
  endfacet
  facet normal 0 0 1
    outer loop
      vertex -37.4409 0.939999 73.5
      vertex -36.5723 3.61315 73.5
      vertex -37.2644 1.86517 73.5
    endloop
  endfacet
  facet normal -0.770544 0.637386 0
    outer loop
      vertex -35.4673 5.1341 -73.5
      vertex -36.0676 4.40839 -73.5
      vertex -35.4673 5.1341 73.5
    endloop
  endfacet
  facet normal -0.982284 -0.187396 -0
    outer loop
      vertex -37.4409 -0.939999 73.5
      vertex -37.4409 -0.939999 -73.5
      vertex -37.2644 -1.86517 73.5
    endloop
  endfacet
  facet normal 0 0 -1
    outer loop
      vertex -37.5 0 -73.5
      vertex -34.7807 -5.77885 -73.5
      vertex -37.4409 -0.939999 -73.5
    endloop
  endfacet
  facet normal -0.770544 -0.637386 -0
    outer loop
      vertex -35.4673 -5.1341 73.5
      vertex -36.0676 -4.40839 -73.5
      vertex -35.4673 -5.1341 -73.5
    endloop
  endfacet
  facet normal 0.844316 0.535846 0
    outer loop
      vertex 36.0676 4.40839 73.5
      vertex 36.5723 3.61315 -73.5
      vertex 36.0676 4.40839 -73.5
    endloop
  endfacet
  facet normal 0.904837 0.425758 0
    outer loop
      vertex 36.9733 2.76093 73.5
      vertex 36.5723 3.61315 -73.5
      vertex 36.5723 3.61315 73.5
    endloop
  endfacet
  facet normal -0.998029 -0.0627485 0
    outer loop
      vertex -37.5 0 73.5
      vertex -37.4409 -0.939999 -73.5
      vertex -37.4409 -0.939999 73.5
    endloop
  endfacet
  facet normal -0.998029 -0.0627485 0
    outer loop
      vertex -37.5 0 -73.5
      vertex -37.4409 -0.939999 -73.5
      vertex -37.5 0 73.5
    endloop
  endfacet
  facet normal -0.982284 -0.187396 -0
    outer loop
      vertex -37.2644 -1.86517 73.5
      vertex -37.4409 -0.939999 -73.5
      vertex -37.2644 -1.86517 -73.5
    endloop
  endfacet
  facet normal 0.684541 0.728974 -0
    outer loop
      vertex 35.4673 5.1341 -73.5
      vertex 34.7807 5.77885 -73.5
      vertex 35.4673 5.1341 73.5
    endloop
  endfacet
  facet normal -0 0 1
    outer loop
      vertex -32.3176 7.13292 73.5
      vertex -36.5723 3.61315 73.5
      vertex -31.4054 7.36715 73.5
    endloop
  endfacet
  facet normal 0 0 1
    outer loop
      vertex 34.7807 5.77885 73.5
      vertex -36.5723 3.61315 73.5
      vertex 35.4673 5.1341 73.5
    endloop
  endfacet
  facet normal -0 0 -1
    outer loop
      vertex 32.3176 7.13292 -73.5
      vertex -34.7807 -5.77885 -73.5
      vertex 31.4054 7.36715 -73.5
    endloop
  endfacet
  facet normal -0 0 -1
    outer loop
      vertex 34.7807 5.77885 -73.5
      vertex -34.7807 -5.77885 -73.5
      vertex 34.0187 6.33246 -73.5
    endloop
  endfacet
  facet normal 0 -0 -1
    outer loop
      vertex -36.9733 2.76093 -73.5
      vertex -34.7807 -5.77885 -73.5
      vertex -37.2644 1.86517 -73.5
    endloop
  endfacet
  facet normal -0 0 -1
    outer loop
      vertex 35.4673 5.1341 -73.5
      vertex -34.7807 -5.77885 -73.5
      vertex 34.7807 5.77885 -73.5
    endloop
  endfacet
  facet normal 0 0 1
    outer loop
      vertex -37.5 0 73.5
      vertex -36.5723 3.61315 73.5
      vertex -37.4409 0.939999 73.5
    endloop
  endfacet
  facet normal -0 0 -1
    outer loop
      vertex 36.5723 -3.61315 -73.5
      vertex -34.7807 -5.77885 -73.5
      vertex 36.9733 -2.76093 -73.5
    endloop
  endfacet
  facet normal 0 0 -1
    outer loop
      vertex 34.0187 -6.33246 -73.5
      vertex -34.7807 -5.77885 -73.5
      vertex 34.7807 -5.77885 -73.5
    endloop
  endfacet
  facet normal 0 0 -1
    outer loop
      vertex 31.4054 -7.36715 -73.5
      vertex -34.7807 -5.77885 -73.5
      vertex 32.3176 -7.13292 -73.5
    endloop
  endfacet
  facet normal -0.125328 -0.992115 -0
    outer loop
      vertex -30.4709 -7.4852 73.5
      vertex -31.4054 -7.36715 -73.5
      vertex -30.4709 -7.4852 -73.5
    endloop
  endfacet
  facet normal 0 0 -1
    outer loop
      vertex -30.4709 -7.4852 -73.5
      vertex -34.7807 -5.77885 -73.5
      vertex 30.4709 -7.4852 -73.5
    endloop
  endfacet
  facet normal 0 0 1
    outer loop
      vertex 37.4409 0.939999 73.5
      vertex -36.5723 3.61315 73.5
      vertex 37.5 0 73.5
    endloop
  endfacet
  facet normal 0 0 1
    outer loop
      vertex 32.3176 7.13292 73.5
      vertex -36.5723 3.61315 73.5
      vertex 33.1933 6.7862 73.5
    endloop
  endfacet
  facet normal 0 0 -1
    outer loop
      vertex -30.4709 7.4852 -73.5
      vertex -34.7807 -5.77885 -73.5
      vertex -31.4054 7.36715 -73.5
    endloop
  endfacet
  facet normal 0 0 -1
    outer loop
      vertex -31.4054 7.36715 -73.5
      vertex -34.7807 -5.77885 -73.5
      vertex -32.3176 7.13292 -73.5
    endloop
  endfacet
  facet normal 0 0 -1
    outer loop
      vertex -33.1933 6.7862 -73.5
      vertex -34.7807 -5.77885 -73.5
      vertex -34.0187 6.33246 -73.5
    endloop
  endfacet
  facet normal 0 0 -1
    outer loop
      vertex -34.0187 6.33246 -73.5
      vertex -34.7807 -5.77885 -73.5
      vertex -34.7807 5.77885 -73.5
    endloop
  endfacet
  facet normal -0.904837 -0.425758 0
    outer loop
      vertex -36.5723 -3.61315 -73.5
      vertex -36.5723 -3.61315 73.5
      vertex -36.9733 -2.76093 -73.5
    endloop
  endfacet
  facet normal -0.844316 -0.535846 0
    outer loop
      vertex -36.0676 -4.40839 -73.5
      vertex -36.5723 -3.61315 73.5
      vertex -36.5723 -3.61315 -73.5
    endloop
  endfacet
  facet normal 0 0 -1
    outer loop
      vertex -37.2644 -1.86517 -73.5
      vertex -34.7807 -5.77885 -73.5
      vertex -36.9733 -2.76093 -73.5
    endloop
  endfacet
  facet normal 0 0 -1
    outer loop
      vertex -36.0676 -4.40839 -73.5
      vertex -34.7807 -5.77885 -73.5
      vertex -35.4673 -5.1341 -73.5
    endloop
  endfacet
  facet normal 0 0 1
    outer loop
      vertex 30.4709 -7.4852 73.5
      vertex -36.5723 3.61315 73.5
      vertex -30.4709 -7.4852 73.5
    endloop
  endfacet
  facet normal 0 0 1
    outer loop
      vertex 31.4054 -7.36715 73.5
      vertex -36.5723 3.61315 73.5
      vertex 30.4709 -7.4852 73.5
    endloop
  endfacet
  facet normal 0 0 1
    outer loop
      vertex 37.2644 -1.86517 73.5
      vertex -36.5723 3.61315 73.5
      vertex 36.9733 -2.76093 73.5
    endloop
  endfacet
  facet normal 0 0 1
    outer loop
      vertex 35.4673 -5.1341 73.5
      vertex -36.5723 3.61315 73.5
      vertex 34.7807 -5.77885 73.5
    endloop
  endfacet
  facet normal 0 -0 -1
    outer loop
      vertex -36.0676 4.40839 -73.5
      vertex -34.7807 -5.77885 -73.5
      vertex -36.5723 3.61315 -73.5
    endloop
  endfacet
  facet normal 0 -0 -1
    outer loop
      vertex -36.5723 3.61315 -73.5
      vertex -34.7807 -5.77885 -73.5
      vertex -36.9733 2.76093 -73.5
    endloop
  endfacet
  facet normal 0 0 1
    outer loop
      vertex -34.0187 -6.33246 73.5
      vertex -36.5723 3.61315 73.5
      vertex -34.7807 -5.77885 73.5
    endloop
  endfacet
  facet normal 0 0 1
    outer loop
      vertex -33.1933 -6.7862 73.5
      vertex -36.5723 3.61315 73.5
      vertex -34.0187 -6.33246 73.5
    endloop
  endfacet
  facet normal 0 0 1
    outer loop
      vertex -36.0676 -4.40839 73.5
      vertex -36.5723 3.61315 73.5
      vertex -36.5723 -3.61315 73.5
    endloop
  endfacet
  facet normal 0 -0 1
    outer loop
      vertex -36.5723 -3.61315 73.5
      vertex -36.5723 3.61315 73.5
      vertex -36.9733 -2.76093 73.5
    endloop
  endfacet
  facet normal 0 0 1
    outer loop
      vertex -31.4054 -7.36715 73.5
      vertex -36.5723 3.61315 73.5
      vertex -32.3176 -7.13292 73.5
    endloop
  endfacet
  facet normal 0 0 1
    outer loop
      vertex -30.4709 -7.4852 73.5
      vertex -36.5723 3.61315 73.5
      vertex -31.4054 -7.36715 73.5
    endloop
  endfacet
  facet normal -0 0 -1
    outer loop
      vertex 37.4409 -0.939999 -73.5
      vertex -34.7807 -5.77885 -73.5
      vertex 37.5 0 -73.5
    endloop
  endfacet
  facet normal -0 0 -1
    outer loop
      vertex 37.2644 -1.86517 -73.5
      vertex -34.7807 -5.77885 -73.5
      vertex 37.4409 -0.939999 -73.5
    endloop
  endfacet
endsolid OpenSCAD_Model
