solid OpenSCAD_Model
  facet normal -0.86603 0.499993 0
    outer loop
      vertex -38.4287 3.864 -1.5
      vertex -37.4357 5.58396 1.5
      vertex -37.4357 5.58396 -1.5
    endloop
  endfacet
  facet normal -0.86603 0.499993 0
    outer loop
      vertex -37.4357 5.58396 1.5
      vertex -38.4287 3.864 -1.5
      vertex -38.4287 3.864 1.5
    endloop
  endfacet
  facet normal -0.207905 0.978149 0
    outer loop
      vertex -30.743 9.44796 -1.5
      vertex -32.6857 9.03504 1.5
      vertex -30.743 9.44796 1.5
    endloop
  endfacet
  facet normal -0.207905 0.978149 0
    outer loop
      vertex -32.6857 9.03504 1.5
      vertex -30.743 9.44796 -1.5
      vertex -32.6857 9.03504 -1.5
    endloop
  endfacet
  facet normal 0.587793 0.809011 -0
    outer loop
      vertex 36.1067 7.05988 -1.5
      vertex 34.5 8.22724 1.5
      vertex 36.1067 7.05988 1.5
    endloop
  endfacet
  facet normal 0.587793 0.809011 0
    outer loop
      vertex 34.5 8.22724 1.5
      vertex 36.1067 7.05988 -1.5
      vertex 34.5 8.22724 -1.5
    endloop
  endfacet
  facet normal -0.994522 -0.10453 0
    outer loop
      vertex -39.0424 -1.97516 -1.5
      vertex -39.25 0 1.5
      vertex -39.25 0 -1.5
    endloop
  endfacet
  facet normal -0.994522 -0.10453 0
    outer loop
      vertex -39.25 0 1.5
      vertex -39.0424 -1.97516 -1.5
      vertex -39.0424 -1.97516 1.5
    endloop
  endfacet
  facet normal 0.207905 0.978149 -0
    outer loop
      vertex 32.6857 9.03504 -1.5
      vertex 30.743 9.44796 1.5
      vertex 32.6857 9.03504 1.5
    endloop
  endfacet
  facet normal 0.207905 0.978149 0
    outer loop
      vertex 30.743 9.44796 1.5
      vertex 32.6857 9.03504 -1.5
      vertex 30.743 9.44796 -1.5
    endloop
  endfacet
  facet normal 0 -1 0
    outer loop
      vertex -30.743 -9.44796 -1.5
      vertex 30.743 -9.44796 1.5
      vertex -30.743 -9.44796 1.5
    endloop
  endfacet
  facet normal 0 -1 -0
    outer loop
      vertex 30.743 -9.44796 1.5
      vertex -30.743 -9.44796 -1.5
      vertex 30.743 -9.44796 -1.5
    endloop
  endfacet
  facet normal -0.743126 -0.669152 0
    outer loop
      vertex -36.1067 -7.05988 -1.5
      vertex -37.4357 -5.58396 1.5
      vertex -37.4357 -5.58396 -1.5
    endloop
  endfacet
  facet normal -0.743126 -0.669152 0
    outer loop
      vertex -37.4357 -5.58396 1.5
      vertex -36.1067 -7.05988 -1.5
      vertex -36.1067 -7.05988 1.5
    endloop
  endfacet
  facet normal -0.587793 0.809011 0
    outer loop
      vertex -34.5 8.22724 -1.5
      vertex -36.1067 7.05988 1.5
      vertex -34.5 8.22724 1.5
    endloop
  endfacet
  facet normal -0.587793 0.809011 0
    outer loop
      vertex -36.1067 7.05988 1.5
      vertex -34.5 8.22724 -1.5
      vertex -36.1067 7.05988 -1.5
    endloop
  endfacet
  facet normal 0.587793 -0.809011 0
    outer loop
      vertex 34.5 -8.22724 -1.5
      vertex 36.1067 -7.05988 1.5
      vertex 34.5 -8.22724 1.5
    endloop
  endfacet
  facet normal 0.587793 -0.809011 0
    outer loop
      vertex 36.1067 -7.05988 1.5
      vertex 34.5 -8.22724 -1.5
      vertex 36.1067 -7.05988 -1.5
    endloop
  endfacet
  facet normal 0 1 -0
    outer loop
      vertex 30.743 9.44796 -1.5
      vertex -30.743 9.44796 1.5
      vertex 30.743 9.44796 1.5
    endloop
  endfacet
  facet normal 0 1 0
    outer loop
      vertex -30.743 9.44796 1.5
      vertex 30.743 9.44796 -1.5
      vertex -30.743 9.44796 -1.5
    endloop
  endfacet
  facet normal -0.743126 0.669152 0
    outer loop
      vertex -37.4357 5.58396 -1.5
      vertex -36.1067 7.05988 1.5
      vertex -36.1067 7.05988 -1.5
    endloop
  endfacet
  facet normal -0.743126 0.669152 0
    outer loop
      vertex -36.1067 7.05988 1.5
      vertex -37.4357 5.58396 -1.5
      vertex -37.4357 5.58396 1.5
    endloop
  endfacet
  facet normal 0.994522 -0.10453 0
    outer loop
      vertex 39.0424 -1.97516 1.5
      vertex 39.25 0 -1.5
      vertex 39.25 0 1.5
    endloop
  endfacet
  facet normal 0.994522 -0.10453 0
    outer loop
      vertex 39.25 0 -1.5
      vertex 39.0424 -1.97516 1.5
      vertex 39.0424 -1.97516 -1.5
    endloop
  endfacet
  facet normal -0.207905 -0.978149 0
    outer loop
      vertex -32.6857 -9.03504 -1.5
      vertex -30.743 -9.44796 1.5
      vertex -32.6857 -9.03504 1.5
    endloop
  endfacet
  facet normal -0.207905 -0.978149 -0
    outer loop
      vertex -30.743 -9.44796 1.5
      vertex -32.6857 -9.03504 -1.5
      vertex -30.743 -9.44796 -1.5
    endloop
  endfacet
  facet normal -0.86603 -0.499993 0
    outer loop
      vertex -37.4357 -5.58396 -1.5
      vertex -38.4287 -3.864 1.5
      vertex -38.4287 -3.864 -1.5
    endloop
  endfacet
  facet normal -0.86603 -0.499993 0
    outer loop
      vertex -38.4287 -3.864 1.5
      vertex -37.4357 -5.58396 -1.5
      vertex -37.4357 -5.58396 1.5
    endloop
  endfacet
  facet normal -0.587793 -0.809011 0
    outer loop
      vertex -36.1067 -7.05988 -1.5
      vertex -34.5 -8.22724 1.5
      vertex -36.1067 -7.05988 1.5
    endloop
  endfacet
  facet normal -0.587793 -0.809011 -0
    outer loop
      vertex -34.5 -8.22724 1.5
      vertex -36.1067 -7.05988 -1.5
      vertex -34.5 -8.22724 -1.5
    endloop
  endfacet
  facet normal 0.743126 -0.669152 0
    outer loop
      vertex 36.1067 -7.05988 1.5
      vertex 37.4357 -5.58396 -1.5
      vertex 37.4357 -5.58396 1.5
    endloop
  endfacet
  facet normal 0.743126 -0.669152 0
    outer loop
      vertex 37.4357 -5.58396 -1.5
      vertex 36.1067 -7.05988 1.5
      vertex 36.1067 -7.05988 -1.5
    endloop
  endfacet
  facet normal 0.406746 0.913541 -0
    outer loop
      vertex 34.5 8.22724 -1.5
      vertex 32.6857 9.03504 1.5
      vertex 34.5 8.22724 1.5
    endloop
  endfacet
  facet normal 0.406746 0.913541 0
    outer loop
      vertex 32.6857 9.03504 1.5
      vertex 34.5 8.22724 -1.5
      vertex 32.6857 9.03504 -1.5
    endloop
  endfacet
  facet normal 0.406746 -0.913541 0
    outer loop
      vertex 32.6857 -9.03504 -1.5
      vertex 34.5 -8.22724 1.5
      vertex 32.6857 -9.03504 1.5
    endloop
  endfacet
  facet normal 0.406746 -0.913541 0
    outer loop
      vertex 34.5 -8.22724 1.5
      vertex 32.6857 -9.03504 -1.5
      vertex 34.5 -8.22724 -1.5
    endloop
  endfacet
  facet normal 0.86603 0.499993 0
    outer loop
      vertex 38.4287 3.864 1.5
      vertex 37.4357 5.58396 -1.5
      vertex 37.4357 5.58396 1.5
    endloop
  endfacet
  facet normal 0.86603 0.499993 0
    outer loop
      vertex 37.4357 5.58396 -1.5
      vertex 38.4287 3.864 1.5
      vertex 38.4287 3.864 -1.5
    endloop
  endfacet
  facet normal -0.406746 -0.913541 0
    outer loop
      vertex -34.5 -8.22724 -1.5
      vertex -32.6857 -9.03504 1.5
      vertex -34.5 -8.22724 1.5
    endloop
  endfacet
  facet normal -0.406746 -0.913541 -0
    outer loop
      vertex -32.6857 -9.03504 1.5
      vertex -34.5 -8.22724 -1.5
      vertex -32.6857 -9.03504 -1.5
    endloop
  endfacet
  facet normal -0.994522 0.10453 0
    outer loop
      vertex -39.25 0 -1.5
      vertex -39.0424 1.97516 1.5
      vertex -39.0424 1.97516 -1.5
    endloop
  endfacet
  facet normal -0.994522 0.10453 0
    outer loop
      vertex -39.0424 1.97516 1.5
      vertex -39.25 0 -1.5
      vertex -39.25 0 1.5
    endloop
  endfacet
  facet normal -0.95106 0.309007 0
    outer loop
      vertex -39.0424 1.97516 -1.5
      vertex -38.4287 3.864 1.5
      vertex -38.4287 3.864 -1.5
    endloop
  endfacet
  facet normal -0.95106 0.309007 0
    outer loop
      vertex -38.4287 3.864 1.5
      vertex -39.0424 1.97516 -1.5
      vertex -39.0424 1.97516 1.5
    endloop
  endfacet
  facet normal 0.95106 0.309007 0
    outer loop
      vertex 39.0424 1.97516 1.5
      vertex 38.4287 3.864 -1.5
      vertex 38.4287 3.864 1.5
    endloop
  endfacet
  facet normal 0.95106 0.309007 0
    outer loop
      vertex 38.4287 3.864 -1.5
      vertex 39.0424 1.97516 1.5
      vertex 39.0424 1.97516 -1.5
    endloop
  endfacet
  facet normal -0.95106 -0.309007 0
    outer loop
      vertex -38.4287 -3.864 -1.5
      vertex -39.0424 -1.97516 1.5
      vertex -39.0424 -1.97516 -1.5
    endloop
  endfacet
  facet normal -0.95106 -0.309007 0
    outer loop
      vertex -39.0424 -1.97516 1.5
      vertex -38.4287 -3.864 -1.5
      vertex -38.4287 -3.864 1.5
    endloop
  endfacet
  facet normal 0 0 -1
    outer loop
      vertex 37.25 0 -1.5
      vertex 39.25 0 -1.5
      vertex 39.0424 -1.97516 -1.5
    endloop
  endfacet
  facet normal 0 0 -1
    outer loop
      vertex 36.9944 -1.94114 -1.5
      vertex 39.0424 -1.97516 -1.5
      vertex 38.4287 -3.864 -1.5
    endloop
  endfacet
  facet normal 0 0 -1
    outer loop
      vertex 39.25 0 -1.5
      vertex 37.25 0 -1.5
      vertex 39.0424 1.97516 -1.5
    endloop
  endfacet
  facet normal 0 0 -1
    outer loop
      vertex 36.2452 -3.75 -1.5
      vertex 38.4287 -3.864 -1.5
      vertex 37.4357 -5.58396 -1.5
    endloop
  endfacet
  facet normal 0 0 -1
    outer loop
      vertex 36.9944 1.94114 -1.5
      vertex 39.0424 1.97516 -1.5
      vertex 37.25 0 -1.5
    endloop
  endfacet
  facet normal -0 0 -1
    outer loop
      vertex 39.0424 1.97516 -1.5
      vertex 36.9944 1.94114 -1.5
      vertex 38.4287 3.864 -1.5
    endloop
  endfacet
  facet normal 0 0 -1
    outer loop
      vertex 39.0424 -1.97516 -1.5
      vertex 36.9944 -1.94114 -1.5
      vertex 37.25 0 -1.5
    endloop
  endfacet
  facet normal 0 0 -1
    outer loop
      vertex 38.4287 -3.864 -1.5
      vertex 36.2452 -3.75 -1.5
      vertex 36.9944 -1.94114 -1.5
    endloop
  endfacet
  facet normal 0 0 -1
    outer loop
      vertex 35.0533 -5.3033 -1.5
      vertex 37.4357 -5.58396 -1.5
      vertex 36.1067 -7.05988 -1.5
    endloop
  endfacet
  facet normal 0 0 -1
    outer loop
      vertex 37.4357 -5.58396 -1.5
      vertex 35.0533 -5.3033 -1.5
      vertex 36.2452 -3.75 -1.5
    endloop
  endfacet
  facet normal 0 0 -1
    outer loop
      vertex 33.5 -6.49519 -1.5
      vertex 36.1067 -7.05988 -1.5
      vertex 34.5 -8.22724 -1.5
    endloop
  endfacet
  facet normal 0 0 -1
    outer loop
      vertex 36.1067 -7.05988 -1.5
      vertex 33.5 -6.49519 -1.5
      vertex 35.0533 -5.3033 -1.5
    endloop
  endfacet
  facet normal 0 0 -1
    outer loop
      vertex 32.6857 -9.03504 -1.5
      vertex 33.5 -6.49519 -1.5
      vertex 34.5 -8.22724 -1.5
    endloop
  endfacet
  facet normal 0 0 -1
    outer loop
      vertex 32.6857 -9.03504 -1.5
      vertex 31.6911 -7.24444 -1.5
      vertex 33.5 -6.49519 -1.5
    endloop
  endfacet
  facet normal 0 0 -1
    outer loop
      vertex 30.743 -9.44796 -1.5
      vertex 31.6911 -7.24444 -1.5
      vertex 32.6857 -9.03504 -1.5
    endloop
  endfacet
  facet normal 0 0 -1
    outer loop
      vertex 30.743 -9.44796 -1.5
      vertex 29.75 -7.5 -1.5
      vertex 31.6911 -7.24444 -1.5
    endloop
  endfacet
  facet normal 0 0 -1
    outer loop
      vertex 30.743 -9.44796 -1.5
      vertex -29.75 -7.5 -1.5
      vertex 29.75 -7.5 -1.5
    endloop
  endfacet
  facet normal 0 0 -1
    outer loop
      vertex -30.743 -9.44796 -1.5
      vertex -29.75 -7.5 -1.5
      vertex 30.743 -9.44796 -1.5
    endloop
  endfacet
  facet normal 0 0 -1
    outer loop
      vertex -30.743 -9.44796 -1.5
      vertex -31.6911 -7.24444 -1.5
      vertex -29.75 -7.5 -1.5
    endloop
  endfacet
  facet normal 0 0 -1
    outer loop
      vertex -32.6857 -9.03504 -1.5
      vertex -31.6911 -7.24444 -1.5
      vertex -30.743 -9.44796 -1.5
    endloop
  endfacet
  facet normal 0 0 -1
    outer loop
      vertex -32.6857 -9.03504 -1.5
      vertex -33.5 -6.49519 -1.5
      vertex -31.6911 -7.24444 -1.5
    endloop
  endfacet
  facet normal 0 0 -1
    outer loop
      vertex -34.5 -8.22724 -1.5
      vertex -33.5 -6.49519 -1.5
      vertex -32.6857 -9.03504 -1.5
    endloop
  endfacet
  facet normal 0 0 -1
    outer loop
      vertex -36.1067 -7.05988 -1.5
      vertex -33.5 -6.49519 -1.5
      vertex -34.5 -8.22724 -1.5
    endloop
  endfacet
  facet normal -0 0 -1
    outer loop
      vertex -33.5 -6.49519 -1.5
      vertex -36.1067 -7.05988 -1.5
      vertex -35.0533 -5.3033 -1.5
    endloop
  endfacet
  facet normal 0 0 -1
    outer loop
      vertex -37.4357 -5.58396 -1.5
      vertex -35.0533 -5.3033 -1.5
      vertex -36.1067 -7.05988 -1.5
    endloop
  endfacet
  facet normal -0 0 -1
    outer loop
      vertex -35.0533 -5.3033 -1.5
      vertex -37.4357 -5.58396 -1.5
      vertex -36.2452 -3.75 -1.5
    endloop
  endfacet
  facet normal -0 0 -1
    outer loop
      vertex -36.2452 -3.75 -1.5
      vertex -38.4287 -3.864 -1.5
      vertex -36.9944 -1.94114 -1.5
    endloop
  endfacet
  facet normal 0 0 -1
    outer loop
      vertex -38.4287 -3.864 -1.5
      vertex -36.2452 -3.75 -1.5
      vertex -37.4357 -5.58396 -1.5
    endloop
  endfacet
  facet normal 0 0 -1
    outer loop
      vertex 36.2452 3.75 -1.5
      vertex 38.4287 3.864 -1.5
      vertex 36.9944 1.94114 -1.5
    endloop
  endfacet
  facet normal -0 0 -1
    outer loop
      vertex 38.4287 3.864 -1.5
      vertex 36.2452 3.75 -1.5
      vertex 37.4357 5.58396 -1.5
    endloop
  endfacet
  facet normal 0 0 -1
    outer loop
      vertex 35.0533 5.3033 -1.5
      vertex 37.4357 5.58396 -1.5
      vertex 36.2452 3.75 -1.5
    endloop
  endfacet
  facet normal -0 0 -1
    outer loop
      vertex 37.4357 5.58396 -1.5
      vertex 35.0533 5.3033 -1.5
      vertex 36.1067 7.05988 -1.5
    endloop
  endfacet
  facet normal 0 0 -1
    outer loop
      vertex 33.5 6.49519 -1.5
      vertex 36.1067 7.05988 -1.5
      vertex 35.0533 5.3033 -1.5
    endloop
  endfacet
  facet normal -0 0 -1
    outer loop
      vertex 36.1067 7.05988 -1.5
      vertex 33.5 6.49519 -1.5
      vertex 34.5 8.22724 -1.5
    endloop
  endfacet
  facet normal 0 0 -1
    outer loop
      vertex 33.5 6.49519 -1.5
      vertex 32.6857 9.03504 -1.5
      vertex 34.5 8.22724 -1.5
    endloop
  endfacet
  facet normal 0 0 -1
    outer loop
      vertex 31.6911 7.24444 -1.5
      vertex 32.6857 9.03504 -1.5
      vertex 33.5 6.49519 -1.5
    endloop
  endfacet
  facet normal 0 0 -1
    outer loop
      vertex 31.6911 7.24444 -1.5
      vertex 30.743 9.44796 -1.5
      vertex 32.6857 9.03504 -1.5
    endloop
  endfacet
  facet normal 0 0 -1
    outer loop
      vertex 29.75 7.5 -1.5
      vertex 30.743 9.44796 -1.5
      vertex 31.6911 7.24444 -1.5
    endloop
  endfacet
  facet normal 0 0 -1
    outer loop
      vertex -29.75 7.5 -1.5
      vertex 30.743 9.44796 -1.5
      vertex 29.75 7.5 -1.5
    endloop
  endfacet
  facet normal 0 0 -1
    outer loop
      vertex -29.75 7.5 -1.5
      vertex -30.743 9.44796 -1.5
      vertex 30.743 9.44796 -1.5
    endloop
  endfacet
  facet normal 0 0 -1
    outer loop
      vertex -31.6911 7.24444 -1.5
      vertex -30.743 9.44796 -1.5
      vertex -29.75 7.5 -1.5
    endloop
  endfacet
  facet normal 0 0 -1
    outer loop
      vertex -31.6911 7.24444 -1.5
      vertex -32.6857 9.03504 -1.5
      vertex -30.743 9.44796 -1.5
    endloop
  endfacet
  facet normal 0 0 -1
    outer loop
      vertex -33.5 6.49519 -1.5
      vertex -32.6857 9.03504 -1.5
      vertex -31.6911 7.24444 -1.5
    endloop
  endfacet
  facet normal 0 0 -1
    outer loop
      vertex -33.5 6.49519 -1.5
      vertex -34.5 8.22724 -1.5
      vertex -32.6857 9.03504 -1.5
    endloop
  endfacet
  facet normal 0 0 -1
    outer loop
      vertex -36.1067 7.05988 -1.5
      vertex -33.5 6.49519 -1.5
      vertex -35.0533 5.3033 -1.5
    endloop
  endfacet
  facet normal 0 0 -1
    outer loop
      vertex -33.5 6.49519 -1.5
      vertex -36.1067 7.05988 -1.5
      vertex -34.5 8.22724 -1.5
    endloop
  endfacet
  facet normal 0 0 -1
    outer loop
      vertex -37.4357 5.58396 -1.5
      vertex -35.0533 5.3033 -1.5
      vertex -36.2452 3.75 -1.5
    endloop
  endfacet
  facet normal 0 0 -1
    outer loop
      vertex -38.4287 3.864 -1.5
      vertex -36.2452 3.75 -1.5
      vertex -36.9944 1.94114 -1.5
    endloop
  endfacet
  facet normal 0 0 -1
    outer loop
      vertex -35.0533 5.3033 -1.5
      vertex -37.4357 5.58396 -1.5
      vertex -36.1067 7.05988 -1.5
    endloop
  endfacet
  facet normal 0 0 -1
    outer loop
      vertex -39.0424 1.97516 -1.5
      vertex -36.9944 1.94114 -1.5
      vertex -37.25 0 -1.5
    endloop
  endfacet
  facet normal 0 0 -1
    outer loop
      vertex -39.0424 -1.97516 -1.5
      vertex -36.9944 -1.94114 -1.5
      vertex -38.4287 -3.864 -1.5
    endloop
  endfacet
  facet normal -0 0 -1
    outer loop
      vertex -36.9944 -1.94114 -1.5
      vertex -39.0424 -1.97516 -1.5
      vertex -37.25 0 -1.5
    endloop
  endfacet
  facet normal 0 0 -1
    outer loop
      vertex -36.2452 3.75 -1.5
      vertex -38.4287 3.864 -1.5
      vertex -37.4357 5.58396 -1.5
    endloop
  endfacet
  facet normal 0 0 -1
    outer loop
      vertex -39.25 0 -1.5
      vertex -37.25 0 -1.5
      vertex -39.0424 -1.97516 -1.5
    endloop
  endfacet
  facet normal 0 0 -1
    outer loop
      vertex -36.9944 1.94114 -1.5
      vertex -39.0424 1.97516 -1.5
      vertex -38.4287 3.864 -1.5
    endloop
  endfacet
  facet normal 0 0 -1
    outer loop
      vertex -37.25 0 -1.5
      vertex -39.25 0 -1.5
      vertex -39.0424 1.97516 -1.5
    endloop
  endfacet
  facet normal 0 0 1
    outer loop
      vertex 37.25 0 1.5
      vertex 39.25 0 1.5
      vertex 39.0424 1.97516 1.5
    endloop
  endfacet
  facet normal 0 0 1
    outer loop
      vertex 36.9944 1.94114 1.5
      vertex 39.0424 1.97516 1.5
      vertex 38.4287 3.864 1.5
    endloop
  endfacet
  facet normal 0 0 1
    outer loop
      vertex 39.25 0 1.5
      vertex 37.25 0 1.5
      vertex 39.0424 -1.97516 1.5
    endloop
  endfacet
  facet normal 0 0 1
    outer loop
      vertex 36.2452 3.75 1.5
      vertex 38.4287 3.864 1.5
      vertex 37.4357 5.58396 1.5
    endloop
  endfacet
  facet normal -0 0 1
    outer loop
      vertex 36.9944 -1.94114 1.5
      vertex 39.0424 -1.97516 1.5
      vertex 37.25 0 1.5
    endloop
  endfacet
  facet normal 0 0 1
    outer loop
      vertex 39.0424 -1.97516 1.5
      vertex 36.9944 -1.94114 1.5
      vertex 38.4287 -3.864 1.5
    endloop
  endfacet
  facet normal 0 0 1
    outer loop
      vertex 39.0424 1.97516 1.5
      vertex 36.9944 1.94114 1.5
      vertex 37.25 0 1.5
    endloop
  endfacet
  facet normal 0 0 1
    outer loop
      vertex 38.4287 3.864 1.5
      vertex 36.2452 3.75 1.5
      vertex 36.9944 1.94114 1.5
    endloop
  endfacet
  facet normal 0 0 1
    outer loop
      vertex 35.0533 5.3033 1.5
      vertex 37.4357 5.58396 1.5
      vertex 36.1067 7.05988 1.5
    endloop
  endfacet
  facet normal 0 0 1
    outer loop
      vertex 37.4357 5.58396 1.5
      vertex 35.0533 5.3033 1.5
      vertex 36.2452 3.75 1.5
    endloop
  endfacet
  facet normal 0 0 1
    outer loop
      vertex 33.5 6.49519 1.5
      vertex 36.1067 7.05988 1.5
      vertex 34.5 8.22724 1.5
    endloop
  endfacet
  facet normal 0 0 1
    outer loop
      vertex 36.1067 7.05988 1.5
      vertex 33.5 6.49519 1.5
      vertex 35.0533 5.3033 1.5
    endloop
  endfacet
  facet normal 0 0 1
    outer loop
      vertex 32.6857 9.03504 1.5
      vertex 33.5 6.49519 1.5
      vertex 34.5 8.22724 1.5
    endloop
  endfacet
  facet normal 0 0 1
    outer loop
      vertex 32.6857 9.03504 1.5
      vertex 31.6911 7.24444 1.5
      vertex 33.5 6.49519 1.5
    endloop
  endfacet
  facet normal 0 0 1
    outer loop
      vertex 30.743 9.44796 1.5
      vertex 31.6911 7.24444 1.5
      vertex 32.6857 9.03504 1.5
    endloop
  endfacet
  facet normal 0 0 1
    outer loop
      vertex 30.743 9.44796 1.5
      vertex 29.75 7.5 1.5
      vertex 31.6911 7.24444 1.5
    endloop
  endfacet
  facet normal 0 0 1
    outer loop
      vertex 30.743 9.44796 1.5
      vertex -29.75 7.5 1.5
      vertex 29.75 7.5 1.5
    endloop
  endfacet
  facet normal -0 0 1
    outer loop
      vertex -30.743 9.44796 1.5
      vertex -29.75 7.5 1.5
      vertex 30.743 9.44796 1.5
    endloop
  endfacet
  facet normal 0 0 1
    outer loop
      vertex -30.743 9.44796 1.5
      vertex -31.6911 7.24444 1.5
      vertex -29.75 7.5 1.5
    endloop
  endfacet
  facet normal -0 0 1
    outer loop
      vertex -32.6857 9.03504 1.5
      vertex -31.6911 7.24444 1.5
      vertex -30.743 9.44796 1.5
    endloop
  endfacet
  facet normal 0 0 1
    outer loop
      vertex -32.6857 9.03504 1.5
      vertex -33.5 6.49519 1.5
      vertex -31.6911 7.24444 1.5
    endloop
  endfacet
  facet normal -0 0 1
    outer loop
      vertex -34.5 8.22724 1.5
      vertex -33.5 6.49519 1.5
      vertex -32.6857 9.03504 1.5
    endloop
  endfacet
  facet normal -0 0 1
    outer loop
      vertex -36.1067 7.05988 1.5
      vertex -33.5 6.49519 1.5
      vertex -34.5 8.22724 1.5
    endloop
  endfacet
  facet normal 0 0 1
    outer loop
      vertex -33.5 6.49519 1.5
      vertex -36.1067 7.05988 1.5
      vertex -35.0533 5.3033 1.5
    endloop
  endfacet
  facet normal -0 0 1
    outer loop
      vertex -37.4357 5.58396 1.5
      vertex -35.0533 5.3033 1.5
      vertex -36.1067 7.05988 1.5
    endloop
  endfacet
  facet normal 0 0 1
    outer loop
      vertex -35.0533 5.3033 1.5
      vertex -37.4357 5.58396 1.5
      vertex -36.2452 3.75 1.5
    endloop
  endfacet
  facet normal 0 0 1
    outer loop
      vertex -36.2452 3.75 1.5
      vertex -38.4287 3.864 1.5
      vertex -36.9944 1.94114 1.5
    endloop
  endfacet
  facet normal -0 0 1
    outer loop
      vertex -38.4287 3.864 1.5
      vertex -36.2452 3.75 1.5
      vertex -37.4357 5.58396 1.5
    endloop
  endfacet
  facet normal -0 0 1
    outer loop
      vertex 36.2452 -3.75 1.5
      vertex 38.4287 -3.864 1.5
      vertex 36.9944 -1.94114 1.5
    endloop
  endfacet
  facet normal 0 0 1
    outer loop
      vertex 38.4287 -3.864 1.5
      vertex 36.2452 -3.75 1.5
      vertex 37.4357 -5.58396 1.5
    endloop
  endfacet
  facet normal -0 0 1
    outer loop
      vertex 35.0533 -5.3033 1.5
      vertex 37.4357 -5.58396 1.5
      vertex 36.2452 -3.75 1.5
    endloop
  endfacet
  facet normal 0 0 1
    outer loop
      vertex 37.4357 -5.58396 1.5
      vertex 35.0533 -5.3033 1.5
      vertex 36.1067 -7.05988 1.5
    endloop
  endfacet
  facet normal -0 0 1
    outer loop
      vertex 33.5 -6.49519 1.5
      vertex 36.1067 -7.05988 1.5
      vertex 35.0533 -5.3033 1.5
    endloop
  endfacet
  facet normal 0 0 1
    outer loop
      vertex 36.1067 -7.05988 1.5
      vertex 33.5 -6.49519 1.5
      vertex 34.5 -8.22724 1.5
    endloop
  endfacet
  facet normal 0 0 1
    outer loop
      vertex 33.5 -6.49519 1.5
      vertex 32.6857 -9.03504 1.5
      vertex 34.5 -8.22724 1.5
    endloop
  endfacet
  facet normal -0 0 1
    outer loop
      vertex 31.6911 -7.24444 1.5
      vertex 32.6857 -9.03504 1.5
      vertex 33.5 -6.49519 1.5
    endloop
  endfacet
  facet normal 0 0 1
    outer loop
      vertex 31.6911 -7.24444 1.5
      vertex 30.743 -9.44796 1.5
      vertex 32.6857 -9.03504 1.5
    endloop
  endfacet
  facet normal -0 0 1
    outer loop
      vertex 29.75 -7.5 1.5
      vertex 30.743 -9.44796 1.5
      vertex 31.6911 -7.24444 1.5
    endloop
  endfacet
  facet normal -0 0 1
    outer loop
      vertex -29.75 -7.5 1.5
      vertex 30.743 -9.44796 1.5
      vertex 29.75 -7.5 1.5
    endloop
  endfacet
  facet normal 0 0 1
    outer loop
      vertex -29.75 -7.5 1.5
      vertex -30.743 -9.44796 1.5
      vertex 30.743 -9.44796 1.5
    endloop
  endfacet
  facet normal 0 0 1
    outer loop
      vertex -31.6911 -7.24444 1.5
      vertex -30.743 -9.44796 1.5
      vertex -29.75 -7.5 1.5
    endloop
  endfacet
  facet normal 0 0 1
    outer loop
      vertex -31.6911 -7.24444 1.5
      vertex -32.6857 -9.03504 1.5
      vertex -30.743 -9.44796 1.5
    endloop
  endfacet
  facet normal 0 0 1
    outer loop
      vertex -33.5 -6.49519 1.5
      vertex -32.6857 -9.03504 1.5
      vertex -31.6911 -7.24444 1.5
    endloop
  endfacet
  facet normal 0 0 1
    outer loop
      vertex -33.5 -6.49519 1.5
      vertex -34.5 -8.22724 1.5
      vertex -32.6857 -9.03504 1.5
    endloop
  endfacet
  facet normal 0 0 1
    outer loop
      vertex -36.1067 -7.05988 1.5
      vertex -33.5 -6.49519 1.5
      vertex -35.0533 -5.3033 1.5
    endloop
  endfacet
  facet normal 0 0 1
    outer loop
      vertex -33.5 -6.49519 1.5
      vertex -36.1067 -7.05988 1.5
      vertex -34.5 -8.22724 1.5
    endloop
  endfacet
  facet normal 0 0 1
    outer loop
      vertex -37.4357 -5.58396 1.5
      vertex -35.0533 -5.3033 1.5
      vertex -36.2452 -3.75 1.5
    endloop
  endfacet
  facet normal 0 0 1
    outer loop
      vertex -38.4287 -3.864 1.5
      vertex -36.2452 -3.75 1.5
      vertex -36.9944 -1.94114 1.5
    endloop
  endfacet
  facet normal 0 0 1
    outer loop
      vertex -35.0533 -5.3033 1.5
      vertex -37.4357 -5.58396 1.5
      vertex -36.1067 -7.05988 1.5
    endloop
  endfacet
  facet normal 0 0 1
    outer loop
      vertex -39.0424 -1.97516 1.5
      vertex -36.9944 -1.94114 1.5
      vertex -37.25 0 1.5
    endloop
  endfacet
  facet normal -0 0 1
    outer loop
      vertex -39.0424 1.97516 1.5
      vertex -36.9944 1.94114 1.5
      vertex -38.4287 3.864 1.5
    endloop
  endfacet
  facet normal 0 0 1
    outer loop
      vertex -36.9944 1.94114 1.5
      vertex -39.0424 1.97516 1.5
      vertex -37.25 0 1.5
    endloop
  endfacet
  facet normal 0 0 1
    outer loop
      vertex -36.2452 -3.75 1.5
      vertex -38.4287 -3.864 1.5
      vertex -37.4357 -5.58396 1.5
    endloop
  endfacet
  facet normal 0 0 1
    outer loop
      vertex -39.25 0 1.5
      vertex -37.25 0 1.5
      vertex -39.0424 1.97516 1.5
    endloop
  endfacet
  facet normal 0 0 1
    outer loop
      vertex -36.9944 -1.94114 1.5
      vertex -39.0424 -1.97516 1.5
      vertex -38.4287 -3.864 1.5
    endloop
  endfacet
  facet normal 0 0 1
    outer loop
      vertex -37.25 0 1.5
      vertex -39.25 0 1.5
      vertex -39.0424 -1.97516 1.5
    endloop
  endfacet
  facet normal 0.86603 -0.499993 0
    outer loop
      vertex 37.4357 -5.58396 1.5
      vertex 38.4287 -3.864 -1.5
      vertex 38.4287 -3.864 1.5
    endloop
  endfacet
  facet normal 0.86603 -0.499993 0
    outer loop
      vertex 38.4287 -3.864 -1.5
      vertex 37.4357 -5.58396 1.5
      vertex 37.4357 -5.58396 -1.5
    endloop
  endfacet
  facet normal -0.406746 0.913541 0
    outer loop
      vertex -32.6857 9.03504 -1.5
      vertex -34.5 8.22724 1.5
      vertex -32.6857 9.03504 1.5
    endloop
  endfacet
  facet normal -0.406746 0.913541 0
    outer loop
      vertex -34.5 8.22724 1.5
      vertex -32.6857 9.03504 -1.5
      vertex -34.5 8.22724 -1.5
    endloop
  endfacet
  facet normal 0.994522 0.10453 0
    outer loop
      vertex 39.25 0 1.5
      vertex 39.0424 1.97516 -1.5
      vertex 39.0424 1.97516 1.5
    endloop
  endfacet
  facet normal 0.994522 0.10453 0
    outer loop
      vertex 39.0424 1.97516 -1.5
      vertex 39.25 0 1.5
      vertex 39.25 0 -1.5
    endloop
  endfacet
  facet normal 0.743126 0.669152 0
    outer loop
      vertex 37.4357 5.58396 1.5
      vertex 36.1067 7.05988 -1.5
      vertex 36.1067 7.05988 1.5
    endloop
  endfacet
  facet normal 0.743126 0.669152 0
    outer loop
      vertex 36.1067 7.05988 -1.5
      vertex 37.4357 5.58396 1.5
      vertex 37.4357 5.58396 -1.5
    endloop
  endfacet
  facet normal 0.95106 -0.309007 0
    outer loop
      vertex 38.4287 -3.864 1.5
      vertex 39.0424 -1.97516 -1.5
      vertex 39.0424 -1.97516 1.5
    endloop
  endfacet
  facet normal 0.95106 -0.309007 0
    outer loop
      vertex 39.0424 -1.97516 -1.5
      vertex 38.4287 -3.864 1.5
      vertex 38.4287 -3.864 -1.5
    endloop
  endfacet
  facet normal 0.207905 -0.978149 0
    outer loop
      vertex 30.743 -9.44796 -1.5
      vertex 32.6857 -9.03504 1.5
      vertex 30.743 -9.44796 1.5
    endloop
  endfacet
  facet normal 0.207905 -0.978149 0
    outer loop
      vertex 32.6857 -9.03504 1.5
      vertex 30.743 -9.44796 -1.5
      vertex 32.6857 -9.03504 -1.5
    endloop
  endfacet
  facet normal 0.923889 0.38266 0
    outer loop
      vertex -36.2452 -3.75 1.5
      vertex -36.9944 -1.94114 -1.5
      vertex -36.9944 -1.94114 1.5
    endloop
  endfacet
  facet normal 0.923889 0.38266 0
    outer loop
      vertex -36.9944 -1.94114 -1.5
      vertex -36.2452 -3.75 1.5
      vertex -36.2452 -3.75 -1.5
    endloop
  endfacet
  facet normal -0.130531 0.991444 0
    outer loop
      vertex 31.6911 -7.24444 -1.5
      vertex 29.75 -7.5 1.5
      vertex 31.6911 -7.24444 1.5
    endloop
  endfacet
  facet normal -0.130531 0.991444 0
    outer loop
      vertex 29.75 -7.5 1.5
      vertex 31.6911 -7.24444 -1.5
      vertex 29.75 -7.5 -1.5
    endloop
  endfacet
  facet normal -0.130531 -0.991444 0
    outer loop
      vertex 29.75 7.5 -1.5
      vertex 31.6911 7.24444 1.5
      vertex 29.75 7.5 1.5
    endloop
  endfacet
  facet normal -0.130531 -0.991444 -0
    outer loop
      vertex 31.6911 7.24444 1.5
      vertex 29.75 7.5 -1.5
      vertex 31.6911 7.24444 -1.5
    endloop
  endfacet
  facet normal -0.608762 -0.793353 0
    outer loop
      vertex 33.5 6.49519 -1.5
      vertex 35.0533 5.3033 1.5
      vertex 33.5 6.49519 1.5
    endloop
  endfacet
  facet normal -0.608762 -0.793353 -0
    outer loop
      vertex 35.0533 5.3033 1.5
      vertex 33.5 6.49519 -1.5
      vertex 35.0533 5.3033 -1.5
    endloop
  endfacet
  facet normal -0.923889 0.38266 0
    outer loop
      vertex 36.2452 -3.75 -1.5
      vertex 36.9944 -1.94114 1.5
      vertex 36.9944 -1.94114 -1.5
    endloop
  endfacet
  facet normal -0.923889 0.38266 0
    outer loop
      vertex 36.9944 -1.94114 1.5
      vertex 36.2452 -3.75 -1.5
      vertex 36.2452 -3.75 1.5
    endloop
  endfacet
  facet normal -0.608762 0.793353 0
    outer loop
      vertex 35.0533 -5.3033 -1.5
      vertex 33.5 -6.49519 1.5
      vertex 35.0533 -5.3033 1.5
    endloop
  endfacet
  facet normal -0.608762 0.793353 0
    outer loop
      vertex 33.5 -6.49519 1.5
      vertex 35.0533 -5.3033 -1.5
      vertex 33.5 -6.49519 -1.5
    endloop
  endfacet
  facet normal -0.382674 0.923883 0
    outer loop
      vertex 33.5 -6.49519 -1.5
      vertex 31.6911 -7.24444 1.5
      vertex 33.5 -6.49519 1.5
    endloop
  endfacet
  facet normal -0.382674 0.923883 0
    outer loop
      vertex 31.6911 -7.24444 1.5
      vertex 33.5 -6.49519 -1.5
      vertex 31.6911 -7.24444 -1.5
    endloop
  endfacet
  facet normal 0.793351 -0.608765 0
    outer loop
      vertex -36.2452 3.75 1.5
      vertex -35.0533 5.3033 -1.5
      vertex -35.0533 5.3033 1.5
    endloop
  endfacet
  facet normal 0.793351 -0.608765 0
    outer loop
      vertex -35.0533 5.3033 -1.5
      vertex -36.2452 3.75 1.5
      vertex -36.2452 3.75 -1.5
    endloop
  endfacet
  facet normal 0.130531 0.991444 -0
    outer loop
      vertex -29.75 -7.5 -1.5
      vertex -31.6911 -7.24444 1.5
      vertex -29.75 -7.5 1.5
    endloop
  endfacet
  facet normal 0.130531 0.991444 0
    outer loop
      vertex -31.6911 -7.24444 1.5
      vertex -29.75 -7.5 -1.5
      vertex -31.6911 -7.24444 -1.5
    endloop
  endfacet
  facet normal -0.793351 0.608765 0
    outer loop
      vertex 35.0533 -5.3033 -1.5
      vertex 36.2452 -3.75 1.5
      vertex 36.2452 -3.75 -1.5
    endloop
  endfacet
  facet normal -0.793351 0.608765 0
    outer loop
      vertex 36.2452 -3.75 1.5
      vertex 35.0533 -5.3033 -1.5
      vertex 35.0533 -5.3033 1.5
    endloop
  endfacet
  facet normal 0.793351 0.608765 0
    outer loop
      vertex -35.0533 -5.3033 1.5
      vertex -36.2452 -3.75 -1.5
      vertex -36.2452 -3.75 1.5
    endloop
  endfacet
  facet normal 0.793351 0.608765 0
    outer loop
      vertex -36.2452 -3.75 -1.5
      vertex -35.0533 -5.3033 1.5
      vertex -35.0533 -5.3033 -1.5
    endloop
  endfacet
  facet normal 0.130531 -0.991444 0
    outer loop
      vertex -31.6911 7.24444 -1.5
      vertex -29.75 7.5 1.5
      vertex -31.6911 7.24444 1.5
    endloop
  endfacet
  facet normal 0.130531 -0.991444 0
    outer loop
      vertex -29.75 7.5 1.5
      vertex -31.6911 7.24444 -1.5
      vertex -29.75 7.5 -1.5
    endloop
  endfacet
  facet normal 0 -1 0
    outer loop
      vertex -29.75 7.5 -1.5
      vertex 29.75 7.5 1.5
      vertex -29.75 7.5 1.5
    endloop
  endfacet
  facet normal 0 -1 -0
    outer loop
      vertex 29.75 7.5 1.5
      vertex -29.75 7.5 -1.5
      vertex 29.75 7.5 -1.5
    endloop
  endfacet
  facet normal 0 1 -0
    outer loop
      vertex 29.75 -7.5 -1.5
      vertex -29.75 -7.5 1.5
      vertex 29.75 -7.5 1.5
    endloop
  endfacet
  facet normal 0 1 0
    outer loop
      vertex -29.75 -7.5 1.5
      vertex 29.75 -7.5 -1.5
      vertex -29.75 -7.5 -1.5
    endloop
  endfacet
  facet normal 0.608762 -0.793353 0
    outer loop
      vertex -35.0533 5.3033 -1.5
      vertex -33.5 6.49519 1.5
      vertex -35.0533 5.3033 1.5
    endloop
  endfacet
  facet normal 0.608762 -0.793353 0
    outer loop
      vertex -33.5 6.49519 1.5
      vertex -35.0533 5.3033 -1.5
      vertex -33.5 6.49519 -1.5
    endloop
  endfacet
  facet normal -0.991442 0.130548 0
    outer loop
      vertex 36.9944 -1.94114 -1.5
      vertex 37.25 0 1.5
      vertex 37.25 0 -1.5
    endloop
  endfacet
  facet normal -0.991442 0.130548 0
    outer loop
      vertex 37.25 0 1.5
      vertex 36.9944 -1.94114 -1.5
      vertex 36.9944 -1.94114 1.5
    endloop
  endfacet
  facet normal -0.991442 -0.130548 0
    outer loop
      vertex 37.25 0 -1.5
      vertex 36.9944 1.94114 1.5
      vertex 36.9944 1.94114 -1.5
    endloop
  endfacet
  facet normal -0.991442 -0.130548 0
    outer loop
      vertex 36.9944 1.94114 1.5
      vertex 37.25 0 -1.5
      vertex 37.25 0 1.5
    endloop
  endfacet
  facet normal -0.382674 -0.923883 0
    outer loop
      vertex 31.6911 7.24444 -1.5
      vertex 33.5 6.49519 1.5
      vertex 31.6911 7.24444 1.5
    endloop
  endfacet
  facet normal -0.382674 -0.923883 -0
    outer loop
      vertex 33.5 6.49519 1.5
      vertex 31.6911 7.24444 -1.5
      vertex 33.5 6.49519 -1.5
    endloop
  endfacet
  facet normal 0.382674 0.923883 -0
    outer loop
      vertex -31.6911 -7.24444 -1.5
      vertex -33.5 -6.49519 1.5
      vertex -31.6911 -7.24444 1.5
    endloop
  endfacet
  facet normal 0.382674 0.923883 0
    outer loop
      vertex -33.5 -6.49519 1.5
      vertex -31.6911 -7.24444 -1.5
      vertex -33.5 -6.49519 -1.5
    endloop
  endfacet
  facet normal 0.991442 0.130548 0
    outer loop
      vertex -36.9944 -1.94114 1.5
      vertex -37.25 0 -1.5
      vertex -37.25 0 1.5
    endloop
  endfacet
  facet normal 0.991442 0.130548 0
    outer loop
      vertex -37.25 0 -1.5
      vertex -36.9944 -1.94114 1.5
      vertex -36.9944 -1.94114 -1.5
    endloop
  endfacet
  facet normal 0.608762 0.793353 -0
    outer loop
      vertex -33.5 -6.49519 -1.5
      vertex -35.0533 -5.3033 1.5
      vertex -33.5 -6.49519 1.5
    endloop
  endfacet
  facet normal 0.608762 0.793353 0
    outer loop
      vertex -35.0533 -5.3033 1.5
      vertex -33.5 -6.49519 -1.5
      vertex -35.0533 -5.3033 -1.5
    endloop
  endfacet
  facet normal -0.923889 -0.38266 0
    outer loop
      vertex 36.9944 1.94114 -1.5
      vertex 36.2452 3.75 1.5
      vertex 36.2452 3.75 -1.5
    endloop
  endfacet
  facet normal -0.923889 -0.38266 0
    outer loop
      vertex 36.2452 3.75 1.5
      vertex 36.9944 1.94114 -1.5
      vertex 36.9944 1.94114 1.5
    endloop
  endfacet
  facet normal -0.793351 -0.608765 0
    outer loop
      vertex 36.2452 3.75 -1.5
      vertex 35.0533 5.3033 1.5
      vertex 35.0533 5.3033 -1.5
    endloop
  endfacet
  facet normal -0.793351 -0.608765 0
    outer loop
      vertex 35.0533 5.3033 1.5
      vertex 36.2452 3.75 -1.5
      vertex 36.2452 3.75 1.5
    endloop
  endfacet
  facet normal 0.382674 -0.923883 0
    outer loop
      vertex -33.5 6.49519 -1.5
      vertex -31.6911 7.24444 1.5
      vertex -33.5 6.49519 1.5
    endloop
  endfacet
  facet normal 0.382674 -0.923883 0
    outer loop
      vertex -31.6911 7.24444 1.5
      vertex -33.5 6.49519 -1.5
      vertex -31.6911 7.24444 -1.5
    endloop
  endfacet
  facet normal 0.991442 -0.130548 0
    outer loop
      vertex -37.25 0 1.5
      vertex -36.9944 1.94114 -1.5
      vertex -36.9944 1.94114 1.5
    endloop
  endfacet
  facet normal 0.991442 -0.130548 0
    outer loop
      vertex -36.9944 1.94114 -1.5
      vertex -37.25 0 1.5
      vertex -37.25 0 -1.5
    endloop
  endfacet
  facet normal 0.923889 -0.38266 0
    outer loop
      vertex -36.9944 1.94114 1.5
      vertex -36.2452 3.75 -1.5
      vertex -36.2452 3.75 1.5
    endloop
  endfacet
  facet normal 0.923889 -0.38266 0
    outer loop
      vertex -36.2452 3.75 -1.5
      vertex -36.9944 1.94114 1.5
      vertex -36.9944 1.94114 -1.5
    endloop
  endfacet
endsolid OpenSCAD_Model
