solid OpenSCAD_Model
  facet normal 0.987686 -0.15645 0
    outer loop
      vertex 3.66805 -0.779669 4
      vertex 3.72946 -0.391981 -4
      vertex 3.72946 -0.391981 4
    endloop
  endfacet
  facet normal 0.987686 -0.15645 0
    outer loop
      vertex 3.72946 -0.391981 -4
      vertex 3.66805 -0.779669 4
      vertex 3.66805 -0.779669 -4
    endloop
  endfacet
  facet normal 0.707107 0.707107 0
    outer loop
      vertex 2.78679 2.50924 4
      vertex 2.50924 2.78679 -4
      vertex 2.50924 2.78679 4
    endloop
  endfacet
  facet normal 0.707107 0.707107 0
    outer loop
      vertex 2.50924 2.78679 -4
      vertex 2.78679 2.50924 4
      vertex 2.78679 2.50924 -4
    endloop
  endfacet
  facet normal -0.15645 -0.987686 0
    outer loop
      vertex -0.779669 -3.66805 -4
      vertex -0.391981 -3.72946 4
      vertex -0.779669 -3.66805 4
    endloop
  endfacet
  facet normal -0.15645 -0.987686 -0
    outer loop
      vertex -0.391981 -3.72946 4
      vertex -0.779669 -3.66805 -4
      vertex -0.391981 -3.72946 -4
    endloop
  endfacet
  facet normal -0.777152 0.629313 0
    outer loop
      vertex -3.03381 2.20419 -4
      vertex -2.78679 2.50924 4
      vertex -2.78679 2.50924 -4
    endloop
  endfacet
  facet normal -0.777152 0.629313 0
    outer loop
      vertex -2.78679 2.50924 4
      vertex -3.03381 2.20419 -4
      vertex -3.03381 2.20419 4
    endloop
  endfacet
  facet normal 0.453988 -0.891008 0
    outer loop
      vertex 1.52526 -3.42579 -4
      vertex 1.875 -3.24759 4
      vertex 1.52526 -3.42579 4
    endloop
  endfacet
  facet normal 0.453988 -0.891008 0
    outer loop
      vertex 1.875 -3.24759 4
      vertex 1.52526 -3.42579 -4
      vertex 1.875 -3.24759 -4
    endloop
  endfacet
  facet normal -0.707107 -0.707107 0
    outer loop
      vertex -2.50924 -2.78679 -4
      vertex -2.78679 -2.50924 4
      vertex -2.78679 -2.50924 -4
    endloop
  endfacet
  facet normal -0.707107 -0.707107 0
    outer loop
      vertex -2.78679 -2.50924 4
      vertex -2.50924 -2.78679 -4
      vertex -2.50924 -2.78679 4
    endloop
  endfacet
  facet normal -0.933578 0.358375 0
    outer loop
      vertex -3.56646 1.15881 -4
      vertex -3.42579 1.52526 4
      vertex -3.42579 1.52526 -4
    endloop
  endfacet
  facet normal -0.933578 0.358375 0
    outer loop
      vertex -3.42579 1.52526 4
      vertex -3.56646 1.15881 -4
      vertex -3.56646 1.15881 4
    endloop
  endfacet
  facet normal 0.933578 0.358375 0
    outer loop
      vertex 3.56646 1.15881 4
      vertex 3.42579 1.52526 -4
      vertex 3.42579 1.52526 4
    endloop
  endfacet
  facet normal 0.933578 0.358375 0
    outer loop
      vertex 3.42579 1.52526 -4
      vertex 3.56646 1.15881 4
      vertex 3.56646 1.15881 -4
    endloop
  endfacet
  facet normal -0.358375 0.933578 0
    outer loop
      vertex -1.15881 3.56646 -4
      vertex -1.52526 3.42579 4
      vertex -1.15881 3.56646 4
    endloop
  endfacet
  facet normal -0.358375 0.933578 0
    outer loop
      vertex -1.52526 3.42579 4
      vertex -1.15881 3.56646 -4
      vertex -1.52526 3.42579 -4
    endloop
  endfacet
  facet normal 0.0523287 0.99863 -0
    outer loop
      vertex 0.391981 3.72946 -4
      vertex 0 3.75 4
      vertex 0.391981 3.72946 4
    endloop
  endfacet
  facet normal 0.0523287 0.99863 0
    outer loop
      vertex 0 3.75 4
      vertex 0.391981 3.72946 -4
      vertex 0 3.75 -4
    endloop
  endfacet
  facet normal -0.987686 -0.15645 0
    outer loop
      vertex -3.66805 -0.779669 -4
      vertex -3.72946 -0.391981 4
      vertex -3.72946 -0.391981 -4
    endloop
  endfacet
  facet normal -0.987686 -0.15645 0
    outer loop
      vertex -3.72946 -0.391981 4
      vertex -3.66805 -0.779669 -4
      vertex -3.66805 -0.779669 4
    endloop
  endfacet
  facet normal -0.99863 0.0523287 0
    outer loop
      vertex -3.75 0 -4
      vertex -3.72946 0.391981 4
      vertex -3.72946 0.391981 -4
    endloop
  endfacet
  facet normal -0.99863 0.0523287 0
    outer loop
      vertex -3.72946 0.391981 4
      vertex -3.75 0 -4
      vertex -3.75 0 4
    endloop
  endfacet
  facet normal -0.99863 -0.0523287 0
    outer loop
      vertex -3.72946 -0.391981 -4
      vertex -3.75 0 4
      vertex -3.75 0 -4
    endloop
  endfacet
  facet normal -0.99863 -0.0523287 0
    outer loop
      vertex -3.75 0 4
      vertex -3.72946 -0.391981 -4
      vertex -3.72946 -0.391981 4
    endloop
  endfacet
  facet normal 0.987686 0.15645 0
    outer loop
      vertex 3.72946 0.391981 4
      vertex 3.66805 0.779669 -4
      vertex 3.66805 0.779669 4
    endloop
  endfacet
  facet normal 0.987686 0.15645 0
    outer loop
      vertex 3.66805 0.779669 -4
      vertex 3.72946 0.391981 4
      vertex 3.72946 0.391981 -4
    endloop
  endfacet
  facet normal -0.629313 0.777152 0
    outer loop
      vertex -2.20419 3.03381 -4
      vertex -2.50924 2.78679 4
      vertex -2.20419 3.03381 4
    endloop
  endfacet
  facet normal -0.629313 0.777152 0
    outer loop
      vertex -2.50924 2.78679 4
      vertex -2.20419 3.03381 -4
      vertex -2.50924 2.78679 -4
    endloop
  endfacet
  facet normal 0.99863 0.0523287 0
    outer loop
      vertex 3.75 0 4
      vertex 3.72946 0.391981 -4
      vertex 3.72946 0.391981 4
    endloop
  endfacet
  facet normal 0.99863 0.0523287 0
    outer loop
      vertex 3.72946 0.391981 -4
      vertex 3.75 0 4
      vertex 3.75 0 -4
    endloop
  endfacet
  facet normal -0.0523287 0.99863 0
    outer loop
      vertex 0 3.75 -4
      vertex -0.391981 3.72946 4
      vertex 0 3.75 4
    endloop
  endfacet
  facet normal -0.0523287 0.99863 0
    outer loop
      vertex -0.391981 3.72946 4
      vertex 0 3.75 -4
      vertex -0.391981 3.72946 -4
    endloop
  endfacet
  facet normal 0.544642 -0.838669 0
    outer loop
      vertex 1.875 -3.24759 -4
      vertex 2.20419 -3.03381 4
      vertex 1.875 -3.24759 4
    endloop
  endfacet
  facet normal 0.544642 -0.838669 0
    outer loop
      vertex 2.20419 -3.03381 4
      vertex 1.875 -3.24759 -4
      vertex 2.20419 -3.03381 -4
    endloop
  endfacet
  facet normal -0.965926 -0.258818 0
    outer loop
      vertex -3.56646 -1.15881 -4
      vertex -3.66805 -0.779669 4
      vertex -3.66805 -0.779669 -4
    endloop
  endfacet
  facet normal -0.965926 -0.258818 0
    outer loop
      vertex -3.66805 -0.779669 4
      vertex -3.56646 -1.15881 -4
      vertex -3.56646 -1.15881 4
    endloop
  endfacet
  facet normal -0.838669 0.544642 0
    outer loop
      vertex -3.24759 1.875 -4
      vertex -3.03381 2.20419 4
      vertex -3.03381 2.20419 -4
    endloop
  endfacet
  facet normal -0.838669 0.544642 0
    outer loop
      vertex -3.03381 2.20419 4
      vertex -3.24759 1.875 -4
      vertex -3.24759 1.875 4
    endloop
  endfacet
  facet normal -0.358375 -0.933578 0
    outer loop
      vertex -1.52526 -3.42579 -4
      vertex -1.15881 -3.56646 4
      vertex -1.52526 -3.42579 4
    endloop
  endfacet
  facet normal -0.358375 -0.933578 -0
    outer loop
      vertex -1.15881 -3.56646 4
      vertex -1.52526 -3.42579 -4
      vertex -1.15881 -3.56646 -4
    endloop
  endfacet
  facet normal -0.15645 0.987686 0
    outer loop
      vertex -0.391981 3.72946 -4
      vertex -0.779669 3.66805 4
      vertex -0.391981 3.72946 4
    endloop
  endfacet
  facet normal -0.15645 0.987686 0
    outer loop
      vertex -0.779669 3.66805 4
      vertex -0.391981 3.72946 -4
      vertex -0.779669 3.66805 -4
    endloop
  endfacet
  facet normal 0.777152 -0.629313 0
    outer loop
      vertex 2.78679 -2.50924 4
      vertex 3.03381 -2.20419 -4
      vertex 3.03381 -2.20419 4
    endloop
  endfacet
  facet normal 0.777152 -0.629313 0
    outer loop
      vertex 3.03381 -2.20419 -4
      vertex 2.78679 -2.50924 4
      vertex 2.78679 -2.50924 -4
    endloop
  endfacet
  facet normal 0 0 -1
    outer loop
      vertex 2.1 0 -4
      vertex 3.75 0 -4
      vertex 3.72946 -0.391981 -4
    endloop
  endfacet
  facet normal 0 0 -1
    outer loop
      vertex 2.0885 -0.219509 -4
      vertex 3.72946 -0.391981 -4
      vertex 3.66805 -0.779669 -4
    endloop
  endfacet
  facet normal 0 0 -1
    outer loop
      vertex 3.75 0 -4
      vertex 2.1 0 -4
      vertex 3.72946 0.391981 -4
    endloop
  endfacet
  facet normal 0 0 -1
    outer loop
      vertex 2.05411 -0.436614 -4
      vertex 3.66805 -0.779669 -4
      vertex 3.56646 -1.15881 -4
    endloop
  endfacet
  facet normal 0 0 -1
    outer loop
      vertex 2.0885 0.219509 -4
      vertex 3.72946 0.391981 -4
      vertex 2.1 0 -4
    endloop
  endfacet
  facet normal 0 0 -1
    outer loop
      vertex 1.99722 -0.648935 -4
      vertex 3.56646 -1.15881 -4
      vertex 3.42579 -1.52526 -4
    endloop
  endfacet
  facet normal -0 0 -1
    outer loop
      vertex 3.72946 0.391981 -4
      vertex 2.0885 0.219509 -4
      vertex 3.66805 0.779669 -4
    endloop
  endfacet
  facet normal 0 0 -1
    outer loop
      vertex 1.91844 -0.854146 -4
      vertex 3.42579 -1.52526 -4
      vertex 3.24759 -1.875 -4
    endloop
  endfacet
  facet normal 0 0 -1
    outer loop
      vertex 2.05411 0.436614 -4
      vertex 3.66805 0.779669 -4
      vertex 2.0885 0.219509 -4
    endloop
  endfacet
  facet normal 0 0 -1
    outer loop
      vertex 1.81865 -1.05 -4
      vertex 3.24759 -1.875 -4
      vertex 3.03381 -2.20419 -4
    endloop
  endfacet
  facet normal -0 0 -1
    outer loop
      vertex 3.66805 0.779669 -4
      vertex 2.05411 0.436614 -4
      vertex 3.56646 1.15881 -4
    endloop
  endfacet
  facet normal 0 0 -1
    outer loop
      vertex 1.69894 -1.23435 -4
      vertex 3.03381 -2.20419 -4
      vertex 2.78679 -2.50924 -4
    endloop
  endfacet
  facet normal 0 0 -1
    outer loop
      vertex 1.99722 0.648935 -4
      vertex 3.56646 1.15881 -4
      vertex 2.05411 0.436614 -4
    endloop
  endfacet
  facet normal 0 0 -1
    outer loop
      vertex 1.5606 -1.40517 -4
      vertex 2.78679 -2.50924 -4
      vertex 2.50924 -2.78679 -4
    endloop
  endfacet
  facet normal -0 0 -1
    outer loop
      vertex 3.56646 1.15881 -4
      vertex 1.99722 0.648935 -4
      vertex 3.42579 1.52526 -4
    endloop
  endfacet
  facet normal 0 0 -1
    outer loop
      vertex 1.40517 -1.5606 -4
      vertex 2.50924 -2.78679 -4
      vertex 2.20419 -3.03381 -4
    endloop
  endfacet
  facet normal 0 0 -1
    outer loop
      vertex 1.91844 0.854146 -4
      vertex 3.42579 1.52526 -4
      vertex 1.99722 0.648935 -4
    endloop
  endfacet
  facet normal -0 0 -1
    outer loop
      vertex 3.42579 1.52526 -4
      vertex 1.91844 0.854146 -4
      vertex 3.24759 1.875 -4
    endloop
  endfacet
  facet normal 0 0 -1
    outer loop
      vertex 3.72946 -0.391981 -4
      vertex 2.0885 -0.219509 -4
      vertex 2.1 0 -4
    endloop
  endfacet
  facet normal 0 0 -1
    outer loop
      vertex 3.66805 -0.779669 -4
      vertex 2.05411 -0.436614 -4
      vertex 2.0885 -0.219509 -4
    endloop
  endfacet
  facet normal 0 0 -1
    outer loop
      vertex 3.56646 -1.15881 -4
      vertex 1.99722 -0.648935 -4
      vertex 2.05411 -0.436614 -4
    endloop
  endfacet
  facet normal 0 0 -1
    outer loop
      vertex 3.42579 -1.52526 -4
      vertex 1.91844 -0.854146 -4
      vertex 1.99722 -0.648935 -4
    endloop
  endfacet
  facet normal 0 0 -1
    outer loop
      vertex 1.23435 -1.69894 -4
      vertex 2.20419 -3.03381 -4
      vertex 1.875 -3.24759 -4
    endloop
  endfacet
  facet normal 0 0 -1
    outer loop
      vertex 3.24759 -1.875 -4
      vertex 1.81865 -1.05 -4
      vertex 1.91844 -0.854146 -4
    endloop
  endfacet
  facet normal 0 0 -1
    outer loop
      vertex 3.03381 -2.20419 -4
      vertex 1.69894 -1.23435 -4
      vertex 1.81865 -1.05 -4
    endloop
  endfacet
  facet normal 0 0 -1
    outer loop
      vertex 2.78679 -2.50924 -4
      vertex 1.5606 -1.40517 -4
      vertex 1.69894 -1.23435 -4
    endloop
  endfacet
  facet normal 0 0 -1
    outer loop
      vertex 1.05 -1.81865 -4
      vertex 1.875 -3.24759 -4
      vertex 1.52526 -3.42579 -4
    endloop
  endfacet
  facet normal 0 0 -1
    outer loop
      vertex 2.50924 -2.78679 -4
      vertex 1.40517 -1.5606 -4
      vertex 1.5606 -1.40517 -4
    endloop
  endfacet
  facet normal 0 0 -1
    outer loop
      vertex 2.20419 -3.03381 -4
      vertex 1.23435 -1.69894 -4
      vertex 1.40517 -1.5606 -4
    endloop
  endfacet
  facet normal 0 0 -1
    outer loop
      vertex 0.854146 -1.91844 -4
      vertex 1.52526 -3.42579 -4
      vertex 1.15881 -3.56646 -4
    endloop
  endfacet
  facet normal 0 0 -1
    outer loop
      vertex 1.875 -3.24759 -4
      vertex 1.05 -1.81865 -4
      vertex 1.23435 -1.69894 -4
    endloop
  endfacet
  facet normal 0 0 -1
    outer loop
      vertex 1.52526 -3.42579 -4
      vertex 0.854146 -1.91844 -4
      vertex 1.05 -1.81865 -4
    endloop
  endfacet
  facet normal 0 0 -1
    outer loop
      vertex 0.648935 -1.99722 -4
      vertex 1.15881 -3.56646 -4
      vertex 0.779669 -3.66805 -4
    endloop
  endfacet
  facet normal 0 0 -1
    outer loop
      vertex 1.15881 -3.56646 -4
      vertex 0.648935 -1.99722 -4
      vertex 0.854146 -1.91844 -4
    endloop
  endfacet
  facet normal 0 0 -1
    outer loop
      vertex 0.779669 -3.66805 -4
      vertex 0.436614 -2.05411 -4
      vertex 0.648935 -1.99722 -4
    endloop
  endfacet
  facet normal 0 0 -1
    outer loop
      vertex 0.391981 -3.72946 -4
      vertex 0.436614 -2.05411 -4
      vertex 0.779669 -3.66805 -4
    endloop
  endfacet
  facet normal 0 0 -1
    outer loop
      vertex 0.391981 -3.72946 -4
      vertex 0.219509 -2.0885 -4
      vertex 0.436614 -2.05411 -4
    endloop
  endfacet
  facet normal 0 0 -1
    outer loop
      vertex 0 -3.75 -4
      vertex 0.219509 -2.0885 -4
      vertex 0.391981 -3.72946 -4
    endloop
  endfacet
  facet normal 0 0 -1
    outer loop
      vertex 0 -3.75 -4
      vertex 0 -2.1 -4
      vertex 0.219509 -2.0885 -4
    endloop
  endfacet
  facet normal 0 0 -1
    outer loop
      vertex 0 -3.75 -4
      vertex -0.219509 -2.0885 -4
      vertex 0 -2.1 -4
    endloop
  endfacet
  facet normal 0 0 -1
    outer loop
      vertex -0.391981 -3.72946 -4
      vertex -0.219509 -2.0885 -4
      vertex 0 -3.75 -4
    endloop
  endfacet
  facet normal 0 0 -1
    outer loop
      vertex -0.391981 -3.72946 -4
      vertex -0.436614 -2.05411 -4
      vertex -0.219509 -2.0885 -4
    endloop
  endfacet
  facet normal 0 0 -1
    outer loop
      vertex -0.779669 -3.66805 -4
      vertex -0.436614 -2.05411 -4
      vertex -0.391981 -3.72946 -4
    endloop
  endfacet
  facet normal -0 0 -1
    outer loop
      vertex -0.436614 -2.05411 -4
      vertex -0.779669 -3.66805 -4
      vertex -0.648935 -1.99722 -4
    endloop
  endfacet
  facet normal 0 0 -1
    outer loop
      vertex -1.15881 -3.56646 -4
      vertex -0.648935 -1.99722 -4
      vertex -0.779669 -3.66805 -4
    endloop
  endfacet
  facet normal -0 0 -1
    outer loop
      vertex -0.648935 -1.99722 -4
      vertex -1.15881 -3.56646 -4
      vertex -0.854146 -1.91844 -4
    endloop
  endfacet
  facet normal 0 0 -1
    outer loop
      vertex -1.52526 -3.42579 -4
      vertex -0.854146 -1.91844 -4
      vertex -1.15881 -3.56646 -4
    endloop
  endfacet
  facet normal -0 0 -1
    outer loop
      vertex -0.854146 -1.91844 -4
      vertex -1.52526 -3.42579 -4
      vertex -1.05 -1.81865 -4
    endloop
  endfacet
  facet normal 0 0 -1
    outer loop
      vertex -1.875 -3.24759 -4
      vertex -1.05 -1.81865 -4
      vertex -1.52526 -3.42579 -4
    endloop
  endfacet
  facet normal -0 0 -1
    outer loop
      vertex -1.05 -1.81865 -4
      vertex -1.875 -3.24759 -4
      vertex -1.23435 -1.69894 -4
    endloop
  endfacet
  facet normal 0 0 -1
    outer loop
      vertex -2.20419 -3.03381 -4
      vertex -1.23435 -1.69894 -4
      vertex -1.875 -3.24759 -4
    endloop
  endfacet
  facet normal -0 0 -1
    outer loop
      vertex -1.23435 -1.69894 -4
      vertex -2.20419 -3.03381 -4
      vertex -1.40517 -1.5606 -4
    endloop
  endfacet
  facet normal 0 0 -1
    outer loop
      vertex -2.50924 -2.78679 -4
      vertex -1.40517 -1.5606 -4
      vertex -2.20419 -3.03381 -4
    endloop
  endfacet
  facet normal -0 0 -1
    outer loop
      vertex -1.40517 -1.5606 -4
      vertex -2.50924 -2.78679 -4
      vertex -1.5606 -1.40517 -4
    endloop
  endfacet
  facet normal 0 0 -1
    outer loop
      vertex -2.78679 -2.50924 -4
      vertex -1.5606 -1.40517 -4
      vertex -2.50924 -2.78679 -4
    endloop
  endfacet
  facet normal -0 0 -1
    outer loop
      vertex -1.5606 -1.40517 -4
      vertex -2.78679 -2.50924 -4
      vertex -1.69894 -1.23435 -4
    endloop
  endfacet
  facet normal 0 0 -1
    outer loop
      vertex -3.03381 -2.20419 -4
      vertex -1.69894 -1.23435 -4
      vertex -2.78679 -2.50924 -4
    endloop
  endfacet
  facet normal -0 0 -1
    outer loop
      vertex -1.69894 -1.23435 -4
      vertex -3.03381 -2.20419 -4
      vertex -1.81865 -1.05 -4
    endloop
  endfacet
  facet normal -0 0 -1
    outer loop
      vertex -1.81865 -1.05 -4
      vertex -3.24759 -1.875 -4
      vertex -1.91844 -0.854146 -4
    endloop
  endfacet
  facet normal 0 0 -1
    outer loop
      vertex -3.24759 -1.875 -4
      vertex -1.81865 -1.05 -4
      vertex -3.03381 -2.20419 -4
    endloop
  endfacet
  facet normal 0 0 -1
    outer loop
      vertex 1.81865 1.05 -4
      vertex 3.24759 1.875 -4
      vertex 1.91844 0.854146 -4
    endloop
  endfacet
  facet normal -0 0 -1
    outer loop
      vertex 3.24759 1.875 -4
      vertex 1.81865 1.05 -4
      vertex 3.03381 2.20419 -4
    endloop
  endfacet
  facet normal 0 0 -1
    outer loop
      vertex 1.69894 1.23435 -4
      vertex 3.03381 2.20419 -4
      vertex 1.81865 1.05 -4
    endloop
  endfacet
  facet normal -0 0 -1
    outer loop
      vertex 3.03381 2.20419 -4
      vertex 1.69894 1.23435 -4
      vertex 2.78679 2.50924 -4
    endloop
  endfacet
  facet normal 0 0 -1
    outer loop
      vertex 1.5606 1.40517 -4
      vertex 2.78679 2.50924 -4
      vertex 1.69894 1.23435 -4
    endloop
  endfacet
  facet normal -0 0 -1
    outer loop
      vertex 2.78679 2.50924 -4
      vertex 1.5606 1.40517 -4
      vertex 2.50924 2.78679 -4
    endloop
  endfacet
  facet normal 0 0 -1
    outer loop
      vertex 1.40517 1.5606 -4
      vertex 2.50924 2.78679 -4
      vertex 1.5606 1.40517 -4
    endloop
  endfacet
  facet normal -0 0 -1
    outer loop
      vertex 2.50924 2.78679 -4
      vertex 1.40517 1.5606 -4
      vertex 2.20419 3.03381 -4
    endloop
  endfacet
  facet normal 0 0 -1
    outer loop
      vertex 1.23435 1.69894 -4
      vertex 2.20419 3.03381 -4
      vertex 1.40517 1.5606 -4
    endloop
  endfacet
  facet normal -0 0 -1
    outer loop
      vertex 2.20419 3.03381 -4
      vertex 1.23435 1.69894 -4
      vertex 1.875 3.24759 -4
    endloop
  endfacet
  facet normal 0 0 -1
    outer loop
      vertex 1.05 1.81865 -4
      vertex 1.875 3.24759 -4
      vertex 1.23435 1.69894 -4
    endloop
  endfacet
  facet normal -0 0 -1
    outer loop
      vertex 1.875 3.24759 -4
      vertex 1.05 1.81865 -4
      vertex 1.52526 3.42579 -4
    endloop
  endfacet
  facet normal 0 0 -1
    outer loop
      vertex 0.854146 1.91844 -4
      vertex 1.52526 3.42579 -4
      vertex 1.05 1.81865 -4
    endloop
  endfacet
  facet normal -0 0 -1
    outer loop
      vertex 1.52526 3.42579 -4
      vertex 0.854146 1.91844 -4
      vertex 1.15881 3.56646 -4
    endloop
  endfacet
  facet normal 0 0 -1
    outer loop
      vertex 0.648935 1.99722 -4
      vertex 1.15881 3.56646 -4
      vertex 0.854146 1.91844 -4
    endloop
  endfacet
  facet normal -0 0 -1
    outer loop
      vertex 1.15881 3.56646 -4
      vertex 0.648935 1.99722 -4
      vertex 0.779669 3.66805 -4
    endloop
  endfacet
  facet normal 0 0 -1
    outer loop
      vertex 0.436614 2.05411 -4
      vertex 0.779669 3.66805 -4
      vertex 0.648935 1.99722 -4
    endloop
  endfacet
  facet normal 0 0 -1
    outer loop
      vertex 0.436614 2.05411 -4
      vertex 0.391981 3.72946 -4
      vertex 0.779669 3.66805 -4
    endloop
  endfacet
  facet normal 0 0 -1
    outer loop
      vertex 0.219509 2.0885 -4
      vertex 0.391981 3.72946 -4
      vertex 0.436614 2.05411 -4
    endloop
  endfacet
  facet normal 0 0 -1
    outer loop
      vertex 0 2.1 -4
      vertex 0.391981 3.72946 -4
      vertex 0.219509 2.0885 -4
    endloop
  endfacet
  facet normal 0 0 -1
    outer loop
      vertex 0 2.1 -4
      vertex 0 3.75 -4
      vertex 0.391981 3.72946 -4
    endloop
  endfacet
  facet normal 0 0 -1
    outer loop
      vertex -0.219509 2.0885 -4
      vertex 0 3.75 -4
      vertex 0 2.1 -4
    endloop
  endfacet
  facet normal 0 0 -1
    outer loop
      vertex -0.219509 2.0885 -4
      vertex -0.391981 3.72946 -4
      vertex 0 3.75 -4
    endloop
  endfacet
  facet normal 0 0 -1
    outer loop
      vertex -0.436614 2.05411 -4
      vertex -0.391981 3.72946 -4
      vertex -0.219509 2.0885 -4
    endloop
  endfacet
  facet normal 0 0 -1
    outer loop
      vertex -0.779669 3.66805 -4
      vertex -0.436614 2.05411 -4
      vertex -0.648935 1.99722 -4
    endloop
  endfacet
  facet normal 0 0 -1
    outer loop
      vertex -0.436614 2.05411 -4
      vertex -0.779669 3.66805 -4
      vertex -0.391981 3.72946 -4
    endloop
  endfacet
  facet normal 0 0 -1
    outer loop
      vertex -1.15881 3.56646 -4
      vertex -0.648935 1.99722 -4
      vertex -0.854146 1.91844 -4
    endloop
  endfacet
  facet normal 0 0 -1
    outer loop
      vertex -1.52526 3.42579 -4
      vertex -0.854146 1.91844 -4
      vertex -1.05 1.81865 -4
    endloop
  endfacet
  facet normal 0 0 -1
    outer loop
      vertex -0.648935 1.99722 -4
      vertex -1.15881 3.56646 -4
      vertex -0.779669 3.66805 -4
    endloop
  endfacet
  facet normal 0 0 -1
    outer loop
      vertex -1.875 3.24759 -4
      vertex -1.05 1.81865 -4
      vertex -1.23435 1.69894 -4
    endloop
  endfacet
  facet normal 0 0 -1
    outer loop
      vertex -2.20419 3.03381 -4
      vertex -1.23435 1.69894 -4
      vertex -1.40517 1.5606 -4
    endloop
  endfacet
  facet normal 0 0 -1
    outer loop
      vertex -0.854146 1.91844 -4
      vertex -1.52526 3.42579 -4
      vertex -1.15881 3.56646 -4
    endloop
  endfacet
  facet normal 0 0 -1
    outer loop
      vertex -2.50924 2.78679 -4
      vertex -1.40517 1.5606 -4
      vertex -1.5606 1.40517 -4
    endloop
  endfacet
  facet normal 0 0 -1
    outer loop
      vertex -2.78679 2.50924 -4
      vertex -1.5606 1.40517 -4
      vertex -1.69894 1.23435 -4
    endloop
  endfacet
  facet normal 0 0 -1
    outer loop
      vertex -3.03381 2.20419 -4
      vertex -1.69894 1.23435 -4
      vertex -1.81865 1.05 -4
    endloop
  endfacet
  facet normal 0 0 -1
    outer loop
      vertex -1.05 1.81865 -4
      vertex -1.875 3.24759 -4
      vertex -1.52526 3.42579 -4
    endloop
  endfacet
  facet normal 0 0 -1
    outer loop
      vertex -3.24759 1.875 -4
      vertex -1.81865 1.05 -4
      vertex -1.91844 0.854146 -4
    endloop
  endfacet
  facet normal 0 0 -1
    outer loop
      vertex -3.42579 1.52526 -4
      vertex -1.91844 0.854146 -4
      vertex -1.99722 0.648935 -4
    endloop
  endfacet
  facet normal 0 0 -1
    outer loop
      vertex -3.56646 1.15881 -4
      vertex -1.99722 0.648935 -4
      vertex -2.05411 0.436614 -4
    endloop
  endfacet
  facet normal 0 0 -1
    outer loop
      vertex -3.66805 0.779669 -4
      vertex -2.05411 0.436614 -4
      vertex -2.0885 0.219509 -4
    endloop
  endfacet
  facet normal 0 0 -1
    outer loop
      vertex -1.23435 1.69894 -4
      vertex -2.20419 3.03381 -4
      vertex -1.875 3.24759 -4
    endloop
  endfacet
  facet normal 0 0 -1
    outer loop
      vertex -3.72946 0.391981 -4
      vertex -2.0885 0.219509 -4
      vertex -2.1 0 -4
    endloop
  endfacet
  facet normal 0 0 -1
    outer loop
      vertex -3.42579 -1.52526 -4
      vertex -1.91844 -0.854146 -4
      vertex -3.24759 -1.875 -4
    endloop
  endfacet
  facet normal -0 0 -1
    outer loop
      vertex -1.91844 -0.854146 -4
      vertex -3.42579 -1.52526 -4
      vertex -1.99722 -0.648935 -4
    endloop
  endfacet
  facet normal 0 0 -1
    outer loop
      vertex -1.40517 1.5606 -4
      vertex -2.50924 2.78679 -4
      vertex -2.20419 3.03381 -4
    endloop
  endfacet
  facet normal 0 0 -1
    outer loop
      vertex -3.56646 -1.15881 -4
      vertex -1.99722 -0.648935 -4
      vertex -3.42579 -1.52526 -4
    endloop
  endfacet
  facet normal 0 0 -1
    outer loop
      vertex -1.5606 1.40517 -4
      vertex -2.78679 2.50924 -4
      vertex -2.50924 2.78679 -4
    endloop
  endfacet
  facet normal -0 0 -1
    outer loop
      vertex -1.99722 -0.648935 -4
      vertex -3.56646 -1.15881 -4
      vertex -2.05411 -0.436614 -4
    endloop
  endfacet
  facet normal 0 0 -1
    outer loop
      vertex -1.69894 1.23435 -4
      vertex -3.03381 2.20419 -4
      vertex -2.78679 2.50924 -4
    endloop
  endfacet
  facet normal 0 0 -1
    outer loop
      vertex -3.66805 -0.779669 -4
      vertex -2.05411 -0.436614 -4
      vertex -3.56646 -1.15881 -4
    endloop
  endfacet
  facet normal 0 0 -1
    outer loop
      vertex -1.81865 1.05 -4
      vertex -3.24759 1.875 -4
      vertex -3.03381 2.20419 -4
    endloop
  endfacet
  facet normal -0 0 -1
    outer loop
      vertex -2.05411 -0.436614 -4
      vertex -3.66805 -0.779669 -4
      vertex -2.0885 -0.219509 -4
    endloop
  endfacet
  facet normal 0 0 -1
    outer loop
      vertex -1.91844 0.854146 -4
      vertex -3.42579 1.52526 -4
      vertex -3.24759 1.875 -4
    endloop
  endfacet
  facet normal 0 0 -1
    outer loop
      vertex -3.72946 -0.391981 -4
      vertex -2.0885 -0.219509 -4
      vertex -3.66805 -0.779669 -4
    endloop
  endfacet
  facet normal 0 0 -1
    outer loop
      vertex -1.99722 0.648935 -4
      vertex -3.56646 1.15881 -4
      vertex -3.42579 1.52526 -4
    endloop
  endfacet
  facet normal -0 0 -1
    outer loop
      vertex -2.0885 -0.219509 -4
      vertex -3.72946 -0.391981 -4
      vertex -2.1 0 -4
    endloop
  endfacet
  facet normal 0 0 -1
    outer loop
      vertex -2.05411 0.436614 -4
      vertex -3.66805 0.779669 -4
      vertex -3.56646 1.15881 -4
    endloop
  endfacet
  facet normal 0 0 -1
    outer loop
      vertex -3.75 0 -4
      vertex -2.1 0 -4
      vertex -3.72946 -0.391981 -4
    endloop
  endfacet
  facet normal 0 0 -1
    outer loop
      vertex -2.0885 0.219509 -4
      vertex -3.72946 0.391981 -4
      vertex -3.66805 0.779669 -4
    endloop
  endfacet
  facet normal 0 0 -1
    outer loop
      vertex -2.1 0 -4
      vertex -3.75 0 -4
      vertex -3.72946 0.391981 -4
    endloop
  endfacet
  facet normal 0.965926 -0.258818 0
    outer loop
      vertex 3.56646 -1.15881 4
      vertex 3.66805 -0.779669 -4
      vertex 3.66805 -0.779669 4
    endloop
  endfacet
  facet normal 0.965926 -0.258818 0
    outer loop
      vertex 3.66805 -0.779669 -4
      vertex 3.56646 -1.15881 4
      vertex 3.56646 -1.15881 -4
    endloop
  endfacet
  facet normal 0.838669 -0.544642 0
    outer loop
      vertex 3.03381 -2.20419 4
      vertex 3.24759 -1.875 -4
      vertex 3.24759 -1.875 4
    endloop
  endfacet
  facet normal 0.838669 -0.544642 0
    outer loop
      vertex 3.24759 -1.875 -4
      vertex 3.03381 -2.20419 4
      vertex 3.03381 -2.20419 -4
    endloop
  endfacet
  facet normal 0.965926 0.258818 0
    outer loop
      vertex 3.66805 0.779669 4
      vertex 3.56646 1.15881 -4
      vertex 3.56646 1.15881 4
    endloop
  endfacet
  facet normal 0.965926 0.258818 0
    outer loop
      vertex 3.56646 1.15881 -4
      vertex 3.66805 0.779669 4
      vertex 3.66805 0.779669 -4
    endloop
  endfacet
  facet normal -0.258818 -0.965926 0
    outer loop
      vertex -1.15881 -3.56646 -4
      vertex -0.779669 -3.66805 4
      vertex -1.15881 -3.56646 4
    endloop
  endfacet
  facet normal -0.258818 -0.965926 -0
    outer loop
      vertex -0.779669 -3.66805 4
      vertex -1.15881 -3.56646 -4
      vertex -0.779669 -3.66805 -4
    endloop
  endfacet
  facet normal 0.933578 -0.358375 0
    outer loop
      vertex 3.42579 -1.52526 4
      vertex 3.56646 -1.15881 -4
      vertex 3.56646 -1.15881 4
    endloop
  endfacet
  facet normal 0.933578 -0.358375 0
    outer loop
      vertex 3.56646 -1.15881 -4
      vertex 3.42579 -1.52526 4
      vertex 3.42579 -1.52526 -4
    endloop
  endfacet
  facet normal -0.258818 0.965926 0
    outer loop
      vertex -0.779669 3.66805 -4
      vertex -1.15881 3.56646 4
      vertex -0.779669 3.66805 4
    endloop
  endfacet
  facet normal -0.258818 0.965926 0
    outer loop
      vertex -1.15881 3.56646 4
      vertex -0.779669 3.66805 -4
      vertex -1.15881 3.56646 -4
    endloop
  endfacet
  facet normal 0.453988 0.891008 -0
    outer loop
      vertex 1.875 3.24759 -4
      vertex 1.52526 3.42579 4
      vertex 1.875 3.24759 4
    endloop
  endfacet
  facet normal 0.453988 0.891008 0
    outer loop
      vertex 1.52526 3.42579 4
      vertex 1.875 3.24759 -4
      vertex 1.52526 3.42579 -4
    endloop
  endfacet
  facet normal 0.0523287 -0.99863 0
    outer loop
      vertex 0 -3.75 -4
      vertex 0.391981 -3.72946 4
      vertex 0 -3.75 4
    endloop
  endfacet
  facet normal 0.0523287 -0.99863 0
    outer loop
      vertex 0.391981 -3.72946 4
      vertex 0 -3.75 -4
      vertex 0.391981 -3.72946 -4
    endloop
  endfacet
  facet normal 0.544642 0.838669 -0
    outer loop
      vertex 2.20419 3.03381 -4
      vertex 1.875 3.24759 4
      vertex 2.20419 3.03381 4
    endloop
  endfacet
  facet normal 0.544642 0.838669 0
    outer loop
      vertex 1.875 3.24759 4
      vertex 2.20419 3.03381 -4
      vertex 1.875 3.24759 -4
    endloop
  endfacet
  facet normal 0.358375 0.933578 -0
    outer loop
      vertex 1.52526 3.42579 -4
      vertex 1.15881 3.56646 4
      vertex 1.52526 3.42579 4
    endloop
  endfacet
  facet normal 0.358375 0.933578 0
    outer loop
      vertex 1.15881 3.56646 4
      vertex 1.52526 3.42579 -4
      vertex 1.15881 3.56646 -4
    endloop
  endfacet
  facet normal 0.258818 0.965926 -0
    outer loop
      vertex 1.15881 3.56646 -4
      vertex 0.779669 3.66805 4
      vertex 1.15881 3.56646 4
    endloop
  endfacet
  facet normal 0.258818 0.965926 0
    outer loop
      vertex 0.779669 3.66805 4
      vertex 1.15881 3.56646 -4
      vertex 0.779669 3.66805 -4
    endloop
  endfacet
  facet normal 0.258818 -0.965926 0
    outer loop
      vertex 0.779669 -3.66805 -4
      vertex 1.15881 -3.56646 4
      vertex 0.779669 -3.66805 4
    endloop
  endfacet
  facet normal 0.258818 -0.965926 0
    outer loop
      vertex 1.15881 -3.56646 4
      vertex 0.779669 -3.66805 -4
      vertex 1.15881 -3.56646 -4
    endloop
  endfacet
  facet normal 0.838669 0.544642 0
    outer loop
      vertex 3.24759 1.875 4
      vertex 3.03381 2.20419 -4
      vertex 3.03381 2.20419 4
    endloop
  endfacet
  facet normal 0.838669 0.544642 0
    outer loop
      vertex 3.03381 2.20419 -4
      vertex 3.24759 1.875 4
      vertex 3.24759 1.875 -4
    endloop
  endfacet
  facet normal -0.707107 0.707107 0
    outer loop
      vertex -2.78679 2.50924 -4
      vertex -2.50924 2.78679 4
      vertex -2.50924 2.78679 -4
    endloop
  endfacet
  facet normal -0.707107 0.707107 0
    outer loop
      vertex -2.50924 2.78679 4
      vertex -2.78679 2.50924 -4
      vertex -2.78679 2.50924 4
    endloop
  endfacet
  facet normal -0.965926 0.258818 0
    outer loop
      vertex -3.66805 0.779669 -4
      vertex -3.56646 1.15881 4
      vertex -3.56646 1.15881 -4
    endloop
  endfacet
  facet normal -0.965926 0.258818 0
    outer loop
      vertex -3.56646 1.15881 4
      vertex -3.66805 0.779669 -4
      vertex -3.66805 0.779669 4
    endloop
  endfacet
  facet normal -0.544642 0.838669 0
    outer loop
      vertex -1.875 3.24759 -4
      vertex -2.20419 3.03381 4
      vertex -1.875 3.24759 4
    endloop
  endfacet
  facet normal -0.544642 0.838669 0
    outer loop
      vertex -2.20419 3.03381 4
      vertex -1.875 3.24759 -4
      vertex -2.20419 3.03381 -4
    endloop
  endfacet
  facet normal 0.99863 -0.0523287 0
    outer loop
      vertex 3.72946 -0.391981 4
      vertex 3.75 0 -4
      vertex 3.75 0 4
    endloop
  endfacet
  facet normal 0.99863 -0.0523287 0
    outer loop
      vertex 3.75 0 -4
      vertex 3.72946 -0.391981 4
      vertex 3.72946 -0.391981 -4
    endloop
  endfacet
  facet normal 0.15645 -0.987686 0
    outer loop
      vertex 0.391981 -3.72946 -4
      vertex 0.779669 -3.66805 4
      vertex 0.391981 -3.72946 4
    endloop
  endfacet
  facet normal 0.15645 -0.987686 0
    outer loop
      vertex 0.779669 -3.66805 4
      vertex 0.391981 -3.72946 -4
      vertex 0.779669 -3.66805 -4
    endloop
  endfacet
  facet normal -0.453988 0.891008 0
    outer loop
      vertex -1.52526 3.42579 -4
      vertex -1.875 3.24759 4
      vertex -1.52526 3.42579 4
    endloop
  endfacet
  facet normal -0.453988 0.891008 0
    outer loop
      vertex -1.875 3.24759 4
      vertex -1.52526 3.42579 -4
      vertex -1.875 3.24759 -4
    endloop
  endfacet
  facet normal -0.933578 -0.358375 0
    outer loop
      vertex -3.42579 -1.52526 -4
      vertex -3.56646 -1.15881 4
      vertex -3.56646 -1.15881 -4
    endloop
  endfacet
  facet normal -0.933578 -0.358375 0
    outer loop
      vertex -3.56646 -1.15881 4
      vertex -3.42579 -1.52526 -4
      vertex -3.42579 -1.52526 4
    endloop
  endfacet
  facet normal -0.544642 -0.838669 0
    outer loop
      vertex -2.20419 -3.03381 -4
      vertex -1.875 -3.24759 4
      vertex -2.20419 -3.03381 4
    endloop
  endfacet
  facet normal -0.544642 -0.838669 -0
    outer loop
      vertex -1.875 -3.24759 4
      vertex -2.20419 -3.03381 -4
      vertex -1.875 -3.24759 -4
    endloop
  endfacet
  facet normal 0.891008 0.453988 0
    outer loop
      vertex 3.42579 1.52526 4
      vertex 3.24759 1.875 -4
      vertex 3.24759 1.875 4
    endloop
  endfacet
  facet normal 0.891008 0.453988 0
    outer loop
      vertex 3.24759 1.875 -4
      vertex 3.42579 1.52526 4
      vertex 3.42579 1.52526 -4
    endloop
  endfacet
  facet normal 0.777152 0.629313 0
    outer loop
      vertex 3.03381 2.20419 4
      vertex 2.78679 2.50924 -4
      vertex 2.78679 2.50924 4
    endloop
  endfacet
  facet normal 0.777152 0.629313 0
    outer loop
      vertex 2.78679 2.50924 -4
      vertex 3.03381 2.20419 4
      vertex 3.03381 2.20419 -4
    endloop
  endfacet
  facet normal -0.987686 0.15645 0
    outer loop
      vertex -3.72946 0.391981 -4
      vertex -3.66805 0.779669 4
      vertex -3.66805 0.779669 -4
    endloop
  endfacet
  facet normal -0.987686 0.15645 0
    outer loop
      vertex -3.66805 0.779669 4
      vertex -3.72946 0.391981 -4
      vertex -3.72946 0.391981 4
    endloop
  endfacet
  facet normal -0.891008 -0.453988 0
    outer loop
      vertex -3.24759 -1.875 -4
      vertex -3.42579 -1.52526 4
      vertex -3.42579 -1.52526 -4
    endloop
  endfacet
  facet normal -0.891008 -0.453988 0
    outer loop
      vertex -3.42579 -1.52526 4
      vertex -3.24759 -1.875 -4
      vertex -3.24759 -1.875 4
    endloop
  endfacet
  facet normal 0.629313 0.777152 -0
    outer loop
      vertex 2.50924 2.78679 -4
      vertex 2.20419 3.03381 4
      vertex 2.50924 2.78679 4
    endloop
  endfacet
  facet normal 0.629313 0.777152 0
    outer loop
      vertex 2.20419 3.03381 4
      vertex 2.50924 2.78679 -4
      vertex 2.20419 3.03381 -4
    endloop
  endfacet
  facet normal -0.453988 -0.891008 0
    outer loop
      vertex -1.875 -3.24759 -4
      vertex -1.52526 -3.42579 4
      vertex -1.875 -3.24759 4
    endloop
  endfacet
  facet normal -0.453988 -0.891008 -0
    outer loop
      vertex -1.52526 -3.42579 4
      vertex -1.875 -3.24759 -4
      vertex -1.52526 -3.42579 -4
    endloop
  endfacet
  facet normal -0.777152 -0.629313 0
    outer loop
      vertex -2.78679 -2.50924 -4
      vertex -3.03381 -2.20419 4
      vertex -3.03381 -2.20419 -4
    endloop
  endfacet
  facet normal -0.777152 -0.629313 0
    outer loop
      vertex -3.03381 -2.20419 4
      vertex -2.78679 -2.50924 -4
      vertex -2.78679 -2.50924 4
    endloop
  endfacet
  facet normal -0.0523287 -0.99863 0
    outer loop
      vertex -0.391981 -3.72946 -4
      vertex 0 -3.75 4
      vertex -0.391981 -3.72946 4
    endloop
  endfacet
  facet normal -0.0523287 -0.99863 -0
    outer loop
      vertex 0 -3.75 4
      vertex -0.391981 -3.72946 -4
      vertex 0 -3.75 -4
    endloop
  endfacet
  facet normal -0.838669 -0.544642 0
    outer loop
      vertex -3.03381 -2.20419 -4
      vertex -3.24759 -1.875 4
      vertex -3.24759 -1.875 -4
    endloop
  endfacet
  facet normal -0.838669 -0.544642 0
    outer loop
      vertex -3.24759 -1.875 4
      vertex -3.03381 -2.20419 -4
      vertex -3.03381 -2.20419 4
    endloop
  endfacet
  facet normal 0.15645 0.987686 -0
    outer loop
      vertex 0.779669 3.66805 -4
      vertex 0.391981 3.72946 4
      vertex 0.779669 3.66805 4
    endloop
  endfacet
  facet normal 0.15645 0.987686 0
    outer loop
      vertex 0.391981 3.72946 4
      vertex 0.779669 3.66805 -4
      vertex 0.391981 3.72946 -4
    endloop
  endfacet
  facet normal -0.629313 -0.777152 0
    outer loop
      vertex -2.50924 -2.78679 -4
      vertex -2.20419 -3.03381 4
      vertex -2.50924 -2.78679 4
    endloop
  endfacet
  facet normal -0.629313 -0.777152 -0
    outer loop
      vertex -2.20419 -3.03381 4
      vertex -2.50924 -2.78679 -4
      vertex -2.20419 -3.03381 -4
    endloop
  endfacet
  facet normal 0.358375 -0.933578 0
    outer loop
      vertex 1.15881 -3.56646 -4
      vertex 1.52526 -3.42579 4
      vertex 1.15881 -3.56646 4
    endloop
  endfacet
  facet normal 0.358375 -0.933578 0
    outer loop
      vertex 1.52526 -3.42579 4
      vertex 1.15881 -3.56646 -4
      vertex 1.52526 -3.42579 -4
    endloop
  endfacet
  facet normal -0.891008 0.453988 0
    outer loop
      vertex -3.42579 1.52526 -4
      vertex -3.24759 1.875 4
      vertex -3.24759 1.875 -4
    endloop
  endfacet
  facet normal -0.891008 0.453988 0
    outer loop
      vertex -3.24759 1.875 4
      vertex -3.42579 1.52526 -4
      vertex -3.42579 1.52526 4
    endloop
  endfacet
  facet normal 0.891008 -0.453988 0
    outer loop
      vertex 3.24759 -1.875 4
      vertex 3.42579 -1.52526 -4
      vertex 3.42579 -1.52526 4
    endloop
  endfacet
  facet normal 0.891008 -0.453988 0
    outer loop
      vertex 3.42579 -1.52526 -4
      vertex 3.24759 -1.875 4
      vertex 3.24759 -1.875 -4
    endloop
  endfacet
  facet normal 0.707107 -0.707107 0
    outer loop
      vertex 2.50924 -2.78679 4
      vertex 2.78679 -2.50924 -4
      vertex 2.78679 -2.50924 4
    endloop
  endfacet
  facet normal 0.707107 -0.707107 0
    outer loop
      vertex 2.78679 -2.50924 -4
      vertex 2.50924 -2.78679 4
      vertex 2.50924 -2.78679 -4
    endloop
  endfacet
  facet normal 0.629313 -0.777152 0
    outer loop
      vertex 2.20419 -3.03381 -4
      vertex 2.50924 -2.78679 4
      vertex 2.20419 -3.03381 4
    endloop
  endfacet
  facet normal 0.629313 -0.777152 0
    outer loop
      vertex 2.50924 -2.78679 4
      vertex 2.20419 -3.03381 -4
      vertex 2.50924 -2.78679 -4
    endloop
  endfacet
  facet normal 0 0 1
    outer loop
      vertex 2.1 0 4
      vertex 3.75 0 4
      vertex 3.72946 0.391981 4
    endloop
  endfacet
  facet normal 0 0 1
    outer loop
      vertex 2.0885 0.219509 4
      vertex 3.72946 0.391981 4
      vertex 3.66805 0.779669 4
    endloop
  endfacet
  facet normal 0 0 1
    outer loop
      vertex 3.75 0 4
      vertex 2.1 0 4
      vertex 3.72946 -0.391981 4
    endloop
  endfacet
  facet normal 0 0 1
    outer loop
      vertex 2.05411 0.436614 4
      vertex 3.66805 0.779669 4
      vertex 3.56646 1.15881 4
    endloop
  endfacet
  facet normal -0 0 1
    outer loop
      vertex 2.0885 -0.219509 4
      vertex 3.72946 -0.391981 4
      vertex 2.1 0 4
    endloop
  endfacet
  facet normal 0 0 1
    outer loop
      vertex 1.99722 0.648935 4
      vertex 3.56646 1.15881 4
      vertex 3.42579 1.52526 4
    endloop
  endfacet
  facet normal 0 0 1
    outer loop
      vertex 3.72946 -0.391981 4
      vertex 2.0885 -0.219509 4
      vertex 3.66805 -0.779669 4
    endloop
  endfacet
  facet normal 0 0 1
    outer loop
      vertex 1.91844 0.854146 4
      vertex 3.42579 1.52526 4
      vertex 3.24759 1.875 4
    endloop
  endfacet
  facet normal -0 0 1
    outer loop
      vertex 2.05411 -0.436614 4
      vertex 3.66805 -0.779669 4
      vertex 2.0885 -0.219509 4
    endloop
  endfacet
  facet normal 0 0 1
    outer loop
      vertex 1.81865 1.05 4
      vertex 3.24759 1.875 4
      vertex 3.03381 2.20419 4
    endloop
  endfacet
  facet normal 0 0 1
    outer loop
      vertex 3.66805 -0.779669 4
      vertex 2.05411 -0.436614 4
      vertex 3.56646 -1.15881 4
    endloop
  endfacet
  facet normal 0 0 1
    outer loop
      vertex 1.69894 1.23435 4
      vertex 3.03381 2.20419 4
      vertex 2.78679 2.50924 4
    endloop
  endfacet
  facet normal -0 0 1
    outer loop
      vertex 1.99722 -0.648935 4
      vertex 3.56646 -1.15881 4
      vertex 2.05411 -0.436614 4
    endloop
  endfacet
  facet normal 0 0 1
    outer loop
      vertex 1.5606 1.40517 4
      vertex 2.78679 2.50924 4
      vertex 2.50924 2.78679 4
    endloop
  endfacet
  facet normal 0 0 1
    outer loop
      vertex 3.56646 -1.15881 4
      vertex 1.99722 -0.648935 4
      vertex 3.42579 -1.52526 4
    endloop
  endfacet
  facet normal 0 0 1
    outer loop
      vertex 1.40517 1.5606 4
      vertex 2.50924 2.78679 4
      vertex 2.20419 3.03381 4
    endloop
  endfacet
  facet normal -0 0 1
    outer loop
      vertex 1.91844 -0.854146 4
      vertex 3.42579 -1.52526 4
      vertex 1.99722 -0.648935 4
    endloop
  endfacet
  facet normal 0 0 1
    outer loop
      vertex 3.42579 -1.52526 4
      vertex 1.91844 -0.854146 4
      vertex 3.24759 -1.875 4
    endloop
  endfacet
  facet normal 0 0 1
    outer loop
      vertex 3.72946 0.391981 4
      vertex 2.0885 0.219509 4
      vertex 2.1 0 4
    endloop
  endfacet
  facet normal 0 0 1
    outer loop
      vertex 3.66805 0.779669 4
      vertex 2.05411 0.436614 4
      vertex 2.0885 0.219509 4
    endloop
  endfacet
  facet normal 0 0 1
    outer loop
      vertex 3.56646 1.15881 4
      vertex 1.99722 0.648935 4
      vertex 2.05411 0.436614 4
    endloop
  endfacet
  facet normal 0 0 1
    outer loop
      vertex 3.42579 1.52526 4
      vertex 1.91844 0.854146 4
      vertex 1.99722 0.648935 4
    endloop
  endfacet
  facet normal 0 0 1
    outer loop
      vertex 1.23435 1.69894 4
      vertex 2.20419 3.03381 4
      vertex 1.875 3.24759 4
    endloop
  endfacet
  facet normal 0 0 1
    outer loop
      vertex 3.24759 1.875 4
      vertex 1.81865 1.05 4
      vertex 1.91844 0.854146 4
    endloop
  endfacet
  facet normal 0 0 1
    outer loop
      vertex 3.03381 2.20419 4
      vertex 1.69894 1.23435 4
      vertex 1.81865 1.05 4
    endloop
  endfacet
  facet normal 0 0 1
    outer loop
      vertex 2.78679 2.50924 4
      vertex 1.5606 1.40517 4
      vertex 1.69894 1.23435 4
    endloop
  endfacet
  facet normal 0 0 1
    outer loop
      vertex 1.05 1.81865 4
      vertex 1.875 3.24759 4
      vertex 1.52526 3.42579 4
    endloop
  endfacet
  facet normal 0 0 1
    outer loop
      vertex 2.50924 2.78679 4
      vertex 1.40517 1.5606 4
      vertex 1.5606 1.40517 4
    endloop
  endfacet
  facet normal 0 0 1
    outer loop
      vertex 2.20419 3.03381 4
      vertex 1.23435 1.69894 4
      vertex 1.40517 1.5606 4
    endloop
  endfacet
  facet normal 0 0 1
    outer loop
      vertex 0.854146 1.91844 4
      vertex 1.52526 3.42579 4
      vertex 1.15881 3.56646 4
    endloop
  endfacet
  facet normal 0 0 1
    outer loop
      vertex 1.875 3.24759 4
      vertex 1.05 1.81865 4
      vertex 1.23435 1.69894 4
    endloop
  endfacet
  facet normal 0 0 1
    outer loop
      vertex 1.52526 3.42579 4
      vertex 0.854146 1.91844 4
      vertex 1.05 1.81865 4
    endloop
  endfacet
  facet normal 0 0 1
    outer loop
      vertex 0.648935 1.99722 4
      vertex 1.15881 3.56646 4
      vertex 0.779669 3.66805 4
    endloop
  endfacet
  facet normal 0 0 1
    outer loop
      vertex 1.15881 3.56646 4
      vertex 0.648935 1.99722 4
      vertex 0.854146 1.91844 4
    endloop
  endfacet
  facet normal 0 0 1
    outer loop
      vertex 0.779669 3.66805 4
      vertex 0.436614 2.05411 4
      vertex 0.648935 1.99722 4
    endloop
  endfacet
  facet normal 0 0 1
    outer loop
      vertex 0.391981 3.72946 4
      vertex 0.436614 2.05411 4
      vertex 0.779669 3.66805 4
    endloop
  endfacet
  facet normal 0 0 1
    outer loop
      vertex 0.391981 3.72946 4
      vertex 0.219509 2.0885 4
      vertex 0.436614 2.05411 4
    endloop
  endfacet
  facet normal 0 0 1
    outer loop
      vertex 0 3.75 4
      vertex 0.219509 2.0885 4
      vertex 0.391981 3.72946 4
    endloop
  endfacet
  facet normal 0 0 1
    outer loop
      vertex 0 3.75 4
      vertex 0 2.1 4
      vertex 0.219509 2.0885 4
    endloop
  endfacet
  facet normal 0 0 1
    outer loop
      vertex 0 3.75 4
      vertex -0.219509 2.0885 4
      vertex 0 2.1 4
    endloop
  endfacet
  facet normal -0 0 1
    outer loop
      vertex -0.391981 3.72946 4
      vertex -0.219509 2.0885 4
      vertex 0 3.75 4
    endloop
  endfacet
  facet normal 0 0 1
    outer loop
      vertex -0.391981 3.72946 4
      vertex -0.436614 2.05411 4
      vertex -0.219509 2.0885 4
    endloop
  endfacet
  facet normal -0 0 1
    outer loop
      vertex -0.779669 3.66805 4
      vertex -0.436614 2.05411 4
      vertex -0.391981 3.72946 4
    endloop
  endfacet
  facet normal 0 0 1
    outer loop
      vertex -0.436614 2.05411 4
      vertex -0.779669 3.66805 4
      vertex -0.648935 1.99722 4
    endloop
  endfacet
  facet normal -0 0 1
    outer loop
      vertex -1.15881 3.56646 4
      vertex -0.648935 1.99722 4
      vertex -0.779669 3.66805 4
    endloop
  endfacet
  facet normal 0 0 1
    outer loop
      vertex -0.648935 1.99722 4
      vertex -1.15881 3.56646 4
      vertex -0.854146 1.91844 4
    endloop
  endfacet
  facet normal -0 0 1
    outer loop
      vertex -1.52526 3.42579 4
      vertex -0.854146 1.91844 4
      vertex -1.15881 3.56646 4
    endloop
  endfacet
  facet normal 0 0 1
    outer loop
      vertex -0.854146 1.91844 4
      vertex -1.52526 3.42579 4
      vertex -1.05 1.81865 4
    endloop
  endfacet
  facet normal -0 0 1
    outer loop
      vertex -1.875 3.24759 4
      vertex -1.05 1.81865 4
      vertex -1.52526 3.42579 4
    endloop
  endfacet
  facet normal 0 0 1
    outer loop
      vertex -1.05 1.81865 4
      vertex -1.875 3.24759 4
      vertex -1.23435 1.69894 4
    endloop
  endfacet
  facet normal -0 0 1
    outer loop
      vertex -2.20419 3.03381 4
      vertex -1.23435 1.69894 4
      vertex -1.875 3.24759 4
    endloop
  endfacet
  facet normal 0 0 1
    outer loop
      vertex -1.23435 1.69894 4
      vertex -2.20419 3.03381 4
      vertex -1.40517 1.5606 4
    endloop
  endfacet
  facet normal -0 0 1
    outer loop
      vertex -2.50924 2.78679 4
      vertex -1.40517 1.5606 4
      vertex -2.20419 3.03381 4
    endloop
  endfacet
  facet normal 0 0 1
    outer loop
      vertex -1.40517 1.5606 4
      vertex -2.50924 2.78679 4
      vertex -1.5606 1.40517 4
    endloop
  endfacet
  facet normal -0 0 1
    outer loop
      vertex -2.78679 2.50924 4
      vertex -1.5606 1.40517 4
      vertex -2.50924 2.78679 4
    endloop
  endfacet
  facet normal 0 0 1
    outer loop
      vertex -1.5606 1.40517 4
      vertex -2.78679 2.50924 4
      vertex -1.69894 1.23435 4
    endloop
  endfacet
  facet normal -0 0 1
    outer loop
      vertex -3.03381 2.20419 4
      vertex -1.69894 1.23435 4
      vertex -2.78679 2.50924 4
    endloop
  endfacet
  facet normal 0 0 1
    outer loop
      vertex -1.69894 1.23435 4
      vertex -3.03381 2.20419 4
      vertex -1.81865 1.05 4
    endloop
  endfacet
  facet normal 0 0 1
    outer loop
      vertex -1.81865 1.05 4
      vertex -3.24759 1.875 4
      vertex -1.91844 0.854146 4
    endloop
  endfacet
  facet normal -0 0 1
    outer loop
      vertex -3.24759 1.875 4
      vertex -1.81865 1.05 4
      vertex -3.03381 2.20419 4
    endloop
  endfacet
  facet normal -0 0 1
    outer loop
      vertex 1.81865 -1.05 4
      vertex 3.24759 -1.875 4
      vertex 1.91844 -0.854146 4
    endloop
  endfacet
  facet normal 0 0 1
    outer loop
      vertex 3.24759 -1.875 4
      vertex 1.81865 -1.05 4
      vertex 3.03381 -2.20419 4
    endloop
  endfacet
  facet normal -0 0 1
    outer loop
      vertex 1.69894 -1.23435 4
      vertex 3.03381 -2.20419 4
      vertex 1.81865 -1.05 4
    endloop
  endfacet
  facet normal 0 0 1
    outer loop
      vertex 3.03381 -2.20419 4
      vertex 1.69894 -1.23435 4
      vertex 2.78679 -2.50924 4
    endloop
  endfacet
  facet normal -0 0 1
    outer loop
      vertex 1.5606 -1.40517 4
      vertex 2.78679 -2.50924 4
      vertex 1.69894 -1.23435 4
    endloop
  endfacet
  facet normal 0 0 1
    outer loop
      vertex 2.78679 -2.50924 4
      vertex 1.5606 -1.40517 4
      vertex 2.50924 -2.78679 4
    endloop
  endfacet
  facet normal -0 0 1
    outer loop
      vertex 1.40517 -1.5606 4
      vertex 2.50924 -2.78679 4
      vertex 1.5606 -1.40517 4
    endloop
  endfacet
  facet normal 0 0 1
    outer loop
      vertex 2.50924 -2.78679 4
      vertex 1.40517 -1.5606 4
      vertex 2.20419 -3.03381 4
    endloop
  endfacet
  facet normal -0 0 1
    outer loop
      vertex 1.23435 -1.69894 4
      vertex 2.20419 -3.03381 4
      vertex 1.40517 -1.5606 4
    endloop
  endfacet
  facet normal 0 0 1
    outer loop
      vertex 2.20419 -3.03381 4
      vertex 1.23435 -1.69894 4
      vertex 1.875 -3.24759 4
    endloop
  endfacet
  facet normal -0 0 1
    outer loop
      vertex 1.05 -1.81865 4
      vertex 1.875 -3.24759 4
      vertex 1.23435 -1.69894 4
    endloop
  endfacet
  facet normal 0 0 1
    outer loop
      vertex 1.875 -3.24759 4
      vertex 1.05 -1.81865 4
      vertex 1.52526 -3.42579 4
    endloop
  endfacet
  facet normal -0 0 1
    outer loop
      vertex 0.854146 -1.91844 4
      vertex 1.52526 -3.42579 4
      vertex 1.05 -1.81865 4
    endloop
  endfacet
  facet normal 0 0 1
    outer loop
      vertex 1.52526 -3.42579 4
      vertex 0.854146 -1.91844 4
      vertex 1.15881 -3.56646 4
    endloop
  endfacet
  facet normal -0 0 1
    outer loop
      vertex 0.648935 -1.99722 4
      vertex 1.15881 -3.56646 4
      vertex 0.854146 -1.91844 4
    endloop
  endfacet
  facet normal 0 0 1
    outer loop
      vertex 1.15881 -3.56646 4
      vertex 0.648935 -1.99722 4
      vertex 0.779669 -3.66805 4
    endloop
  endfacet
  facet normal -0 0 1
    outer loop
      vertex 0.436614 -2.05411 4
      vertex 0.779669 -3.66805 4
      vertex 0.648935 -1.99722 4
    endloop
  endfacet
  facet normal 0 0 1
    outer loop
      vertex 0.436614 -2.05411 4
      vertex 0.391981 -3.72946 4
      vertex 0.779669 -3.66805 4
    endloop
  endfacet
  facet normal -0 0 1
    outer loop
      vertex 0.219509 -2.0885 4
      vertex 0.391981 -3.72946 4
      vertex 0.436614 -2.05411 4
    endloop
  endfacet
  facet normal -0 0 1
    outer loop
      vertex 0 -2.1 4
      vertex 0.391981 -3.72946 4
      vertex 0.219509 -2.0885 4
    endloop
  endfacet
  facet normal 0 0 1
    outer loop
      vertex 0 -2.1 4
      vertex 0 -3.75 4
      vertex 0.391981 -3.72946 4
    endloop
  endfacet
  facet normal 0 0 1
    outer loop
      vertex -0.219509 -2.0885 4
      vertex 0 -3.75 4
      vertex 0 -2.1 4
    endloop
  endfacet
  facet normal 0 0 1
    outer loop
      vertex -0.219509 -2.0885 4
      vertex -0.391981 -3.72946 4
      vertex 0 -3.75 4
    endloop
  endfacet
  facet normal 0 0 1
    outer loop
      vertex -0.436614 -2.05411 4
      vertex -0.391981 -3.72946 4
      vertex -0.219509 -2.0885 4
    endloop
  endfacet
  facet normal 0 0 1
    outer loop
      vertex -0.779669 -3.66805 4
      vertex -0.436614 -2.05411 4
      vertex -0.648935 -1.99722 4
    endloop
  endfacet
  facet normal 0 0 1
    outer loop
      vertex -0.436614 -2.05411 4
      vertex -0.779669 -3.66805 4
      vertex -0.391981 -3.72946 4
    endloop
  endfacet
  facet normal 0 0 1
    outer loop
      vertex -1.15881 -3.56646 4
      vertex -0.648935 -1.99722 4
      vertex -0.854146 -1.91844 4
    endloop
  endfacet
  facet normal 0 0 1
    outer loop
      vertex -1.52526 -3.42579 4
      vertex -0.854146 -1.91844 4
      vertex -1.05 -1.81865 4
    endloop
  endfacet
  facet normal 0 0 1
    outer loop
      vertex -0.648935 -1.99722 4
      vertex -1.15881 -3.56646 4
      vertex -0.779669 -3.66805 4
    endloop
  endfacet
  facet normal 0 0 1
    outer loop
      vertex -1.875 -3.24759 4
      vertex -1.05 -1.81865 4
      vertex -1.23435 -1.69894 4
    endloop
  endfacet
  facet normal 0 0 1
    outer loop
      vertex -2.20419 -3.03381 4
      vertex -1.23435 -1.69894 4
      vertex -1.40517 -1.5606 4
    endloop
  endfacet
  facet normal 0 0 1
    outer loop
      vertex -0.854146 -1.91844 4
      vertex -1.52526 -3.42579 4
      vertex -1.15881 -3.56646 4
    endloop
  endfacet
  facet normal 0 0 1
    outer loop
      vertex -2.50924 -2.78679 4
      vertex -1.40517 -1.5606 4
      vertex -1.5606 -1.40517 4
    endloop
  endfacet
  facet normal 0 0 1
    outer loop
      vertex -2.78679 -2.50924 4
      vertex -1.5606 -1.40517 4
      vertex -1.69894 -1.23435 4
    endloop
  endfacet
  facet normal 0 0 1
    outer loop
      vertex -3.03381 -2.20419 4
      vertex -1.69894 -1.23435 4
      vertex -1.81865 -1.05 4
    endloop
  endfacet
  facet normal 0 0 1
    outer loop
      vertex -1.05 -1.81865 4
      vertex -1.875 -3.24759 4
      vertex -1.52526 -3.42579 4
    endloop
  endfacet
  facet normal 0 0 1
    outer loop
      vertex -3.24759 -1.875 4
      vertex -1.81865 -1.05 4
      vertex -1.91844 -0.854146 4
    endloop
  endfacet
  facet normal 0 0 1
    outer loop
      vertex -3.42579 -1.52526 4
      vertex -1.91844 -0.854146 4
      vertex -1.99722 -0.648935 4
    endloop
  endfacet
  facet normal 0 0 1
    outer loop
      vertex -3.56646 -1.15881 4
      vertex -1.99722 -0.648935 4
      vertex -2.05411 -0.436614 4
    endloop
  endfacet
  facet normal 0 0 1
    outer loop
      vertex -3.66805 -0.779669 4
      vertex -2.05411 -0.436614 4
      vertex -2.0885 -0.219509 4
    endloop
  endfacet
  facet normal 0 0 1
    outer loop
      vertex -1.23435 -1.69894 4
      vertex -2.20419 -3.03381 4
      vertex -1.875 -3.24759 4
    endloop
  endfacet
  facet normal 0 0 1
    outer loop
      vertex -3.72946 -0.391981 4
      vertex -2.0885 -0.219509 4
      vertex -2.1 0 4
    endloop
  endfacet
  facet normal -0 0 1
    outer loop
      vertex -3.42579 1.52526 4
      vertex -1.91844 0.854146 4
      vertex -3.24759 1.875 4
    endloop
  endfacet
  facet normal 0 0 1
    outer loop
      vertex -1.91844 0.854146 4
      vertex -3.42579 1.52526 4
      vertex -1.99722 0.648935 4
    endloop
  endfacet
  facet normal 0 0 1
    outer loop
      vertex -1.40517 -1.5606 4
      vertex -2.50924 -2.78679 4
      vertex -2.20419 -3.03381 4
    endloop
  endfacet
  facet normal -0 0 1
    outer loop
      vertex -3.56646 1.15881 4
      vertex -1.99722 0.648935 4
      vertex -3.42579 1.52526 4
    endloop
  endfacet
  facet normal 0 0 1
    outer loop
      vertex -1.5606 -1.40517 4
      vertex -2.78679 -2.50924 4
      vertex -2.50924 -2.78679 4
    endloop
  endfacet
  facet normal 0 0 1
    outer loop
      vertex -1.99722 0.648935 4
      vertex -3.56646 1.15881 4
      vertex -2.05411 0.436614 4
    endloop
  endfacet
  facet normal 0 0 1
    outer loop
      vertex -1.69894 -1.23435 4
      vertex -3.03381 -2.20419 4
      vertex -2.78679 -2.50924 4
    endloop
  endfacet
  facet normal -0 0 1
    outer loop
      vertex -3.66805 0.779669 4
      vertex -2.05411 0.436614 4
      vertex -3.56646 1.15881 4
    endloop
  endfacet
  facet normal 0 0 1
    outer loop
      vertex -1.81865 -1.05 4
      vertex -3.24759 -1.875 4
      vertex -3.03381 -2.20419 4
    endloop
  endfacet
  facet normal 0 0 1
    outer loop
      vertex -2.05411 0.436614 4
      vertex -3.66805 0.779669 4
      vertex -2.0885 0.219509 4
    endloop
  endfacet
  facet normal 0 0 1
    outer loop
      vertex -1.91844 -0.854146 4
      vertex -3.42579 -1.52526 4
      vertex -3.24759 -1.875 4
    endloop
  endfacet
  facet normal -0 0 1
    outer loop
      vertex -3.72946 0.391981 4
      vertex -2.0885 0.219509 4
      vertex -3.66805 0.779669 4
    endloop
  endfacet
  facet normal 0 0 1
    outer loop
      vertex -1.99722 -0.648935 4
      vertex -3.56646 -1.15881 4
      vertex -3.42579 -1.52526 4
    endloop
  endfacet
  facet normal 0 0 1
    outer loop
      vertex -2.0885 0.219509 4
      vertex -3.72946 0.391981 4
      vertex -2.1 0 4
    endloop
  endfacet
  facet normal 0 0 1
    outer loop
      vertex -2.05411 -0.436614 4
      vertex -3.66805 -0.779669 4
      vertex -3.56646 -1.15881 4
    endloop
  endfacet
  facet normal 0 0 1
    outer loop
      vertex -3.75 0 4
      vertex -2.1 0 4
      vertex -3.72946 0.391981 4
    endloop
  endfacet
  facet normal 0 0 1
    outer loop
      vertex -2.0885 -0.219509 4
      vertex -3.72946 -0.391981 4
      vertex -3.66805 -0.779669 4
    endloop
  endfacet
  facet normal 0 0 1
    outer loop
      vertex -2.1 0 4
      vertex -3.75 0 4
      vertex -3.72946 -0.391981 4
    endloop
  endfacet
  facet normal -0.987686 -0.156452 0
    outer loop
      vertex 2.0885 0.219509 -4
      vertex 2.05411 0.436614 4
      vertex 2.05411 0.436614 -4
    endloop
  endfacet
  facet normal -0.987686 -0.156452 0
    outer loop
      vertex 2.05411 0.436614 4
      vertex 2.0885 0.219509 -4
      vertex 2.0885 0.219509 4
    endloop
  endfacet
  facet normal -0.99863 -0.0523179 0
    outer loop
      vertex 2.1 0 -4
      vertex 2.0885 0.219509 4
      vertex 2.0885 0.219509 -4
    endloop
  endfacet
  facet normal -0.99863 -0.0523179 0
    outer loop
      vertex 2.0885 0.219509 4
      vertex 2.1 0 -4
      vertex 2.1 0 4
    endloop
  endfacet
  facet normal -0.965927 -0.258814 0
    outer loop
      vertex 2.05411 0.436614 -4
      vertex 1.99722 0.648935 4
      vertex 1.99722 0.648935 -4
    endloop
  endfacet
  facet normal -0.965927 -0.258814 0
    outer loop
      vertex 1.99722 0.648935 4
      vertex 2.05411 0.436614 -4
      vertex 2.05411 0.436614 4
    endloop
  endfacet
  facet normal 0.965927 0.258814 0
    outer loop
      vertex -1.99722 -0.648935 4
      vertex -2.05411 -0.436614 -4
      vertex -2.05411 -0.436614 4
    endloop
  endfacet
  facet normal 0.965927 0.258814 0
    outer loop
      vertex -2.05411 -0.436614 -4
      vertex -1.99722 -0.648935 4
      vertex -1.99722 -0.648935 -4
    endloop
  endfacet
  facet normal 0.838688 0.544613 0
    outer loop
      vertex -1.69894 -1.23435 4
      vertex -1.81865 -1.05 -4
      vertex -1.81865 -1.05 4
    endloop
  endfacet
  facet normal 0.838688 0.544613 0
    outer loop
      vertex -1.81865 -1.05 -4
      vertex -1.69894 -1.23435 4
      vertex -1.69894 -1.23435 -4
    endloop
  endfacet
  facet normal 0.987686 0.156452 0
    outer loop
      vertex -2.05411 -0.436614 4
      vertex -2.0885 -0.219509 -4
      vertex -2.0885 -0.219509 4
    endloop
  endfacet
  facet normal 0.987686 0.156452 0
    outer loop
      vertex -2.0885 -0.219509 -4
      vertex -2.05411 -0.436614 4
      vertex -2.05411 -0.436614 -4
    endloop
  endfacet
  facet normal 0.258814 -0.965927 0
    outer loop
      vertex -0.648935 1.99722 -4
      vertex -0.436614 2.05411 4
      vertex -0.648935 1.99722 4
    endloop
  endfacet
  facet normal 0.258814 -0.965927 0
    outer loop
      vertex -0.436614 2.05411 4
      vertex -0.648935 1.99722 -4
      vertex -0.436614 2.05411 -4
    endloop
  endfacet
  facet normal -0.707107 -0.707107 0
    outer loop
      vertex 1.5606 1.40517 -4
      vertex 1.40517 1.5606 4
      vertex 1.40517 1.5606 -4
    endloop
  endfacet
  facet normal -0.707107 -0.707107 0
    outer loop
      vertex 1.40517 1.5606 4
      vertex 1.5606 1.40517 -4
      vertex 1.5606 1.40517 4
    endloop
  endfacet
  facet normal -0.93357 -0.358395 0
    outer loop
      vertex 1.99722 0.648935 -4
      vertex 1.91844 0.854146 4
      vertex 1.91844 0.854146 -4
    endloop
  endfacet
  facet normal -0.93357 -0.358395 0
    outer loop
      vertex 1.91844 0.854146 4
      vertex 1.99722 0.648935 -4
      vertex 1.99722 0.648935 4
    endloop
  endfacet
  facet normal 0.453981 0.891011 -0
    outer loop
      vertex -0.854146 -1.91844 -4
      vertex -1.05 -1.81865 4
      vertex -0.854146 -1.91844 4
    endloop
  endfacet
  facet normal 0.453981 0.891011 0
    outer loop
      vertex -1.05 -1.81865 4
      vertex -0.854146 -1.91844 -4
      vertex -1.05 -1.81865 -4
    endloop
  endfacet
  facet normal 0.258814 0.965927 -0
    outer loop
      vertex -0.436614 -2.05411 -4
      vertex -0.648935 -1.99722 4
      vertex -0.436614 -2.05411 4
    endloop
  endfacet
  facet normal 0.258814 0.965927 0
    outer loop
      vertex -0.648935 -1.99722 4
      vertex -0.436614 -2.05411 -4
      vertex -0.648935 -1.99722 -4
    endloop
  endfacet
  facet normal -0.838688 -0.544613 0
    outer loop
      vertex 1.81865 1.05 -4
      vertex 1.69894 1.23435 4
      vertex 1.69894 1.23435 -4
    endloop
  endfacet
  facet normal -0.838688 -0.544613 0
    outer loop
      vertex 1.69894 1.23435 4
      vertex 1.81865 1.05 -4
      vertex 1.81865 1.05 4
    endloop
  endfacet
  facet normal 0.987686 -0.156452 0
    outer loop
      vertex -2.0885 0.219509 4
      vertex -2.05411 0.436614 -4
      vertex -2.05411 0.436614 4
    endloop
  endfacet
  facet normal 0.987686 -0.156452 0
    outer loop
      vertex -2.05411 0.436614 -4
      vertex -2.0885 0.219509 4
      vertex -2.0885 0.219509 -4
    endloop
  endfacet
  facet normal -0.453981 -0.891011 0
    outer loop
      vertex 0.854146 1.91844 -4
      vertex 1.05 1.81865 4
      vertex 0.854146 1.91844 4
    endloop
  endfacet
  facet normal -0.453981 -0.891011 -0
    outer loop
      vertex 1.05 1.81865 4
      vertex 0.854146 1.91844 -4
      vertex 1.05 1.81865 -4
    endloop
  endfacet
  facet normal -0.891011 -0.453981 0
    outer loop
      vertex 1.91844 0.854146 -4
      vertex 1.81865 1.05 4
      vertex 1.81865 1.05 -4
    endloop
  endfacet
  facet normal -0.891011 -0.453981 0
    outer loop
      vertex 1.81865 1.05 4
      vertex 1.91844 0.854146 -4
      vertex 1.91844 0.854146 4
    endloop
  endfacet
  facet normal -0.358395 -0.93357 0
    outer loop
      vertex 0.648935 1.99722 -4
      vertex 0.854146 1.91844 4
      vertex 0.648935 1.99722 4
    endloop
  endfacet
  facet normal -0.358395 -0.93357 -0
    outer loop
      vertex 0.854146 1.91844 4
      vertex 0.648935 1.99722 -4
      vertex 0.854146 1.91844 -4
    endloop
  endfacet
  facet normal -0.358395 0.93357 0
    outer loop
      vertex 0.854146 -1.91844 -4
      vertex 0.648935 -1.99722 4
      vertex 0.854146 -1.91844 4
    endloop
  endfacet
  facet normal -0.358395 0.93357 0
    outer loop
      vertex 0.648935 -1.99722 4
      vertex 0.854146 -1.91844 -4
      vertex 0.648935 -1.99722 -4
    endloop
  endfacet
  facet normal 0.891011 -0.453981 0
    outer loop
      vertex -1.91844 0.854146 4
      vertex -1.81865 1.05 -4
      vertex -1.81865 1.05 4
    endloop
  endfacet
  facet normal 0.891011 -0.453981 0
    outer loop
      vertex -1.81865 1.05 -4
      vertex -1.91844 0.854146 4
      vertex -1.91844 0.854146 -4
    endloop
  endfacet
  facet normal -0.544613 -0.838688 0
    outer loop
      vertex 1.05 1.81865 -4
      vertex 1.23435 1.69894 4
      vertex 1.05 1.81865 4
    endloop
  endfacet
  facet normal -0.544613 -0.838688 -0
    outer loop
      vertex 1.23435 1.69894 4
      vertex 1.05 1.81865 -4
      vertex 1.23435 1.69894 -4
    endloop
  endfacet
  facet normal 0.0523179 -0.99863 0
    outer loop
      vertex -0.219509 2.0885 -4
      vertex 0 2.1 4
      vertex -0.219509 2.0885 4
    endloop
  endfacet
  facet normal 0.0523179 -0.99863 0
    outer loop
      vertex 0 2.1 4
      vertex -0.219509 2.0885 -4
      vertex 0 2.1 -4
    endloop
  endfacet
  facet normal -0.838688 0.544613 0
    outer loop
      vertex 1.69894 -1.23435 -4
      vertex 1.81865 -1.05 4
      vertex 1.81865 -1.05 -4
    endloop
  endfacet
  facet normal -0.838688 0.544613 0
    outer loop
      vertex 1.81865 -1.05 4
      vertex 1.69894 -1.23435 -4
      vertex 1.69894 -1.23435 4
    endloop
  endfacet
  facet normal 0.707107 -0.707107 0
    outer loop
      vertex -1.5606 1.40517 4
      vertex -1.40517 1.5606 -4
      vertex -1.40517 1.5606 4
    endloop
  endfacet
  facet normal 0.707107 -0.707107 0
    outer loop
      vertex -1.40517 1.5606 -4
      vertex -1.5606 1.40517 4
      vertex -1.5606 1.40517 -4
    endloop
  endfacet
  facet normal 0.629355 0.777118 -0
    outer loop
      vertex -1.23435 -1.69894 -4
      vertex -1.40517 -1.5606 4
      vertex -1.23435 -1.69894 4
    endloop
  endfacet
  facet normal 0.629355 0.777118 0
    outer loop
      vertex -1.40517 -1.5606 4
      vertex -1.23435 -1.69894 -4
      vertex -1.40517 -1.5606 -4
    endloop
  endfacet
  facet normal -0.777118 -0.629355 0
    outer loop
      vertex 1.69894 1.23435 -4
      vertex 1.5606 1.40517 4
      vertex 1.5606 1.40517 -4
    endloop
  endfacet
  facet normal -0.777118 -0.629355 0
    outer loop
      vertex 1.5606 1.40517 4
      vertex 1.69894 1.23435 -4
      vertex 1.69894 1.23435 4
    endloop
  endfacet
  facet normal 0.629355 -0.777118 0
    outer loop
      vertex -1.40517 1.5606 -4
      vertex -1.23435 1.69894 4
      vertex -1.40517 1.5606 4
    endloop
  endfacet
  facet normal 0.629355 -0.777118 0
    outer loop
      vertex -1.23435 1.69894 4
      vertex -1.40517 1.5606 -4
      vertex -1.23435 1.69894 -4
    endloop
  endfacet
  facet normal -0.156452 -0.987686 0
    outer loop
      vertex 0.219509 2.0885 -4
      vertex 0.436614 2.05411 4
      vertex 0.219509 2.0885 4
    endloop
  endfacet
  facet normal -0.156452 -0.987686 -0
    outer loop
      vertex 0.436614 2.05411 4
      vertex 0.219509 2.0885 -4
      vertex 0.436614 2.05411 -4
    endloop
  endfacet
  facet normal -0.629355 -0.777118 0
    outer loop
      vertex 1.23435 1.69894 -4
      vertex 1.40517 1.5606 4
      vertex 1.23435 1.69894 4
    endloop
  endfacet
  facet normal -0.629355 -0.777118 -0
    outer loop
      vertex 1.40517 1.5606 4
      vertex 1.23435 1.69894 -4
      vertex 1.40517 1.5606 -4
    endloop
  endfacet
  facet normal -0.891011 0.453981 0
    outer loop
      vertex 1.81865 -1.05 -4
      vertex 1.91844 -0.854146 4
      vertex 1.91844 -0.854146 -4
    endloop
  endfacet
  facet normal -0.891011 0.453981 0
    outer loop
      vertex 1.91844 -0.854146 4
      vertex 1.81865 -1.05 -4
      vertex 1.81865 -1.05 4
    endloop
  endfacet
  facet normal -0.156452 0.987686 0
    outer loop
      vertex 0.436614 -2.05411 -4
      vertex 0.219509 -2.0885 4
      vertex 0.436614 -2.05411 4
    endloop
  endfacet
  facet normal -0.156452 0.987686 0
    outer loop
      vertex 0.219509 -2.0885 4
      vertex 0.436614 -2.05411 -4
      vertex 0.219509 -2.0885 -4
    endloop
  endfacet
  facet normal 0.453981 -0.891011 0
    outer loop
      vertex -1.05 1.81865 -4
      vertex -0.854146 1.91844 4
      vertex -1.05 1.81865 4
    endloop
  endfacet
  facet normal 0.453981 -0.891011 0
    outer loop
      vertex -0.854146 1.91844 4
      vertex -1.05 1.81865 -4
      vertex -0.854146 1.91844 -4
    endloop
  endfacet
  facet normal -0.93357 0.358395 0
    outer loop
      vertex 1.91844 -0.854146 -4
      vertex 1.99722 -0.648935 4
      vertex 1.99722 -0.648935 -4
    endloop
  endfacet
  facet normal -0.93357 0.358395 0
    outer loop
      vertex 1.99722 -0.648935 4
      vertex 1.91844 -0.854146 -4
      vertex 1.91844 -0.854146 4
    endloop
  endfacet
  facet normal -0.99863 0.0523179 0
    outer loop
      vertex 2.0885 -0.219509 -4
      vertex 2.1 0 4
      vertex 2.1 0 -4
    endloop
  endfacet
  facet normal -0.99863 0.0523179 0
    outer loop
      vertex 2.1 0 4
      vertex 2.0885 -0.219509 -4
      vertex 2.0885 -0.219509 4
    endloop
  endfacet
  facet normal -0.0523179 0.99863 0
    outer loop
      vertex 0.219509 -2.0885 -4
      vertex 0 -2.1 4
      vertex 0.219509 -2.0885 4
    endloop
  endfacet
  facet normal -0.0523179 0.99863 0
    outer loop
      vertex 0 -2.1 4
      vertex 0.219509 -2.0885 -4
      vertex 0 -2.1 -4
    endloop
  endfacet
  facet normal 0.838688 -0.544613 0
    outer loop
      vertex -1.81865 1.05 4
      vertex -1.69894 1.23435 -4
      vertex -1.69894 1.23435 4
    endloop
  endfacet
  facet normal 0.838688 -0.544613 0
    outer loop
      vertex -1.69894 1.23435 -4
      vertex -1.81865 1.05 4
      vertex -1.81865 1.05 -4
    endloop
  endfacet
  facet normal -0.987686 0.156452 0
    outer loop
      vertex 2.05411 -0.436614 -4
      vertex 2.0885 -0.219509 4
      vertex 2.0885 -0.219509 -4
    endloop
  endfacet
  facet normal -0.987686 0.156452 0
    outer loop
      vertex 2.0885 -0.219509 4
      vertex 2.05411 -0.436614 -4
      vertex 2.05411 -0.436614 4
    endloop
  endfacet
  facet normal -0.453981 0.891011 0
    outer loop
      vertex 1.05 -1.81865 -4
      vertex 0.854146 -1.91844 4
      vertex 1.05 -1.81865 4
    endloop
  endfacet
  facet normal -0.453981 0.891011 0
    outer loop
      vertex 0.854146 -1.91844 4
      vertex 1.05 -1.81865 -4
      vertex 0.854146 -1.91844 -4
    endloop
  endfacet
  facet normal 0.156452 -0.987686 0
    outer loop
      vertex -0.436614 2.05411 -4
      vertex -0.219509 2.0885 4
      vertex -0.436614 2.05411 4
    endloop
  endfacet
  facet normal 0.156452 -0.987686 0
    outer loop
      vertex -0.219509 2.0885 4
      vertex -0.436614 2.05411 -4
      vertex -0.219509 2.0885 -4
    endloop
  endfacet
  facet normal -0.965927 0.258814 0
    outer loop
      vertex 1.99722 -0.648935 -4
      vertex 2.05411 -0.436614 4
      vertex 2.05411 -0.436614 -4
    endloop
  endfacet
  facet normal -0.965927 0.258814 0
    outer loop
      vertex 2.05411 -0.436614 4
      vertex 1.99722 -0.648935 -4
      vertex 1.99722 -0.648935 4
    endloop
  endfacet
  facet normal 0.358395 -0.93357 0
    outer loop
      vertex -0.854146 1.91844 -4
      vertex -0.648935 1.99722 4
      vertex -0.854146 1.91844 4
    endloop
  endfacet
  facet normal 0.358395 -0.93357 0
    outer loop
      vertex -0.648935 1.99722 4
      vertex -0.854146 1.91844 -4
      vertex -0.648935 1.99722 -4
    endloop
  endfacet
  facet normal -0.777118 0.629355 0
    outer loop
      vertex 1.5606 -1.40517 -4
      vertex 1.69894 -1.23435 4
      vertex 1.69894 -1.23435 -4
    endloop
  endfacet
  facet normal -0.777118 0.629355 0
    outer loop
      vertex 1.69894 -1.23435 4
      vertex 1.5606 -1.40517 -4
      vertex 1.5606 -1.40517 4
    endloop
  endfacet
  facet normal 0.544613 -0.838688 0
    outer loop
      vertex -1.23435 1.69894 -4
      vertex -1.05 1.81865 4
      vertex -1.23435 1.69894 4
    endloop
  endfacet
  facet normal 0.544613 -0.838688 0
    outer loop
      vertex -1.05 1.81865 4
      vertex -1.23435 1.69894 -4
      vertex -1.05 1.81865 -4
    endloop
  endfacet
  facet normal 0.156452 0.987686 -0
    outer loop
      vertex -0.219509 -2.0885 -4
      vertex -0.436614 -2.05411 4
      vertex -0.219509 -2.0885 4
    endloop
  endfacet
  facet normal 0.156452 0.987686 0
    outer loop
      vertex -0.436614 -2.05411 4
      vertex -0.219509 -2.0885 -4
      vertex -0.436614 -2.05411 -4
    endloop
  endfacet
  facet normal -0.258814 -0.965927 0
    outer loop
      vertex 0.436614 2.05411 -4
      vertex 0.648935 1.99722 4
      vertex 0.436614 2.05411 4
    endloop
  endfacet
  facet normal -0.258814 -0.965927 -0
    outer loop
      vertex 0.648935 1.99722 4
      vertex 0.436614 2.05411 -4
      vertex 0.648935 1.99722 -4
    endloop
  endfacet
  facet normal 0.777118 -0.629355 0
    outer loop
      vertex -1.69894 1.23435 4
      vertex -1.5606 1.40517 -4
      vertex -1.5606 1.40517 4
    endloop
  endfacet
  facet normal 0.777118 -0.629355 0
    outer loop
      vertex -1.5606 1.40517 -4
      vertex -1.69894 1.23435 4
      vertex -1.69894 1.23435 -4
    endloop
  endfacet
  facet normal 0.93357 0.358395 0
    outer loop
      vertex -1.91844 -0.854146 4
      vertex -1.99722 -0.648935 -4
      vertex -1.99722 -0.648935 4
    endloop
  endfacet
  facet normal 0.93357 0.358395 0
    outer loop
      vertex -1.99722 -0.648935 -4
      vertex -1.91844 -0.854146 4
      vertex -1.91844 -0.854146 -4
    endloop
  endfacet
  facet normal -0.0523179 -0.99863 0
    outer loop
      vertex 0 2.1 -4
      vertex 0.219509 2.0885 4
      vertex 0 2.1 4
    endloop
  endfacet
  facet normal -0.0523179 -0.99863 -0
    outer loop
      vertex 0.219509 2.0885 4
      vertex 0 2.1 -4
      vertex 0.219509 2.0885 -4
    endloop
  endfacet
  facet normal 0.891011 0.453981 0
    outer loop
      vertex -1.81865 -1.05 4
      vertex -1.91844 -0.854146 -4
      vertex -1.91844 -0.854146 4
    endloop
  endfacet
  facet normal 0.891011 0.453981 0
    outer loop
      vertex -1.91844 -0.854146 -4
      vertex -1.81865 -1.05 4
      vertex -1.81865 -1.05 -4
    endloop
  endfacet
  facet normal -0.258814 0.965927 0
    outer loop
      vertex 0.648935 -1.99722 -4
      vertex 0.436614 -2.05411 4
      vertex 0.648935 -1.99722 4
    endloop
  endfacet
  facet normal -0.258814 0.965927 0
    outer loop
      vertex 0.436614 -2.05411 4
      vertex 0.648935 -1.99722 -4
      vertex 0.436614 -2.05411 -4
    endloop
  endfacet
  facet normal -0.629355 0.777118 0
    outer loop
      vertex 1.40517 -1.5606 -4
      vertex 1.23435 -1.69894 4
      vertex 1.40517 -1.5606 4
    endloop
  endfacet
  facet normal -0.629355 0.777118 0
    outer loop
      vertex 1.23435 -1.69894 4
      vertex 1.40517 -1.5606 -4
      vertex 1.23435 -1.69894 -4
    endloop
  endfacet
  facet normal 0.965927 -0.258814 0
    outer loop
      vertex -2.05411 0.436614 4
      vertex -1.99722 0.648935 -4
      vertex -1.99722 0.648935 4
    endloop
  endfacet
  facet normal 0.965927 -0.258814 0
    outer loop
      vertex -1.99722 0.648935 -4
      vertex -2.05411 0.436614 4
      vertex -2.05411 0.436614 -4
    endloop
  endfacet
  facet normal 0.99863 0.0523179 0
    outer loop
      vertex -2.0885 -0.219509 4
      vertex -2.1 0 -4
      vertex -2.1 0 4
    endloop
  endfacet
  facet normal 0.99863 0.0523179 0
    outer loop
      vertex -2.1 0 -4
      vertex -2.0885 -0.219509 4
      vertex -2.0885 -0.219509 -4
    endloop
  endfacet
  facet normal 0.93357 -0.358395 0
    outer loop
      vertex -1.99722 0.648935 4
      vertex -1.91844 0.854146 -4
      vertex -1.91844 0.854146 4
    endloop
  endfacet
  facet normal 0.93357 -0.358395 0
    outer loop
      vertex -1.91844 0.854146 -4
      vertex -1.99722 0.648935 4
      vertex -1.99722 0.648935 -4
    endloop
  endfacet
  facet normal 0.777118 0.629355 0
    outer loop
      vertex -1.5606 -1.40517 4
      vertex -1.69894 -1.23435 -4
      vertex -1.69894 -1.23435 4
    endloop
  endfacet
  facet normal 0.777118 0.629355 0
    outer loop
      vertex -1.69894 -1.23435 -4
      vertex -1.5606 -1.40517 4
      vertex -1.5606 -1.40517 -4
    endloop
  endfacet
  facet normal 0.707107 0.707107 0
    outer loop
      vertex -1.40517 -1.5606 4
      vertex -1.5606 -1.40517 -4
      vertex -1.5606 -1.40517 4
    endloop
  endfacet
  facet normal 0.707107 0.707107 0
    outer loop
      vertex -1.5606 -1.40517 -4
      vertex -1.40517 -1.5606 4
      vertex -1.40517 -1.5606 -4
    endloop
  endfacet
  facet normal -0.544613 0.838688 0
    outer loop
      vertex 1.23435 -1.69894 -4
      vertex 1.05 -1.81865 4
      vertex 1.23435 -1.69894 4
    endloop
  endfacet
  facet normal -0.544613 0.838688 0
    outer loop
      vertex 1.05 -1.81865 4
      vertex 1.23435 -1.69894 -4
      vertex 1.05 -1.81865 -4
    endloop
  endfacet
  facet normal 0.0523179 0.99863 -0
    outer loop
      vertex 0 -2.1 -4
      vertex -0.219509 -2.0885 4
      vertex 0 -2.1 4
    endloop
  endfacet
  facet normal 0.0523179 0.99863 0
    outer loop
      vertex -0.219509 -2.0885 4
      vertex 0 -2.1 -4
      vertex -0.219509 -2.0885 -4
    endloop
  endfacet
  facet normal 0.99863 -0.0523179 0
    outer loop
      vertex -2.1 0 4
      vertex -2.0885 0.219509 -4
      vertex -2.0885 0.219509 4
    endloop
  endfacet
  facet normal 0.99863 -0.0523179 0
    outer loop
      vertex -2.0885 0.219509 -4
      vertex -2.1 0 4
      vertex -2.1 0 -4
    endloop
  endfacet
  facet normal 0.358395 0.93357 -0
    outer loop
      vertex -0.648935 -1.99722 -4
      vertex -0.854146 -1.91844 4
      vertex -0.648935 -1.99722 4
    endloop
  endfacet
  facet normal 0.358395 0.93357 0
    outer loop
      vertex -0.854146 -1.91844 4
      vertex -0.648935 -1.99722 -4
      vertex -0.854146 -1.91844 -4
    endloop
  endfacet
  facet normal 0.544613 0.838688 -0
    outer loop
      vertex -1.05 -1.81865 -4
      vertex -1.23435 -1.69894 4
      vertex -1.05 -1.81865 4
    endloop
  endfacet
  facet normal 0.544613 0.838688 0
    outer loop
      vertex -1.23435 -1.69894 4
      vertex -1.05 -1.81865 -4
      vertex -1.23435 -1.69894 -4
    endloop
  endfacet
  facet normal -0.707107 0.707107 0
    outer loop
      vertex 1.40517 -1.5606 -4
      vertex 1.5606 -1.40517 4
      vertex 1.5606 -1.40517 -4
    endloop
  endfacet
  facet normal -0.707107 0.707107 0
    outer loop
      vertex 1.5606 -1.40517 4
      vertex 1.40517 -1.5606 -4
      vertex 1.40517 -1.5606 4
    endloop
  endfacet
endsolid OpenSCAD_Model
