solid OpenSCAD_Model
  facet normal 0.58779 0.809013 -0
    outer loop
      vertex 1.80665 2.00649 -4
      vertex 1.35 2.33827 4
      vertex 1.80665 2.00649 4
    endloop
  endfacet
  facet normal 0.58779 0.809013 0
    outer loop
      vertex 1.35 2.33827 4
      vertex 1.80665 2.00649 -4
      vertex 1.35 2.33827 -4
    endloop
  endfacet
  facet normal -0.951055 0.309023 0
    outer loop
      vertex -2.641 0.561361 -4
      vertex -2.46657 1.09819 4
      vertex -2.46657 1.09819 -4
    endloop
  endfacet
  facet normal -0.951055 0.309023 0
    outer loop
      vertex -2.46657 1.09819 4
      vertex -2.641 0.561361 -4
      vertex -2.641 0.561361 4
    endloop
  endfacet
  facet normal 0.207918 -0.978146 0
    outer loop
      vertex 0.282227 -2.68521 -4
      vertex 0.834346 -2.56785 4
      vertex 0.282227 -2.68521 4
    endloop
  endfacet
  facet normal 0.207918 -0.978146 0
    outer loop
      vertex 0.834346 -2.56785 4
      vertex 0.282227 -2.68521 -4
      vertex 0.834346 -2.56785 -4
    endloop
  endfacet
  facet normal -0.994522 0.104526 0
    outer loop
      vertex -2.7 0 -4
      vertex -2.641 0.561361 4
      vertex -2.641 0.561361 -4
    endloop
  endfacet
  facet normal -0.994522 0.104526 0
    outer loop
      vertex -2.641 0.561361 4
      vertex -2.7 0 -4
      vertex -2.7 0 4
    endloop
  endfacet
  facet normal 0 -1 0
    outer loop
      vertex -0.282227 -2.68521 -4
      vertex 0.282227 -2.68521 4
      vertex -0.282227 -2.68521 4
    endloop
  endfacet
  facet normal 0 -1 -0
    outer loop
      vertex 0.282227 -2.68521 4
      vertex -0.282227 -2.68521 -4
      vertex 0.282227 -2.68521 -4
    endloop
  endfacet
  facet normal 0.406731 0.913548 -0
    outer loop
      vertex 1.35 2.33827 -4
      vertex 0.834346 2.56785 4
      vertex 1.35 2.33827 4
    endloop
  endfacet
  facet normal 0.406731 0.913548 0
    outer loop
      vertex 0.834346 2.56785 4
      vertex 1.35 2.33827 -4
      vertex 0.834346 2.56785 -4
    endloop
  endfacet
  facet normal 0.994522 -0.104526 0
    outer loop
      vertex 2.641 -0.561361 4
      vertex 2.7 0 -4
      vertex 2.7 0 4
    endloop
  endfacet
  facet normal 0.994522 -0.104526 0
    outer loop
      vertex 2.7 0 -4
      vertex 2.641 -0.561361 4
      vertex 2.641 -0.561361 -4
    endloop
  endfacet
  facet normal 0.86603 0.499992 0
    outer loop
      vertex 2.46657 1.09819 4
      vertex 2.18435 1.58702 -4
      vertex 2.18435 1.58702 4
    endloop
  endfacet
  facet normal 0.86603 0.499992 0
    outer loop
      vertex 2.18435 1.58702 -4
      vertex 2.46657 1.09819 4
      vertex 2.46657 1.09819 -4
    endloop
  endfacet
  facet normal 0.86603 -0.499992 0
    outer loop
      vertex 2.18435 -1.58702 4
      vertex 2.46657 -1.09819 -4
      vertex 2.46657 -1.09819 4
    endloop
  endfacet
  facet normal 0.86603 -0.499992 0
    outer loop
      vertex 2.46657 -1.09819 -4
      vertex 2.18435 -1.58702 4
      vertex 2.18435 -1.58702 -4
    endloop
  endfacet
  facet normal -0.207918 -0.978146 0
    outer loop
      vertex -0.834346 -2.56785 -4
      vertex -0.282227 -2.68521 4
      vertex -0.834346 -2.56785 4
    endloop
  endfacet
  facet normal -0.207918 -0.978146 -0
    outer loop
      vertex -0.282227 -2.68521 4
      vertex -0.834346 -2.56785 -4
      vertex -0.282227 -2.68521 -4
    endloop
  endfacet
  facet normal 0.743138 0.669138 0
    outer loop
      vertex 2.18435 1.58702 4
      vertex 1.80665 2.00649 -4
      vertex 1.80665 2.00649 4
    endloop
  endfacet
  facet normal 0.743138 0.669138 0
    outer loop
      vertex 1.80665 2.00649 -4
      vertex 2.18435 1.58702 4
      vertex 2.18435 1.58702 -4
    endloop
  endfacet
  facet normal 0.994522 0.104526 0
    outer loop
      vertex 2.7 0 4
      vertex 2.641 0.561361 -4
      vertex 2.641 0.561361 4
    endloop
  endfacet
  facet normal 0.994522 0.104526 0
    outer loop
      vertex 2.641 0.561361 -4
      vertex 2.7 0 4
      vertex 2.7 0 -4
    endloop
  endfacet
  facet normal -0.86603 0.499992 0
    outer loop
      vertex -2.46657 1.09819 -4
      vertex -2.18435 1.58702 4
      vertex -2.18435 1.58702 -4
    endloop
  endfacet
  facet normal -0.86603 0.499992 0
    outer loop
      vertex -2.18435 1.58702 4
      vertex -2.46657 1.09819 -4
      vertex -2.46657 1.09819 4
    endloop
  endfacet
  facet normal 0.207918 0.978146 -0
    outer loop
      vertex 0.834346 2.56785 -4
      vertex 0.282227 2.68521 4
      vertex 0.834346 2.56785 4
    endloop
  endfacet
  facet normal 0.207918 0.978146 0
    outer loop
      vertex 0.282227 2.68521 4
      vertex 0.834346 2.56785 -4
      vertex 0.282227 2.68521 -4
    endloop
  endfacet
  facet normal -0.951055 -0.309023 0
    outer loop
      vertex -2.46657 -1.09819 -4
      vertex -2.641 -0.561361 4
      vertex -2.641 -0.561361 -4
    endloop
  endfacet
  facet normal -0.951055 -0.309023 0
    outer loop
      vertex -2.641 -0.561361 4
      vertex -2.46657 -1.09819 -4
      vertex -2.46657 -1.09819 4
    endloop
  endfacet
  facet normal -0.58779 0.809013 0
    outer loop
      vertex -1.35 2.33827 -4
      vertex -1.80665 2.00649 4
      vertex -1.35 2.33827 4
    endloop
  endfacet
  facet normal -0.58779 0.809013 0
    outer loop
      vertex -1.80665 2.00649 4
      vertex -1.35 2.33827 -4
      vertex -1.80665 2.00649 -4
    endloop
  endfacet
  facet normal 0.951055 0.309023 0
    outer loop
      vertex 2.641 0.561361 4
      vertex 2.46657 1.09819 -4
      vertex 2.46657 1.09819 4
    endloop
  endfacet
  facet normal 0.951055 0.309023 0
    outer loop
      vertex 2.46657 1.09819 -4
      vertex 2.641 0.561361 4
      vertex 2.641 0.561361 -4
    endloop
  endfacet
  facet normal 0.951055 -0.309023 0
    outer loop
      vertex 2.46657 -1.09819 4
      vertex 2.641 -0.561361 -4
      vertex 2.641 -0.561361 4
    endloop
  endfacet
  facet normal 0.951055 -0.309023 0
    outer loop
      vertex 2.641 -0.561361 -4
      vertex 2.46657 -1.09819 4
      vertex 2.46657 -1.09819 -4
    endloop
  endfacet
  facet normal 0.406731 -0.913548 0
    outer loop
      vertex 0.834346 -2.56785 -4
      vertex 1.35 -2.33827 4
      vertex 0.834346 -2.56785 4
    endloop
  endfacet
  facet normal 0.406731 -0.913548 0
    outer loop
      vertex 1.35 -2.33827 4
      vertex 0.834346 -2.56785 -4
      vertex 1.35 -2.33827 -4
    endloop
  endfacet
  facet normal -0.406731 -0.913548 0
    outer loop
      vertex -1.35 -2.33827 -4
      vertex -0.834346 -2.56785 4
      vertex -1.35 -2.33827 4
    endloop
  endfacet
  facet normal -0.406731 -0.913548 -0
    outer loop
      vertex -0.834346 -2.56785 4
      vertex -1.35 -2.33827 -4
      vertex -0.834346 -2.56785 -4
    endloop
  endfacet
  facet normal -0.743138 0.669138 0
    outer loop
      vertex -2.18435 1.58702 -4
      vertex -1.80665 2.00649 4
      vertex -1.80665 2.00649 -4
    endloop
  endfacet
  facet normal -0.743138 0.669138 0
    outer loop
      vertex -1.80665 2.00649 4
      vertex -2.18435 1.58702 -4
      vertex -2.18435 1.58702 4
    endloop
  endfacet
  facet normal -0.207918 0.978146 0
    outer loop
      vertex -0.282227 2.68521 -4
      vertex -0.834346 2.56785 4
      vertex -0.282227 2.68521 4
    endloop
  endfacet
  facet normal -0.207918 0.978146 0
    outer loop
      vertex -0.834346 2.56785 4
      vertex -0.282227 2.68521 -4
      vertex -0.834346 2.56785 -4
    endloop
  endfacet
  facet normal 0.58779 -0.809013 0
    outer loop
      vertex 1.35 -2.33827 -4
      vertex 1.80665 -2.00649 4
      vertex 1.35 -2.33827 4
    endloop
  endfacet
  facet normal 0.58779 -0.809013 0
    outer loop
      vertex 1.80665 -2.00649 4
      vertex 1.35 -2.33827 -4
      vertex 1.80665 -2.00649 -4
    endloop
  endfacet
  facet normal -0.58779 -0.809013 0
    outer loop
      vertex -1.80665 -2.00649 -4
      vertex -1.35 -2.33827 4
      vertex -1.80665 -2.00649 4
    endloop
  endfacet
  facet normal -0.58779 -0.809013 -0
    outer loop
      vertex -1.35 -2.33827 4
      vertex -1.80665 -2.00649 -4
      vertex -1.35 -2.33827 -4
    endloop
  endfacet
  facet normal 0.743138 -0.669138 0
    outer loop
      vertex 1.80665 -2.00649 4
      vertex 2.18435 -1.58702 -4
      vertex 2.18435 -1.58702 4
    endloop
  endfacet
  facet normal 0.743138 -0.669138 0
    outer loop
      vertex 2.18435 -1.58702 -4
      vertex 1.80665 -2.00649 4
      vertex 1.80665 -2.00649 -4
    endloop
  endfacet
  facet normal 0 0 1
    outer loop
      vertex 1.6 0 4
      vertex 2.7 0 4
      vertex 2.641 0.561361 4
    endloop
  endfacet
  facet normal 0 0 1
    outer loop
      vertex 1.56504 0.332658 4
      vertex 2.641 0.561361 4
      vertex 2.46657 1.09819 4
    endloop
  endfacet
  facet normal 0 0 1
    outer loop
      vertex 2.7 0 4
      vertex 1.6 0 4
      vertex 2.641 -0.561361 4
    endloop
  endfacet
  facet normal 0 0 1
    outer loop
      vertex 1.46167 0.650778 4
      vertex 2.46657 1.09819 4
      vertex 2.18435 1.58702 4
    endloop
  endfacet
  facet normal -0 0 1
    outer loop
      vertex 1.56504 -0.332658 4
      vertex 2.641 -0.561361 4
      vertex 1.6 0 4
    endloop
  endfacet
  facet normal 0 0 1
    outer loop
      vertex 1.29443 0.940456 4
      vertex 2.18435 1.58702 4
      vertex 1.80665 2.00649 4
    endloop
  endfacet
  facet normal 0 0 1
    outer loop
      vertex 2.641 -0.561361 4
      vertex 1.56504 -0.332658 4
      vertex 2.46657 -1.09819 4
    endloop
  endfacet
  facet normal -0 0 1
    outer loop
      vertex 1.46167 -0.650778 4
      vertex 2.46657 -1.09819 4
      vertex 1.56504 -0.332658 4
    endloop
  endfacet
  facet normal 0 0 1
    outer loop
      vertex 2.641 0.561361 4
      vertex 1.56504 0.332658 4
      vertex 1.6 0 4
    endloop
  endfacet
  facet normal 0 0 1
    outer loop
      vertex 2.46657 1.09819 4
      vertex 1.46167 0.650778 4
      vertex 1.56504 0.332658 4
    endloop
  endfacet
  facet normal 0 0 1
    outer loop
      vertex 1.07061 1.18903 4
      vertex 1.80665 2.00649 4
      vertex 1.35 2.33827 4
    endloop
  endfacet
  facet normal 0 0 1
    outer loop
      vertex 2.18435 1.58702 4
      vertex 1.29443 0.940456 4
      vertex 1.46167 0.650778 4
    endloop
  endfacet
  facet normal 0 0 1
    outer loop
      vertex 1.80665 2.00649 4
      vertex 1.07061 1.18903 4
      vertex 1.29443 0.940456 4
    endloop
  endfacet
  facet normal 0 0 1
    outer loop
      vertex 0.799999 1.38564 4
      vertex 1.35 2.33827 4
      vertex 0.834346 2.56785 4
    endloop
  endfacet
  facet normal 0 0 1
    outer loop
      vertex 1.35 2.33827 4
      vertex 0.799999 1.38564 4
      vertex 1.07061 1.18903 4
    endloop
  endfacet
  facet normal 0 0 1
    outer loop
      vertex 0.834346 2.56785 4
      vertex 0.494427 1.52169 4
      vertex 0.799999 1.38564 4
    endloop
  endfacet
  facet normal 0 0 1
    outer loop
      vertex 0.282227 2.68521 4
      vertex 0.494427 1.52169 4
      vertex 0.834346 2.56785 4
    endloop
  endfacet
  facet normal 0 0 1
    outer loop
      vertex 0.282227 2.68521 4
      vertex 0.167245 1.59123 4
      vertex 0.494427 1.52169 4
    endloop
  endfacet
  facet normal 0 0 1
    outer loop
      vertex 0.282227 2.68521 4
      vertex -0.167245 1.59123 4
      vertex 0.167245 1.59123 4
    endloop
  endfacet
  facet normal -0 0 1
    outer loop
      vertex -0.282227 2.68521 4
      vertex -0.167245 1.59123 4
      vertex 0.282227 2.68521 4
    endloop
  endfacet
  facet normal 0 0 1
    outer loop
      vertex -0.282227 2.68521 4
      vertex -0.494427 1.52169 4
      vertex -0.167245 1.59123 4
    endloop
  endfacet
  facet normal -0 0 1
    outer loop
      vertex -0.834346 2.56785 4
      vertex -0.494427 1.52169 4
      vertex -0.282227 2.68521 4
    endloop
  endfacet
  facet normal 0 0 1
    outer loop
      vertex -0.494427 1.52169 4
      vertex -0.834346 2.56785 4
      vertex -0.799999 1.38564 4
    endloop
  endfacet
  facet normal -0 0 1
    outer loop
      vertex -1.35 2.33827 4
      vertex -0.799999 1.38564 4
      vertex -0.834346 2.56785 4
    endloop
  endfacet
  facet normal 0 0 1
    outer loop
      vertex -0.799999 1.38564 4
      vertex -1.35 2.33827 4
      vertex -1.07061 1.18903 4
    endloop
  endfacet
  facet normal -0 0 1
    outer loop
      vertex -1.80665 2.00649 4
      vertex -1.07061 1.18903 4
      vertex -1.35 2.33827 4
    endloop
  endfacet
  facet normal 0 0 1
    outer loop
      vertex -1.07061 1.18903 4
      vertex -1.80665 2.00649 4
      vertex -1.29443 0.940456 4
    endloop
  endfacet
  facet normal -0 0 1
    outer loop
      vertex -2.18435 1.58702 4
      vertex -1.29443 0.940456 4
      vertex -1.80665 2.00649 4
    endloop
  endfacet
  facet normal -0 0 1
    outer loop
      vertex -2.46657 1.09819 4
      vertex -1.46167 0.650778 4
      vertex -2.18435 1.58702 4
    endloop
  endfacet
  facet normal 0 0 1
    outer loop
      vertex -1.29443 0.940456 4
      vertex -2.18435 1.58702 4
      vertex -1.46167 0.650778 4
    endloop
  endfacet
  facet normal 0 0 1
    outer loop
      vertex 2.46657 -1.09819 4
      vertex 1.46167 -0.650778 4
      vertex 2.18435 -1.58702 4
    endloop
  endfacet
  facet normal -0 0 1
    outer loop
      vertex 1.29443 -0.940456 4
      vertex 2.18435 -1.58702 4
      vertex 1.46167 -0.650778 4
    endloop
  endfacet
  facet normal 0 0 1
    outer loop
      vertex 2.18435 -1.58702 4
      vertex 1.29443 -0.940456 4
      vertex 1.80665 -2.00649 4
    endloop
  endfacet
  facet normal -0 0 1
    outer loop
      vertex 1.07061 -1.18903 4
      vertex 1.80665 -2.00649 4
      vertex 1.29443 -0.940456 4
    endloop
  endfacet
  facet normal 0 0 1
    outer loop
      vertex 1.80665 -2.00649 4
      vertex 1.07061 -1.18903 4
      vertex 1.35 -2.33827 4
    endloop
  endfacet
  facet normal -0 0 1
    outer loop
      vertex 0.799999 -1.38564 4
      vertex 1.35 -2.33827 4
      vertex 1.07061 -1.18903 4
    endloop
  endfacet
  facet normal 0 0 1
    outer loop
      vertex 1.35 -2.33827 4
      vertex 0.799999 -1.38564 4
      vertex 0.834346 -2.56785 4
    endloop
  endfacet
  facet normal -0 0 1
    outer loop
      vertex 0.494427 -1.52169 4
      vertex 0.834346 -2.56785 4
      vertex 0.799999 -1.38564 4
    endloop
  endfacet
  facet normal 0 0 1
    outer loop
      vertex 0.494427 -1.52169 4
      vertex 0.282227 -2.68521 4
      vertex 0.834346 -2.56785 4
    endloop
  endfacet
  facet normal -0 0 1
    outer loop
      vertex 0.167245 -1.59123 4
      vertex 0.282227 -2.68521 4
      vertex 0.494427 -1.52169 4
    endloop
  endfacet
  facet normal -0 0 1
    outer loop
      vertex -0.167245 -1.59123 4
      vertex 0.282227 -2.68521 4
      vertex 0.167245 -1.59123 4
    endloop
  endfacet
  facet normal 0 0 1
    outer loop
      vertex -0.167245 -1.59123 4
      vertex -0.282227 -2.68521 4
      vertex 0.282227 -2.68521 4
    endloop
  endfacet
  facet normal 0 0 1
    outer loop
      vertex -0.494427 -1.52169 4
      vertex -0.282227 -2.68521 4
      vertex -0.167245 -1.59123 4
    endloop
  endfacet
  facet normal 0 0 1
    outer loop
      vertex -0.834346 -2.56785 4
      vertex -0.494427 -1.52169 4
      vertex -0.799999 -1.38564 4
    endloop
  endfacet
  facet normal 0 0 1
    outer loop
      vertex -0.494427 -1.52169 4
      vertex -0.834346 -2.56785 4
      vertex -0.282227 -2.68521 4
    endloop
  endfacet
  facet normal 0 0 1
    outer loop
      vertex -1.35 -2.33827 4
      vertex -0.799999 -1.38564 4
      vertex -1.07061 -1.18903 4
    endloop
  endfacet
  facet normal 0 0 1
    outer loop
      vertex -1.80665 -2.00649 4
      vertex -1.07061 -1.18903 4
      vertex -1.29443 -0.940456 4
    endloop
  endfacet
  facet normal 0 0 1
    outer loop
      vertex -0.799999 -1.38564 4
      vertex -1.35 -2.33827 4
      vertex -0.834346 -2.56785 4
    endloop
  endfacet
  facet normal 0 0 1
    outer loop
      vertex -2.18435 -1.58702 4
      vertex -1.29443 -0.940456 4
      vertex -1.46167 -0.650778 4
    endloop
  endfacet
  facet normal 0 0 1
    outer loop
      vertex -2.46657 -1.09819 4
      vertex -1.46167 -0.650778 4
      vertex -1.56504 -0.332658 4
    endloop
  endfacet
  facet normal 0 0 1
    outer loop
      vertex -1.07061 -1.18903 4
      vertex -1.80665 -2.00649 4
      vertex -1.35 -2.33827 4
    endloop
  endfacet
  facet normal 0 0 1
    outer loop
      vertex -2.641 -0.561361 4
      vertex -1.56504 -0.332658 4
      vertex -1.6 0 4
    endloop
  endfacet
  facet normal 0 0 1
    outer loop
      vertex -1.46167 0.650778 4
      vertex -2.46657 1.09819 4
      vertex -1.56504 0.332658 4
    endloop
  endfacet
  facet normal -0 0 1
    outer loop
      vertex -2.641 0.561361 4
      vertex -1.56504 0.332658 4
      vertex -2.46657 1.09819 4
    endloop
  endfacet
  facet normal 0 0 1
    outer loop
      vertex -1.29443 -0.940456 4
      vertex -2.18435 -1.58702 4
      vertex -1.80665 -2.00649 4
    endloop
  endfacet
  facet normal 0 0 1
    outer loop
      vertex -1.56504 0.332658 4
      vertex -2.641 0.561361 4
      vertex -1.6 0 4
    endloop
  endfacet
  facet normal 0 0 1
    outer loop
      vertex -1.46167 -0.650778 4
      vertex -2.46657 -1.09819 4
      vertex -2.18435 -1.58702 4
    endloop
  endfacet
  facet normal 0 0 1
    outer loop
      vertex -2.7 0 4
      vertex -1.6 0 4
      vertex -2.641 0.561361 4
    endloop
  endfacet
  facet normal 0 0 1
    outer loop
      vertex -1.56504 -0.332658 4
      vertex -2.641 -0.561361 4
      vertex -2.46657 -1.09819 4
    endloop
  endfacet
  facet normal 0 0 1
    outer loop
      vertex -1.6 0 4
      vertex -2.7 0 4
      vertex -2.641 -0.561361 4
    endloop
  endfacet
  facet normal -0.406731 0.913548 0
    outer loop
      vertex -0.834346 2.56785 -4
      vertex -1.35 2.33827 4
      vertex -0.834346 2.56785 4
    endloop
  endfacet
  facet normal -0.406731 0.913548 0
    outer loop
      vertex -1.35 2.33827 4
      vertex -0.834346 2.56785 -4
      vertex -1.35 2.33827 -4
    endloop
  endfacet
  facet normal 0 0 -1
    outer loop
      vertex 1.6 0 -4
      vertex 2.7 0 -4
      vertex 2.641 -0.561361 -4
    endloop
  endfacet
  facet normal 0 0 -1
    outer loop
      vertex 1.56504 -0.332658 -4
      vertex 2.641 -0.561361 -4
      vertex 2.46657 -1.09819 -4
    endloop
  endfacet
  facet normal 0 0 -1
    outer loop
      vertex 2.7 0 -4
      vertex 1.6 0 -4
      vertex 2.641 0.561361 -4
    endloop
  endfacet
  facet normal 0 0 -1
    outer loop
      vertex 1.46167 -0.650778 -4
      vertex 2.46657 -1.09819 -4
      vertex 2.18435 -1.58702 -4
    endloop
  endfacet
  facet normal 0 0 -1
    outer loop
      vertex 1.56504 0.332658 -4
      vertex 2.641 0.561361 -4
      vertex 1.6 0 -4
    endloop
  endfacet
  facet normal 0 0 -1
    outer loop
      vertex 1.29443 -0.940456 -4
      vertex 2.18435 -1.58702 -4
      vertex 1.80665 -2.00649 -4
    endloop
  endfacet
  facet normal -0 0 -1
    outer loop
      vertex 2.641 0.561361 -4
      vertex 1.56504 0.332658 -4
      vertex 2.46657 1.09819 -4
    endloop
  endfacet
  facet normal 0 0 -1
    outer loop
      vertex 1.46167 0.650778 -4
      vertex 2.46657 1.09819 -4
      vertex 1.56504 0.332658 -4
    endloop
  endfacet
  facet normal 0 0 -1
    outer loop
      vertex 2.641 -0.561361 -4
      vertex 1.56504 -0.332658 -4
      vertex 1.6 0 -4
    endloop
  endfacet
  facet normal 0 0 -1
    outer loop
      vertex 2.46657 -1.09819 -4
      vertex 1.46167 -0.650778 -4
      vertex 1.56504 -0.332658 -4
    endloop
  endfacet
  facet normal 0 0 -1
    outer loop
      vertex 1.07061 -1.18903 -4
      vertex 1.80665 -2.00649 -4
      vertex 1.35 -2.33827 -4
    endloop
  endfacet
  facet normal 0 0 -1
    outer loop
      vertex 2.18435 -1.58702 -4
      vertex 1.29443 -0.940456 -4
      vertex 1.46167 -0.650778 -4
    endloop
  endfacet
  facet normal 0 0 -1
    outer loop
      vertex 1.80665 -2.00649 -4
      vertex 1.07061 -1.18903 -4
      vertex 1.29443 -0.940456 -4
    endloop
  endfacet
  facet normal 0 0 -1
    outer loop
      vertex 0.799999 -1.38564 -4
      vertex 1.35 -2.33827 -4
      vertex 0.834346 -2.56785 -4
    endloop
  endfacet
  facet normal 0 0 -1
    outer loop
      vertex 1.35 -2.33827 -4
      vertex 0.799999 -1.38564 -4
      vertex 1.07061 -1.18903 -4
    endloop
  endfacet
  facet normal 0 0 -1
    outer loop
      vertex 0.834346 -2.56785 -4
      vertex 0.494427 -1.52169 -4
      vertex 0.799999 -1.38564 -4
    endloop
  endfacet
  facet normal 0 0 -1
    outer loop
      vertex 0.282227 -2.68521 -4
      vertex 0.494427 -1.52169 -4
      vertex 0.834346 -2.56785 -4
    endloop
  endfacet
  facet normal 0 0 -1
    outer loop
      vertex 0.282227 -2.68521 -4
      vertex 0.167245 -1.59123 -4
      vertex 0.494427 -1.52169 -4
    endloop
  endfacet
  facet normal 0 0 -1
    outer loop
      vertex 0.282227 -2.68521 -4
      vertex -0.167245 -1.59123 -4
      vertex 0.167245 -1.59123 -4
    endloop
  endfacet
  facet normal 0 0 -1
    outer loop
      vertex -0.282227 -2.68521 -4
      vertex -0.167245 -1.59123 -4
      vertex 0.282227 -2.68521 -4
    endloop
  endfacet
  facet normal 0 0 -1
    outer loop
      vertex -0.282227 -2.68521 -4
      vertex -0.494427 -1.52169 -4
      vertex -0.167245 -1.59123 -4
    endloop
  endfacet
  facet normal 0 0 -1
    outer loop
      vertex -0.834346 -2.56785 -4
      vertex -0.494427 -1.52169 -4
      vertex -0.282227 -2.68521 -4
    endloop
  endfacet
  facet normal -0 0 -1
    outer loop
      vertex -0.494427 -1.52169 -4
      vertex -0.834346 -2.56785 -4
      vertex -0.799999 -1.38564 -4
    endloop
  endfacet
  facet normal 0 0 -1
    outer loop
      vertex -1.35 -2.33827 -4
      vertex -0.799999 -1.38564 -4
      vertex -0.834346 -2.56785 -4
    endloop
  endfacet
  facet normal -0 0 -1
    outer loop
      vertex -0.799999 -1.38564 -4
      vertex -1.35 -2.33827 -4
      vertex -1.07061 -1.18903 -4
    endloop
  endfacet
  facet normal 0 0 -1
    outer loop
      vertex -1.80665 -2.00649 -4
      vertex -1.07061 -1.18903 -4
      vertex -1.35 -2.33827 -4
    endloop
  endfacet
  facet normal -0 0 -1
    outer loop
      vertex -1.07061 -1.18903 -4
      vertex -1.80665 -2.00649 -4
      vertex -1.29443 -0.940456 -4
    endloop
  endfacet
  facet normal 0 0 -1
    outer loop
      vertex -2.18435 -1.58702 -4
      vertex -1.29443 -0.940456 -4
      vertex -1.80665 -2.00649 -4
    endloop
  endfacet
  facet normal 0 0 -1
    outer loop
      vertex -2.46657 -1.09819 -4
      vertex -1.46167 -0.650778 -4
      vertex -2.18435 -1.58702 -4
    endloop
  endfacet
  facet normal -0 0 -1
    outer loop
      vertex -1.29443 -0.940456 -4
      vertex -2.18435 -1.58702 -4
      vertex -1.46167 -0.650778 -4
    endloop
  endfacet
  facet normal -0 0 -1
    outer loop
      vertex 2.46657 1.09819 -4
      vertex 1.46167 0.650778 -4
      vertex 2.18435 1.58702 -4
    endloop
  endfacet
  facet normal 0 0 -1
    outer loop
      vertex 1.29443 0.940456 -4
      vertex 2.18435 1.58702 -4
      vertex 1.46167 0.650778 -4
    endloop
  endfacet
  facet normal -0 0 -1
    outer loop
      vertex 2.18435 1.58702 -4
      vertex 1.29443 0.940456 -4
      vertex 1.80665 2.00649 -4
    endloop
  endfacet
  facet normal 0 0 -1
    outer loop
      vertex 1.07061 1.18903 -4
      vertex 1.80665 2.00649 -4
      vertex 1.29443 0.940456 -4
    endloop
  endfacet
  facet normal -0 0 -1
    outer loop
      vertex 1.80665 2.00649 -4
      vertex 1.07061 1.18903 -4
      vertex 1.35 2.33827 -4
    endloop
  endfacet
  facet normal 0 0 -1
    outer loop
      vertex 0.799999 1.38564 -4
      vertex 1.35 2.33827 -4
      vertex 1.07061 1.18903 -4
    endloop
  endfacet
  facet normal -0 0 -1
    outer loop
      vertex 1.35 2.33827 -4
      vertex 0.799999 1.38564 -4
      vertex 0.834346 2.56785 -4
    endloop
  endfacet
  facet normal 0 0 -1
    outer loop
      vertex 0.494427 1.52169 -4
      vertex 0.834346 2.56785 -4
      vertex 0.799999 1.38564 -4
    endloop
  endfacet
  facet normal 0 0 -1
    outer loop
      vertex 0.494427 1.52169 -4
      vertex 0.282227 2.68521 -4
      vertex 0.834346 2.56785 -4
    endloop
  endfacet
  facet normal 0 0 -1
    outer loop
      vertex 0.167245 1.59123 -4
      vertex 0.282227 2.68521 -4
      vertex 0.494427 1.52169 -4
    endloop
  endfacet
  facet normal 0 0 -1
    outer loop
      vertex -0.167245 1.59123 -4
      vertex 0.282227 2.68521 -4
      vertex 0.167245 1.59123 -4
    endloop
  endfacet
  facet normal 0 0 -1
    outer loop
      vertex -0.167245 1.59123 -4
      vertex -0.282227 2.68521 -4
      vertex 0.282227 2.68521 -4
    endloop
  endfacet
  facet normal 0 0 -1
    outer loop
      vertex -0.494427 1.52169 -4
      vertex -0.282227 2.68521 -4
      vertex -0.167245 1.59123 -4
    endloop
  endfacet
  facet normal 0 0 -1
    outer loop
      vertex -0.834346 2.56785 -4
      vertex -0.494427 1.52169 -4
      vertex -0.799999 1.38564 -4
    endloop
  endfacet
  facet normal 0 0 -1
    outer loop
      vertex -0.494427 1.52169 -4
      vertex -0.834346 2.56785 -4
      vertex -0.282227 2.68521 -4
    endloop
  endfacet
  facet normal 0 0 -1
    outer loop
      vertex -1.35 2.33827 -4
      vertex -0.799999 1.38564 -4
      vertex -1.07061 1.18903 -4
    endloop
  endfacet
  facet normal 0 0 -1
    outer loop
      vertex -1.80665 2.00649 -4
      vertex -1.07061 1.18903 -4
      vertex -1.29443 0.940456 -4
    endloop
  endfacet
  facet normal 0 0 -1
    outer loop
      vertex -0.799999 1.38564 -4
      vertex -1.35 2.33827 -4
      vertex -0.834346 2.56785 -4
    endloop
  endfacet
  facet normal 0 0 -1
    outer loop
      vertex -2.18435 1.58702 -4
      vertex -1.29443 0.940456 -4
      vertex -1.46167 0.650778 -4
    endloop
  endfacet
  facet normal 0 0 -1
    outer loop
      vertex -2.46657 1.09819 -4
      vertex -1.46167 0.650778 -4
      vertex -1.56504 0.332658 -4
    endloop
  endfacet
  facet normal 0 0 -1
    outer loop
      vertex -1.07061 1.18903 -4
      vertex -1.80665 2.00649 -4
      vertex -1.35 2.33827 -4
    endloop
  endfacet
  facet normal 0 0 -1
    outer loop
      vertex -2.641 0.561361 -4
      vertex -1.56504 0.332658 -4
      vertex -1.6 0 -4
    endloop
  endfacet
  facet normal -0 0 -1
    outer loop
      vertex -1.46167 -0.650778 -4
      vertex -2.46657 -1.09819 -4
      vertex -1.56504 -0.332658 -4
    endloop
  endfacet
  facet normal 0 0 -1
    outer loop
      vertex -2.641 -0.561361 -4
      vertex -1.56504 -0.332658 -4
      vertex -2.46657 -1.09819 -4
    endloop
  endfacet
  facet normal 0 0 -1
    outer loop
      vertex -1.29443 0.940456 -4
      vertex -2.18435 1.58702 -4
      vertex -1.80665 2.00649 -4
    endloop
  endfacet
  facet normal -0 0 -1
    outer loop
      vertex -1.56504 -0.332658 -4
      vertex -2.641 -0.561361 -4
      vertex -1.6 0 -4
    endloop
  endfacet
  facet normal 0 0 -1
    outer loop
      vertex -1.46167 0.650778 -4
      vertex -2.46657 1.09819 -4
      vertex -2.18435 1.58702 -4
    endloop
  endfacet
  facet normal 0 0 -1
    outer loop
      vertex -2.7 0 -4
      vertex -1.6 0 -4
      vertex -2.641 -0.561361 -4
    endloop
  endfacet
  facet normal 0 0 -1
    outer loop
      vertex -1.56504 0.332658 -4
      vertex -2.641 0.561361 -4
      vertex -2.46657 1.09819 -4
    endloop
  endfacet
  facet normal 0 0 -1
    outer loop
      vertex -1.6 0 -4
      vertex -2.7 0 -4
      vertex -2.641 0.561361 -4
    endloop
  endfacet
  facet normal -0.86603 -0.499992 0
    outer loop
      vertex -2.18435 -1.58702 -4
      vertex -2.46657 -1.09819 4
      vertex -2.46657 -1.09819 -4
    endloop
  endfacet
  facet normal -0.86603 -0.499992 0
    outer loop
      vertex -2.46657 -1.09819 4
      vertex -2.18435 -1.58702 -4
      vertex -2.18435 -1.58702 4
    endloop
  endfacet
  facet normal -0.743138 -0.669138 0
    outer loop
      vertex -1.80665 -2.00649 -4
      vertex -2.18435 -1.58702 4
      vertex -2.18435 -1.58702 -4
    endloop
  endfacet
  facet normal -0.743138 -0.669138 0
    outer loop
      vertex -2.18435 -1.58702 4
      vertex -1.80665 -2.00649 -4
      vertex -1.80665 -2.00649 4
    endloop
  endfacet
  facet normal -0.994522 -0.104526 0
    outer loop
      vertex -2.641 -0.561361 -4
      vertex -2.7 0 4
      vertex -2.7 0 -4
    endloop
  endfacet
  facet normal -0.994522 -0.104526 0
    outer loop
      vertex -2.7 0 4
      vertex -2.641 -0.561361 -4
      vertex -2.641 -0.561361 4
    endloop
  endfacet
  facet normal 0 1 -0
    outer loop
      vertex 0.282227 2.68521 -4
      vertex -0.282227 2.68521 4
      vertex 0.282227 2.68521 4
    endloop
  endfacet
  facet normal 0 1 0
    outer loop
      vertex -0.282227 2.68521 4
      vertex 0.282227 2.68521 -4
      vertex -0.282227 2.68521 -4
    endloop
  endfacet
  facet normal 0.994523 -0.104517 0
    outer loop
      vertex -1.6 0 4
      vertex -1.56504 0.332658 -4
      vertex -1.56504 0.332658 4
    endloop
  endfacet
  facet normal 0.994523 -0.104517 0
    outer loop
      vertex -1.56504 0.332658 -4
      vertex -1.6 0 4
      vertex -1.6 0 -4
    endloop
  endfacet
  facet normal -0.951051 -0.309035 0
    outer loop
      vertex 1.56504 0.332658 -4
      vertex 1.46167 0.650778 4
      vertex 1.46167 0.650778 -4
    endloop
  endfacet
  facet normal -0.951051 -0.309035 0
    outer loop
      vertex 1.46167 0.650778 4
      vertex 1.56504 0.332658 -4
      vertex 1.56504 0.332658 4
    endloop
  endfacet
  facet normal -0.994523 -0.104517 0
    outer loop
      vertex 1.6 0 -4
      vertex 1.56504 0.332658 4
      vertex 1.56504 0.332658 -4
    endloop
  endfacet
  facet normal -0.994523 -0.104517 0
    outer loop
      vertex 1.56504 0.332658 4
      vertex 1.6 0 -4
      vertex 1.6 0 4
    endloop
  endfacet
  facet normal -0.866033 -0.499987 0
    outer loop
      vertex 1.46167 0.650778 -4
      vertex 1.29443 0.940456 4
      vertex 1.29443 0.940456 -4
    endloop
  endfacet
  facet normal -0.866033 -0.499987 0
    outer loop
      vertex 1.29443 0.940456 4
      vertex 1.46167 0.650778 -4
      vertex 1.46167 0.650778 4
    endloop
  endfacet
  facet normal 0.866033 0.499987 0
    outer loop
      vertex -1.29443 -0.940456 4
      vertex -1.46167 -0.650778 -4
      vertex -1.46167 -0.650778 4
    endloop
  endfacet
  facet normal 0.866033 0.499987 0
    outer loop
      vertex -1.46167 -0.650778 -4
      vertex -1.29443 -0.940456 4
      vertex -1.29443 -0.940456 -4
    endloop
  endfacet
  facet normal 0.587784 0.809018 -0
    outer loop
      vertex -0.799999 -1.38564 -4
      vertex -1.07061 -1.18903 4
      vertex -0.799999 -1.38564 4
    endloop
  endfacet
  facet normal 0.587784 0.809018 0
    outer loop
      vertex -1.07061 -1.18903 4
      vertex -0.799999 -1.38564 -4
      vertex -1.07061 -1.18903 -4
    endloop
  endfacet
  facet normal -0.994523 0.104517 0
    outer loop
      vertex 1.56504 -0.332658 -4
      vertex 1.6 0 4
      vertex 1.6 0 -4
    endloop
  endfacet
  facet normal -0.994523 0.104517 0
    outer loop
      vertex 1.6 0 4
      vertex 1.56504 -0.332658 -4
      vertex 1.56504 -0.332658 4
    endloop
  endfacet
  facet normal -0.74314 -0.669136 0
    outer loop
      vertex 1.29443 0.940456 -4
      vertex 1.07061 1.18903 4
      vertex 1.07061 1.18903 -4
    endloop
  endfacet
  facet normal -0.74314 -0.669136 0
    outer loop
      vertex 1.07061 1.18903 4
      vertex 1.29443 0.940456 -4
      vertex 1.29443 0.940456 4
    endloop
  endfacet
  facet normal -0.866033 0.499987 0
    outer loop
      vertex 1.29443 -0.940456 -4
      vertex 1.46167 -0.650778 4
      vertex 1.46167 -0.650778 -4
    endloop
  endfacet
  facet normal -0.866033 0.499987 0
    outer loop
      vertex 1.46167 -0.650778 4
      vertex 1.29443 -0.940456 -4
      vertex 1.29443 -0.940456 4
    endloop
  endfacet
  facet normal -0.587784 -0.809018 0
    outer loop
      vertex 0.799999 1.38564 -4
      vertex 1.07061 1.18903 4
      vertex 0.799999 1.38564 4
    endloop
  endfacet
  facet normal -0.587784 -0.809018 -0
    outer loop
      vertex 1.07061 1.18903 4
      vertex 0.799999 1.38564 -4
      vertex 1.07061 1.18903 -4
    endloop
  endfacet
  facet normal 0.587784 -0.809018 0
    outer loop
      vertex -1.07061 1.18903 -4
      vertex -0.799999 1.38564 4
      vertex -1.07061 1.18903 4
    endloop
  endfacet
  facet normal 0.587784 -0.809018 0
    outer loop
      vertex -0.799999 1.38564 4
      vertex -1.07061 1.18903 -4
      vertex -0.799999 1.38564 -4
    endloop
  endfacet
  facet normal 0.207898 0.97815 -0
    outer loop
      vertex -0.167245 -1.59123 -4
      vertex -0.494427 -1.52169 4
      vertex -0.167245 -1.59123 4
    endloop
  endfacet
  facet normal 0.207898 0.97815 0
    outer loop
      vertex -0.494427 -1.52169 4
      vertex -0.167245 -1.59123 -4
      vertex -0.494427 -1.52169 -4
    endloop
  endfacet
  facet normal 0.951051 -0.309035 0
    outer loop
      vertex -1.56504 0.332658 4
      vertex -1.46167 0.650778 -4
      vertex -1.46167 0.650778 4
    endloop
  endfacet
  facet normal 0.951051 -0.309035 0
    outer loop
      vertex -1.46167 0.650778 -4
      vertex -1.56504 0.332658 4
      vertex -1.56504 0.332658 -4
    endloop
  endfacet
  facet normal -0.207898 0.97815 0
    outer loop
      vertex 0.494427 -1.52169 -4
      vertex 0.167245 -1.59123 4
      vertex 0.494427 -1.52169 4
    endloop
  endfacet
  facet normal -0.207898 0.97815 0
    outer loop
      vertex 0.167245 -1.59123 4
      vertex 0.494427 -1.52169 -4
      vertex 0.167245 -1.59123 -4
    endloop
  endfacet
  facet normal 0.994523 0.104517 0
    outer loop
      vertex -1.56504 -0.332658 4
      vertex -1.6 0 -4
      vertex -1.6 0 4
    endloop
  endfacet
  facet normal 0.994523 0.104517 0
    outer loop
      vertex -1.6 0 -4
      vertex -1.56504 -0.332658 4
      vertex -1.56504 -0.332658 -4
    endloop
  endfacet
  facet normal -0.587784 0.809018 0
    outer loop
      vertex 1.07061 -1.18903 -4
      vertex 0.799999 -1.38564 4
      vertex 1.07061 -1.18903 4
    endloop
  endfacet
  facet normal -0.587784 0.809018 0
    outer loop
      vertex 0.799999 -1.38564 4
      vertex 1.07061 -1.18903 -4
      vertex 0.799999 -1.38564 -4
    endloop
  endfacet
  facet normal 0 1 -0
    outer loop
      vertex 0.167245 -1.59123 -4
      vertex -0.167245 -1.59123 4
      vertex 0.167245 -1.59123 4
    endloop
  endfacet
  facet normal 0 1 0
    outer loop
      vertex -0.167245 -1.59123 4
      vertex 0.167245 -1.59123 -4
      vertex -0.167245 -1.59123 -4
    endloop
  endfacet
  facet normal 0.406738 0.913545 -0
    outer loop
      vertex -0.494427 -1.52169 -4
      vertex -0.799999 -1.38564 4
      vertex -0.494427 -1.52169 4
    endloop
  endfacet
  facet normal 0.406738 0.913545 0
    outer loop
      vertex -0.799999 -1.38564 4
      vertex -0.494427 -1.52169 -4
      vertex -0.799999 -1.38564 -4
    endloop
  endfacet
  facet normal 0.406738 -0.913545 0
    outer loop
      vertex -0.799999 1.38564 -4
      vertex -0.494427 1.52169 4
      vertex -0.799999 1.38564 4
    endloop
  endfacet
  facet normal 0.406738 -0.913545 0
    outer loop
      vertex -0.494427 1.52169 4
      vertex -0.799999 1.38564 -4
      vertex -0.494427 1.52169 -4
    endloop
  endfacet
  facet normal -0.406738 0.913545 0
    outer loop
      vertex 0.799999 -1.38564 -4
      vertex 0.494427 -1.52169 4
      vertex 0.799999 -1.38564 4
    endloop
  endfacet
  facet normal -0.406738 0.913545 0
    outer loop
      vertex 0.494427 -1.52169 4
      vertex 0.799999 -1.38564 -4
      vertex 0.494427 -1.52169 -4
    endloop
  endfacet
  facet normal 0.951051 0.309035 0
    outer loop
      vertex -1.46167 -0.650778 4
      vertex -1.56504 -0.332658 -4
      vertex -1.56504 -0.332658 4
    endloop
  endfacet
  facet normal 0.951051 0.309035 0
    outer loop
      vertex -1.56504 -0.332658 -4
      vertex -1.46167 -0.650778 4
      vertex -1.46167 -0.650778 -4
    endloop
  endfacet
  facet normal 0.207898 -0.97815 0
    outer loop
      vertex -0.494427 1.52169 -4
      vertex -0.167245 1.59123 4
      vertex -0.494427 1.52169 4
    endloop
  endfacet
  facet normal 0.207898 -0.97815 0
    outer loop
      vertex -0.167245 1.59123 4
      vertex -0.494427 1.52169 -4
      vertex -0.167245 1.59123 -4
    endloop
  endfacet
  facet normal -0.406738 -0.913545 0
    outer loop
      vertex 0.494427 1.52169 -4
      vertex 0.799999 1.38564 4
      vertex 0.494427 1.52169 4
    endloop
  endfacet
  facet normal -0.406738 -0.913545 -0
    outer loop
      vertex 0.799999 1.38564 4
      vertex 0.494427 1.52169 -4
      vertex 0.799999 1.38564 -4
    endloop
  endfacet
  facet normal 0.74314 -0.669136 0
    outer loop
      vertex -1.29443 0.940456 4
      vertex -1.07061 1.18903 -4
      vertex -1.07061 1.18903 4
    endloop
  endfacet
  facet normal 0.74314 -0.669136 0
    outer loop
      vertex -1.07061 1.18903 -4
      vertex -1.29443 0.940456 4
      vertex -1.29443 0.940456 -4
    endloop
  endfacet
  facet normal -0.74314 0.669136 0
    outer loop
      vertex 1.07061 -1.18903 -4
      vertex 1.29443 -0.940456 4
      vertex 1.29443 -0.940456 -4
    endloop
  endfacet
  facet normal -0.74314 0.669136 0
    outer loop
      vertex 1.29443 -0.940456 4
      vertex 1.07061 -1.18903 -4
      vertex 1.07061 -1.18903 4
    endloop
  endfacet
  facet normal -0.951051 0.309035 0
    outer loop
      vertex 1.46167 -0.650778 -4
      vertex 1.56504 -0.332658 4
      vertex 1.56504 -0.332658 -4
    endloop
  endfacet
  facet normal -0.951051 0.309035 0
    outer loop
      vertex 1.56504 -0.332658 4
      vertex 1.46167 -0.650778 -4
      vertex 1.46167 -0.650778 4
    endloop
  endfacet
  facet normal 0 -1 0
    outer loop
      vertex -0.167245 1.59123 -4
      vertex 0.167245 1.59123 4
      vertex -0.167245 1.59123 4
    endloop
  endfacet
  facet normal 0 -1 -0
    outer loop
      vertex 0.167245 1.59123 4
      vertex -0.167245 1.59123 -4
      vertex 0.167245 1.59123 -4
    endloop
  endfacet
  facet normal -0.207898 -0.97815 0
    outer loop
      vertex 0.167245 1.59123 -4
      vertex 0.494427 1.52169 4
      vertex 0.167245 1.59123 4
    endloop
  endfacet
  facet normal -0.207898 -0.97815 -0
    outer loop
      vertex 0.494427 1.52169 4
      vertex 0.167245 1.59123 -4
      vertex 0.494427 1.52169 -4
    endloop
  endfacet
  facet normal 0.74314 0.669136 0
    outer loop
      vertex -1.07061 -1.18903 4
      vertex -1.29443 -0.940456 -4
      vertex -1.29443 -0.940456 4
    endloop
  endfacet
  facet normal 0.74314 0.669136 0
    outer loop
      vertex -1.29443 -0.940456 -4
      vertex -1.07061 -1.18903 4
      vertex -1.07061 -1.18903 -4
    endloop
  endfacet
  facet normal 0.866033 -0.499987 0
    outer loop
      vertex -1.46167 0.650778 4
      vertex -1.29443 0.940456 -4
      vertex -1.29443 0.940456 4
    endloop
  endfacet
  facet normal 0.866033 -0.499987 0
    outer loop
      vertex -1.29443 0.940456 -4
      vertex -1.46167 0.650778 4
      vertex -1.46167 0.650778 -4
    endloop
  endfacet
endsolid OpenSCAD_Model
