solid OpenSCAD_Model
  facet normal 0 0 -1
    outer loop
      vertex 11.275 -1.275 3.3
      vertex 10.35 -0.15 3.3
      vertex 11.275 1.275 3.3
    endloop
  endfacet
  facet normal 0 0 -1
    outer loop
      vertex 11.275 -1.275 3.3
      vertex 9.65 -0.15 3.3
      vertex 10.35 -0.15 3.3
    endloop
  endfacet
  facet normal 0 0 -1
    outer loop
      vertex 9.65 -0.15 3.3
      vertex 7.85 -0.15 3.3
      vertex 9.65 0.15 3.3
    endloop
  endfacet
  facet normal 0 0 -1
    outer loop
      vertex 11.275 -1.275 3.3
      vertex 7.85 -0.15 3.3
      vertex 9.65 -0.15 3.3
    endloop
  endfacet
  facet normal 0 0 -1
    outer loop
      vertex 11.275 -1.275 3.3
      vertex 7.15 -0.15 3.3
      vertex 7.85 -0.15 3.3
    endloop
  endfacet
  facet normal 0 0 -1
    outer loop
      vertex 7.15 -0.15 3.3
      vertex 5.35 -0.15 3.3
      vertex 7.15 0.15 3.3
    endloop
  endfacet
  facet normal 0 0 -1
    outer loop
      vertex 11.275 -1.275 3.3
      vertex 5.35 -0.15 3.3
      vertex 7.15 -0.15 3.3
    endloop
  endfacet
  facet normal 0 0 -1
    outer loop
      vertex 11.275 -1.275 3.3
      vertex 4.65 -0.15 3.3
      vertex 5.35 -0.15 3.3
    endloop
  endfacet
  facet normal 0 0 -1
    outer loop
      vertex 4.65 -0.15 3.3
      vertex 2.85 -0.15 3.3
      vertex 4.65 0.15 3.3
    endloop
  endfacet
  facet normal 0 0 -1
    outer loop
      vertex -1.275 -1.275 3.3
      vertex 4.65 -0.15 3.3
      vertex 11.275 -1.275 3.3
    endloop
  endfacet
  facet normal -0 0 -1
    outer loop
      vertex 4.65 -0.15 3.3
      vertex -1.275 -1.275 3.3
      vertex 2.85 -0.15 3.3
    endloop
  endfacet
  facet normal 0 0 -1
    outer loop
      vertex 2.15 -0.15 3.3
      vertex 0.349999 -0.15 3.3
      vertex 2.15 0.15 3.3
    endloop
  endfacet
  facet normal -0 0 -1
    outer loop
      vertex 2.85 -0.15 3.3
      vertex -1.275 -1.275 3.3
      vertex 2.15 -0.15 3.3
    endloop
  endfacet
  facet normal -0 0 -1
    outer loop
      vertex 2.15 -0.15 3.3
      vertex -1.275 -1.275 3.3
      vertex 0.349999 -0.15 3.3
    endloop
  endfacet
  facet normal -0 0 -1
    outer loop
      vertex -0.349999 -0.15 3.3
      vertex -1.275 -1.275 3.3
      vertex -0.349999 0.15 3.3
    endloop
  endfacet
  facet normal -0 0 -1
    outer loop
      vertex 0.349999 -0.15 3.3
      vertex -1.275 -1.275 3.3
      vertex -0.349999 -0.15 3.3
    endloop
  endfacet
  facet normal 0 0 -1
    outer loop
      vertex 10.35 0.15 3.3
      vertex 11.275 1.275 3.3
      vertex 10.35 -0.15 3.3
    endloop
  endfacet
  facet normal 0 0 -1
    outer loop
      vertex 9.65 0.15 3.3
      vertex 11.275 1.275 3.3
      vertex 10.35 0.15 3.3
    endloop
  endfacet
  facet normal 0 0 -1
    outer loop
      vertex 7.85 0.15 3.3
      vertex 9.65 0.15 3.3
      vertex 7.85 -0.15 3.3
    endloop
  endfacet
  facet normal 0 0 -1
    outer loop
      vertex 9.65 0.15 3.3
      vertex 7.85 0.15 3.3
      vertex 11.275 1.275 3.3
    endloop
  endfacet
  facet normal 0 0 -1
    outer loop
      vertex 7.15 0.15 3.3
      vertex 11.275 1.275 3.3
      vertex 7.85 0.15 3.3
    endloop
  endfacet
  facet normal 0 0 -1
    outer loop
      vertex 5.35 0.15 3.3
      vertex 7.15 0.15 3.3
      vertex 5.35 -0.15 3.3
    endloop
  endfacet
  facet normal 0 0 -1
    outer loop
      vertex 7.15 0.15 3.3
      vertex 5.35 0.15 3.3
      vertex 11.275 1.275 3.3
    endloop
  endfacet
  facet normal 0 0 -1
    outer loop
      vertex 4.65 0.15 3.3
      vertex 11.275 1.275 3.3
      vertex 5.35 0.15 3.3
    endloop
  endfacet
  facet normal 0 0 -1
    outer loop
      vertex 2.85 0.15 3.3
      vertex 4.65 0.15 3.3
      vertex 2.85 -0.15 3.3
    endloop
  endfacet
  facet normal 0 0 -1
    outer loop
      vertex -1.275 1.275 3.3
      vertex 4.65 0.15 3.3
      vertex 2.85 0.15 3.3
    endloop
  endfacet
  facet normal 0 0 -1
    outer loop
      vertex -1.275 1.275 3.3
      vertex 2.85 0.15 3.3
      vertex 2.15 0.15 3.3
    endloop
  endfacet
  facet normal 0 0 -1
    outer loop
      vertex 0.349999 0.15 3.3
      vertex 2.15 0.15 3.3
      vertex 0.349999 -0.15 3.3
    endloop
  endfacet
  facet normal 0 0 -1
    outer loop
      vertex -1.275 1.275 3.3
      vertex 2.15 0.15 3.3
      vertex 0.349999 0.15 3.3
    endloop
  endfacet
  facet normal 0 0 -1
    outer loop
      vertex -1.275 1.275 3.3
      vertex 0.349999 0.15 3.3
      vertex -0.349999 0.15 3.3
    endloop
  endfacet
  facet normal 0 0 -1
    outer loop
      vertex 4.65 0.15 3.3
      vertex -1.275 1.275 3.3
      vertex 11.275 1.275 3.3
    endloop
  endfacet
  facet normal 0 0 -1
    outer loop
      vertex -1.275 1.275 3.3
      vertex -0.349999 0.15 3.3
      vertex -1.275 -1.275 3.3
    endloop
  endfacet
  facet normal -1 0 0
    outer loop
      vertex -1.275 -1.275 3.3
      vertex -1.275 1.275 11.7
      vertex -1.275 1.275 3.3
    endloop
  endfacet
  facet normal -1 -0 0
    outer loop
      vertex -1.275 1.275 11.7
      vertex -1.275 -1.275 3.3
      vertex -1.275 -1.275 11.7
    endloop
  endfacet
  facet normal 0 0 1
    outer loop
      vertex 11.275 1.275 11.7
      vertex 10.7083 0.708333 11.7
      vertex 11.275 -1.275 11.7
    endloop
  endfacet
  facet normal 0 0 1
    outer loop
      vertex 11.275 1.275 11.7
      vertex 9.29167 0.708333 11.7
      vertex 10.7083 0.708333 11.7
    endloop
  endfacet
  facet normal 0 0 1
    outer loop
      vertex 9.29167 0.708333 11.7
      vertex 8.20833 0.708333 11.7
      vertex 9.29167 -0.708333 11.7
    endloop
  endfacet
  facet normal 0 0 1
    outer loop
      vertex 11.275 1.275 11.7
      vertex 8.20833 0.708333 11.7
      vertex 9.29167 0.708333 11.7
    endloop
  endfacet
  facet normal 0 0 1
    outer loop
      vertex 11.275 1.275 11.7
      vertex 6.79167 0.708333 11.7
      vertex 8.20833 0.708333 11.7
    endloop
  endfacet
  facet normal 0 0 1
    outer loop
      vertex 6.79167 0.708333 11.7
      vertex 5.70833 0.708333 11.7
      vertex 6.79167 -0.708333 11.7
    endloop
  endfacet
  facet normal 0 0 1
    outer loop
      vertex 11.275 1.275 11.7
      vertex 5.70833 0.708333 11.7
      vertex 6.79167 0.708333 11.7
    endloop
  endfacet
  facet normal 0 0 1
    outer loop
      vertex 11.275 1.275 11.7
      vertex 4.29167 0.708333 11.7
      vertex 5.70833 0.708333 11.7
    endloop
  endfacet
  facet normal 0 0 1
    outer loop
      vertex 4.29167 0.708333 11.7
      vertex 3.20833 0.708333 11.7
      vertex 4.29167 -0.708333 11.7
    endloop
  endfacet
  facet normal -0 0 1
    outer loop
      vertex -1.275 1.275 11.7
      vertex 4.29167 0.708333 11.7
      vertex 11.275 1.275 11.7
    endloop
  endfacet
  facet normal 0 0 1
    outer loop
      vertex 4.29167 0.708333 11.7
      vertex -1.275 1.275 11.7
      vertex 3.20833 0.708333 11.7
    endloop
  endfacet
  facet normal 0 0 1
    outer loop
      vertex 1.79167 0.708333 11.7
      vertex 0.708333 0.708333 11.7
      vertex 1.79167 -0.708333 11.7
    endloop
  endfacet
  facet normal 0 0 1
    outer loop
      vertex 3.20833 0.708333 11.7
      vertex -1.275 1.275 11.7
      vertex 1.79167 0.708333 11.7
    endloop
  endfacet
  facet normal 0 0 1
    outer loop
      vertex 1.79167 0.708333 11.7
      vertex -1.275 1.275 11.7
      vertex 0.708333 0.708333 11.7
    endloop
  endfacet
  facet normal 0 0 1
    outer loop
      vertex -0.708333 0.708333 11.7
      vertex -1.275 1.275 11.7
      vertex -0.708333 -0.708333 11.7
    endloop
  endfacet
  facet normal 0 0 1
    outer loop
      vertex 0.708333 0.708333 11.7
      vertex -1.275 1.275 11.7
      vertex -0.708333 0.708333 11.7
    endloop
  endfacet
  facet normal -0 0 1
    outer loop
      vertex 10.7083 -0.708333 11.7
      vertex 11.275 -1.275 11.7
      vertex 10.7083 0.708333 11.7
    endloop
  endfacet
  facet normal -0 0 1
    outer loop
      vertex 9.29167 -0.708333 11.7
      vertex 11.275 -1.275 11.7
      vertex 10.7083 -0.708333 11.7
    endloop
  endfacet
  facet normal 0 0 1
    outer loop
      vertex 8.20833 -0.708333 11.7
      vertex 9.29167 -0.708333 11.7
      vertex 8.20833 0.708333 11.7
    endloop
  endfacet
  facet normal -0 0 1
    outer loop
      vertex 8.20833 -0.708333 11.7
      vertex 11.275 -1.275 11.7
      vertex 9.29167 -0.708333 11.7
    endloop
  endfacet
  facet normal -0 0 1
    outer loop
      vertex 6.79167 -0.708333 11.7
      vertex 11.275 -1.275 11.7
      vertex 8.20833 -0.708333 11.7
    endloop
  endfacet
  facet normal 0 0 1
    outer loop
      vertex 5.70833 -0.708333 11.7
      vertex 6.79167 -0.708333 11.7
      vertex 5.70833 0.708333 11.7
    endloop
  endfacet
  facet normal -0 0 1
    outer loop
      vertex 5.70833 -0.708333 11.7
      vertex 11.275 -1.275 11.7
      vertex 6.79167 -0.708333 11.7
    endloop
  endfacet
  facet normal -0 0 1
    outer loop
      vertex 4.29167 -0.708333 11.7
      vertex 11.275 -1.275 11.7
      vertex 5.70833 -0.708333 11.7
    endloop
  endfacet
  facet normal 0 0 1
    outer loop
      vertex 3.20833 -0.708333 11.7
      vertex 4.29167 -0.708333 11.7
      vertex 3.20833 0.708333 11.7
    endloop
  endfacet
  facet normal 0 0 1
    outer loop
      vertex -1.275 -1.275 11.7
      vertex 4.29167 -0.708333 11.7
      vertex 3.20833 -0.708333 11.7
    endloop
  endfacet
  facet normal 0 0 1
    outer loop
      vertex -1.275 -1.275 11.7
      vertex 3.20833 -0.708333 11.7
      vertex 1.79167 -0.708333 11.7
    endloop
  endfacet
  facet normal 0 0 1
    outer loop
      vertex 0.708333 -0.708333 11.7
      vertex 1.79167 -0.708333 11.7
      vertex 0.708333 0.708333 11.7
    endloop
  endfacet
  facet normal 0 0 1
    outer loop
      vertex -1.275 -1.275 11.7
      vertex 1.79167 -0.708333 11.7
      vertex 0.708333 -0.708333 11.7
    endloop
  endfacet
  facet normal 0 0 1
    outer loop
      vertex -1.275 -1.275 11.7
      vertex 0.708333 -0.708333 11.7
      vertex -0.708333 -0.708333 11.7
    endloop
  endfacet
  facet normal 0 0 1
    outer loop
      vertex 4.29167 -0.708333 11.7
      vertex -1.275 -1.275 11.7
      vertex 11.275 -1.275 11.7
    endloop
  endfacet
  facet normal 0 0 1
    outer loop
      vertex -1.275 -1.275 11.7
      vertex -0.708333 -0.708333 11.7
      vertex -1.275 1.275 11.7
    endloop
  endfacet
  facet normal 0 1 -0
    outer loop
      vertex 11.275 1.275 3.3
      vertex -1.275 1.275 11.7
      vertex 11.275 1.275 11.7
    endloop
  endfacet
  facet normal 0 1 0
    outer loop
      vertex -1.275 1.275 11.7
      vertex 11.275 1.275 3.3
      vertex -1.275 1.275 3.3
    endloop
  endfacet
  facet normal 0 -1 0
    outer loop
      vertex -1.275 -1.275 3.3
      vertex 11.275 -1.275 11.7
      vertex -1.275 -1.275 11.7
    endloop
  endfacet
  facet normal 0 -1 -0
    outer loop
      vertex 11.275 -1.275 11.7
      vertex -1.275 -1.275 3.3
      vertex 11.275 -1.275 3.3
    endloop
  endfacet
  facet normal -0 0 1
    outer loop
      vertex -0.45 0.45 4.3
      vertex 0.45 -0.45 4.3
      vertex 0.45 0.45 4.3
    endloop
  endfacet
  facet normal 0 0 1
    outer loop
      vertex 0.45 -0.45 4.3
      vertex -0.45 0.45 4.3
      vertex -0.45 -0.45 4.3
    endloop
  endfacet
  facet normal 1 -0 0
    outer loop
      vertex -0.45 -0.45 11.2
      vertex -0.45 0.45 4.3
      vertex -0.45 0.45 11.2
    endloop
  endfacet
  facet normal 1 0 0
    outer loop
      vertex -0.45 0.45 4.3
      vertex -0.45 -0.45 11.2
      vertex -0.45 -0.45 4.3
    endloop
  endfacet
  facet normal 0 -1 0
    outer loop
      vertex -0.45 0.45 4.3
      vertex 0.45 0.45 11.2
      vertex -0.45 0.45 11.2
    endloop
  endfacet
  facet normal 0 -1 -0
    outer loop
      vertex 0.45 0.45 11.2
      vertex -0.45 0.45 4.3
      vertex 0.45 0.45 4.3
    endloop
  endfacet
  facet normal -1 0 0
    outer loop
      vertex 0.45 -0.45 4.3
      vertex 0.45 0.45 11.2
      vertex 0.45 0.45 4.3
    endloop
  endfacet
  facet normal -1 -0 0
    outer loop
      vertex 0.45 0.45 11.2
      vertex 0.45 -0.45 4.3
      vertex 0.45 -0.45 11.2
    endloop
  endfacet
  facet normal 0 1 -0
    outer loop
      vertex 0.45 -0.45 4.3
      vertex -0.45 -0.45 11.2
      vertex 0.45 -0.45 11.2
    endloop
  endfacet
  facet normal 0 1 0
    outer loop
      vertex -0.45 -0.45 11.2
      vertex 0.45 -0.45 4.3
      vertex -0.45 -0.45 4.3
    endloop
  endfacet
  facet normal 0 -0.923077 0.384615
    outer loop
      vertex -0.5 0.5 11.2
      vertex 0.708333 0.708333 11.7
      vertex -0.708333 0.708333 11.7
    endloop
  endfacet
  facet normal 0 -0.923077 0.384615
    outer loop
      vertex 0.708333 0.708333 11.7
      vertex -0.5 0.5 11.2
      vertex 0.5 0.5 11.2
    endloop
  endfacet
  facet normal 0 0 1
    outer loop
      vertex 0.5 0.5 11.2
      vertex 0.45 0.45 11.2
      vertex 0.5 -0.5 11.2
    endloop
  endfacet
  facet normal 0 0 1
    outer loop
      vertex 0.5 0.5 11.2
      vertex -0.45 0.45 11.2
      vertex 0.45 0.45 11.2
    endloop
  endfacet
  facet normal 0 0 1
    outer loop
      vertex -0.45 0.45 11.2
      vertex -0.5 0.5 11.2
      vertex -0.45 -0.45 11.2
    endloop
  endfacet
  facet normal -0 0 1
    outer loop
      vertex -0.5 0.5 11.2
      vertex -0.45 0.45 11.2
      vertex 0.5 0.5 11.2
    endloop
  endfacet
  facet normal -0 0 1
    outer loop
      vertex 0.45 -0.45 11.2
      vertex 0.5 -0.5 11.2
      vertex 0.45 0.45 11.2
    endloop
  endfacet
  facet normal -0 0 1
    outer loop
      vertex -0.45 -0.45 11.2
      vertex 0.5 -0.5 11.2
      vertex 0.45 -0.45 11.2
    endloop
  endfacet
  facet normal 0 0 1
    outer loop
      vertex -0.45 -0.45 11.2
      vertex -0.5 -0.5 11.2
      vertex 0.5 -0.5 11.2
    endloop
  endfacet
  facet normal 0 0 1
    outer loop
      vertex -0.5 -0.5 11.2
      vertex -0.45 -0.45 11.2
      vertex -0.5 0.5 11.2
    endloop
  endfacet
  facet normal 0.923077 0 0.384615
    outer loop
      vertex -0.708333 0.708333 11.7
      vertex -0.5 -0.5 11.2
      vertex -0.5 0.5 11.2
    endloop
  endfacet
  facet normal 0.923077 0 0.384615
    outer loop
      vertex -0.5 -0.5 11.2
      vertex -0.708333 0.708333 11.7
      vertex -0.708333 -0.708333 11.7
    endloop
  endfacet
  facet normal -0.923077 0 0.384615
    outer loop
      vertex 0.5 -0.5 11.2
      vertex 0.708333 0.708333 11.7
      vertex 0.5 0.5 11.2
    endloop
  endfacet
  facet normal -0.923077 0 0.384615
    outer loop
      vertex 0.708333 0.708333 11.7
      vertex 0.5 -0.5 11.2
      vertex 0.708333 -0.708333 11.7
    endloop
  endfacet
  facet normal 0 0.923077 0.384615
    outer loop
      vertex 0.5 -0.5 11.2
      vertex -0.708333 -0.708333 11.7
      vertex 0.708333 -0.708333 11.7
    endloop
  endfacet
  facet normal 0 0.923077 0.384615
    outer loop
      vertex -0.708333 -0.708333 11.7
      vertex 0.5 -0.5 11.2
      vertex -0.5 -0.5 11.2
    endloop
  endfacet
  facet normal 0 0 -1
    outer loop
      vertex -0.349999 -0.15 0
      vertex 0.349999 0.15 0
      vertex 0.349999 -0.15 0
    endloop
  endfacet
  facet normal -0 0 -1
    outer loop
      vertex 0.349999 0.15 0
      vertex -0.349999 -0.15 0
      vertex -0.349999 0.15 0
    endloop
  endfacet
  facet normal -1 0 0
    outer loop
      vertex -0.349999 -0.15 0
      vertex -0.349999 0.15 3.3
      vertex -0.349999 0.15 0
    endloop
  endfacet
  facet normal -1 -0 0
    outer loop
      vertex -0.349999 0.15 3.3
      vertex -0.349999 -0.15 0
      vertex -0.349999 -0.15 3.3
    endloop
  endfacet
  facet normal 0 1 -0
    outer loop
      vertex 0.349999 0.15 0
      vertex -0.349999 0.15 3.3
      vertex 0.349999 0.15 3.3
    endloop
  endfacet
  facet normal 0 1 0
    outer loop
      vertex -0.349999 0.15 3.3
      vertex 0.349999 0.15 0
      vertex -0.349999 0.15 0
    endloop
  endfacet
  facet normal 1 -0 0
    outer loop
      vertex 0.349999 -0.15 3.3
      vertex 0.349999 0.15 0
      vertex 0.349999 0.15 3.3
    endloop
  endfacet
  facet normal 1 0 0
    outer loop
      vertex 0.349999 0.15 0
      vertex 0.349999 -0.15 3.3
      vertex 0.349999 -0.15 0
    endloop
  endfacet
  facet normal 0 -1 0
    outer loop
      vertex -0.349999 -0.15 0
      vertex 0.349999 -0.15 3.3
      vertex -0.349999 -0.15 3.3
    endloop
  endfacet
  facet normal 0 -1 -0
    outer loop
      vertex 0.349999 -0.15 3.3
      vertex -0.349999 -0.15 0
      vertex 0.349999 -0.15 0
    endloop
  endfacet
  facet normal -0 0 1
    outer loop
      vertex 2.05 0.45 4.3
      vertex 2.95 -0.45 4.3
      vertex 2.95 0.45 4.3
    endloop
  endfacet
  facet normal 0 0 1
    outer loop
      vertex 2.95 -0.45 4.3
      vertex 2.05 0.45 4.3
      vertex 2.05 -0.45 4.3
    endloop
  endfacet
  facet normal 1 -0 0
    outer loop
      vertex 2.05 -0.45 11.2
      vertex 2.05 0.45 4.3
      vertex 2.05 0.45 11.2
    endloop
  endfacet
  facet normal 1 0 0
    outer loop
      vertex 2.05 0.45 4.3
      vertex 2.05 -0.45 11.2
      vertex 2.05 -0.45 4.3
    endloop
  endfacet
  facet normal 0 -1 0
    outer loop
      vertex 2.05 0.45 4.3
      vertex 2.95 0.45 11.2
      vertex 2.05 0.45 11.2
    endloop
  endfacet
  facet normal 0 -1 -0
    outer loop
      vertex 2.95 0.45 11.2
      vertex 2.05 0.45 4.3
      vertex 2.95 0.45 4.3
    endloop
  endfacet
  facet normal -1 0 0
    outer loop
      vertex 2.95 -0.45 4.3
      vertex 2.95 0.45 11.2
      vertex 2.95 0.45 4.3
    endloop
  endfacet
  facet normal -1 -0 0
    outer loop
      vertex 2.95 0.45 11.2
      vertex 2.95 -0.45 4.3
      vertex 2.95 -0.45 11.2
    endloop
  endfacet
  facet normal 0 1 -0
    outer loop
      vertex 2.95 -0.45 4.3
      vertex 2.05 -0.45 11.2
      vertex 2.95 -0.45 11.2
    endloop
  endfacet
  facet normal 0 1 0
    outer loop
      vertex 2.05 -0.45 11.2
      vertex 2.95 -0.45 4.3
      vertex 2.05 -0.45 4.3
    endloop
  endfacet
  facet normal 0 -0.923077 0.384615
    outer loop
      vertex 2 0.5 11.2
      vertex 3.20833 0.708333 11.7
      vertex 1.79167 0.708333 11.7
    endloop
  endfacet
  facet normal 0 -0.923077 0.384615
    outer loop
      vertex 3.20833 0.708333 11.7
      vertex 2 0.5 11.2
      vertex 3 0.5 11.2
    endloop
  endfacet
  facet normal 0 0 1
    outer loop
      vertex 3 0.5 11.2
      vertex 2.95 0.45 11.2
      vertex 3 -0.5 11.2
    endloop
  endfacet
  facet normal 0 0 1
    outer loop
      vertex 3 0.5 11.2
      vertex 2.05 0.45 11.2
      vertex 2.95 0.45 11.2
    endloop
  endfacet
  facet normal 0 0 1
    outer loop
      vertex 2.05 0.45 11.2
      vertex 2 0.5 11.2
      vertex 2.05 -0.45 11.2
    endloop
  endfacet
  facet normal -0 0 1
    outer loop
      vertex 2 0.5 11.2
      vertex 2.05 0.45 11.2
      vertex 3 0.5 11.2
    endloop
  endfacet
  facet normal -0 0 1
    outer loop
      vertex 2.95 -0.45 11.2
      vertex 3 -0.5 11.2
      vertex 2.95 0.45 11.2
    endloop
  endfacet
  facet normal -0 0 1
    outer loop
      vertex 2.05 -0.45 11.2
      vertex 3 -0.5 11.2
      vertex 2.95 -0.45 11.2
    endloop
  endfacet
  facet normal 0 0 1
    outer loop
      vertex 2.05 -0.45 11.2
      vertex 2 -0.5 11.2
      vertex 3 -0.5 11.2
    endloop
  endfacet
  facet normal 0 0 1
    outer loop
      vertex 2 -0.5 11.2
      vertex 2.05 -0.45 11.2
      vertex 2 0.5 11.2
    endloop
  endfacet
  facet normal 0.923079 0 0.38461
    outer loop
      vertex 1.79167 0.708333 11.7
      vertex 2 -0.5 11.2
      vertex 2 0.5 11.2
    endloop
  endfacet
  facet normal 0.923079 0 0.38461
    outer loop
      vertex 2 -0.5 11.2
      vertex 1.79167 0.708333 11.7
      vertex 1.79167 -0.708333 11.7
    endloop
  endfacet
  facet normal -0.923079 0 0.38461
    outer loop
      vertex 3 -0.5 11.2
      vertex 3.20833 0.708333 11.7
      vertex 3 0.5 11.2
    endloop
  endfacet
  facet normal -0.923079 0 0.38461
    outer loop
      vertex 3.20833 0.708333 11.7
      vertex 3 -0.5 11.2
      vertex 3.20833 -0.708333 11.7
    endloop
  endfacet
  facet normal 0 0.923077 0.384615
    outer loop
      vertex 3 -0.5 11.2
      vertex 1.79167 -0.708333 11.7
      vertex 3.20833 -0.708333 11.7
    endloop
  endfacet
  facet normal 0 0.923077 0.384615
    outer loop
      vertex 1.79167 -0.708333 11.7
      vertex 3 -0.5 11.2
      vertex 2 -0.5 11.2
    endloop
  endfacet
  facet normal 0 0 -1
    outer loop
      vertex 2.15 -0.15 0
      vertex 2.85 0.15 0
      vertex 2.85 -0.15 0
    endloop
  endfacet
  facet normal -0 0 -1
    outer loop
      vertex 2.85 0.15 0
      vertex 2.15 -0.15 0
      vertex 2.15 0.15 0
    endloop
  endfacet
  facet normal -1 0 0
    outer loop
      vertex 2.15 -0.15 0
      vertex 2.15 0.15 3.3
      vertex 2.15 0.15 0
    endloop
  endfacet
  facet normal -1 -0 0
    outer loop
      vertex 2.15 0.15 3.3
      vertex 2.15 -0.15 0
      vertex 2.15 -0.15 3.3
    endloop
  endfacet
  facet normal 0 1 -0
    outer loop
      vertex 2.85 0.15 0
      vertex 2.15 0.15 3.3
      vertex 2.85 0.15 3.3
    endloop
  endfacet
  facet normal 0 1 0
    outer loop
      vertex 2.15 0.15 3.3
      vertex 2.85 0.15 0
      vertex 2.15 0.15 0
    endloop
  endfacet
  facet normal 1 -0 0
    outer loop
      vertex 2.85 -0.15 3.3
      vertex 2.85 0.15 0
      vertex 2.85 0.15 3.3
    endloop
  endfacet
  facet normal 1 0 0
    outer loop
      vertex 2.85 0.15 0
      vertex 2.85 -0.15 3.3
      vertex 2.85 -0.15 0
    endloop
  endfacet
  facet normal 0 -1 0
    outer loop
      vertex 2.15 -0.15 0
      vertex 2.85 -0.15 3.3
      vertex 2.15 -0.15 3.3
    endloop
  endfacet
  facet normal 0 -1 -0
    outer loop
      vertex 2.85 -0.15 3.3
      vertex 2.15 -0.15 0
      vertex 2.85 -0.15 0
    endloop
  endfacet
  facet normal -0 0 1
    outer loop
      vertex 4.55 0.45 4.3
      vertex 5.45 -0.45 4.3
      vertex 5.45 0.45 4.3
    endloop
  endfacet
  facet normal 0 0 1
    outer loop
      vertex 5.45 -0.45 4.3
      vertex 4.55 0.45 4.3
      vertex 4.55 -0.45 4.3
    endloop
  endfacet
  facet normal 1 -0 0
    outer loop
      vertex 4.55 -0.45 11.2
      vertex 4.55 0.45 4.3
      vertex 4.55 0.45 11.2
    endloop
  endfacet
  facet normal 1 0 0
    outer loop
      vertex 4.55 0.45 4.3
      vertex 4.55 -0.45 11.2
      vertex 4.55 -0.45 4.3
    endloop
  endfacet
  facet normal 0 -1 0
    outer loop
      vertex 4.55 0.45 4.3
      vertex 5.45 0.45 11.2
      vertex 4.55 0.45 11.2
    endloop
  endfacet
  facet normal 0 -1 -0
    outer loop
      vertex 5.45 0.45 11.2
      vertex 4.55 0.45 4.3
      vertex 5.45 0.45 4.3
    endloop
  endfacet
  facet normal -1 0 0
    outer loop
      vertex 5.45 -0.45 4.3
      vertex 5.45 0.45 11.2
      vertex 5.45 0.45 4.3
    endloop
  endfacet
  facet normal -1 -0 0
    outer loop
      vertex 5.45 0.45 11.2
      vertex 5.45 -0.45 4.3
      vertex 5.45 -0.45 11.2
    endloop
  endfacet
  facet normal 0 1 -0
    outer loop
      vertex 5.45 -0.45 4.3
      vertex 4.55 -0.45 11.2
      vertex 5.45 -0.45 11.2
    endloop
  endfacet
  facet normal 0 1 0
    outer loop
      vertex 4.55 -0.45 11.2
      vertex 5.45 -0.45 4.3
      vertex 4.55 -0.45 4.3
    endloop
  endfacet
  facet normal 0 -0.923077 0.384615
    outer loop
      vertex 4.5 0.5 11.2
      vertex 5.70833 0.708333 11.7
      vertex 4.29167 0.708333 11.7
    endloop
  endfacet
  facet normal 0 -0.923077 0.384615
    outer loop
      vertex 5.70833 0.708333 11.7
      vertex 4.5 0.5 11.2
      vertex 5.5 0.5 11.2
    endloop
  endfacet
  facet normal 0 0 1
    outer loop
      vertex 5.5 0.5 11.2
      vertex 5.45 0.45 11.2
      vertex 5.5 -0.5 11.2
    endloop
  endfacet
  facet normal 0 0 1
    outer loop
      vertex 5.5 0.5 11.2
      vertex 4.55 0.45 11.2
      vertex 5.45 0.45 11.2
    endloop
  endfacet
  facet normal 0 0 1
    outer loop
      vertex 4.55 0.45 11.2
      vertex 4.5 0.5 11.2
      vertex 4.55 -0.45 11.2
    endloop
  endfacet
  facet normal -0 0 1
    outer loop
      vertex 4.5 0.5 11.2
      vertex 4.55 0.45 11.2
      vertex 5.5 0.5 11.2
    endloop
  endfacet
  facet normal -0 0 1
    outer loop
      vertex 5.45 -0.45 11.2
      vertex 5.5 -0.5 11.2
      vertex 5.45 0.45 11.2
    endloop
  endfacet
  facet normal -0 0 1
    outer loop
      vertex 4.55 -0.45 11.2
      vertex 5.5 -0.5 11.2
      vertex 5.45 -0.45 11.2
    endloop
  endfacet
  facet normal 0 0 1
    outer loop
      vertex 4.55 -0.45 11.2
      vertex 4.5 -0.5 11.2
      vertex 5.5 -0.5 11.2
    endloop
  endfacet
  facet normal 0 0 1
    outer loop
      vertex 4.5 -0.5 11.2
      vertex 4.55 -0.45 11.2
      vertex 4.5 0.5 11.2
    endloop
  endfacet
  facet normal 0.923079 0 0.38461
    outer loop
      vertex 4.29167 0.708333 11.7
      vertex 4.5 -0.5 11.2
      vertex 4.5 0.5 11.2
    endloop
  endfacet
  facet normal 0.923079 0 0.38461
    outer loop
      vertex 4.5 -0.5 11.2
      vertex 4.29167 0.708333 11.7
      vertex 4.29167 -0.708333 11.7
    endloop
  endfacet
  facet normal -0.923079 0 0.38461
    outer loop
      vertex 5.5 -0.5 11.2
      vertex 5.70833 0.708333 11.7
      vertex 5.5 0.5 11.2
    endloop
  endfacet
  facet normal -0.923079 0 0.38461
    outer loop
      vertex 5.70833 0.708333 11.7
      vertex 5.5 -0.5 11.2
      vertex 5.70833 -0.708333 11.7
    endloop
  endfacet
  facet normal 0 0.923077 0.384615
    outer loop
      vertex 5.5 -0.5 11.2
      vertex 4.29167 -0.708333 11.7
      vertex 5.70833 -0.708333 11.7
    endloop
  endfacet
  facet normal 0 0.923077 0.384615
    outer loop
      vertex 4.29167 -0.708333 11.7
      vertex 5.5 -0.5 11.2
      vertex 4.5 -0.5 11.2
    endloop
  endfacet
  facet normal 0 0 -1
    outer loop
      vertex 4.65 -0.15 0
      vertex 5.35 0.15 0
      vertex 5.35 -0.15 0
    endloop
  endfacet
  facet normal -0 0 -1
    outer loop
      vertex 5.35 0.15 0
      vertex 4.65 -0.15 0
      vertex 4.65 0.15 0
    endloop
  endfacet
  facet normal -1 0 0
    outer loop
      vertex 4.65 -0.15 0
      vertex 4.65 0.15 3.3
      vertex 4.65 0.15 0
    endloop
  endfacet
  facet normal -1 -0 0
    outer loop
      vertex 4.65 0.15 3.3
      vertex 4.65 -0.15 0
      vertex 4.65 -0.15 3.3
    endloop
  endfacet
  facet normal 0 1 -0
    outer loop
      vertex 5.35 0.15 0
      vertex 4.65 0.15 3.3
      vertex 5.35 0.15 3.3
    endloop
  endfacet
  facet normal 0 1 0
    outer loop
      vertex 4.65 0.15 3.3
      vertex 5.35 0.15 0
      vertex 4.65 0.15 0
    endloop
  endfacet
  facet normal 1 -0 0
    outer loop
      vertex 5.35 -0.15 3.3
      vertex 5.35 0.15 0
      vertex 5.35 0.15 3.3
    endloop
  endfacet
  facet normal 1 0 0
    outer loop
      vertex 5.35 0.15 0
      vertex 5.35 -0.15 3.3
      vertex 5.35 -0.15 0
    endloop
  endfacet
  facet normal 0 -1 0
    outer loop
      vertex 4.65 -0.15 0
      vertex 5.35 -0.15 3.3
      vertex 4.65 -0.15 3.3
    endloop
  endfacet
  facet normal 0 -1 -0
    outer loop
      vertex 5.35 -0.15 3.3
      vertex 4.65 -0.15 0
      vertex 5.35 -0.15 0
    endloop
  endfacet
  facet normal -0 0 1
    outer loop
      vertex 7.05 0.45 4.3
      vertex 7.95 -0.45 4.3
      vertex 7.95 0.45 4.3
    endloop
  endfacet
  facet normal 0 0 1
    outer loop
      vertex 7.95 -0.45 4.3
      vertex 7.05 0.45 4.3
      vertex 7.05 -0.45 4.3
    endloop
  endfacet
  facet normal 1 -0 0
    outer loop
      vertex 7.05 -0.45 11.2
      vertex 7.05 0.45 4.3
      vertex 7.05 0.45 11.2
    endloop
  endfacet
  facet normal 1 0 0
    outer loop
      vertex 7.05 0.45 4.3
      vertex 7.05 -0.45 11.2
      vertex 7.05 -0.45 4.3
    endloop
  endfacet
  facet normal 0 -1 0
    outer loop
      vertex 7.05 0.45 4.3
      vertex 7.95 0.45 11.2
      vertex 7.05 0.45 11.2
    endloop
  endfacet
  facet normal 0 -1 -0
    outer loop
      vertex 7.95 0.45 11.2
      vertex 7.05 0.45 4.3
      vertex 7.95 0.45 4.3
    endloop
  endfacet
  facet normal -1 0 0
    outer loop
      vertex 7.95 -0.45 4.3
      vertex 7.95 0.45 11.2
      vertex 7.95 0.45 4.3
    endloop
  endfacet
  facet normal -1 -0 0
    outer loop
      vertex 7.95 0.45 11.2
      vertex 7.95 -0.45 4.3
      vertex 7.95 -0.45 11.2
    endloop
  endfacet
  facet normal 0 1 -0
    outer loop
      vertex 7.95 -0.45 4.3
      vertex 7.05 -0.45 11.2
      vertex 7.95 -0.45 11.2
    endloop
  endfacet
  facet normal 0 1 0
    outer loop
      vertex 7.05 -0.45 11.2
      vertex 7.95 -0.45 4.3
      vertex 7.05 -0.45 4.3
    endloop
  endfacet
  facet normal 0 -0.923077 0.384615
    outer loop
      vertex 7 0.5 11.2
      vertex 8.20833 0.708333 11.7
      vertex 6.79167 0.708333 11.7
    endloop
  endfacet
  facet normal 0 -0.923077 0.384615
    outer loop
      vertex 8.20833 0.708333 11.7
      vertex 7 0.5 11.2
      vertex 8 0.5 11.2
    endloop
  endfacet
  facet normal 0 0 1
    outer loop
      vertex 8 0.5 11.2
      vertex 7.95 0.45 11.2
      vertex 8 -0.5 11.2
    endloop
  endfacet
  facet normal 0 0 1
    outer loop
      vertex 8 0.5 11.2
      vertex 7.05 0.45 11.2
      vertex 7.95 0.45 11.2
    endloop
  endfacet
  facet normal 0 0 1
    outer loop
      vertex 7.05 0.45 11.2
      vertex 7 0.5 11.2
      vertex 7.05 -0.45 11.2
    endloop
  endfacet
  facet normal -0 0 1
    outer loop
      vertex 7 0.5 11.2
      vertex 7.05 0.45 11.2
      vertex 8 0.5 11.2
    endloop
  endfacet
  facet normal -0 0 1
    outer loop
      vertex 7.95 -0.45 11.2
      vertex 8 -0.5 11.2
      vertex 7.95 0.45 11.2
    endloop
  endfacet
  facet normal -0 0 1
    outer loop
      vertex 7.05 -0.45 11.2
      vertex 8 -0.5 11.2
      vertex 7.95 -0.45 11.2
    endloop
  endfacet
  facet normal 0 0 1
    outer loop
      vertex 7.05 -0.45 11.2
      vertex 7 -0.5 11.2
      vertex 8 -0.5 11.2
    endloop
  endfacet
  facet normal 0 0 1
    outer loop
      vertex 7 -0.5 11.2
      vertex 7.05 -0.45 11.2
      vertex 7 0.5 11.2
    endloop
  endfacet
  facet normal 0.923079 0 0.38461
    outer loop
      vertex 6.79167 0.708333 11.7
      vertex 7 -0.5 11.2
      vertex 7 0.5 11.2
    endloop
  endfacet
  facet normal 0.923079 0 0.38461
    outer loop
      vertex 7 -0.5 11.2
      vertex 6.79167 0.708333 11.7
      vertex 6.79167 -0.708333 11.7
    endloop
  endfacet
  facet normal -0.923079 0 0.38461
    outer loop
      vertex 8 -0.5 11.2
      vertex 8.20833 0.708333 11.7
      vertex 8 0.5 11.2
    endloop
  endfacet
  facet normal -0.923079 0 0.38461
    outer loop
      vertex 8.20833 0.708333 11.7
      vertex 8 -0.5 11.2
      vertex 8.20833 -0.708333 11.7
    endloop
  endfacet
  facet normal 0 0.923077 0.384615
    outer loop
      vertex 8 -0.5 11.2
      vertex 6.79167 -0.708333 11.7
      vertex 8.20833 -0.708333 11.7
    endloop
  endfacet
  facet normal 0 0.923077 0.384615
    outer loop
      vertex 6.79167 -0.708333 11.7
      vertex 8 -0.5 11.2
      vertex 7 -0.5 11.2
    endloop
  endfacet
  facet normal 0 0 -1
    outer loop
      vertex 7.15 -0.15 0
      vertex 7.85 0.15 0
      vertex 7.85 -0.15 0
    endloop
  endfacet
  facet normal -0 0 -1
    outer loop
      vertex 7.85 0.15 0
      vertex 7.15 -0.15 0
      vertex 7.15 0.15 0
    endloop
  endfacet
  facet normal -1 0 0
    outer loop
      vertex 7.15 -0.15 0
      vertex 7.15 0.15 3.3
      vertex 7.15 0.15 0
    endloop
  endfacet
  facet normal -1 -0 0
    outer loop
      vertex 7.15 0.15 3.3
      vertex 7.15 -0.15 0
      vertex 7.15 -0.15 3.3
    endloop
  endfacet
  facet normal 0 1 -0
    outer loop
      vertex 7.85 0.15 0
      vertex 7.15 0.15 3.3
      vertex 7.85 0.15 3.3
    endloop
  endfacet
  facet normal 0 1 0
    outer loop
      vertex 7.15 0.15 3.3
      vertex 7.85 0.15 0
      vertex 7.15 0.15 0
    endloop
  endfacet
  facet normal 1 -0 0
    outer loop
      vertex 7.85 -0.15 3.3
      vertex 7.85 0.15 0
      vertex 7.85 0.15 3.3
    endloop
  endfacet
  facet normal 1 0 0
    outer loop
      vertex 7.85 0.15 0
      vertex 7.85 -0.15 3.3
      vertex 7.85 -0.15 0
    endloop
  endfacet
  facet normal 0 -1 0
    outer loop
      vertex 7.15 -0.15 0
      vertex 7.85 -0.15 3.3
      vertex 7.15 -0.15 3.3
    endloop
  endfacet
  facet normal 0 -1 -0
    outer loop
      vertex 7.85 -0.15 3.3
      vertex 7.15 -0.15 0
      vertex 7.85 -0.15 0
    endloop
  endfacet
  facet normal 1 -0 0
    outer loop
      vertex 11.275 -1.275 11.7
      vertex 11.275 1.275 3.3
      vertex 11.275 1.275 11.7
    endloop
  endfacet
  facet normal 1 0 0
    outer loop
      vertex 11.275 1.275 3.3
      vertex 11.275 -1.275 11.7
      vertex 11.275 -1.275 3.3
    endloop
  endfacet
  facet normal -0 0 1
    outer loop
      vertex 9.55 0.45 4.3
      vertex 10.45 -0.45 4.3
      vertex 10.45 0.45 4.3
    endloop
  endfacet
  facet normal 0 0 1
    outer loop
      vertex 10.45 -0.45 4.3
      vertex 9.55 0.45 4.3
      vertex 9.55 -0.45 4.3
    endloop
  endfacet
  facet normal 1 -0 0
    outer loop
      vertex 9.55 -0.45 11.2
      vertex 9.55 0.45 4.3
      vertex 9.55 0.45 11.2
    endloop
  endfacet
  facet normal 1 0 0
    outer loop
      vertex 9.55 0.45 4.3
      vertex 9.55 -0.45 11.2
      vertex 9.55 -0.45 4.3
    endloop
  endfacet
  facet normal 0 -1 0
    outer loop
      vertex 9.55 0.45 4.3
      vertex 10.45 0.45 11.2
      vertex 9.55 0.45 11.2
    endloop
  endfacet
  facet normal 0 -1 -0
    outer loop
      vertex 10.45 0.45 11.2
      vertex 9.55 0.45 4.3
      vertex 10.45 0.45 4.3
    endloop
  endfacet
  facet normal -1 0 0
    outer loop
      vertex 10.45 -0.45 4.3
      vertex 10.45 0.45 11.2
      vertex 10.45 0.45 4.3
    endloop
  endfacet
  facet normal -1 -0 0
    outer loop
      vertex 10.45 0.45 11.2
      vertex 10.45 -0.45 4.3
      vertex 10.45 -0.45 11.2
    endloop
  endfacet
  facet normal 0 1 -0
    outer loop
      vertex 10.45 -0.45 4.3
      vertex 9.55 -0.45 11.2
      vertex 10.45 -0.45 11.2
    endloop
  endfacet
  facet normal 0 1 0
    outer loop
      vertex 9.55 -0.45 11.2
      vertex 10.45 -0.45 4.3
      vertex 9.55 -0.45 4.3
    endloop
  endfacet
  facet normal 0 -0.923077 0.384615
    outer loop
      vertex 9.5 0.5 11.2
      vertex 10.7083 0.708333 11.7
      vertex 9.29167 0.708333 11.7
    endloop
  endfacet
  facet normal 0 -0.923077 0.384615
    outer loop
      vertex 10.7083 0.708333 11.7
      vertex 9.5 0.5 11.2
      vertex 10.5 0.5 11.2
    endloop
  endfacet
  facet normal 0 0 1
    outer loop
      vertex 10.5 0.5 11.2
      vertex 10.45 0.45 11.2
      vertex 10.5 -0.5 11.2
    endloop
  endfacet
  facet normal 0 0 1
    outer loop
      vertex 10.5 0.5 11.2
      vertex 9.55 0.45 11.2
      vertex 10.45 0.45 11.2
    endloop
  endfacet
  facet normal 0 0 1
    outer loop
      vertex 9.55 0.45 11.2
      vertex 9.5 0.5 11.2
      vertex 9.55 -0.45 11.2
    endloop
  endfacet
  facet normal -0 0 1
    outer loop
      vertex 9.5 0.5 11.2
      vertex 9.55 0.45 11.2
      vertex 10.5 0.5 11.2
    endloop
  endfacet
  facet normal -0 0 1
    outer loop
      vertex 10.45 -0.45 11.2
      vertex 10.5 -0.5 11.2
      vertex 10.45 0.45 11.2
    endloop
  endfacet
  facet normal -0 0 1
    outer loop
      vertex 9.55 -0.45 11.2
      vertex 10.5 -0.5 11.2
      vertex 10.45 -0.45 11.2
    endloop
  endfacet
  facet normal 0 0 1
    outer loop
      vertex 9.55 -0.45 11.2
      vertex 9.5 -0.5 11.2
      vertex 10.5 -0.5 11.2
    endloop
  endfacet
  facet normal 0 0 1
    outer loop
      vertex 9.5 -0.5 11.2
      vertex 9.55 -0.45 11.2
      vertex 9.5 0.5 11.2
    endloop
  endfacet
  facet normal 0.923079 0 0.38461
    outer loop
      vertex 9.29167 0.708333 11.7
      vertex 9.5 -0.5 11.2
      vertex 9.5 0.5 11.2
    endloop
  endfacet
  facet normal 0.923079 0 0.38461
    outer loop
      vertex 9.5 -0.5 11.2
      vertex 9.29167 0.708333 11.7
      vertex 9.29167 -0.708333 11.7
    endloop
  endfacet
  facet normal -0.923099 0 0.384563
    outer loop
      vertex 10.5 -0.5 11.2
      vertex 10.7083 0.708333 11.7
      vertex 10.5 0.5 11.2
    endloop
  endfacet
  facet normal -0.923099 0 0.384563
    outer loop
      vertex 10.7083 0.708333 11.7
      vertex 10.5 -0.5 11.2
      vertex 10.7083 -0.708333 11.7
    endloop
  endfacet
  facet normal 0 0.923077 0.384615
    outer loop
      vertex 10.5 -0.5 11.2
      vertex 9.29167 -0.708333 11.7
      vertex 10.7083 -0.708333 11.7
    endloop
  endfacet
  facet normal 0 0.923077 0.384615
    outer loop
      vertex 9.29167 -0.708333 11.7
      vertex 10.5 -0.5 11.2
      vertex 9.5 -0.5 11.2
    endloop
  endfacet
  facet normal 0 0 -1
    outer loop
      vertex 9.65 -0.15 0
      vertex 10.35 0.15 0
      vertex 10.35 -0.15 0
    endloop
  endfacet
  facet normal -0 0 -1
    outer loop
      vertex 10.35 0.15 0
      vertex 9.65 -0.15 0
      vertex 9.65 0.15 0
    endloop
  endfacet
  facet normal -1 0 0
    outer loop
      vertex 9.65 -0.15 0
      vertex 9.65 0.15 3.3
      vertex 9.65 0.15 0
    endloop
  endfacet
  facet normal -1 -0 0
    outer loop
      vertex 9.65 0.15 3.3
      vertex 9.65 -0.15 0
      vertex 9.65 -0.15 3.3
    endloop
  endfacet
  facet normal 0 1 -0
    outer loop
      vertex 10.35 0.15 0
      vertex 9.65 0.15 3.3
      vertex 10.35 0.15 3.3
    endloop
  endfacet
  facet normal 0 1 0
    outer loop
      vertex 9.65 0.15 3.3
      vertex 10.35 0.15 0
      vertex 9.65 0.15 0
    endloop
  endfacet
  facet normal 1 -0 0
    outer loop
      vertex 10.35 -0.15 3.3
      vertex 10.35 0.15 0
      vertex 10.35 0.15 3.3
    endloop
  endfacet
  facet normal 1 0 0
    outer loop
      vertex 10.35 0.15 0
      vertex 10.35 -0.15 3.3
      vertex 10.35 -0.15 0
    endloop
  endfacet
  facet normal 0 -1 0
    outer loop
      vertex 9.65 -0.15 0
      vertex 10.35 -0.15 3.3
      vertex 9.65 -0.15 3.3
    endloop
  endfacet
  facet normal 0 -1 -0
    outer loop
      vertex 10.35 -0.15 3.3
      vertex 9.65 -0.15 0
      vertex 10.35 -0.15 0
    endloop
  endfacet
endsolid OpenSCAD_Model
